<svg width="347" height="197" viewBox="0 0 347 197" fill="none" xmlns="http://www.w3.org/2000/svg">
<rect width="347" height="196.502" rx="4" fill="#E8F0FE"/>
<g clip-path="url(#clip0)">
<rect x="120" y="44" width="107" height="107" rx="53.5" fill="white"/>
<path d="M173.5 150.5C163.07 150.5 153.582 144.626 146.682 135.038C139.783 125.451 135.5 112.181 135.5 97.5C135.5 82.8194 139.783 69.5493 146.682 59.9618C153.582 50.3737 163.07 44.5 173.5 44.5C183.93 44.5 193.418 50.3737 200.318 59.9618C207.217 69.5493 211.5 82.8194 211.5 97.5C211.5 112.181 207.217 125.451 200.318 135.038C193.418 144.626 183.93 150.5 173.5 150.5Z" fill="white" stroke="#1A73E8"/>
<path d="M173.5 150.5C171.764 150.5 169.987 149.195 168.277 146.526C166.581 143.88 165.035 140.017 163.73 135.199C161.12 125.571 159.5 112.243 159.5 97.5C159.5 82.7575 161.12 69.4285 163.73 59.8006C165.035 54.983 166.581 51.1205 168.277 48.4741C169.987 45.8046 171.764 44.5 173.5 44.5C175.236 44.5 177.013 45.8046 178.723 48.4741C180.419 51.1205 181.965 54.983 183.27 59.8006C185.88 69.4285 187.5 82.7575 187.5 97.5C187.5 112.243 185.88 125.571 183.27 135.199C181.965 140.017 180.419 143.88 178.723 146.526C177.013 149.195 175.236 150.5 173.5 150.5Z" fill="white" stroke="#1A73E8"/>
<line x1="120" y1="97.5" x2="227" y2="97.5" stroke="#1A73E8"/>
<line x1="120" y1="69.5" x2="227" y2="69.5" stroke="#1A73E8"/>
<line x1="120" y1="128.5" x2="227" y2="128.5" stroke="#1A73E8"/>
</g>
<rect x="120" y="44" width="107" height="107" rx="53.5" stroke="#1A73E8"/>
<line x1="101.129" y1="53.5169" x2="161.129" y2="69.5169" stroke="#1A73E8"/>
<line x1="118.858" y1="141.52" x2="162.858" y2="128.52" stroke="#1A73E8"/>
<g clip-path="url(#clip1)">
<rect x="226.595" y="24.5949" width="34.5063" height="55.9241" rx="4.16456" fill="white"/>
<path d="M233.14 73.9747L243.849 63.2659C249.763 63.2659 254.557 58.4714 254.557 52.557V73.9747H233.14Z" fill="#FCC934"/>
<path d="M254.558 31.1393L243.849 41.8481C237.934 41.8481 233.14 46.6427 233.14 52.557L233.14 31.1393L254.558 31.1393Z" fill="#1A73E8"/>
<path d="M243.849 41.8481L233.14 52.557C233.14 58.4713 237.934 63.2659 243.849 63.2659L254.557 52.557V41.8481H243.849Z" fill="#57E690"/>
<rect x="226.595" y="24.5949" width="34.5063" height="55.9241" rx="4.16456" stroke="#1A73E8" stroke-width="1.18987"/>
<rect x="227.189" y="84.6835" width="16.6582" height="2.37975" rx="1.18987" fill="#1A73E8"/>
</g>
<g clip-path="url(#clip2)">
<rect x="244.595" y="109.595" width="34.5067" height="55.9241" rx="4.16456" fill="white"/>
<path d="M251.14 137.557C257.054 137.557 262.409 135.16 266.284 131.284L272.557 137.557C266.643 137.557 261.288 139.955 257.413 143.831L251.14 137.557Z" fill="#1A73E8"/>
<path d="M251.14 137.557L261.849 126.848L266.284 131.284C270.16 127.408 272.557 122.054 272.557 116.139L251.14 116.139V137.557Z" fill="#FF6846"/>
<path d="M272.558 137.557L261.849 148.266L257.413 143.83C253.537 147.706 251.14 153.06 251.14 158.975L272.558 158.975L272.558 137.557Z" fill="#57E690"/>
<rect x="244.595" y="109.595" width="34.5067" height="55.9241" rx="4.16456" stroke="#1A73E8" stroke-width="1.18987"/>
<rect x="245.19" y="169.684" width="16.6582" height="2.37975" rx="1.18987" fill="#1A73E8"/>
</g>
<g clip-path="url(#clip3)">
<rect x="84.5949" y="110.595" width="34.5066" height="55.9241" rx="4.16456" fill="white"/>
<path fill-rule="evenodd" clip-rule="evenodd" d="M101.849 117.139L112.557 127.848L109.421 130.985C107.483 129.047 104.806 127.848 101.849 127.848C98.8914 127.848 96.2142 129.047 94.2762 130.985L91.1396 127.848L101.849 117.139Z" fill="#57E690"/>
<path fill-rule="evenodd" clip-rule="evenodd" d="M101.849 149.266C95.9344 149.266 91.1396 144.472 91.1396 138.557C91.1396 135.6 92.3381 132.923 94.2762 130.985L101.849 138.557L109.421 130.985C111.359 132.923 112.557 135.6 112.557 138.557L101.849 149.266Z" fill="#FCC934"/>
<path fill-rule="evenodd" clip-rule="evenodd" d="M112.557 149.266H101.849L91.1396 159.975H112.557V149.266Z" fill="#FF6846"/>
<rect x="84.5949" y="110.595" width="34.5066" height="55.9241" rx="4.16456" stroke="#1A73E8" stroke-width="1.18987"/>
<rect x="85.1904" y="170.683" width="16.6582" height="2.37975" rx="1.18987" fill="#1A73E8"/>
</g>
<g clip-path="url(#clip4)">
<rect x="66.5949" y="25.5949" width="34.5065" height="55.9241" rx="4.16456" fill="white"/>
<path d="M94.5574 42.8481C94.5574 36.9337 89.7626 32.1392 83.8485 32.1392C77.9344 32.1392 73.1396 36.9337 73.1396 42.8481H94.5574Z" fill="#1A73E8"/>
<path d="M73.1396 53.557V42.8481C73.1396 48.7625 77.9344 53.557 83.8485 53.557H94.5574V64.2659H91.6919C87.9886 57.8641 81.0671 53.557 73.1396 53.557Z" fill="#FF6846"/>
<path d="M91.6919 64.2659H73.1396V74.9747H94.5574C94.5574 71.0736 93.5141 67.4161 91.6919 64.2659Z" fill="#FCC934"/>
<rect x="66.5949" y="25.5949" width="34.5065" height="55.9241" rx="4.16456" stroke="#1A73E8" stroke-width="1.18987"/>
<rect x="67.1895" y="85.6835" width="16.6582" height="2.37975" rx="1.18987" fill="#1A73E8"/>
</g>
<line x1="226.182" y1="53.4658" x2="185.182" y2="69.4658" stroke="#1A73E8"/>
<line x1="243.919" y1="138.493" x2="182.919" y2="128.493" stroke="#1A73E8"/>
<defs>
<clipPath id="clip0">
<rect x="120" y="44" width="107" height="107" rx="53.5" fill="white"/>
</clipPath>
<clipPath id="clip1">
<rect width="35.6962" height="63.0633" fill="white" transform="translate(226 24)"/>
</clipPath>
<clipPath id="clip2">
<rect width="35.6962" height="63.0633" fill="white" transform="translate(244 109)"/>
</clipPath>
<clipPath id="clip3">
<rect width="35.6962" height="63.0633" fill="white" transform="translate(84 110)"/>
</clipPath>
<clipPath id="clip4">
<rect width="35.6962" height="63.0633" fill="white" transform="translate(66 25)"/>
</clipPath>
</defs>
</svg>
