<svg width="721" height="265" viewBox="0 0 721 265" fill="none" xmlns="http://www.w3.org/2000/svg">
<g clip-path="url(#clip0)">
<rect width="721" height="265" fill="white"/>
<path d="M231.171 54.1294C231.243 53.8627 231.085 53.5885 230.818 53.517L226.471 52.3524C226.204 52.2809 225.93 52.4392 225.859 52.7059C225.787 52.9726 225.946 53.2468 226.212 53.3183L230.076 54.3536L229.041 58.2173C228.969 58.484 229.128 58.7582 229.394 58.8296C229.661 58.9011 229.935 58.7428 230.007 58.4761L231.171 54.1294ZM80.25 141.433L230.938 54.433L230.438 53.567L79.75 140.567L80.25 141.433Z" fill="#1A73E8"/>
<path d="M482.354 195.354C482.549 195.158 482.549 194.842 482.354 194.646L479.172 191.464C478.976 191.269 478.66 191.269 478.464 191.464C478.269 191.66 478.269 191.976 478.464 192.172L481.293 195L478.464 197.828C478.269 198.024 478.269 198.34 478.464 198.536C478.66 198.731 478.976 198.731 479.172 198.536L482.354 195.354ZM131 195.5H482V194.5H131V195.5Z" fill="#1A73E8"/>
<path d="M510.803 127.193C510.875 127.46 510.716 127.734 510.45 127.806L506.103 128.97C505.836 129.042 505.562 128.884 505.491 128.617C505.419 128.35 505.578 128.076 505.844 128.004L509.708 126.969L508.673 123.105C508.601 122.839 508.759 122.565 509.026 122.493C509.293 122.422 509.567 122.58 509.639 122.847L510.803 127.193ZM501.07 143.344L364.545 64.5214L365.045 63.6554L501.57 142.478L501.07 143.344ZM374.045 48.0669L510.57 126.89L510.07 127.756L373.545 48.9329L374.045 48.0669ZM361.068 51.5441C363.691 47.0004 369.501 45.4435 374.045 48.0669L373.545 48.9329C369.48 46.5857 364.281 47.9786 361.934 52.0441L361.068 51.5441ZM364.545 64.5214C360.001 61.898 358.445 56.0879 361.068 51.5441L361.934 52.0441C359.587 56.1096 360.98 61.3081 365.045 63.6554L364.545 64.5214Z" fill="#1A73E8"/>
<path d="M4 101.256C3.06133 101.256 2.29333 101.053 1.696 100.648C1.09867 100.232 0.677333 99.704 0.432 99.064L2 98.376C2.192 98.8027 2.45867 99.128 2.8 99.352C3.152 99.576 3.552 99.688 4 99.688C4.43733 99.688 4.80533 99.6133 5.104 99.464C5.40267 99.304 5.552 99.0693 5.552 98.76C5.552 98.4613 5.424 98.2267 5.168 98.056C4.912 97.8853 4.51733 97.736 3.984 97.608L3.008 97.368C2.35733 97.208 1.81867 96.9253 1.392 96.52C0.965333 96.1147 0.752 95.6027 0.752 94.984C0.752 94.504 0.890667 94.0827 1.168 93.72C1.456 93.3573 1.84 93.08 2.32 92.888C2.8 92.6853 3.32267 92.584 3.888 92.584C4.64533 92.584 5.312 92.7387 5.888 93.048C6.464 93.3467 6.88 93.784 7.136 94.36L5.6 95.032C5.29067 94.4027 4.72533 94.088 3.904 94.088C3.50933 94.088 3.17867 94.168 2.912 94.328C2.64533 94.488 2.512 94.696 2.512 94.952C2.512 95.1973 2.61333 95.4 2.816 95.56C3.01867 95.7093 3.31733 95.8373 3.712 95.944L4.912 96.248C5.712 96.4507 6.31467 96.76 6.72 97.176C7.136 97.5813 7.344 98.0827 7.344 98.68C7.344 99.192 7.19467 99.6453 6.896 100.04C6.608 100.424 6.208 100.723 5.696 100.936C5.184 101.149 4.61867 101.256 4 101.256ZM11.8438 101.256C10.8518 101.256 10.0944 100.963 9.57175 100.376C9.05975 99.7787 8.80375 98.952 8.80375 97.896V92.84H10.5638V97.656C10.5638 98.3173 10.7184 98.8133 11.0278 99.144C11.3478 99.4747 11.7638 99.64 12.2758 99.64C12.6918 99.64 13.0598 99.5333 13.3798 99.32C13.6998 99.096 13.9451 98.8027 14.1158 98.44C14.2864 98.0773 14.3718 97.688 14.3718 97.272V92.84H16.1318V101H14.4678V99.944H14.3718C14.1478 100.328 13.8011 100.643 13.3318 100.888C12.8624 101.133 12.3664 101.256 11.8438 101.256ZM22.5323 101.256C21.9563 101.256 21.4389 101.128 20.9803 100.872C20.5216 100.616 20.1749 100.307 19.9403 99.944H19.8603V101H18.1803V89.544H19.9403V92.76L19.8603 93.912H19.9403C20.1749 93.5387 20.5216 93.224 20.9803 92.968C21.4389 92.712 21.9563 92.584 22.5323 92.584C23.2683 92.584 23.9349 92.7707 24.5323 93.144C25.1296 93.5173 25.5989 94.0347 25.9403 94.696C26.2923 95.3467 26.4683 96.088 26.4683 96.92C26.4683 97.752 26.2923 98.4987 25.9403 99.16C25.5989 99.8107 25.1296 100.323 24.5323 100.696C23.9349 101.069 23.2683 101.256 22.5323 101.256ZM22.2763 99.64C22.7029 99.64 23.1029 99.528 23.4763 99.304C23.8496 99.08 24.1483 98.76 24.3723 98.344C24.5963 97.928 24.7083 97.4533 24.7083 96.92C24.7083 96.3867 24.5963 95.9173 24.3723 95.512C24.1483 95.096 23.8496 94.776 23.4763 94.552C23.1029 94.328 22.7029 94.216 22.2763 94.216C21.8496 94.216 21.4496 94.328 21.0763 94.552C20.7136 94.776 20.4203 95.096 20.1963 95.512C19.9723 95.9173 19.8603 96.3867 19.8603 96.92C19.8603 97.4533 19.9723 97.928 20.1963 98.344C20.4203 98.76 20.7136 99.08 21.0763 99.304C21.4496 99.528 21.8496 99.64 22.2763 99.64ZM27.9928 92.84H29.6728V93.912H29.7528C29.9981 93.5173 30.3448 93.1973 30.7928 92.952C31.2408 92.7067 31.7208 92.584 32.2328 92.584C32.8194 92.584 33.3314 92.7227 33.7688 93C34.2061 93.2667 34.5208 93.624 34.7128 94.072C34.9901 93.624 35.3581 93.2667 35.8168 93C36.2861 92.7227 36.8354 92.584 37.4648 92.584C38.4034 92.584 39.1128 92.872 39.5928 93.448C40.0834 94.0133 40.3288 94.7867 40.3288 95.768V101H38.5688V96.072C38.5688 94.8347 38.0408 94.216 36.9848 94.216C36.4194 94.216 35.9554 94.4453 35.5928 94.904C35.2301 95.3627 35.0487 95.928 35.0487 96.6V101H33.2888V96.072C33.2888 94.8347 32.7448 94.216 31.6568 94.216C31.1021 94.216 30.6434 94.4453 30.2808 94.904C29.9288 95.3627 29.7528 95.928 29.7528 96.6V101H27.9928V92.84ZM43.3445 91.656C43.0138 91.656 42.7312 91.544 42.4965 91.32C42.2725 91.0853 42.1605 90.8027 42.1605 90.472C42.1605 90.1413 42.2725 89.864 42.4965 89.64C42.7312 89.4053 43.0138 89.288 43.3445 89.288C43.6752 89.288 43.9525 89.4053 44.1765 89.64C44.4112 89.864 44.5285 90.1413 44.5285 90.472C44.5285 90.8027 44.4112 91.0853 44.1765 91.32C43.9525 91.544 43.6752 91.656 43.3445 91.656ZM42.4645 92.84H44.2245V101H42.4645V92.84ZM49.6805 101.128C49.3178 101.128 48.9765 101.069 48.6565 100.952C48.3365 100.835 48.0752 100.68 47.8725 100.488C47.4138 100.029 47.1845 99.4053 47.1845 98.616V94.392H45.7605V92.84H47.1845V90.536H48.9445V92.84H50.9285V94.392H48.9445V98.232C48.9445 98.6693 49.0298 98.9787 49.2005 99.16C49.3605 99.3733 49.6378 99.48 50.0325 99.48C50.2138 99.48 50.3738 99.4587 50.5125 99.416C50.6512 99.3627 50.8005 99.2827 50.9605 99.176V100.888C50.6085 101.048 50.1818 101.128 49.6805 101.128ZM60.1281 101.256C59.3175 101.256 58.5868 101.069 57.9361 100.696C57.2961 100.323 56.7948 99.8107 56.4321 99.16C56.0801 98.4987 55.9041 97.752 55.9041 96.92C55.9041 96.088 56.0801 95.3467 56.4321 94.696C56.7948 94.0347 57.2961 93.5173 57.9361 93.144C58.5868 92.7707 59.3175 92.584 60.1281 92.584C61.0241 92.584 61.7868 92.7867 62.4161 93.192C63.0455 93.5973 63.4935 94.1467 63.7601 94.84L62.1441 95.512C61.7815 94.648 61.0935 94.216 60.0801 94.216C59.6428 94.216 59.2375 94.328 58.8641 94.552C58.5015 94.776 58.2081 95.096 57.9841 95.512C57.7708 95.9173 57.6641 96.3867 57.6641 96.92C57.6641 97.4533 57.7708 97.928 57.9841 98.344C58.2081 98.76 58.5015 99.08 58.8641 99.304C59.2375 99.528 59.6428 99.64 60.0801 99.64C60.5921 99.64 61.0295 99.528 61.3921 99.304C61.7655 99.0693 62.0481 98.7387 62.2401 98.312L63.8241 99C63.5148 99.6933 63.0455 100.243 62.4161 100.648C61.7868 101.053 61.0241 101.256 60.1281 101.256ZM69.0668 101.256C68.2454 101.256 67.5094 101.069 66.8588 100.696C66.2081 100.312 65.7014 99.7893 65.3388 99.128C64.9761 98.4667 64.7948 97.7307 64.7948 96.92C64.7948 96.1093 64.9761 95.3733 65.3388 94.712C65.7014 94.0507 66.2081 93.5333 66.8588 93.16C67.5094 92.776 68.2454 92.584 69.0668 92.584C69.8881 92.584 70.6241 92.776 71.2748 93.16C71.9254 93.544 72.4321 94.0667 72.7948 94.728C73.1574 95.3893 73.3388 96.12 73.3388 96.92C73.3388 97.7307 73.1574 98.4667 72.7948 99.128C72.4321 99.7893 71.9254 100.312 71.2748 100.696C70.6241 101.069 69.8881 101.256 69.0668 101.256ZM69.0668 99.64C69.5148 99.64 69.9308 99.5333 70.3148 99.32C70.6988 99.096 71.0028 98.7813 71.2268 98.376C71.4614 97.96 71.5788 97.4747 71.5788 96.92C71.5788 96.3653 71.4614 95.8853 71.2268 95.48C71.0028 95.0747 70.6988 94.7653 70.3148 94.552C69.9308 94.328 69.5148 94.216 69.0668 94.216C68.6188 94.216 68.2028 94.328 67.8188 94.552C67.4348 94.7653 67.1254 95.0747 66.8908 95.48C66.6668 95.8853 66.5548 96.3653 66.5548 96.92C66.5548 97.4747 66.6668 97.96 66.8908 98.376C67.1254 98.7813 67.4348 99.096 67.8188 99.32C68.2028 99.5333 68.6188 99.64 69.0668 99.64ZM74.8053 92.84H76.4853V93.912H76.5653C76.8106 93.5173 77.1573 93.1973 77.6053 92.952C78.0533 92.7067 78.5333 92.584 79.0453 92.584C79.6319 92.584 80.1439 92.7227 80.5813 93C81.0186 93.2667 81.3333 93.624 81.5253 94.072C81.8026 93.624 82.1706 93.2667 82.6293 93C83.0986 92.7227 83.6479 92.584 84.2773 92.584C85.2159 92.584 85.9253 92.872 86.4053 93.448C86.8959 94.0133 87.1413 94.7867 87.1413 95.768V101H85.3813V96.072C85.3813 94.8347 84.8533 94.216 83.7973 94.216C83.2319 94.216 82.7679 94.4453 82.4053 94.904C82.0426 95.3627 81.8612 95.928 81.8612 96.6V101H80.1013V96.072C80.1013 94.8347 79.5573 94.216 78.4693 94.216C77.9146 94.216 77.4559 94.4453 77.0933 94.904C76.7413 95.3627 76.5653 95.928 76.5653 96.6V101H74.8053V92.84ZM89.149 92.84H90.829V93.912H90.909C91.1543 93.5173 91.501 93.1973 91.949 92.952C92.397 92.7067 92.877 92.584 93.389 92.584C93.9757 92.584 94.4877 92.7227 94.925 93C95.3623 93.2667 95.677 93.624 95.869 94.072C96.1463 93.624 96.5143 93.2667 96.973 93C97.4423 92.7227 97.9917 92.584 98.621 92.584C99.5597 92.584 100.269 92.872 100.749 93.448C101.24 94.0133 101.485 94.7867 101.485 95.768V101H99.725V96.072C99.725 94.8347 99.197 94.216 98.141 94.216C97.5757 94.216 97.1117 94.4453 96.749 94.904C96.3863 95.3627 96.205 95.928 96.205 96.6V101H94.445V96.072C94.445 94.8347 93.901 94.216 92.813 94.216C92.2583 94.216 91.7997 94.4453 91.437 94.904C91.085 95.3627 90.909 95.928 90.909 96.6V101H89.149V92.84ZM105.975 101.256C105.388 101.256 104.865 101.144 104.407 100.92C103.948 100.685 103.591 100.36 103.335 99.944C103.079 99.5173 102.951 99.0373 102.951 98.504C102.951 97.6613 103.265 96.9947 103.895 96.504C104.535 96.0133 105.34 95.768 106.311 95.768C106.791 95.768 107.223 95.816 107.607 95.912C107.991 95.9973 108.295 96.0933 108.519 96.2V95.784C108.519 95.2827 108.332 94.8773 107.959 94.568C107.585 94.248 107.105 94.088 106.519 94.088C106.103 94.088 105.708 94.1787 105.335 94.36C104.972 94.5413 104.679 94.792 104.455 95.112L103.223 94.168C103.585 93.6667 104.055 93.2773 104.631 93C105.207 92.7227 105.847 92.584 106.551 92.584C107.735 92.584 108.647 92.8773 109.287 93.464C109.927 94.04 110.247 94.856 110.247 95.912V101H108.519V100.024H108.439C108.204 100.376 107.873 100.669 107.447 100.904C107.02 101.139 106.529 101.256 105.975 101.256ZM106.279 99.8C106.705 99.8 107.089 99.6987 107.431 99.496C107.772 99.2933 108.039 99.0213 108.231 98.68C108.423 98.3387 108.519 97.9707 108.519 97.576C108.273 97.4373 107.985 97.3253 107.655 97.24C107.335 97.1547 106.999 97.112 106.647 97.112C105.985 97.112 105.5 97.2453 105.191 97.512C104.881 97.768 104.727 98.104 104.727 98.52C104.727 98.8933 104.871 99.2027 105.159 99.448C105.447 99.6827 105.82 99.8 106.279 99.8ZM112.165 92.84H113.845V93.912H113.925C114.159 93.528 114.506 93.2133 114.965 92.968C115.434 92.712 115.93 92.584 116.453 92.584C117.445 92.584 118.197 92.8773 118.709 93.464C119.231 94.04 119.493 94.8293 119.493 95.832V101H117.733V96.072C117.733 95.432 117.573 94.9627 117.253 94.664C116.943 94.3653 116.511 94.216 115.957 94.216C115.562 94.216 115.21 94.328 114.901 94.552C114.591 94.7653 114.351 95.0533 114.181 95.416C114.01 95.7787 113.925 96.168 113.925 96.584V101H112.165V92.84ZM124.965 101.256C124.229 101.256 123.562 101.069 122.965 100.696C122.368 100.323 121.893 99.8107 121.541 99.16C121.2 98.4987 121.029 97.752 121.029 96.92C121.029 96.088 121.2 95.3467 121.541 94.696C121.893 94.0347 122.368 93.5173 122.965 93.144C123.562 92.7707 124.229 92.584 124.965 92.584C125.541 92.584 126.058 92.712 126.517 92.968C126.976 93.224 127.322 93.5387 127.557 93.912H127.637L127.557 92.76V89.544H129.317V101H127.637V99.944H127.557C127.322 100.307 126.976 100.616 126.517 100.872C126.058 101.128 125.541 101.256 124.965 101.256ZM125.221 99.64C125.648 99.64 126.042 99.528 126.405 99.304C126.778 99.08 127.077 98.76 127.301 98.344C127.525 97.928 127.637 97.4533 127.637 96.92C127.637 96.3867 127.525 95.9173 127.301 95.512C127.077 95.096 126.778 94.776 126.405 94.552C126.042 94.328 125.648 94.216 125.221 94.216C124.794 94.216 124.394 94.328 124.021 94.552C123.648 94.776 123.349 95.096 123.125 95.512C122.901 95.9173 122.789 96.3867 122.789 96.92C122.789 97.4533 122.901 97.928 123.125 98.344C123.349 98.76 123.648 99.08 124.021 99.304C124.394 99.528 124.794 99.64 125.221 99.64Z" fill="#202124"/>
<path d="M143 96C143 90.4772 147.477 86 153 86V86C158.523 86 163 90.4772 163 96V96C163 101.523 158.523 106 153 106V106C147.477 106 143 101.523 143 96V96Z" fill="white"/>
<path d="M152.619 92.975L150.939 94.19L150.099 92.915L153.114 90.74H154.269V101H152.619V92.975Z" fill="#1A73E8"/>
<path d="M153 105C148.029 105 144 100.971 144 96H142C142 102.075 146.925 107 153 107V105ZM162 96C162 100.971 157.971 105 153 105V107C159.075 107 164 102.075 164 96H162ZM153 87C157.971 87 162 91.0294 162 96H164C164 89.9249 159.075 85 153 85V87ZM153 85C146.925 85 142 89.9249 142 96H144C144 91.0294 148.029 87 153 87V85Z" fill="#1A73E8"/>
<path d="M448 96C448 90.4772 452.477 86 458 86V86C463.523 86 468 90.4772 468 96V96C468 101.523 463.523 106 458 106V106C452.477 106 448 101.523 448 96V96Z" fill="white"/>
<path d="M457.957 101.24C457.187 101.24 456.472 101.02 455.812 100.58C455.152 100.13 454.697 99.475 454.447 98.615L455.977 97.985C456.117 98.515 456.357 98.925 456.697 99.215C457.047 99.505 457.467 99.65 457.957 99.65C458.457 99.65 458.887 99.5 459.247 99.2C459.607 98.89 459.787 98.5 459.787 98.03C459.787 97.55 459.597 97.16 459.217 96.86C458.837 96.55 458.362 96.395 457.792 96.395H456.907V94.88H457.702C458.192 94.88 458.602 94.75 458.932 94.49C459.272 94.22 459.442 93.855 459.442 93.395C459.442 92.985 459.292 92.66 458.992 92.42C458.692 92.17 458.312 92.045 457.852 92.045C457.402 92.045 457.042 92.165 456.772 92.405C456.512 92.645 456.322 92.94 456.202 93.29L454.687 92.66C454.887 92.09 455.257 91.59 455.797 91.16C456.337 90.72 457.027 90.5 457.867 90.5C458.487 90.5 459.042 90.62 459.532 90.86C460.032 91.1 460.422 91.435 460.702 91.865C460.982 92.285 461.122 92.76 461.122 93.29C461.122 93.83 460.992 94.29 460.732 94.67C460.472 95.04 460.152 95.325 459.772 95.525V95.615C460.272 95.825 460.682 96.145 461.002 96.575C461.322 97.005 461.482 97.52 461.482 98.12C461.482 98.72 461.327 99.255 461.017 99.725C460.717 100.195 460.297 100.565 459.757 100.835C459.227 101.105 458.627 101.24 457.957 101.24Z" fill="#1A73E8"/>
<path d="M458 105C453.029 105 449 100.971 449 96H447C447 102.075 451.925 107 458 107V105ZM467 96C467 100.971 462.971 105 458 105V107C464.075 107 469 102.075 469 96H467ZM458 87C462.971 87 467 91.0294 467 96H469C469 89.9249 464.075 85 458 85V87ZM458 85C451.925 85 447 89.9249 447 96H449C449 91.0294 453.029 87 458 87V85Z" fill="#1A73E8"/>
<path d="M480.112 92.84H482.08L484.336 98.728H484.4L486.704 92.84H488.624L485.232 101H483.472L480.112 92.84ZM493.252 101.256C492.452 101.256 491.732 101.069 491.092 100.696C490.463 100.323 489.967 99.8107 489.604 99.16C489.252 98.4987 489.076 97.7573 489.076 96.936C489.076 96.1573 489.247 95.4373 489.588 94.776C489.94 94.104 490.425 93.5707 491.044 93.176C491.663 92.7813 492.367 92.584 493.156 92.584C493.977 92.584 494.687 92.7653 495.284 93.128C495.892 93.4907 496.351 93.9867 496.66 94.616C496.98 95.2453 497.14 95.9547 497.14 96.744C497.14 96.8933 497.124 97.08 497.092 97.304H490.836C490.9 98.0613 491.167 98.648 491.636 99.064C492.116 99.4693 492.671 99.672 493.3 99.672C493.801 99.672 494.233 99.56 494.596 99.336C494.969 99.1013 495.268 98.7867 495.492 98.392L496.98 99.096C496.596 99.768 496.095 100.296 495.476 100.68C494.857 101.064 494.116 101.256 493.252 101.256ZM495.348 95.96C495.327 95.672 495.236 95.3893 495.076 95.112C494.916 94.824 494.671 94.584 494.34 94.392C494.02 94.2 493.625 94.104 493.156 94.104C492.591 94.104 492.111 94.2747 491.716 94.616C491.332 94.9467 491.065 95.3947 490.916 95.96H495.348ZM498.743 92.84H500.423V94.04H500.503C500.684 93.624 500.999 93.2827 501.447 93.016C501.895 92.7387 502.369 92.6 502.871 92.6C503.265 92.6 503.596 92.6533 503.863 92.76V94.584C503.393 94.4133 502.972 94.328 502.599 94.328C502.193 94.328 501.831 94.4347 501.511 94.648C501.201 94.8613 500.956 95.1493 500.775 95.512C500.593 95.864 500.503 96.2533 500.503 96.68V101H498.743V92.84ZM506.22 91.656C505.889 91.656 505.606 91.544 505.372 91.32C505.148 91.0853 505.036 90.8027 505.036 90.472C505.036 90.1413 505.148 89.864 505.372 89.64C505.606 89.4053 505.889 89.288 506.22 89.288C506.55 89.288 506.828 89.4053 507.052 89.64C507.286 89.864 507.404 90.1413 507.404 90.472C507.404 90.8027 507.286 91.0853 507.052 91.32C506.828 91.544 506.55 91.656 506.22 91.656ZM505.34 92.84H507.1V101H505.34V92.84ZM510.202 94.392H508.714V92.84H510.202V92.2C510.202 91.3467 510.468 90.6693 511.002 90.168C511.535 89.6667 512.218 89.416 513.05 89.416C513.53 89.416 513.946 89.4747 514.298 89.592V91.32C514.106 91.2453 513.924 91.1867 513.754 91.144C513.594 91.0907 513.407 91.064 513.194 91.064C512.842 91.064 512.548 91.176 512.314 91.4C512.079 91.624 511.962 91.9333 511.962 92.328V92.84H514.01V94.392H511.962V101H510.202V94.392ZM518.161 100.552L514.769 92.84H516.737L519.041 98.392H519.105L521.345 92.84H523.281L518.241 104.456H516.385L518.161 100.552ZM531.956 101.256C531.146 101.256 530.415 101.069 529.764 100.696C529.124 100.323 528.623 99.8107 528.26 99.16C527.908 98.4987 527.732 97.752 527.732 96.92C527.732 96.088 527.908 95.3467 528.26 94.696C528.623 94.0347 529.124 93.5173 529.764 93.144C530.415 92.7707 531.146 92.584 531.956 92.584C532.852 92.584 533.615 92.7867 534.244 93.192C534.874 93.5973 535.322 94.1467 535.588 94.84L533.972 95.512C533.61 94.648 532.922 94.216 531.908 94.216C531.471 94.216 531.066 94.328 530.692 94.552C530.33 94.776 530.036 95.096 529.812 95.512C529.599 95.9173 529.492 96.3867 529.492 96.92C529.492 97.4533 529.599 97.928 529.812 98.344C530.036 98.76 530.33 99.08 530.692 99.304C531.066 99.528 531.471 99.64 531.908 99.64C532.42 99.64 532.858 99.528 533.22 99.304C533.594 99.0693 533.876 98.7387 534.068 98.312L535.652 99C535.343 99.6933 534.874 100.243 534.244 100.648C533.615 101.053 532.852 101.256 531.956 101.256ZM540.895 101.256C540.074 101.256 539.338 101.069 538.687 100.696C538.036 100.312 537.53 99.7893 537.167 99.128C536.804 98.4667 536.623 97.7307 536.623 96.92C536.623 96.1093 536.804 95.3733 537.167 94.712C537.53 94.0507 538.036 93.5333 538.687 93.16C539.338 92.776 540.074 92.584 540.895 92.584C541.716 92.584 542.452 92.776 543.103 93.16C543.754 93.544 544.26 94.0667 544.623 94.728C544.986 95.3893 545.167 96.12 545.167 96.92C545.167 97.7307 544.986 98.4667 544.623 99.128C544.26 99.7893 543.754 100.312 543.103 100.696C542.452 101.069 541.716 101.256 540.895 101.256ZM540.895 99.64C541.343 99.64 541.759 99.5333 542.143 99.32C542.527 99.096 542.831 98.7813 543.055 98.376C543.29 97.96 543.407 97.4747 543.407 96.92C543.407 96.3653 543.29 95.8853 543.055 95.48C542.831 95.0747 542.527 94.7653 542.143 94.552C541.759 94.328 541.343 94.216 540.895 94.216C540.447 94.216 540.031 94.328 539.647 94.552C539.263 94.7653 538.954 95.0747 538.719 95.48C538.495 95.8853 538.383 96.3653 538.383 96.92C538.383 97.4747 538.495 97.96 538.719 98.376C538.954 98.7813 539.263 99.096 539.647 99.32C540.031 99.5333 540.447 99.64 540.895 99.64ZM546.633 92.84H548.313V93.912H548.393C548.639 93.5173 548.985 93.1973 549.433 92.952C549.881 92.7067 550.361 92.584 550.873 92.584C551.46 92.584 551.972 92.7227 552.409 93C552.847 93.2667 553.161 93.624 553.353 94.072C553.631 93.624 553.999 93.2667 554.457 93C554.927 92.7227 555.476 92.584 556.105 92.584C557.044 92.584 557.753 92.872 558.233 93.448C558.724 94.0133 558.969 94.7867 558.969 95.768V101H557.209V96.072C557.209 94.8347 556.681 94.216 555.625 94.216C555.06 94.216 554.596 94.4453 554.233 94.904C553.871 95.3627 553.689 95.928 553.689 96.6V101H551.929V96.072C551.929 94.8347 551.385 94.216 550.297 94.216C549.743 94.216 549.284 94.4453 548.921 94.904C548.569 95.3627 548.393 95.928 548.393 96.6V101H546.633V92.84ZM560.977 92.84H562.657V93.912H562.737C562.982 93.5173 563.329 93.1973 563.777 92.952C564.225 92.7067 564.705 92.584 565.217 92.584C565.804 92.584 566.316 92.7227 566.753 93C567.19 93.2667 567.505 93.624 567.697 94.072C567.974 93.624 568.342 93.2667 568.801 93C569.27 92.7227 569.82 92.584 570.449 92.584C571.388 92.584 572.097 92.872 572.577 93.448C573.068 94.0133 573.313 94.7867 573.313 95.768V101H571.553V96.072C571.553 94.8347 571.025 94.216 569.969 94.216C569.404 94.216 568.94 94.4453 568.577 94.904C568.214 95.3627 568.033 95.928 568.033 96.6V101H566.273V96.072C566.273 94.8347 565.729 94.216 564.641 94.216C564.086 94.216 563.628 94.4453 563.265 94.904C562.913 95.3627 562.737 95.928 562.737 96.6V101H560.977V92.84ZM577.803 101.256C577.216 101.256 576.693 101.144 576.235 100.92C575.776 100.685 575.419 100.36 575.163 99.944C574.907 99.5173 574.779 99.0373 574.779 98.504C574.779 97.6613 575.093 96.9947 575.723 96.504C576.363 96.0133 577.168 95.768 578.139 95.768C578.619 95.768 579.051 95.816 579.435 95.912C579.819 95.9973 580.123 96.0933 580.347 96.2V95.784C580.347 95.2827 580.16 94.8773 579.787 94.568C579.413 94.248 578.933 94.088 578.347 94.088C577.931 94.088 577.536 94.1787 577.163 94.36C576.8 94.5413 576.507 94.792 576.283 95.112L575.051 94.168C575.413 93.6667 575.883 93.2773 576.459 93C577.035 92.7227 577.675 92.584 578.379 92.584C579.563 92.584 580.475 92.8773 581.115 93.464C581.755 94.04 582.075 94.856 582.075 95.912V101H580.347V100.024H580.267C580.032 100.376 579.701 100.669 579.275 100.904C578.848 101.139 578.357 101.256 577.803 101.256ZM578.107 99.8C578.533 99.8 578.917 99.6987 579.259 99.496C579.6 99.2933 579.867 99.0213 580.059 98.68C580.251 98.3387 580.347 97.9707 580.347 97.576C580.101 97.4373 579.813 97.3253 579.483 97.24C579.163 97.1547 578.827 97.112 578.475 97.112C577.813 97.112 577.328 97.2453 577.019 97.512C576.709 97.768 576.555 98.104 576.555 98.52C576.555 98.8933 576.699 99.2027 576.987 99.448C577.275 99.6827 577.648 99.8 578.107 99.8ZM583.993 92.84H585.673V93.912H585.753C585.987 93.528 586.334 93.2133 586.793 92.968C587.262 92.712 587.758 92.584 588.281 92.584C589.273 92.584 590.025 92.8773 590.537 93.464C591.059 94.04 591.321 94.8293 591.321 95.832V101H589.561V96.072C589.561 95.432 589.401 94.9627 589.081 94.664C588.771 94.3653 588.339 94.216 587.785 94.216C587.39 94.216 587.038 94.328 586.729 94.552C586.419 94.7653 586.179 95.0533 586.009 95.416C585.838 95.7787 585.753 96.168 585.753 96.584V101H583.993V92.84ZM596.793 101.256C596.057 101.256 595.391 101.069 594.793 100.696C594.196 100.323 593.721 99.8107 593.369 99.16C593.028 98.4987 592.857 97.752 592.857 96.92C592.857 96.088 593.028 95.3467 593.369 94.696C593.721 94.0347 594.196 93.5173 594.793 93.144C595.391 92.7707 596.057 92.584 596.793 92.584C597.369 92.584 597.887 92.712 598.345 92.968C598.804 93.224 599.151 93.5387 599.385 93.912H599.465L599.385 92.76V89.544H601.145V101H599.465V99.944H599.385C599.151 100.307 598.804 100.616 598.345 100.872C597.887 101.128 597.369 101.256 596.793 101.256ZM597.049 99.64C597.476 99.64 597.871 99.528 598.233 99.304C598.607 99.08 598.905 98.76 599.129 98.344C599.353 97.928 599.465 97.4533 599.465 96.92C599.465 96.3867 599.353 95.9173 599.129 95.512C598.905 95.096 598.607 94.776 598.233 94.552C597.871 94.328 597.476 94.216 597.049 94.216C596.623 94.216 596.223 94.328 595.849 94.552C595.476 94.776 595.177 95.096 594.953 95.512C594.729 95.9173 594.617 96.3867 594.617 96.92C594.617 97.4533 594.729 97.928 594.953 98.344C595.177 98.76 595.476 99.08 595.849 99.304C596.223 99.528 596.623 99.64 597.049 99.64ZM607.954 91.656C607.623 91.656 607.341 91.544 607.106 91.32C606.882 91.0853 606.77 90.8027 606.77 90.472C606.77 90.1413 606.882 89.864 607.106 89.64C607.341 89.4053 607.623 89.288 607.954 89.288C608.285 89.288 608.562 89.4053 608.786 89.64C609.021 89.864 609.138 90.1413 609.138 90.472C609.138 90.8027 609.021 91.0853 608.786 91.32C608.562 91.544 608.285 91.656 607.954 91.656ZM607.074 92.84H608.834V101H607.074V92.84ZM611.024 92.84H612.704V93.912H612.784C613.019 93.528 613.365 93.2133 613.824 92.968C614.293 92.712 614.789 92.584 615.312 92.584C616.304 92.584 617.056 92.8773 617.568 93.464C618.091 94.04 618.352 94.8293 618.352 95.832V101H616.592V96.072C616.592 95.432 616.432 94.9627 616.112 94.664C615.803 94.3653 615.371 94.216 614.816 94.216C614.421 94.216 614.069 94.328 613.76 94.552C613.451 94.7653 613.211 95.0533 613.04 95.416C612.869 95.7787 612.784 96.168 612.784 96.584V101H611.024V92.84ZM624.113 101.256C623.302 101.256 622.571 101.069 621.921 100.696C621.281 100.323 620.779 99.8107 620.417 99.16C620.065 98.4987 619.889 97.752 619.889 96.92C619.889 96.088 620.065 95.3467 620.417 94.696C620.779 94.0347 621.281 93.5173 621.921 93.144C622.571 92.7707 623.302 92.584 624.113 92.584C625.009 92.584 625.771 92.7867 626.401 93.192C627.03 93.5973 627.478 94.1467 627.745 94.84L626.129 95.512C625.766 94.648 625.078 94.216 624.065 94.216C623.627 94.216 623.222 94.328 622.849 94.552C622.486 94.776 622.193 95.096 621.969 95.512C621.755 95.9173 621.649 96.3867 621.649 96.92C621.649 97.4533 621.755 97.928 621.969 98.344C622.193 98.76 622.486 99.08 622.849 99.304C623.222 99.528 623.627 99.64 624.065 99.64C624.577 99.64 625.014 99.528 625.377 99.304C625.75 99.0693 626.033 98.7387 626.225 98.312L627.809 99C627.499 99.6933 627.03 100.243 626.401 100.648C625.771 101.053 625.009 101.256 624.113 101.256ZM629.305 89.544H631.065V101H629.305V89.544ZM636.109 101.256C635.117 101.256 634.36 100.963 633.837 100.376C633.325 99.7787 633.069 98.952 633.069 97.896V92.84H634.829V97.656C634.829 98.3173 634.984 98.8133 635.293 99.144C635.613 99.4747 636.029 99.64 636.541 99.64C636.957 99.64 637.325 99.5333 637.645 99.32C637.965 99.096 638.211 98.8027 638.381 98.44C638.552 98.0773 638.637 97.688 638.637 97.272V92.84H640.397V101H638.733V99.944H638.637C638.413 100.328 638.067 100.643 637.597 100.888C637.128 101.133 636.632 101.256 636.109 101.256ZM645.344 101.256C644.405 101.256 643.637 101.053 643.04 100.648C642.442 100.232 642.021 99.704 641.776 99.064L643.344 98.376C643.536 98.8027 643.802 99.128 644.144 99.352C644.496 99.576 644.896 99.688 645.344 99.688C645.781 99.688 646.149 99.6133 646.448 99.464C646.746 99.304 646.896 99.0693 646.896 98.76C646.896 98.4613 646.768 98.2267 646.512 98.056C646.256 97.8853 645.861 97.736 645.328 97.608L644.352 97.368C643.701 97.208 643.162 96.9253 642.736 96.52C642.309 96.1147 642.096 95.6027 642.096 94.984C642.096 94.504 642.234 94.0827 642.512 93.72C642.8 93.3573 643.184 93.08 643.664 92.888C644.144 92.6853 644.666 92.584 645.232 92.584C645.989 92.584 646.656 92.7387 647.232 93.048C647.808 93.3467 648.224 93.784 648.48 94.36L646.944 95.032C646.634 94.4027 646.069 94.088 645.248 94.088C644.853 94.088 644.522 94.168 644.256 94.328C643.989 94.488 643.856 94.696 643.856 94.952C643.856 95.1973 643.957 95.4 644.16 95.56C644.362 95.7093 644.661 95.8373 645.056 95.944L646.256 96.248C647.056 96.4507 647.658 96.76 648.064 97.176C648.48 97.5813 648.688 98.0827 648.688 98.68C648.688 99.192 648.538 99.6453 648.24 100.04C647.952 100.424 647.552 100.723 647.04 100.936C646.528 101.149 645.962 101.256 645.344 101.256ZM651.141 91.656C650.811 91.656 650.528 91.544 650.293 91.32C650.069 91.0853 649.957 90.8027 649.957 90.472C649.957 90.1413 650.069 89.864 650.293 89.64C650.528 89.4053 650.811 89.288 651.141 89.288C651.472 89.288 651.749 89.4053 651.973 89.64C652.208 89.864 652.325 90.1413 652.325 90.472C652.325 90.8027 652.208 91.0853 651.973 91.32C651.749 91.544 651.472 91.656 651.141 91.656ZM650.261 92.84H652.021V101H650.261V92.84ZM657.957 101.256C657.136 101.256 656.4 101.069 655.749 100.696C655.099 100.312 654.592 99.7893 654.229 99.128C653.867 98.4667 653.685 97.7307 653.685 96.92C653.685 96.1093 653.867 95.3733 654.229 94.712C654.592 94.0507 655.099 93.5333 655.749 93.16C656.4 92.776 657.136 92.584 657.957 92.584C658.779 92.584 659.515 92.776 660.165 93.16C660.816 93.544 661.323 94.0667 661.685 94.728C662.048 95.3893 662.229 96.12 662.229 96.92C662.229 97.7307 662.048 98.4667 661.685 99.128C661.323 99.7893 660.816 100.312 660.165 100.696C659.515 101.069 658.779 101.256 657.957 101.256ZM657.957 99.64C658.405 99.64 658.821 99.5333 659.205 99.32C659.589 99.096 659.893 98.7813 660.117 98.376C660.352 97.96 660.469 97.4747 660.469 96.92C660.469 96.3653 660.352 95.8853 660.117 95.48C659.893 95.0747 659.589 94.7653 659.205 94.552C658.821 94.328 658.405 94.216 657.957 94.216C657.509 94.216 657.093 94.328 656.709 94.552C656.325 94.7653 656.016 95.0747 655.781 95.48C655.557 95.8853 655.445 96.3653 655.445 96.92C655.445 97.4747 655.557 97.96 655.781 98.376C656.016 98.7813 656.325 99.096 656.709 99.32C657.093 99.5333 657.509 99.64 657.957 99.64ZM663.696 92.84H665.376V93.912H665.456C665.691 93.528 666.037 93.2133 666.496 92.968C666.965 92.712 667.461 92.584 667.984 92.584C668.976 92.584 669.728 92.8773 670.24 93.464C670.763 94.04 671.024 94.8293 671.024 95.832V101H669.264V96.072C669.264 95.432 669.104 94.9627 668.784 94.664C668.475 94.3653 668.043 94.216 667.488 94.216C667.093 94.216 666.741 94.328 666.432 94.552C666.123 94.7653 665.883 95.0533 665.712 95.416C665.541 95.7787 665.456 96.168 665.456 96.584V101H663.696V92.84Z" fill="#202124"/>
<path d="M589 195C589 189.477 593.477 185 599 185V185C604.523 185 609 189.477 609 195V195C609 200.523 604.523 205 599 205V205C593.477 205 589 200.523 589 195V195Z" fill="white"/>
<path d="M599.604 197.96H594.804V196.67L599.469 189.74H601.254V196.43H602.559V197.96H601.254V200H599.604V197.96ZM599.604 196.43V192.185H599.514L596.649 196.43H599.604Z" fill="#1A73E8"/>
<path d="M599 204C594.029 204 590 199.971 590 195H588C588 201.075 592.925 206 599 206V204ZM608 195C608 199.971 603.971 204 599 204V206C605.075 206 610 201.075 610 195H608ZM599 186C603.971 186 608 190.029 608 195H610C610 188.925 605.075 184 599 184V186ZM599 184C592.925 184 588 188.925 588 195H590C590 190.029 594.029 186 599 186V184Z" fill="#1A73E8"/>
<path d="M618.024 191.84H619.704V193.04H619.784C619.965 192.624 620.28 192.283 620.728 192.016C621.176 191.739 621.651 191.6 622.152 191.6C622.547 191.6 622.877 191.653 623.144 191.76V193.584C622.675 193.413 622.253 193.328 621.88 193.328C621.475 193.328 621.112 193.435 620.792 193.648C620.483 193.861 620.237 194.149 620.056 194.512C619.875 194.864 619.784 195.253 619.784 195.68V200H618.024V191.84ZM627.469 200.256C626.477 200.256 625.719 199.963 625.197 199.376C624.685 198.779 624.429 197.952 624.429 196.896V191.84H626.189V196.656C626.189 197.317 626.343 197.813 626.653 198.144C626.973 198.475 627.389 198.64 627.901 198.64C628.317 198.64 628.685 198.533 629.005 198.32C629.325 198.096 629.57 197.803 629.741 197.44C629.911 197.077 629.997 196.688 629.997 196.272V191.84H631.757V200H630.093V198.944H629.997C629.773 199.328 629.426 199.643 628.957 199.888C628.487 200.133 627.991 200.256 627.469 200.256ZM633.805 191.84H635.485V192.912H635.565C635.8 192.528 636.147 192.213 636.605 191.968C637.075 191.712 637.571 191.584 638.093 191.584C639.085 191.584 639.837 191.877 640.349 192.464C640.872 193.04 641.133 193.829 641.133 194.832V200H639.373V195.072C639.373 194.432 639.213 193.963 638.893 193.664C638.584 193.365 638.152 193.216 637.597 193.216C637.203 193.216 636.851 193.328 636.541 193.552C636.232 193.765 635.992 194.053 635.821 194.416C635.651 194.779 635.565 195.168 635.565 195.584V200H633.805V191.84ZM650.644 200.256C649.833 200.256 649.102 200.069 648.452 199.696C647.812 199.323 647.31 198.811 646.948 198.16C646.596 197.499 646.42 196.752 646.42 195.92C646.42 195.088 646.596 194.347 646.948 193.696C647.31 193.035 647.812 192.517 648.452 192.144C649.102 191.771 649.833 191.584 650.644 191.584C651.54 191.584 652.302 191.787 652.932 192.192C653.561 192.597 654.009 193.147 654.276 193.84L652.66 194.512C652.297 193.648 651.609 193.216 650.596 193.216C650.158 193.216 649.753 193.328 649.38 193.552C649.017 193.776 648.724 194.096 648.5 194.512C648.286 194.917 648.18 195.387 648.18 195.92C648.18 196.453 648.286 196.928 648.5 197.344C648.724 197.76 649.017 198.08 649.38 198.304C649.753 198.528 650.158 198.64 650.596 198.64C651.108 198.64 651.545 198.528 651.908 198.304C652.281 198.069 652.564 197.739 652.756 197.312L654.34 198C654.03 198.693 653.561 199.243 652.932 199.648C652.302 200.053 651.54 200.256 650.644 200.256ZM659.582 200.256C658.761 200.256 658.025 200.069 657.374 199.696C656.724 199.312 656.217 198.789 655.854 198.128C655.492 197.467 655.31 196.731 655.31 195.92C655.31 195.109 655.492 194.373 655.854 193.712C656.217 193.051 656.724 192.533 657.374 192.16C658.025 191.776 658.761 191.584 659.582 191.584C660.404 191.584 661.14 191.776 661.79 192.16C662.441 192.544 662.948 193.067 663.31 193.728C663.673 194.389 663.854 195.12 663.854 195.92C663.854 196.731 663.673 197.467 663.31 198.128C662.948 198.789 662.441 199.312 661.79 199.696C661.14 200.069 660.404 200.256 659.582 200.256ZM659.582 198.64C660.03 198.64 660.446 198.533 660.83 198.32C661.214 198.096 661.518 197.781 661.742 197.376C661.977 196.96 662.094 196.475 662.094 195.92C662.094 195.365 661.977 194.885 661.742 194.48C661.518 194.075 661.214 193.765 660.83 193.552C660.446 193.328 660.03 193.216 659.582 193.216C659.134 193.216 658.718 193.328 658.334 193.552C657.95 193.765 657.641 194.075 657.406 194.48C657.182 194.885 657.07 195.365 657.07 195.92C657.07 196.475 657.182 196.96 657.406 197.376C657.641 197.781 657.95 198.096 658.334 198.32C658.718 198.533 659.134 198.64 659.582 198.64ZM665.321 191.84H667.001V192.912H667.081C667.326 192.517 667.673 192.197 668.121 191.952C668.569 191.707 669.049 191.584 669.561 191.584C670.148 191.584 670.66 191.723 671.097 192C671.534 192.267 671.849 192.624 672.041 193.072C672.318 192.624 672.686 192.267 673.145 192C673.614 191.723 674.164 191.584 674.793 191.584C675.732 191.584 676.441 191.872 676.921 192.448C677.412 193.013 677.657 193.787 677.657 194.768V200H675.897V195.072C675.897 193.835 675.369 193.216 674.313 193.216C673.748 193.216 673.284 193.445 672.921 193.904C672.558 194.363 672.377 194.928 672.377 195.6V200H670.617V195.072C670.617 193.835 670.073 193.216 668.985 193.216C668.43 193.216 667.972 193.445 667.609 193.904C667.257 194.363 667.081 194.928 667.081 195.6V200H665.321V191.84ZM679.665 191.84H681.345V192.912H681.425C681.67 192.517 682.017 192.197 682.465 191.952C682.913 191.707 683.393 191.584 683.905 191.584C684.491 191.584 685.003 191.723 685.441 192C685.878 192.267 686.193 192.624 686.385 193.072C686.662 192.624 687.03 192.267 687.489 192C687.958 191.723 688.507 191.584 689.137 191.584C690.075 191.584 690.785 191.872 691.265 192.448C691.755 193.013 692.001 193.787 692.001 194.768V200H690.241V195.072C690.241 193.835 689.713 193.216 688.657 193.216C688.091 193.216 687.627 193.445 687.265 193.904C686.902 194.363 686.721 194.928 686.721 195.6V200H684.961V195.072C684.961 193.835 684.417 193.216 683.329 193.216C682.774 193.216 682.315 193.445 681.953 193.904C681.601 194.363 681.425 194.928 681.425 195.6V200H679.665V191.84ZM696.49 200.256C695.904 200.256 695.381 200.144 694.922 199.92C694.464 199.685 694.106 199.36 693.85 198.944C693.594 198.517 693.466 198.037 693.466 197.504C693.466 196.661 693.781 195.995 694.41 195.504C695.05 195.013 695.856 194.768 696.826 194.768C697.306 194.768 697.738 194.816 698.122 194.912C698.506 194.997 698.81 195.093 699.034 195.2V194.784C699.034 194.283 698.848 193.877 698.474 193.568C698.101 193.248 697.621 193.088 697.034 193.088C696.618 193.088 696.224 193.179 695.85 193.36C695.488 193.541 695.194 193.792 694.97 194.112L693.738 193.168C694.101 192.667 694.57 192.277 695.146 192C695.722 191.723 696.362 191.584 697.066 191.584C698.25 191.584 699.162 191.877 699.802 192.464C700.442 193.04 700.762 193.856 700.762 194.912V200H699.034V199.024H698.954C698.72 199.376 698.389 199.669 697.962 199.904C697.536 200.139 697.045 200.256 696.49 200.256ZM696.794 198.8C697.221 198.8 697.605 198.699 697.946 198.496C698.288 198.293 698.554 198.021 698.746 197.68C698.938 197.339 699.034 196.971 699.034 196.576C698.789 196.437 698.501 196.325 698.17 196.24C697.85 196.155 697.514 196.112 697.162 196.112C696.501 196.112 696.016 196.245 695.706 196.512C695.397 196.768 695.242 197.104 695.242 197.52C695.242 197.893 695.386 198.203 695.674 198.448C695.962 198.683 696.336 198.8 696.794 198.8ZM702.68 191.84H704.36V192.912H704.44C704.675 192.528 705.022 192.213 705.48 191.968C705.95 191.712 706.446 191.584 706.968 191.584C707.96 191.584 708.712 191.877 709.224 192.464C709.747 193.04 710.008 193.829 710.008 194.832V200H708.248V195.072C708.248 194.432 708.088 193.963 707.768 193.664C707.459 193.365 707.027 193.216 706.472 193.216C706.078 193.216 705.726 193.328 705.416 193.552C705.107 193.765 704.867 194.053 704.696 194.416C704.526 194.779 704.44 195.168 704.44 195.584V200H702.68V191.84ZM715.481 200.256C714.745 200.256 714.078 200.069 713.481 199.696C712.883 199.323 712.409 198.811 712.057 198.16C711.715 197.499 711.545 196.752 711.545 195.92C711.545 195.088 711.715 194.347 712.057 193.696C712.409 193.035 712.883 192.517 713.481 192.144C714.078 191.771 714.745 191.584 715.481 191.584C716.057 191.584 716.574 191.712 717.033 191.968C717.491 192.224 717.838 192.539 718.073 192.912H718.153L718.073 191.76V188.544H719.833V200H718.153V198.944H718.073C717.838 199.307 717.491 199.616 717.033 199.872C716.574 200.128 716.057 200.256 715.481 200.256ZM715.737 198.64C716.163 198.64 716.558 198.528 716.921 198.304C717.294 198.08 717.593 197.76 717.817 197.344C718.041 196.928 718.153 196.453 718.153 195.92C718.153 195.387 718.041 194.917 717.817 194.512C717.593 194.096 717.294 193.776 716.921 193.552C716.558 193.328 716.163 193.216 715.737 193.216C715.31 193.216 714.91 193.328 714.537 193.552C714.163 193.776 713.865 194.096 713.641 194.512C713.417 194.917 713.305 195.387 713.305 195.92C713.305 196.453 713.417 196.928 713.641 197.344C713.865 197.76 714.163 198.08 714.537 198.304C714.91 198.528 715.31 198.64 715.737 198.64Z" fill="#202124"/>
<path d="M287 195C287 189.477 291.477 185 297 185V185C302.523 185 307 189.477 307 195V195C307 200.523 302.523 205 297 205V205C291.477 205 287 200.523 287 195V195Z" fill="white"/>
<path d="M293.747 198.34C294.067 198.02 294.697 197.39 295.637 196.45C296.577 195.5 297.202 194.855 297.512 194.515C297.932 194.065 298.217 193.7 298.367 193.42C298.527 193.14 298.607 192.805 298.607 192.415C298.607 192.025 298.457 191.685 298.157 191.395C297.857 191.105 297.452 190.96 296.942 190.96C296.472 190.96 296.087 191.1 295.787 191.38C295.497 191.65 295.307 191.965 295.217 192.325L293.717 191.71C293.817 191.35 294.002 190.995 294.272 190.645C294.552 190.295 294.922 190 295.382 189.76C295.842 189.52 296.372 189.4 296.972 189.4C297.622 189.4 298.197 189.535 298.697 189.805C299.207 190.065 299.597 190.425 299.867 190.885C300.147 191.335 300.287 191.835 300.287 192.385C300.287 192.975 300.132 193.545 299.822 194.095C299.522 194.635 299.137 195.14 298.667 195.61C298.467 195.8 297.962 196.3 297.152 197.11L295.922 198.34L295.952 198.4H300.422V199.9H293.747V198.34Z" fill="#1A73E8"/>
<path d="M297 204C292.029 204 288 199.971 288 195H286C286 201.075 290.925 206 297 206V204ZM306 195C306 199.971 301.971 204 297 204V206C303.075 206 308 201.075 308 195H306ZM297 186C301.971 186 306 190.029 306 195H308C308 188.925 303.075 184 297 184V186ZM297 184C290.925 184 286 188.925 286 195H288C288 190.029 292.029 186 297 186V184Z" fill="#1A73E8"/>
<path d="M243 227.256C242.061 227.256 241.293 227.053 240.696 226.648C240.099 226.232 239.677 225.704 239.432 225.064L241 224.376C241.192 224.803 241.459 225.128 241.8 225.352C242.152 225.576 242.552 225.688 243 225.688C243.437 225.688 243.805 225.613 244.104 225.464C244.403 225.304 244.552 225.069 244.552 224.76C244.552 224.461 244.424 224.227 244.168 224.056C243.912 223.885 243.517 223.736 242.984 223.608L242.008 223.368C241.357 223.208 240.819 222.925 240.392 222.52C239.965 222.115 239.752 221.603 239.752 220.984C239.752 220.504 239.891 220.083 240.168 219.72C240.456 219.357 240.84 219.08 241.32 218.888C241.8 218.685 242.323 218.584 242.888 218.584C243.645 218.584 244.312 218.739 244.888 219.048C245.464 219.347 245.88 219.784 246.136 220.36L244.6 221.032C244.291 220.403 243.725 220.088 242.904 220.088C242.509 220.088 242.179 220.168 241.912 220.328C241.645 220.488 241.512 220.696 241.512 220.952C241.512 221.197 241.613 221.4 241.816 221.56C242.019 221.709 242.317 221.837 242.712 221.944L243.912 222.248C244.712 222.451 245.315 222.76 245.72 223.176C246.136 223.581 246.344 224.083 246.344 224.68C246.344 225.192 246.195 225.645 245.896 226.04C245.608 226.424 245.208 226.723 244.696 226.936C244.184 227.149 243.619 227.256 243 227.256ZM251.674 227.256C250.874 227.256 250.154 227.069 249.514 226.696C248.885 226.323 248.389 225.811 248.026 225.16C247.674 224.499 247.498 223.757 247.498 222.936C247.498 222.157 247.669 221.437 248.01 220.776C248.362 220.104 248.847 219.571 249.466 219.176C250.085 218.781 250.789 218.584 251.578 218.584C252.399 218.584 253.109 218.765 253.706 219.128C254.314 219.491 254.773 219.987 255.082 220.616C255.402 221.245 255.562 221.955 255.562 222.744C255.562 222.893 255.546 223.08 255.514 223.304H249.258C249.322 224.061 249.589 224.648 250.058 225.064C250.538 225.469 251.093 225.672 251.722 225.672C252.223 225.672 252.655 225.56 253.018 225.336C253.391 225.101 253.69 224.787 253.914 224.392L255.402 225.096C255.018 225.768 254.517 226.296 253.898 226.68C253.279 227.064 252.538 227.256 251.674 227.256ZM253.77 221.96C253.749 221.672 253.658 221.389 253.498 221.112C253.338 220.824 253.093 220.584 252.762 220.392C252.442 220.2 252.047 220.104 251.578 220.104C251.013 220.104 250.533 220.275 250.138 220.616C249.754 220.947 249.487 221.395 249.338 221.96H253.77ZM257.165 218.84H258.845V219.912H258.925C259.159 219.528 259.506 219.213 259.965 218.968C260.434 218.712 260.93 218.584 261.453 218.584C262.445 218.584 263.197 218.877 263.709 219.464C264.231 220.04 264.493 220.829 264.493 221.832V227H262.733V222.072C262.733 221.432 262.573 220.963 262.253 220.664C261.943 220.365 261.511 220.216 260.957 220.216C260.562 220.216 260.21 220.328 259.901 220.552C259.591 220.765 259.351 221.053 259.181 221.416C259.01 221.779 258.925 222.168 258.925 222.584V227H257.165V218.84ZM269.965 227.256C269.229 227.256 268.562 227.069 267.965 226.696C267.368 226.323 266.893 225.811 266.541 225.16C266.2 224.499 266.029 223.752 266.029 222.92C266.029 222.088 266.2 221.347 266.541 220.696C266.893 220.035 267.368 219.517 267.965 219.144C268.562 218.771 269.229 218.584 269.965 218.584C270.541 218.584 271.058 218.712 271.517 218.968C271.976 219.224 272.322 219.539 272.557 219.912H272.637L272.557 218.76V215.544H274.317V227H272.637V225.944H272.557C272.322 226.307 271.976 226.616 271.517 226.872C271.058 227.128 270.541 227.256 269.965 227.256ZM270.221 225.64C270.648 225.64 271.042 225.528 271.405 225.304C271.778 225.08 272.077 224.76 272.301 224.344C272.525 223.928 272.637 223.453 272.637 222.92C272.637 222.387 272.525 221.917 272.301 221.512C272.077 221.096 271.778 220.776 271.405 220.552C271.042 220.328 270.648 220.216 270.221 220.216C269.794 220.216 269.394 220.328 269.021 220.552C268.648 220.776 268.349 221.096 268.125 221.512C267.901 221.917 267.789 222.387 267.789 222.92C267.789 223.453 267.901 223.928 268.125 224.344C268.349 224.76 268.648 225.08 269.021 225.304C269.394 225.528 269.794 225.64 270.221 225.64ZM283.894 227.256C283.083 227.256 282.352 227.069 281.702 226.696C281.062 226.323 280.56 225.811 280.198 225.16C279.846 224.499 279.67 223.752 279.67 222.92C279.67 222.088 279.846 221.347 280.198 220.696C280.56 220.035 281.062 219.517 281.702 219.144C282.352 218.771 283.083 218.584 283.894 218.584C284.79 218.584 285.552 218.787 286.182 219.192C286.811 219.597 287.259 220.147 287.526 220.84L285.91 221.512C285.547 220.648 284.859 220.216 283.846 220.216C283.408 220.216 283.003 220.328 282.63 220.552C282.267 220.776 281.974 221.096 281.75 221.512C281.536 221.917 281.43 222.387 281.43 222.92C281.43 223.453 281.536 223.928 281.75 224.344C281.974 224.76 282.267 225.08 282.63 225.304C283.003 225.528 283.408 225.64 283.846 225.64C284.358 225.64 284.795 225.528 285.158 225.304C285.531 225.069 285.814 224.739 286.006 224.312L287.59 225C287.28 225.693 286.811 226.243 286.182 226.648C285.552 227.053 284.79 227.256 283.894 227.256ZM292.832 227.256C292.011 227.256 291.275 227.069 290.624 226.696C289.974 226.312 289.467 225.789 289.104 225.128C288.742 224.467 288.56 223.731 288.56 222.92C288.56 222.109 288.742 221.373 289.104 220.712C289.467 220.051 289.974 219.533 290.624 219.16C291.275 218.776 292.011 218.584 292.832 218.584C293.654 218.584 294.39 218.776 295.04 219.16C295.691 219.544 296.198 220.067 296.56 220.728C296.923 221.389 297.104 222.12 297.104 222.92C297.104 223.731 296.923 224.467 296.56 225.128C296.198 225.789 295.691 226.312 295.04 226.696C294.39 227.069 293.654 227.256 292.832 227.256ZM292.832 225.64C293.28 225.64 293.696 225.533 294.08 225.32C294.464 225.096 294.768 224.781 294.992 224.376C295.227 223.96 295.344 223.475 295.344 222.92C295.344 222.365 295.227 221.885 294.992 221.48C294.768 221.075 294.464 220.765 294.08 220.552C293.696 220.328 293.28 220.216 292.832 220.216C292.384 220.216 291.968 220.328 291.584 220.552C291.2 220.765 290.891 221.075 290.656 221.48C290.432 221.885 290.32 222.365 290.32 222.92C290.32 223.475 290.432 223.96 290.656 224.376C290.891 224.781 291.2 225.096 291.584 225.32C291.968 225.533 292.384 225.64 292.832 225.64ZM298.571 218.84H300.251V219.912H300.331C300.576 219.517 300.923 219.197 301.371 218.952C301.819 218.707 302.299 218.584 302.811 218.584C303.398 218.584 303.91 218.723 304.347 219C304.784 219.267 305.099 219.624 305.291 220.072C305.568 219.624 305.936 219.267 306.395 219C306.864 218.723 307.414 218.584 308.043 218.584C308.982 218.584 309.691 218.872 310.171 219.448C310.662 220.013 310.907 220.787 310.907 221.768V227H309.147V222.072C309.147 220.835 308.619 220.216 307.563 220.216C306.998 220.216 306.534 220.445 306.171 220.904C305.808 221.363 305.627 221.928 305.627 222.6V227H303.867V222.072C303.867 220.835 303.323 220.216 302.235 220.216C301.68 220.216 301.222 220.445 300.859 220.904C300.507 221.363 300.331 221.928 300.331 222.6V227H298.571V218.84ZM312.915 218.84H314.595V219.912H314.675C314.92 219.517 315.267 219.197 315.715 218.952C316.163 218.707 316.643 218.584 317.155 218.584C317.741 218.584 318.253 218.723 318.691 219C319.128 219.267 319.443 219.624 319.635 220.072C319.912 219.624 320.28 219.267 320.739 219C321.208 218.723 321.757 218.584 322.387 218.584C323.325 218.584 324.035 218.872 324.515 219.448C325.005 220.013 325.251 220.787 325.251 221.768V227H323.491V222.072C323.491 220.835 322.963 220.216 321.907 220.216C321.341 220.216 320.877 220.445 320.515 220.904C320.152 221.363 319.971 221.928 319.971 222.6V227H318.211V222.072C318.211 220.835 317.667 220.216 316.579 220.216C316.024 220.216 315.565 220.445 315.203 220.904C314.851 221.363 314.675 221.928 314.675 222.6V227H312.915V218.84ZM329.74 227.256C329.154 227.256 328.631 227.144 328.172 226.92C327.714 226.685 327.356 226.36 327.1 225.944C326.844 225.517 326.716 225.037 326.716 224.504C326.716 223.661 327.031 222.995 327.66 222.504C328.3 222.013 329.106 221.768 330.076 221.768C330.556 221.768 330.988 221.816 331.372 221.912C331.756 221.997 332.06 222.093 332.284 222.2V221.784C332.284 221.283 332.098 220.877 331.724 220.568C331.351 220.248 330.871 220.088 330.284 220.088C329.868 220.088 329.474 220.179 329.1 220.36C328.738 220.541 328.444 220.792 328.22 221.112L326.988 220.168C327.351 219.667 327.82 219.277 328.396 219C328.972 218.723 329.612 218.584 330.316 218.584C331.5 218.584 332.412 218.877 333.052 219.464C333.692 220.04 334.012 220.856 334.012 221.912V227H332.284V226.024H332.204C331.97 226.376 331.639 226.669 331.212 226.904C330.786 227.139 330.295 227.256 329.74 227.256ZM330.044 225.8C330.471 225.8 330.855 225.699 331.196 225.496C331.538 225.293 331.804 225.021 331.996 224.68C332.188 224.339 332.284 223.971 332.284 223.576C332.039 223.437 331.751 223.325 331.42 223.24C331.1 223.155 330.764 223.112 330.412 223.112C329.751 223.112 329.266 223.245 328.956 223.512C328.647 223.768 328.492 224.104 328.492 224.52C328.492 224.893 328.636 225.203 328.924 225.448C329.212 225.683 329.586 225.8 330.044 225.8ZM335.93 218.84H337.61V219.912H337.69C337.925 219.528 338.272 219.213 338.73 218.968C339.2 218.712 339.696 218.584 340.218 218.584C341.21 218.584 341.962 218.877 342.474 219.464C342.997 220.04 343.258 220.829 343.258 221.832V227H341.498V222.072C341.498 221.432 341.338 220.963 341.018 220.664C340.709 220.365 340.277 220.216 339.722 220.216C339.328 220.216 338.976 220.328 338.666 220.552C338.357 220.765 338.117 221.053 337.946 221.416C337.776 221.779 337.69 222.168 337.69 222.584V227H335.93V218.84ZM348.731 227.256C347.995 227.256 347.328 227.069 346.731 226.696C346.133 226.323 345.659 225.811 345.307 225.16C344.965 224.499 344.795 223.752 344.795 222.92C344.795 222.088 344.965 221.347 345.307 220.696C345.659 220.035 346.133 219.517 346.731 219.144C347.328 218.771 347.995 218.584 348.731 218.584C349.307 218.584 349.824 218.712 350.283 218.968C350.741 219.224 351.088 219.539 351.323 219.912H351.403L351.323 218.76V215.544H353.083V227H351.403V225.944H351.323C351.088 226.307 350.741 226.616 350.283 226.872C349.824 227.128 349.307 227.256 348.731 227.256ZM348.987 225.64C349.413 225.64 349.808 225.528 350.171 225.304C350.544 225.08 350.843 224.76 351.067 224.344C351.291 223.928 351.403 223.453 351.403 222.92C351.403 222.387 351.291 221.917 351.067 221.512C350.843 221.096 350.544 220.776 350.171 220.552C349.808 220.328 349.413 220.216 348.987 220.216C348.56 220.216 348.16 220.328 347.787 220.552C347.413 220.776 347.115 221.096 346.891 221.512C346.667 221.917 346.555 222.387 346.555 222.92C346.555 223.453 346.667 223.928 346.891 224.344C347.115 224.76 347.413 225.08 347.787 225.304C348.16 225.528 348.56 225.64 348.987 225.64Z" fill="#202124"/>
<path d="M249.526 82.84H251.91L253.974 88.152H254.102L256.198 82.84H258.55L255.062 91H252.982L249.526 82.84ZM263.278 91.256C262.467 91.256 261.736 91.0693 261.086 90.696C260.435 90.3227 259.923 89.8107 259.55 89.16C259.187 88.4987 259.006 87.7573 259.006 86.936C259.006 86.1573 259.187 85.4373 259.55 84.776C259.912 84.104 260.414 83.5707 261.054 83.176C261.694 82.7813 262.408 82.584 263.198 82.584C264.04 82.584 264.766 82.7653 265.374 83.128C265.982 83.4907 266.44 83.9867 266.75 84.616C267.07 85.2453 267.23 85.944 267.23 86.712C267.23 86.9573 267.214 87.192 267.182 87.416H261.054C261.16 88.0667 261.416 88.5627 261.822 88.904C262.238 89.2347 262.734 89.4 263.31 89.4C263.79 89.4 264.2 89.2987 264.542 89.096C264.894 88.8827 265.171 88.6 265.374 88.248L267.07 89.08C266.238 90.5307 264.974 91.256 263.278 91.256ZM265.214 85.928C265.192 85.672 265.096 85.4213 264.926 85.176C264.766 84.92 264.536 84.712 264.238 84.552C263.95 84.3813 263.608 84.296 263.214 84.296C262.712 84.296 262.28 84.4453 261.918 84.744C261.566 85.032 261.31 85.4267 261.15 85.928H265.214ZM268.844 82.84H270.812V83.928H270.94C271.143 83.544 271.458 83.2293 271.884 82.984C272.311 82.728 272.78 82.6 273.292 82.6C273.666 82.6 274.007 82.6587 274.316 82.776V84.872C274.028 84.7653 273.783 84.6907 273.58 84.648C273.388 84.5947 273.18 84.568 272.956 84.568C272.338 84.568 271.847 84.792 271.484 85.24C271.122 85.688 270.94 86.2533 270.94 86.936V91H268.844V82.84ZM276.856 81.944C276.483 81.944 276.163 81.8107 275.896 81.544C275.63 81.2773 275.496 80.9573 275.496 80.584C275.496 80.2107 275.63 79.896 275.896 79.64C276.163 79.3733 276.483 79.24 276.856 79.24C277.23 79.24 277.544 79.3733 277.8 79.64C278.067 79.896 278.2 80.2107 278.2 80.584C278.2 80.9573 278.067 81.2773 277.8 81.544C277.544 81.8107 277.23 81.944 276.856 81.944ZM275.8 82.84H277.896V91H275.8V82.84ZM287.342 82.024C286.969 82.024 286.649 81.8907 286.382 81.624C286.126 81.3573 285.998 81.0373 285.998 80.664C285.998 80.2907 286.126 79.976 286.382 79.72C286.649 79.4533 286.969 79.32 287.342 79.32C287.716 79.32 288.036 79.4533 288.302 79.72C288.569 79.976 288.702 80.2907 288.702 80.664C288.702 81.0373 288.569 81.3573 288.302 81.624C288.036 81.8907 287.716 82.024 287.342 82.024ZM280.974 84.632H279.518V82.84H280.974V82.392C280.974 81.464 281.252 80.7387 281.806 80.216C282.361 79.6827 283.086 79.416 283.982 79.416C284.345 79.416 284.644 79.448 284.878 79.512V81.528C284.836 81.5173 284.745 81.4907 284.606 81.448C284.468 81.4053 284.302 81.384 284.11 81.384C283.801 81.384 283.55 81.4853 283.358 81.688C283.166 81.8907 283.07 82.168 283.07 82.52V82.84H288.398V91H286.302V84.632H283.07V91H280.974V84.632ZM292.997 91.256C292.133 91.256 291.423 91.0053 290.869 90.504C290.314 89.992 290.037 89.3253 290.037 88.504C290.037 87.96 290.181 87.48 290.469 87.064C290.757 86.648 291.151 86.328 291.653 86.104C292.154 85.88 292.709 85.768 293.317 85.768C294.159 85.768 294.879 85.8907 295.477 86.136V85.784C295.477 85.336 295.306 84.9733 294.965 84.696C294.634 84.4187 294.186 84.28 293.621 84.28C293.237 84.28 292.863 84.3707 292.501 84.552C292.149 84.7227 291.855 84.952 291.621 85.24L290.277 84.184C290.671 83.672 291.167 83.2773 291.765 83C292.362 82.7227 293.013 82.584 293.717 82.584C294.965 82.584 295.914 82.872 296.565 83.448C297.215 84.024 297.541 84.8667 297.541 85.976V91H295.477V90.168H295.349C295.103 90.488 294.778 90.7493 294.373 90.952C293.978 91.1547 293.519 91.256 292.997 91.256ZM293.493 89.624C294.101 89.624 294.581 89.432 294.933 89.048C295.295 88.6533 295.477 88.1947 295.477 87.672C294.933 87.416 294.362 87.288 293.765 87.288C292.677 87.288 292.133 87.6933 292.133 88.504C292.133 88.8347 292.25 89.1067 292.485 89.32C292.719 89.5227 293.055 89.624 293.493 89.624ZM304.013 91.256C303.459 91.256 302.963 91.1387 302.525 90.904C302.099 90.6693 301.779 90.376 301.565 90.024H301.437V91H299.469V79.544H301.565V82.68L301.437 83.832H301.565C301.789 83.48 302.115 83.1867 302.541 82.952C302.968 82.7067 303.459 82.584 304.013 82.584C304.749 82.584 305.416 82.7707 306.013 83.144C306.621 83.5067 307.096 84.0187 307.437 84.68C307.779 85.3413 307.949 86.088 307.949 86.92C307.949 87.7627 307.779 88.5147 307.437 89.176C307.096 89.8267 306.621 90.3387 306.013 90.712C305.416 91.0747 304.749 91.256 304.013 91.256ZM303.645 89.32C304.04 89.32 304.408 89.2187 304.749 89.016C305.091 88.8133 305.363 88.5307 305.565 88.168C305.768 87.8053 305.869 87.3893 305.869 86.92C305.869 86.4507 305.768 86.0347 305.565 85.672C305.363 85.3093 305.091 85.032 304.749 84.84C304.408 84.6373 304.04 84.536 303.645 84.536C303.261 84.536 302.899 84.6373 302.557 84.84C302.216 85.032 301.944 85.3093 301.741 85.672C301.539 86.0347 301.437 86.4507 301.437 86.92C301.437 87.3893 301.539 87.8053 301.741 88.168C301.944 88.5307 302.216 88.8133 302.557 89.016C302.899 89.2187 303.261 89.32 303.645 89.32ZM309.485 79.544H311.581V91H309.485V79.544ZM317.387 91.256C316.576 91.256 315.846 91.0693 315.195 90.696C314.544 90.3227 314.032 89.8107 313.659 89.16C313.296 88.4987 313.115 87.7573 313.115 86.936C313.115 86.1573 313.296 85.4373 313.659 84.776C314.022 84.104 314.523 83.5707 315.163 83.176C315.803 82.7813 316.518 82.584 317.307 82.584C318.15 82.584 318.875 82.7653 319.483 83.128C320.091 83.4907 320.55 83.9867 320.859 84.616C321.179 85.2453 321.339 85.944 321.339 86.712C321.339 86.9573 321.323 87.192 321.291 87.416H315.163C315.27 88.0667 315.526 88.5627 315.931 88.904C316.347 89.2347 316.843 89.4 317.419 89.4C317.899 89.4 318.31 89.2987 318.651 89.096C319.003 88.8827 319.28 88.6 319.483 88.248L321.179 89.08C320.347 90.5307 319.083 91.256 317.387 91.256ZM319.323 85.928C319.302 85.672 319.206 85.4213 319.035 85.176C318.875 84.92 318.646 84.712 318.347 84.552C318.059 84.3813 317.718 84.296 317.323 84.296C316.822 84.296 316.39 84.4453 316.027 84.744C315.675 85.032 315.419 85.4267 315.259 85.928H319.323ZM326.704 79.544H328.8V91H326.704V79.544ZM334.686 91.256C333.843 91.256 333.091 91.0693 332.43 90.696C331.768 90.312 331.251 89.7947 330.878 89.144C330.515 88.4827 330.334 87.7413 330.334 86.92C330.334 86.1093 330.515 85.3733 330.878 84.712C331.251 84.0507 331.768 83.5333 332.43 83.16C333.091 82.776 333.843 82.584 334.686 82.584C335.518 82.584 336.264 82.776 336.926 83.16C337.587 83.5333 338.099 84.0507 338.462 84.712C338.835 85.3733 339.022 86.1093 339.022 86.92C339.022 87.7413 338.835 88.4827 338.462 89.144C338.099 89.7947 337.587 90.312 336.926 90.696C336.264 91.0693 335.518 91.256 334.686 91.256ZM334.686 89.32C335.091 89.32 335.464 89.224 335.806 89.032C336.147 88.84 336.419 88.5627 336.622 88.2C336.824 87.8373 336.926 87.4107 336.926 86.92C336.926 86.44 336.824 86.0187 336.622 85.656C336.419 85.2933 336.147 85.016 335.806 84.824C335.464 84.632 335.091 84.536 334.686 84.536C334.28 84.536 333.907 84.632 333.566 84.824C333.224 85.016 332.947 85.2933 332.734 85.656C332.531 86.0187 332.43 86.44 332.43 86.92C332.43 87.4 332.531 87.8267 332.734 88.2C332.947 88.5627 333.224 88.84 333.566 89.032C333.907 89.224 334.28 89.32 334.686 89.32ZM344.386 94.712C343.351 94.712 342.492 94.4773 341.81 94.008C341.127 93.5493 340.668 92.9947 340.434 92.344L342.402 91.544C342.572 91.9493 342.834 92.2693 343.186 92.504C343.538 92.7387 343.938 92.856 344.386 92.856C345.047 92.856 345.57 92.6533 345.954 92.248C346.348 91.8427 346.546 91.2667 346.546 90.52V89.88H346.418C346.162 90.2427 345.826 90.52 345.41 90.712C344.994 90.904 344.519 91 343.986 91C343.314 91 342.684 90.8293 342.098 90.488C341.522 90.136 341.058 89.6453 340.706 89.016C340.354 88.376 340.178 87.6347 340.178 86.792C340.178 85.9493 340.354 85.2133 340.706 84.584C341.058 83.944 341.522 83.4533 342.098 83.112C342.684 82.76 343.314 82.584 343.986 82.584C344.519 82.584 344.994 82.68 345.41 82.872C345.826 83.064 346.162 83.3413 346.418 83.704H346.546V82.84H348.562V90.44C348.562 91.3147 348.391 92.072 348.05 92.712C347.708 93.352 347.223 93.8427 346.594 94.184C345.964 94.536 345.228 94.712 344.386 94.712ZM344.418 89.096C345.004 89.096 345.506 88.8933 345.922 88.488C346.338 88.072 346.546 87.5067 346.546 86.792C346.546 86.056 346.338 85.4907 345.922 85.096C345.516 84.6907 345.015 84.488 344.418 84.488C343.82 84.488 343.314 84.6907 342.898 85.096C342.482 85.5013 342.274 86.0667 342.274 86.792C342.274 87.5173 342.482 88.0827 342.898 88.488C343.314 88.8933 343.82 89.096 344.418 89.096Z" fill="#202124"/>
<path d="M335 15C330.029 15 326 19.0294 326 24V6L344 6L335 15Z" fill="#57E690"/>
<path d="M335 15L326 24C326 26.944 327.413 29.5578 329.599 31.1998C332.883 26.8279 338.111 24 344 24V15L335 15Z" fill="#FF6846"/>
<path d="M326 42C326 37.9477 327.339 34.2082 329.599 31.1998C331.103 32.3302 332.973 33 335 33C339.971 33 344 28.9706 344 24V42H326Z" fill="#1A73E8"/>
<rect x="320.5" y="0.5" width="29" height="47" rx="3.5" stroke="#1A73E8"/>
<rect x="321" y="51" width="14" height="2" rx="1" fill="#1A73E8"/>
<path d="M299 25C294.03 25 290 29.0294 290 34V16H308C308 20.0523 306.661 23.7918 304.401 26.8002C302.897 25.6699 301.026 25 299 25Z" fill="#1A73E8"/>
<path d="M304.401 26.8003C301.117 31.1722 295.889 34 290 34C290 36.4853 291.007 38.7353 292.636 40.364L299 34L308 43V34C308 31.0561 306.586 28.4423 304.401 26.8003Z" fill="#FCC934"/>
<path d="M292.636 40.364L290 43.0001L299 52.0001L308 43.0001H299C296.515 43.0001 294.265 41.9927 292.636 40.364Z" fill="#57E690"/>
<rect x="284.5" y="10.5" width="29" height="47" rx="3.5" stroke="#1A73E8"/>
<rect x="285" y="61" width="14" height="2" rx="1" fill="#1A73E8"/>
<path fill-rule="evenodd" clip-rule="evenodd" d="M254 16H272V25H263L254 16Z" fill="#FCC934"/>
<path d="M272 34L263 25L254 25V43C254 38.0294 258.03 34 263 34C267.971 34 272 38.0294 272 43V34Z" fill="#FF6846"/>
<path d="M263 52C258.03 52 254 47.9706 254 43L272 43C272 47.9706 267.97 52 263 52Z" fill="#57E690"/>
<rect x="248.5" y="10.5" width="29" height="47" rx="3.5" stroke="#1A73E8"/>
<rect x="249" y="61" width="14" height="2" rx="1" fill="#1A73E8"/>
<line x1="314" y1="33.5" x2="320" y2="33.5" stroke="#1A73E8"/>
<line x1="278" y1="33.5" x2="284" y2="33.5" stroke="#1A73E8"/>
<line x1="242" y1="33.5" x2="248" y2="33.5" stroke="#1A73E8"/>
<path d="M495 155H545L565 195L545 235H495L515 195L495 155Z" fill="#1A73E8"/>
<path d="M550 155H555L575 195L555 235H550L570 195L550 155Z" fill="#1A73E8"/>
<path d="M516.997 259.256C516.133 259.256 515.423 259.005 514.869 258.504C514.314 257.992 514.037 257.325 514.037 256.504C514.037 255.96 514.181 255.48 514.469 255.064C514.757 254.648 515.151 254.328 515.653 254.104C516.154 253.88 516.709 253.768 517.317 253.768C518.159 253.768 518.879 253.891 519.477 254.136V253.784C519.477 253.336 519.306 252.973 518.965 252.696C518.634 252.419 518.186 252.28 517.621 252.28C517.237 252.28 516.863 252.371 516.501 252.552C516.149 252.723 515.855 252.952 515.621 253.24L514.277 252.184C514.671 251.672 515.167 251.277 515.765 251C516.362 250.723 517.013 250.584 517.717 250.584C518.965 250.584 519.914 250.872 520.565 251.448C521.215 252.024 521.541 252.867 521.541 253.976V259H519.477V258.168H519.349C519.103 258.488 518.778 258.749 518.373 258.952C517.978 259.155 517.519 259.256 516.997 259.256ZM517.493 257.624C518.101 257.624 518.581 257.432 518.933 257.048C519.295 256.653 519.477 256.195 519.477 255.672C518.933 255.416 518.362 255.288 517.765 255.288C516.677 255.288 516.133 255.693 516.133 256.504C516.133 256.835 516.25 257.107 516.485 257.32C516.719 257.523 517.055 257.624 517.493 257.624ZM527.151 262.712C526.117 262.712 525.258 262.477 524.575 262.008C523.893 261.549 523.434 260.995 523.199 260.344L525.167 259.544C525.338 259.949 525.599 260.269 525.951 260.504C526.303 260.739 526.703 260.856 527.151 260.856C527.813 260.856 528.335 260.653 528.719 260.248C529.114 259.843 529.311 259.267 529.311 258.52V257.88H529.183C528.927 258.243 528.591 258.52 528.175 258.712C527.759 258.904 527.285 259 526.751 259C526.079 259 525.45 258.829 524.863 258.488C524.287 258.136 523.823 257.645 523.471 257.016C523.119 256.376 522.943 255.635 522.943 254.792C522.943 253.949 523.119 253.213 523.471 252.584C523.823 251.944 524.287 251.453 524.863 251.112C525.45 250.76 526.079 250.584 526.751 250.584C527.285 250.584 527.759 250.68 528.175 250.872C528.591 251.064 528.927 251.341 529.183 251.704H529.311V250.84H531.327V258.44C531.327 259.315 531.157 260.072 530.815 260.712C530.474 261.352 529.989 261.843 529.359 262.184C528.73 262.536 527.994 262.712 527.151 262.712ZM527.183 257.096C527.77 257.096 528.271 256.893 528.687 256.488C529.103 256.072 529.311 255.507 529.311 254.792C529.311 254.056 529.103 253.491 528.687 253.096C528.282 252.691 527.781 252.488 527.183 252.488C526.586 252.488 526.079 252.691 525.663 253.096C525.247 253.501 525.039 254.067 525.039 254.792C525.039 255.517 525.247 256.083 525.663 256.488C526.079 256.893 526.586 257.096 527.183 257.096ZM537.121 259.256C536.311 259.256 535.58 259.069 534.929 258.696C534.279 258.323 533.767 257.811 533.393 257.16C533.031 256.499 532.849 255.757 532.849 254.936C532.849 254.157 533.031 253.437 533.393 252.776C533.756 252.104 534.257 251.571 534.897 251.176C535.537 250.781 536.252 250.584 537.041 250.584C537.884 250.584 538.609 250.765 539.217 251.128C539.825 251.491 540.284 251.987 540.593 252.616C540.913 253.245 541.073 253.944 541.073 254.712C541.073 254.957 541.057 255.192 541.025 255.416H534.897C535.004 256.067 535.26 256.563 535.665 256.904C536.081 257.235 536.577 257.4 537.153 257.4C537.633 257.4 538.044 257.299 538.385 257.096C538.737 256.883 539.015 256.6 539.217 256.248L540.913 257.08C540.081 258.531 538.817 259.256 537.121 259.256ZM539.057 253.928C539.036 253.672 538.94 253.421 538.769 253.176C538.609 252.92 538.38 252.712 538.081 252.552C537.793 252.381 537.452 252.296 537.057 252.296C536.556 252.296 536.124 252.445 535.761 252.744C535.409 253.032 535.153 253.427 534.993 253.928H539.057ZM542.688 250.84H544.656V251.864H544.784C545.029 251.469 545.376 251.16 545.824 250.936C546.272 250.701 546.757 250.584 547.28 250.584C548.261 250.584 549.008 250.883 549.52 251.48C550.032 252.077 550.288 252.893 550.288 253.928V259H548.192V254.184C548.192 253.661 548.059 253.256 547.792 252.968C547.525 252.68 547.152 252.536 546.672 252.536C546.107 252.536 545.648 252.755 545.296 253.192C544.955 253.629 544.784 254.179 544.784 254.84V259H542.688V250.84ZM555.412 259.128C555.007 259.128 554.633 259.069 554.292 258.952C553.951 258.824 553.673 258.653 553.46 258.44C552.959 257.96 552.708 257.277 552.708 256.392V252.632H551.284V250.84H552.708V248.536H554.804V250.84H556.804V252.632H554.804V256.008C554.804 256.424 554.895 256.723 555.076 256.904C555.225 257.075 555.481 257.16 555.844 257.16C556.047 257.16 556.212 257.133 556.34 257.08C556.479 257.027 556.655 256.936 556.868 256.808V258.856C556.409 259.037 555.924 259.128 555.412 259.128Z" fill="#202124"/>
<path d="M535 188C531.134 188 528 191.134 528 195C528 198.866 531.134 202 535 202C538.866 202 542 198.866 542 195L542 188L535 188Z" fill="white"/>
<path d="M542 202C534.268 202 528 208.268 528 216H542V202Z" fill="white"/>
<path d="M528 174L528 188L542 174L528 174Z" fill="white"/>
<path d="M23 162C23 159.791 24.7909 158 27 158H99C101.209 158 103 159.791 103 162V209C103 211.209 101.209 213 99 213H27C24.7909 213 23 211.209 23 209V162Z" fill="#1A73E8"/>
<path d="M21.7989 217.521C22.5574 216.561 23.7142 216 24.9384 216H101.062C102.286 216 103.443 216.561 104.201 217.521L112.885 228.521C114.956 231.145 113.088 235 109.746 235H16.2542C12.9122 235 11.0438 231.145 13.1147 228.521L21.7989 217.521Z" fill="#1A73E8"/>
<path d="M52.0305 261.256C51.0492 261.256 50.3025 260.952 49.7905 260.344C49.2785 259.736 49.0225 258.888 49.0225 257.8V252.84H51.1185V257.544C51.1185 258.099 51.2518 258.536 51.5185 258.856C51.7852 259.165 52.1372 259.32 52.5745 259.32C53.1718 259.32 53.6465 259.101 53.9985 258.664C54.3505 258.227 54.5265 257.672 54.5265 257V252.84H56.6225V261H54.6545V259.976H54.5265C54.2812 260.371 53.9345 260.685 53.4865 260.92C53.0492 261.144 52.5638 261.256 52.0305 261.256ZM61.6905 261.256C60.6985 261.256 59.8932 261.053 59.2745 260.648C58.6665 260.243 58.2398 259.715 57.9945 259.064L59.8665 258.248C60.0372 258.632 60.2772 258.925 60.5865 259.128C60.9065 259.32 61.2745 259.416 61.6905 259.416C62.0745 259.416 62.3945 259.357 62.6505 259.24C62.9065 259.112 63.0345 258.909 63.0345 258.632C63.0345 258.365 62.9172 258.168 62.6825 258.04C62.4478 257.901 62.0958 257.779 61.6265 257.672L60.6665 257.464C60.0052 257.304 59.4558 257.016 59.0185 256.6C58.5812 256.173 58.3625 255.645 58.3625 255.016C58.3625 254.547 58.5012 254.125 58.7785 253.752C59.0665 253.379 59.4505 253.091 59.9305 252.888C60.4212 252.685 60.9598 252.584 61.5465 252.584C63.2318 252.584 64.3572 253.176 64.9225 254.36L63.1305 255.144C62.8105 254.568 62.2985 254.28 61.5945 254.28C61.2318 254.28 60.9438 254.349 60.7305 254.488C60.5172 254.616 60.4105 254.781 60.4105 254.984C60.4105 255.368 60.7732 255.656 61.4985 255.848L62.6985 256.136C63.5092 256.339 64.1172 256.648 64.5225 257.064C64.9385 257.48 65.1465 257.992 65.1465 258.6C65.1465 259.123 64.9918 259.587 64.6825 259.992C64.3838 260.387 63.9678 260.696 63.4345 260.92C62.9118 261.144 62.3305 261.256 61.6905 261.256ZM70.5668 261.256C69.7561 261.256 69.0254 261.069 68.3748 260.696C67.7241 260.323 67.2121 259.811 66.8388 259.16C66.4761 258.499 66.2948 257.757 66.2948 256.936C66.2948 256.157 66.4761 255.437 66.8388 254.776C67.2014 254.104 67.7028 253.571 68.3428 253.176C68.9828 252.781 69.6974 252.584 70.4868 252.584C71.3294 252.584 72.0548 252.765 72.6628 253.128C73.2708 253.491 73.7294 253.987 74.0388 254.616C74.3588 255.245 74.5188 255.944 74.5188 256.712C74.5188 256.957 74.5028 257.192 74.4708 257.416H68.3428C68.4494 258.067 68.7054 258.563 69.1108 258.904C69.5268 259.235 70.0228 259.4 70.5988 259.4C71.0788 259.4 71.4894 259.299 71.8308 259.096C72.1828 258.883 72.4601 258.6 72.6628 258.248L74.3588 259.08C73.5268 260.531 72.2628 261.256 70.5668 261.256ZM72.5028 255.928C72.4814 255.672 72.3854 255.421 72.2148 255.176C72.0548 254.92 71.8254 254.712 71.5268 254.552C71.2388 254.381 70.8974 254.296 70.5028 254.296C70.0014 254.296 69.5694 254.445 69.2068 254.744C68.8548 255.032 68.5988 255.427 68.4388 255.928H72.5028ZM76.1334 252.84H78.1014V253.928H78.2294C78.432 253.544 78.7467 253.229 79.1734 252.984C79.6 252.728 80.0694 252.6 80.5814 252.6C80.9547 252.6 81.296 252.659 81.6054 252.776V254.872C81.3174 254.765 81.072 254.691 80.8694 254.648C80.6774 254.595 80.4694 254.568 80.2454 254.568C79.6267 254.568 79.136 254.792 78.7734 255.24C78.4107 255.688 78.2294 256.253 78.2294 256.936V261H76.1334V252.84Z" fill="#3C4043"/>
<path d="M63 179C59.134 179 56 182.134 56 186C56 189.866 59.134 193 63 193C66.866 193 70 189.866 70 186L70 179L63 179Z" fill="white"/>
<path d="M70 193C62.268 193 56 199.268 56 207H70V193Z" fill="white"/>
<path d="M56 165L56 179L70 165L56 165Z" fill="white"/>
</g>
<defs>
<clipPath id="clip0">
<rect width="721" height="265" fill="white"/>
</clipPath>
</defs>
</svg>
