<svg width="346" height="196" viewBox="0 0 346 196" fill="none" xmlns="http://www.w3.org/2000/svg">
<path d="M121.355 81.6447C112.308 72.5964 99.8066 67 86 67L111 42L136 67L121.355 81.6447Z" fill="#FFD02A"/>
<path d="M111 92L86 67V117H111L131.581 96.4189C129.077 90.8832 125.596 85.8849 121.355 81.6447L111 92Z" fill="#FF6846"/>
<path d="M86 142L111 117H136C136 109.663 134.42 102.696 131.581 96.4189L136 92V117V142H86Z" fill="#1A73E8"/>
<rect x="78.5" y="34.5" width="65" height="115" rx="3.5" stroke="#1A73E8"/>
<rect x="79" y="156" width="39" height="5" rx="2" fill="#1A73E8"/>
<path d="M245.355 81.6447C236.308 72.5964 223.807 67 210 67L235 42L260 67L245.355 81.6447Z" fill="#FFD02A"/>
<path d="M235 92L210 67V117H235L255.581 96.4189C253.077 90.8832 249.596 85.8849 245.355 81.6447L235 92Z" fill="#FF6846"/>
<path d="M210 142L235 117H260C260 109.663 258.42 102.696 255.581 96.4189L260 92V117V142H210Z" fill="#1A73E8"/>
<rect x="202.5" y="34.5" width="65" height="115" rx="3.5" stroke="#1A73E8"/>
<rect x="203" y="156" width="39" height="5" rx="2" fill="#1A73E8"/>
<path d="M154.646 91.6464C154.451 91.8417 154.451 92.1583 154.646 92.3536L157.828 95.5355C158.024 95.7308 158.34 95.7308 158.536 95.5355C158.731 95.3403 158.731 95.0237 158.536 94.8284L155.707 92L158.536 89.1716C158.731 88.9763 158.731 88.6597 158.536 88.4645C158.34 88.2692 158.024 88.2692 157.828 88.4645L154.646 91.6464ZM191.354 92.3536C191.549 92.1583 191.549 91.8417 191.354 91.6464L188.172 88.4645C187.976 88.2692 187.66 88.2692 187.464 88.4645C187.269 88.6597 187.269 88.9763 187.464 89.1716L190.293 92L187.464 94.8284C187.269 95.0237 187.269 95.3403 187.464 95.5355C187.66 95.7308 187.976 95.7308 188.172 95.5355L191.354 92.3536ZM155 92.5H191V91.5H155V92.5Z" fill="#1A73E8"/>
<rect width="346" height="195.856" rx="4" stroke="#DADCE0"/>
</svg>
