<?xml version="1.0" encoding="UTF-8"?>
<svg width="81px" height="40px" viewBox="0 0 81 31" version="1.1" xmlns="http://www.w3.org/2000/svg" xmlns:xlink="http://www.w3.org/1999/xlink">
    <!-- Generator: Sketch 63.1 (92452) - https://sketch.com -->
    <title>Artboard</title>
    <desc>Created with Sketch.</desc>
    <g id="Artboard" stroke="none" stroke-width="1" fill="none" fill-rule="evenodd">
        <g id="go-logo" fill="#00ACD7" fill-rule="nonzero">
            <path d="M6.3017,9.72484 C6.14453045,9.72484 6.10524,9.64625 6.18382,9.52838 L7.00897,8.46746 C7.08756,8.34958 7.28402,8.271 7.44119,8.271 L21.4687,8.271 C21.6259,8.271 21.6652,8.38887 21.5866,8.50675 L20.9186,9.52838 C20.84,9.64625 20.6435,9.76413 20.5257,9.76413 L6.3017,9.72484 Z" id="Path"></path>
            <path d="M0.366156,13.3396 C0.208984593,13.3396 0.169692,13.261 0.248277,13.1431 L1.07342,12.0822 C1.15201,11.9643 1.34847,11.8857 1.50564,11.8857 L19.4231,11.8857 C19.5803,11.8857 19.6589,12.0036 19.6196,12.1215 L19.3052,13.0645 C19.2659,13.2217 19.1088,13.3003 18.9516,13.3003 L0.366156,13.3396 Z" id="Path"></path>
            <path d="M9.8759,16.9548 C9.71875431,16.9548 9.6795,16.8369 9.758,16.719 L10.3081,15.7367 C10.3867,15.6189 10.5439,15.501 10.7011,15.501 L18.5596,15.501 C18.7168,15.501 18.7954,15.6189 18.7954,15.776 L18.7168,16.719 C18.7168,16.8762 18.5596,16.9941 18.4417,16.9941 L9.8759,16.9548 Z" id="Path"></path>
            <path d="M50.6604,9.0176 C48.1849,9.64628 46.4953,10.1178 44.0592,10.7465 C43.4698,10.9036 43.4305,10.9429 42.9197,10.3535 C42.3303,9.68557 41.8981,9.25335 41.0729,8.86042 C38.5975,7.64235 36.2006,7.99598 33.961,9.44982 C31.2891,11.1787 29.9138,13.7327 29.9531,16.9154 C29.9924,20.0589 32.1535,22.6522 35.2576,23.0844 C37.9295,23.438 40.1692,22.495 41.9374,20.4911 C42.291,20.0589 42.6054,19.5873 42.9983,19.0372 C41.5838,19.0372 39.8156,19.0372 35.4148,19.0372 C34.5896,19.0372 34.3932,18.5264 34.6682,17.8585 C35.179,16.6404 36.1221,14.5972 36.6722,13.5756 C36.79,13.3398 37.0651,12.9469 37.6545,12.9469 C39.6584,12.9469 47.0454,12.9469 51.957,12.9469 C51.8785,14.0078 51.8785,15.0687 51.7213,16.1296 C51.2891,18.9587 50.2282,21.552 48.4993,23.831 C45.6702,27.5638 41.9767,29.882 37.3008,30.5107 C33.4502,31.0215 29.8745,30.275 26.7311,27.9174 C23.8234,25.717 22.1731,22.8093 21.7409,19.1944 C21.2301,14.9115 22.4875,11.0608 25.0808,7.68164 C27.8706,4.02742 31.5641,1.70914 36.0828,0.883996 C39.7763,0.216019 43.3126,0.64824 46.4953,2.80934 C48.5779,4.18459 50.071,6.07064 51.0533,8.34962 C51.2891,8.70325 51.1319,8.89972 50.6604,9.0176 Z" id="Path"></path>
            <path d="M63.6656,30.7464 C60.09,30.6678 56.8287,29.6462 54.0782,27.2886 C51.7599,25.2847 50.3061,22.7307 49.8346,19.7051 C49.1273,15.2651 50.3454,11.3358 53.0173,7.83873 C55.8857,4.06663 59.3434,2.102 64.0193,1.27685 C68.0271,0.56958 71.7992,0.962506 75.2177,3.28078 C78.3218,5.40258 80.2472,8.27095 80.758,12.0431 C81.4259,17.3476 79.8935,21.6698 76.2393,25.3633 C73.646,27.9959 70.4633,29.6462 66.8091,30.3927 C65.7482,30.5892 64.6873,30.6285 63.6656,30.7464 Z M73.0173,14.8721 C72.978,14.3613 72.978,13.9684 72.8994,13.5755 C72.1922,9.68549 68.6165,7.4851 64.8837,8.34954 C61.2295,9.17468 58.8719,11.493 58.0075,15.1865 C57.3002,18.2513 58.7933,21.3554 61.6224,22.6128 C63.7835,23.5558 65.9446,23.4379 68.0271,22.377 C71.1313,20.766 72.8208,18.2513 73.0173,14.8721 Z" id="Shape"></path>
        </g>
    </g>
</svg>
