<svg width="75" height="24" viewBox="0 0 75 24" fill="none" xmlns="http://www.w3.org/2000/svg">
<rect width="75" height="24" fill="white" fill-opacity="0.01"/>
<path fill-rule="evenodd" clip-rule="evenodd" d="M9.445 18.6185C4.314 18.6185 0 14.4415 0 9.30949C0 4.17849 4.314 0.000488281 9.445 0.000488281C12.284 0.000488281 14.304 1.11249 15.826 2.56549L14.032 4.35949C12.942 3.33749 11.466 2.54349 9.445 2.54349C5.699 2.54349 2.77 5.56349 2.77 9.30949C2.77 13.0555 5.699 16.0755 9.445 16.0755C11.875 16.0755 13.259 15.0995 14.145 14.2135C14.871 13.4875 15.349 12.4425 15.53 11.0125H9.445V8.46949H18.005C18.096 8.92349 18.142 9.46849 18.142 10.0585C18.142 11.9665 17.619 14.3275 15.939 16.0075C14.304 17.7105 12.215 18.6185 9.445 18.6185ZM28.7948 12.6244C28.7948 10.4674 27.2568 8.99139 25.4728 8.99139C23.6898 8.99139 22.1518 10.4674 22.1518 12.6244C22.1518 14.7584 23.6898 16.2574 25.4728 16.2574C27.2568 16.2574 28.7948 14.7584 28.7948 12.6244ZM31.3808 12.6244C31.3808 16.0754 28.7278 18.6184 25.4728 18.6184C22.2188 18.6184 19.5658 16.0754 19.5658 12.6244C19.5658 9.15039 22.2188 6.63039 25.4728 6.63039C28.7278 6.63039 31.3808 9.15039 31.3808 12.6244ZM38.7167 8.99139C40.5007 8.99139 42.0387 10.4674 42.0387 12.6244C42.0387 14.7584 40.5007 16.2574 38.7167 16.2574C36.9337 16.2574 35.3947 14.7584 35.3947 12.6244C35.3947 10.4674 36.9337 8.99139 38.7167 8.99139ZM38.7167 18.6184C41.9717 18.6184 44.6247 16.0754 44.6247 12.6244C44.6247 9.15039 41.9717 6.63039 38.7167 6.63039C35.4617 6.63039 32.8097 9.15039 32.8097 12.6244C32.8097 16.0754 35.4617 18.6184 38.7167 18.6184ZM55.2213 12.647C55.2213 10.536 53.8133 8.99099 52.0203 8.99099C50.2043 8.99099 48.6823 10.536 48.6823 12.647C48.6823 14.736 50.2043 16.257 52.0203 16.257C53.8133 16.257 55.2213 14.736 55.2213 12.647ZM57.5373 6.99299V17.756C57.5373 22.183 54.9263 24 51.8383 24C48.9323 24 47.1843 22.047 46.5253 20.458L48.8183 19.504C49.2273 20.48 50.2263 21.638 51.8383 21.638C53.8133 21.638 55.0403 20.413 55.0403 18.119V17.256H54.9483C54.3583 17.983 53.2233 18.618 51.7933 18.618C48.7963 18.618 46.0493 16.008 46.0493 12.647C46.0493 9.26399 48.7963 6.62999 51.7933 6.62999C53.2233 6.62999 54.3583 7.26599 54.9483 7.96999H55.0403V6.99299H57.5373ZM62.153 18.2551H59.519V0.636088H62.153V18.2551ZM71.5766 10.2178L66.2176 12.4428C66.1506 10.1268 68.0116 8.94579 69.3516 8.94579C70.3956 8.94579 71.2806 9.46879 71.5766 10.2178ZM74.5506 15.9618L72.5066 14.5998C71.8256 15.5988 70.8946 16.2568 69.5556 16.2568C68.2156 16.2568 67.2626 15.6438 66.6486 14.4408L74.6636 11.1258L74.3916 10.4448C73.8926 9.10479 72.3706 6.62979 69.2606 6.62979C66.1726 6.62979 63.6906 9.05979 63.6906 12.6248C63.6906 15.9848 66.1506 18.6188 69.5556 18.6188C72.3026 18.6188 73.8926 16.9388 74.5506 15.9618Z" fill="#80868B"/>
</svg>
