<?xml version="1.0" encoding="UTF-8"?>
<svg width="204px" height="179px" viewBox="0 0 204 179" version="1.1" xmlns="http://www.w3.org/2000/svg" xmlns:xlink="http://www.w3.org/1999/xlink">
    <!-- Generator: Sketch 63.1 (92452) - https://sketch.com -->
    <title>Artboard</title>
    <desc>Created with Sketch.</desc>
    <g id="Artboard" stroke="none" stroke-width="1" fill="none" fill-rule="evenodd">
        <g id="Verifiable-log_2">
            <rect id="Rectangle" fill="#FFFFFF" fill-rule="nonzero" x="122.5" y="120.5" width="19" height="19" rx="9.5"></rect>
            <path d="M131.998,135.24 C131.128,135.24 130.358,135.01 129.688,134.55 C129.028,134.09 128.573,133.42 128.323,132.54 L130.183,131.805 C130.303,132.295 130.518,132.675 130.828,132.945 C131.138,133.205 131.528,133.335 131.998,133.335 C132.428,133.335 132.798,133.205 133.108,132.945 C133.428,132.685 133.588,132.355 133.588,131.955 C133.588,131.525 133.418,131.185 133.078,130.935 C132.748,130.675 132.298,130.545 131.728,130.545 L130.843,130.545 L130.843,128.76 L131.653,128.76 C132.093,128.76 132.463,128.65 132.763,128.43 C133.073,128.21 133.228,127.89 133.228,127.47 C133.228,127.13 133.103,126.85 132.853,126.63 C132.603,126.41 132.283,126.3 131.893,126.3 C131.483,126.3 131.153,126.41 130.903,126.63 C130.653,126.85 130.478,127.125 130.378,127.455 L128.593,126.72 C128.803,126.12 129.188,125.6 129.748,125.16 C130.318,124.72 131.038,124.5 131.908,124.5 C132.548,124.5 133.118,124.62 133.618,124.86 C134.128,125.1 134.523,125.43 134.803,125.85 C135.083,126.26 135.223,126.725 135.223,127.245 C135.223,127.795 135.093,128.265 134.833,128.655 C134.583,129.045 134.278,129.33 133.918,129.51 L133.918,129.63 C134.418,129.83 134.823,130.145 135.133,130.575 C135.443,131.005 135.598,131.525 135.598,132.135 C135.598,132.725 135.448,133.255 135.148,133.725 C134.848,134.195 134.423,134.565 133.873,134.835 C133.333,135.105 132.708,135.24 131.998,135.24 Z" id="Path" fill="#1A73E8" fill-rule="nonzero"></path>
            <rect id="Rectangle" stroke="#1A73E8" x="122.5" y="120.5" width="19" height="19" rx="9.5"></rect>
            <rect id="Rectangle" fill="#FFFFFF" fill-rule="nonzero" x="62.5" y="120.5" width="19" height="19" rx="9.5"></rect>
            <path d="M68.6125,133.215 C68.9425,132.885 69.5775,132.25 70.5175,131.31 C71.4675,130.36 72.0775,129.74 72.3475,129.45 C72.7075,129.06 72.9525,128.735 73.0825,128.475 C73.2225,128.215 73.2925,127.92 73.2925,127.59 C73.2925,127.24 73.1625,126.945 72.9025,126.705 C72.6425,126.465 72.2975,126.345 71.8675,126.345 C71.4475,126.345 71.1075,126.465 70.8475,126.705 C70.5875,126.945 70.4025,127.245 70.2925,127.605 L68.5225,126.87 C68.6325,126.48 68.8325,126.105 69.1225,125.745 C69.4225,125.375 69.8075,125.075 70.2775,124.845 C70.7475,124.615 71.2875,124.5 71.8975,124.5 C72.5775,124.5 73.1725,124.635 73.6825,124.905 C74.1925,125.165 74.5875,125.525 74.8675,125.985 C75.1475,126.435 75.2875,126.94 75.2875,127.5 C75.2875,128.61 74.7475,129.695 73.6675,130.755 C73.2275,131.185 72.4125,131.995 71.2225,133.185 L71.2675,133.275 L75.4225,133.275 L75.4225,135 L68.6125,135 L68.6125,133.215 Z" id="Path" fill="#1A73E8" fill-rule="nonzero"></path>
            <rect id="Rectangle" stroke="#1A73E8" x="62.5" y="120.5" width="19" height="19" rx="9.5"></rect>
            <rect id="Rectangle" fill="#FFFFFF" fill-rule="nonzero" x="2.5" y="120.5" width="19" height="19" rx="9.5"></rect>
            <polygon id="Path" fill="#1A73E8" fill-rule="nonzero" points="11.473 127.305 9.92805 128.43 8.93805 126.915 11.953 124.74 13.438 124.74 13.438 135 11.473 135"></polygon>
            <rect id="Rectangle" stroke="#1A73E8" x="2.5" y="120.5" width="19" height="19" rx="9.5"></rect>
            <rect id="Rectangle" fill="#AECBFA" fill-rule="nonzero" x="2" y="80" width="20" height="20" rx="1"></rect>
            <path d="M10.8324,84.26 L13.1574,84.26 L17.1924,95 L14.9574,95 L14.0574,92.435 L9.9474,92.435 L9.0474,95 L6.8124,95 L10.8324,84.26 Z M13.3974,90.575 L12.4524,87.875 L12.0624,86.585 L11.9424,86.585 L11.5524,87.875 L10.5924,90.575 L13.3974,90.575 Z" id="Shape" fill="#174EA6" fill-rule="nonzero"></path>
            <rect id="Rectangle" fill="#AECBFA" fill-rule="nonzero" x="2" y="80" width="20" height="20" rx="1"></rect>
            <path d="M10.8324,84.76 L13.1574,84.76 L17.1924,95.5 L14.9574,95.5 L14.0574,92.935 L9.9474,92.935 L9.0474,95.5 L6.8124,95.5 L10.8324,84.76 Z M13.3974,91.075 L12.4524,88.375 L12.0624,87.085 L11.9424,87.085 L11.5524,88.375 L10.5924,91.075 L13.3974,91.075 Z" id="Shape" fill="#174EA6" fill-rule="nonzero"></path>
            <rect id="Rectangle" fill="#FCC934" fill-rule="nonzero" x="62" y="80" width="20" height="20" rx="1"></rect>
            <path d="M67.874,84.76 L72.074,84.76 C72.674,84.76 73.224,84.885 73.724,85.135 C74.234,85.385 74.634,85.725 74.924,86.155 C75.214,86.585 75.359,87.055 75.359,87.565 C75.359,88.105 75.224,88.575 74.954,88.975 C74.694,89.365 74.349,89.665 73.919,89.875 L73.919,89.995 C74.479,90.195 74.924,90.515 75.254,90.955 C75.584,91.385 75.749,91.905 75.749,92.515 C75.749,93.105 75.589,93.63 75.269,94.09 C74.959,94.54 74.534,94.89 73.994,95.14 C73.464,95.38 72.874,95.5 72.224,95.5 L67.874,95.5 L67.874,84.76 Z M71.924,89.14 C72.364,89.14 72.714,89.02 72.974,88.78 C73.244,88.53 73.379,88.22 73.379,87.85 C73.379,87.49 73.249,87.19 72.989,86.95 C72.739,86.7 72.404,86.575 71.984,86.575 L69.899,86.575 L69.899,89.14 L71.924,89.14 Z M72.149,93.655 C72.639,93.655 73.019,93.53 73.289,93.28 C73.569,93.02 73.709,92.685 73.709,92.275 C73.709,91.865 73.569,91.53 73.289,91.27 C73.009,91.01 72.609,90.88 72.089,90.88 L69.899,90.88 L69.899,93.655 L72.149,93.655 Z" id="Shape" fill="#BD6000" fill-rule="nonzero"></path>
            <rect id="Rectangle" fill="#FF9780" fill-rule="nonzero" x="32" y="40" width="20" height="20" rx="1"></rect>
            <path d="M42.4898,55.74 C41.4498,55.74 40.4998,55.495 39.6398,55.005 C38.7798,54.505 38.0998,53.83 37.5998,52.98 C37.1098,52.12 36.8648,51.17 36.8648,50.13 C36.8648,49.09 37.1098,48.145 37.5998,47.295 C38.0998,46.435 38.7798,45.76 39.6398,45.27 C40.4998,44.77 41.4498,44.52 42.4898,44.52 C44.1098,44.52 45.4498,45.105 46.5098,46.275 L45.0848,47.655 C44.3948,46.845 43.5348,46.44 42.5048,46.44 C41.8348,46.44 41.2248,46.595 40.6748,46.905 C40.1248,47.205 39.6898,47.635 39.3698,48.195 C39.0598,48.755 38.9048,49.4 38.9048,50.13 C38.9048,50.86 39.0598,51.505 39.3698,52.065 C39.6898,52.625 40.1248,53.06 40.6748,53.37 C41.2248,53.67 41.8348,53.82 42.5048,53.82 C43.6348,53.82 44.5798,53.35 45.3398,52.41 L46.7798,53.775 C46.2498,54.415 45.6198,54.905 44.8898,55.245 C44.1698,55.575 43.3698,55.74 42.4898,55.74 Z" id="Path" fill="#A50E0E" fill-rule="nonzero"></path>
            <rect id="Rectangle" fill="#57E690" fill-rule="nonzero" x="122" y="40" width="20" height="20" rx="1"></rect>
            <path d="M127.693,44.76 L131.323,44.76 C132.443,44.76 133.418,44.985 134.248,45.435 C135.078,45.885 135.718,46.515 136.168,47.325 C136.618,48.135 136.843,49.07 136.843,50.13 C136.843,51.19 136.618,52.125 136.168,52.935 C135.718,53.745 135.078,54.375 134.248,54.825 C133.418,55.275 132.443,55.5 131.323,55.5 L127.693,55.5 L127.693,44.76 Z M131.233,53.58 C132.393,53.58 133.278,53.275 133.888,52.665 C134.498,52.045 134.803,51.2 134.803,50.13 C134.803,49.06 134.498,48.22 133.888,47.61 C133.278,46.99 132.393,46.68 131.233,46.68 L129.718,46.68 L129.718,53.58 L131.233,53.58 Z" id="Shape" fill="#0D652D" fill-rule="nonzero"></path>
            <path d="M72.1718,21.5304 C72.4311,21.6253 72.5644,21.9125 72.4696,22.1718 L70.9234,26.3978 C70.8286,26.6572 70.5414,26.7905 70.2821,26.6956 C70.0228,26.6007 69.8894,26.3136 69.9843,26.0543 L71.3586,22.2978 L67.6022,20.9234 C67.3428,20.8286 67.2095,20.5414 67.3044,20.2821 C67.3993,20.0228 67.6864,19.8894 67.9457,19.9843 L72.1718,21.5304 Z M44.2106,35.4535 C43.9601,35.5698 43.6628,35.461 43.5465,35.2106 C43.4302,34.9601 43.539,34.6628 43.7894,34.5465 L44.2106,35.4535 Z M72.2106,22.4535 L44.2106,35.4535 L43.7894,34.5465 L71.7894,21.5465 L72.2106,22.4535 Z" id="Shape" fill="#BDC1C6" fill-rule="nonzero"></path>
            <path d="M101.828,21.5304 C101.569,21.6253 101.436,21.9125 101.53,22.1718 L103.077,26.3978 C103.171,26.6572 103.459,26.7905 103.718,26.6956 C103.977,26.6007 104.111,26.3136 104.016,26.0543 L102.641,22.2978 L106.398,20.9234 C106.657,20.8286 106.79,20.5414 106.696,20.2821 C106.601,20.0228 106.314,19.8894 106.054,19.9843 L101.828,21.5304 Z M129.789,35.4535 C130.04,35.5698 130.337,35.461 130.454,35.2106 C130.57,34.9601 130.461,34.6628 130.211,34.5465 L129.789,35.4535 Z M101.789,22.4535 L129.789,35.4535 L130.211,34.5465 L102.211,21.5465 L101.789,22.4535 Z" id="Shape" fill="#BDC1C6" fill-rule="nonzero"></path>
            <path d="M57,62.5 C56.7239,62.5 56.5,62.7239 56.5,63 L56.5,67.5 C56.5,67.7761 56.7239,68 57,68 C57.2761,68 57.5,67.7761 57.5,67.5 L57.5,63.5 L61.5,63.5 C61.7761,63.5 62,63.2761 62,63 C62,62.7239 61.7761,62.5 61.5,62.5 L57,62.5 Z M68.6464,75.3536 C68.8417,75.5488 69.1583,75.5488 69.3536,75.3536 C69.5488,75.1583 69.5488,74.8417 69.3536,74.6464 L68.6464,75.3536 Z M56.6464,63.3536 L68.6464,75.3536 L69.3536,74.6464 L57.3536,62.6464 L56.6464,63.3536 Z" id="Shape" fill="#BDC1C6" fill-rule="nonzero"></path>
            <path d="M27,62.5 C27.2761,62.5 27.5,62.7239 27.5,63 L27.5,67.5 C27.5,67.7761 27.2761,68 27,68 C26.7239,68 26.5,67.7761 26.5,67.5 L26.5,63.5 L22.5,63.5 C22.2239,63.5 22,63.2761 22,63 C22,62.7239 22.2239,62.5 22.5,62.5 L27,62.5 Z M15.3536,75.3536 C15.1583,75.5488 14.8417,75.5488 14.6464,75.3536 C14.4512,75.1583 14.4512,74.8417 14.6464,74.6464 L15.3536,75.3536 Z M27.3536,63.3536 L15.3536,75.3536 L14.6464,74.6464 L26.6464,62.6464 L27.3536,63.3536 Z" id="Shape" fill="#BDC1C6" fill-rule="nonzero"></path>
            <path d="M132.354,64.6464 C132.158,64.4512 131.842,64.4512 131.646,64.6464 L128.464,67.8284 C128.269,68.0237 128.269,68.3403 128.464,68.5355 C128.66,68.7308 128.976,68.7308 129.172,68.5355 L132,65.7071 L134.828,68.5355 C135.024,68.7308 135.34,68.7308 135.536,68.5355 C135.731,68.3403 135.731,68.0237 135.536,67.8284 L132.354,64.6464 Z M131.5,115 C131.5,115.276 131.724,115.5 132,115.5 C132.276,115.5 132.5,115.276 132.5,115 L131.5,115 Z M131.5,65 L131.5,115 L132.5,115 L132.5,65 L131.5,65 Z" id="Shape" fill="#BDC1C6" fill-rule="nonzero"></path>
            <path d="M72.3536,104.646 C72.1583,104.451 71.8417,104.451 71.6464,104.646 L68.4645,107.828 C68.2692,108.024 68.2692,108.34 68.4645,108.536 C68.6597,108.731 68.9763,108.731 69.1716,108.536 L72,105.707 L74.8284,108.536 C75.0237,108.731 75.3403,108.731 75.5355,108.536 C75.7308,108.34 75.7308,108.024 75.5355,107.828 L72.3536,104.646 Z M71.5,115 C71.5,115.276 71.7239,115.5 72,115.5 C72.2761,115.5 72.5,115.276 72.5,115 L71.5,115 Z M71.5,105 L71.5,115 L72.5,115 L72.5,105 L71.5,105 Z" id="Shape" fill="#BDC1C6" fill-rule="nonzero"></path>
            <path d="M12.3536,104.646 C12.1583,104.451 11.8417,104.451 11.6464,104.646 L8.46447,107.828 C8.2692,108.024 8.2692,108.34 8.46447,108.536 C8.65973,108.731 8.97631,108.731 9.17157,108.536 L12,105.707 L14.8284,108.536 C15.0237,108.731 15.3403,108.731 15.5355,108.536 C15.7308,108.34 15.7308,108.024 15.5355,107.828 L12.3536,104.646 Z M11.5,115 C11.5,115.276 11.7239,115.5 12,115.5 C12.2761,115.5 12.5,115.276 12.5,115 L11.5,115 Z M11.5,105 L11.5,115 L12.5,115 L12.5,105 L11.5,105 Z" id="Shape" fill="#BDC1C6" fill-rule="nonzero"></path>
            <rect id="Rectangle" fill="#FFFFFF" fill-rule="nonzero" x="0.5" y="149.5" width="23" height="29" rx="0.5"></rect>
            <line x1="5.5" y1="155.5" x2="18.5" y2="155.5" id="Path" stroke="#1A73E8" stroke-linecap="round"></line>
            <line x1="12" y1="139.5" x2="12" y2="149.5" id="Path" stroke="#1A73E8" stroke-linecap="round"></line>
            <line x1="5.5" y1="158.5" x2="18.5" y2="158.5" id="Path" stroke="#1A73E8" stroke-linecap="round"></line>
            <line x1="5.5" y1="161.5" x2="18.5" y2="161.5" id="Path" stroke="#1A73E8" stroke-linecap="round"></line>
            <line x1="5.5" y1="164.5" x2="18.5" y2="164.5" id="Path" stroke="#1A73E8" stroke-linecap="round"></line>
            <line x1="5.5" y1="167.5" x2="15.5" y2="167.5" id="Path" stroke="#1A73E8" stroke-linecap="round"></line>
            <path d="M1,149.5 L23,149.5 C23.2761424,149.5 23.5,149.723858 23.5,150 L23.5,178 C23.5,178.276142 23.2761424,178.5 23,178.5 L1,178.5 C0.723857625,178.5 0.5,178.276142 0.5,178 L0.5,150 C0.5,149.723858 0.723857625,149.5 1,149.5 Z" id="Rectangle" stroke="#1A73E8"></path>
            <path d="M61,149.5 L83,149.5 C83.2761424,149.5 83.5,149.723858 83.5,150 L83.5,178 C83.5,178.276142 83.2761424,178.5 83,178.5 L61,178.5 C60.7238576,178.5 60.5,178.276142 60.5,178 L60.5,150 C60.5,149.723858 60.7238576,149.5 61,149.5 Z" id="Rectangle" fill="#FFFFFF" fill-rule="nonzero"></path>
            <line x1="65.5" y1="155.5" x2="78.5" y2="155.5" id="Path" stroke="#1A73E8" stroke-linecap="round"></line>
            <line x1="65.5" y1="158.5" x2="78.5" y2="158.5" id="Path" stroke="#1A73E8" stroke-linecap="round"></line>
            <line x1="65.5" y1="161.5" x2="78.5" y2="161.5" id="Path" stroke="#1A73E8" stroke-linecap="round"></line>
            <line x1="65.5" y1="164.5" x2="78.5" y2="164.5" id="Path" stroke="#1A73E8" stroke-linecap="round"></line>
            <line x1="65.5" y1="167.5" x2="75.5" y2="167.5" id="Path" stroke="#1A73E8" stroke-linecap="round"></line>
            <line x1="72" y1="139.5" x2="72" y2="149.5" id="Path" stroke="#1A73E8" stroke-linecap="round"></line>
            <path d="M61,149.5 L83,149.5 C83.2761424,149.5 83.5,149.723858 83.5,150 L83.5,178 C83.5,178.276142 83.2761424,178.5 83,178.5 L61,178.5 C60.7238576,178.5 60.5,178.276142 60.5,178 L60.5,150 C60.5,149.723858 60.7238576,149.5 61,149.5 Z" id="Rectangle" stroke="#1A73E8"></path>
            <path d="M121,149.5 L143,149.5 C143.276142,149.5 143.5,149.723858 143.5,150 L143.5,178 C143.5,178.276142 143.276142,178.5 143,178.5 L121,178.5 C120.723858,178.5 120.5,178.276142 120.5,178 L120.5,150 C120.5,149.723858 120.723858,149.5 121,149.5 Z" id="Rectangle" fill="#FFFFFF" fill-rule="nonzero"></path>
            <line x1="125.5" y1="155.5" x2="138.5" y2="155.5" id="Path" stroke="#1A73E8" stroke-linecap="round"></line>
            <line x1="125.5" y1="158.5" x2="138.5" y2="158.5" id="Path" stroke="#1A73E8" stroke-linecap="round"></line>
            <line x1="125.5" y1="161.5" x2="138.5" y2="161.5" id="Path" stroke="#1A73E8" stroke-linecap="round"></line>
            <line x1="125.5" y1="164.5" x2="138.5" y2="164.5" id="Path" stroke="#1A73E8" stroke-linecap="round"></line>
            <line x1="125.5" y1="167.5" x2="135.5" y2="167.5" id="Path" stroke="#1A73E8" stroke-linecap="round"></line>
            <line x1="132" y1="139.5" x2="132" y2="149.5" id="Path" stroke="#1A73E8" stroke-linecap="round"></line>
            <path d="M121,149.5 L143,149.5 C143.276142,149.5 143.5,149.723858 143.5,150 L143.5,178 C143.5,178.276142 143.276142,178.5 143,178.5 L121,178.5 C120.723858,178.5 120.5,178.276142 120.5,178 L120.5,150 C120.5,149.723858 120.723858,149.5 121,149.5 Z" id="Rectangle" stroke="#1A73E8"></path>
            <rect id="Rectangle" fill="#AECBFA" fill-rule="nonzero" x="77" y="0" width="20" height="20" rx="1"></rect>
            <polygon id="Path" fill="#174EA6" fill-rule="nonzero" points="83.7842 4.76 90.5942 4.76 90.5942 6.68 85.8092 6.68 85.8092 9.17 90.1142 9.17 90.1142 11.09 85.8092 11.09 85.8092 13.58 90.5942 13.58 90.5942 15.5 83.7842 15.5"></polygon>
        </g>
    </g>
</svg>