<?xml version="1.0" encoding="UTF-8"?>
<svg width="204px" height="179px" viewBox="0 0 204 179" version="1.1" xmlns="http://www.w3.org/2000/svg" xmlns:xlink="http://www.w3.org/1999/xlink">
    <!-- Generator: Sketch 63.1 (92452) - https://sketch.com -->
    <title>Artboard</title>
    <desc>Created with Sketch.</desc>
    <g id="Artboard" stroke="none" stroke-width="1" fill="none" fill-rule="evenodd">
        <g id="Verifiable-log_1">
            <rect id="Rectangle" fill="#FFFFFF" fill-rule="nonzero" x="182.5" y="120.5" width="19" height="19" rx="9.5"></rect>
            <path d="M192.22,133.11 L187.495,133.11 L187.495,131.52 L192.055,124.74 L194.185,124.74 L194.185,131.28 L195.46,131.28 L195.46,133.11 L194.185,133.11 L194.185,135 L192.22,135 L192.22,133.11 Z M192.22,131.28 L192.22,127.665 L192.1,127.665 L189.67,131.28 L192.22,131.28 Z" id="Shape" fill="#1A73E8" fill-rule="nonzero"></path>
            <rect id="Rectangle" stroke="#1A73E8" x="182.5" y="120.5" width="19" height="19" rx="9.5"></rect>
            <rect id="Rectangle" fill="#FFFFFF" fill-rule="nonzero" x="122.5" y="120.5" width="19" height="19" rx="9.5"></rect>
            <path d="M131.998,135.24 C131.128,135.24 130.358,135.01 129.688,134.55 C129.028,134.09 128.573,133.42 128.323,132.54 L130.183,131.805 C130.303,132.295 130.518,132.675 130.828,132.945 C131.138,133.205 131.528,133.335 131.998,133.335 C132.428,133.335 132.798,133.205 133.108,132.945 C133.428,132.685 133.588,132.355 133.588,131.955 C133.588,131.525 133.418,131.185 133.078,130.935 C132.748,130.675 132.298,130.545 131.728,130.545 L130.843,130.545 L130.843,128.76 L131.653,128.76 C132.093,128.76 132.463,128.65 132.763,128.43 C133.073,128.21 133.228,127.89 133.228,127.47 C133.228,127.13 133.103,126.85 132.853,126.63 C132.603,126.41 132.283,126.3 131.893,126.3 C131.483,126.3 131.153,126.41 130.903,126.63 C130.653,126.85 130.478,127.125 130.378,127.455 L128.593,126.72 C128.803,126.12 129.188,125.6 129.748,125.16 C130.318,124.72 131.038,124.5 131.908,124.5 C132.548,124.5 133.118,124.62 133.618,124.86 C134.128,125.1 134.523,125.43 134.803,125.85 C135.083,126.26 135.223,126.725 135.223,127.245 C135.223,127.795 135.093,128.265 134.833,128.655 C134.583,129.045 134.278,129.33 133.918,129.51 L133.918,129.63 C134.418,129.83 134.823,130.145 135.133,130.575 C135.443,131.005 135.598,131.525 135.598,132.135 C135.598,132.725 135.448,133.255 135.148,133.725 C134.848,134.195 134.423,134.565 133.873,134.835 C133.333,135.105 132.708,135.24 131.998,135.24 Z" id="Path" fill="#1A73E8" fill-rule="nonzero"></path>
            <rect id="Rectangle" stroke="#1A73E8" x="122.5" y="120.5" width="19" height="19" rx="9.5"></rect>
            <rect id="Rectangle" fill="#FFFFFF" fill-rule="nonzero" x="62.5" y="120.5" width="19" height="19" rx="9.5"></rect>
            <path d="M68.6125,133.215 C68.9425,132.885 69.5775,132.25 70.5175,131.31 C71.4675,130.36 72.0775,129.74 72.3475,129.45 C72.7075,129.06 72.9525,128.735 73.0825,128.475 C73.2225,128.215 73.2925,127.92 73.2925,127.59 C73.2925,127.24 73.1625,126.945 72.9025,126.705 C72.6425,126.465 72.2975,126.345 71.8675,126.345 C71.4475,126.345 71.1075,126.465 70.8475,126.705 C70.5875,126.945 70.4025,127.245 70.2925,127.605 L68.5225,126.87 C68.6325,126.48 68.8325,126.105 69.1225,125.745 C69.4225,125.375 69.8075,125.075 70.2775,124.845 C70.7475,124.615 71.2875,124.5 71.8975,124.5 C72.5775,124.5 73.1725,124.635 73.6825,124.905 C74.1925,125.165 74.5875,125.525 74.8675,125.985 C75.1475,126.435 75.2875,126.94 75.2875,127.5 C75.2875,128.61 74.7475,129.695 73.6675,130.755 C73.2275,131.185 72.4125,131.995 71.2225,133.185 L71.2675,133.275 L75.4225,133.275 L75.4225,135 L68.6125,135 L68.6125,133.215 Z" id="Path" fill="#1A73E8" fill-rule="nonzero"></path>
            <rect id="Rectangle" stroke="#1A73E8" x="62.5" y="120.5" width="19" height="19" rx="9.5"></rect>
            <rect id="Rectangle" fill="#FFFFFF" fill-rule="nonzero" x="2.5" y="120.5" width="19" height="19" rx="9.5"></rect>
            <polygon id="Path" fill="#1A73E8" fill-rule="nonzero" points="11.473 127.305 9.92805 128.43 8.93805 126.915 11.953 124.74 13.438 124.74 13.438 135 11.473 135"></polygon>
            <rect id="Rectangle" stroke="#1A73E8" x="2.5" y="120.5" width="19" height="19" rx="9.5"></rect>
            <rect id="Rectangle" fill="#57E690" fill-rule="nonzero" x="2" y="80" width="20" height="20" rx="1"></rect>
            <path d="M10.8324,84.26 L13.1574,84.26 L17.1924,95 L14.9574,95 L14.0574,92.435 L9.9474,92.435 L9.0474,95 L6.8124,95 L10.8324,84.26 Z M13.3974,90.575 L12.4524,87.875 L12.0624,86.585 L11.9424,86.585 L11.5524,87.875 L10.5924,90.575 L13.3974,90.575 Z" id="Shape" fill="#0D652D" fill-rule="nonzero"></path>
            <rect id="Rectangle" fill="#AECBFA" fill-rule="nonzero" x="2" y="80" width="20" height="20" rx="1"></rect>
            <path d="M10.8324,84.76 L13.1574,84.76 L17.1924,95.5 L14.9574,95.5 L14.0574,92.935 L9.9474,92.935 L9.0474,95.5 L6.8124,95.5 L10.8324,84.76 Z M13.3974,91.075 L12.4524,88.375 L12.0624,87.085 L11.9424,87.085 L11.5524,88.375 L10.5924,91.075 L13.3974,91.075 Z" id="Shape" fill="#174EA6" fill-rule="nonzero"></path>
            <rect id="Rectangle" fill="#FCC934" fill-rule="nonzero" x="62" y="80" width="20" height="20" rx="1"></rect>
            <path d="M67.874,84.76 L72.074,84.76 C72.674,84.76 73.224,84.885 73.724,85.135 C74.234,85.385 74.634,85.725 74.924,86.155 C75.214,86.585 75.359,87.055 75.359,87.565 C75.359,88.105 75.224,88.575 74.954,88.975 C74.694,89.365 74.349,89.665 73.919,89.875 L73.919,89.995 C74.479,90.195 74.924,90.515 75.254,90.955 C75.584,91.385 75.749,91.905 75.749,92.515 C75.749,93.105 75.589,93.63 75.269,94.09 C74.959,94.54 74.534,94.89 73.994,95.14 C73.464,95.38 72.874,95.5 72.224,95.5 L67.874,95.5 L67.874,84.76 Z M71.924,89.14 C72.364,89.14 72.714,89.02 72.974,88.78 C73.244,88.53 73.379,88.22 73.379,87.85 C73.379,87.49 73.249,87.19 72.989,86.95 C72.739,86.7 72.404,86.575 71.984,86.575 L69.899,86.575 L69.899,89.14 L71.924,89.14 Z M72.149,93.655 C72.639,93.655 73.019,93.53 73.289,93.28 C73.569,93.02 73.709,92.685 73.709,92.275 C73.709,91.865 73.569,91.53 73.289,91.27 C73.009,91.01 72.609,90.88 72.089,90.88 L69.899,90.88 L69.899,93.655 L72.149,93.655 Z" id="Shape" fill="#BD6000" fill-rule="nonzero"></path>
            <rect id="Rectangle" fill="#FF9780" fill-rule="nonzero" x="32" y="40" width="20" height="20" rx="1"></rect>
            <path d="M42.4898,55.74 C41.4498,55.74 40.4998,55.495 39.6398,55.005 C38.7798,54.505 38.0998,53.83 37.5998,52.98 C37.1098,52.12 36.8648,51.17 36.8648,50.13 C36.8648,49.09 37.1098,48.145 37.5998,47.295 C38.0998,46.435 38.7798,45.76 39.6398,45.27 C40.4998,44.77 41.4498,44.52 42.4898,44.52 C44.1098,44.52 45.4498,45.105 46.5098,46.275 L45.0848,47.655 C44.3948,46.845 43.5348,46.44 42.5048,46.44 C41.8348,46.44 41.2248,46.595 40.6748,46.905 C40.1248,47.205 39.6898,47.635 39.3698,48.195 C39.0598,48.755 38.9048,49.4 38.9048,50.13 C38.9048,50.86 39.0598,51.505 39.3698,52.065 C39.6898,52.625 40.1248,53.06 40.6748,53.37 C41.2248,53.67 41.8348,53.82 42.5048,53.82 C43.6348,53.82 44.5798,53.35 45.3398,52.41 L46.7798,53.775 C46.2498,54.415 45.6198,54.905 44.8898,55.245 C44.1698,55.575 43.3698,55.74 42.4898,55.74 Z" id="Path" fill="#A50E0E" fill-rule="nonzero"></path>
            <rect id="Rectangle" fill="#FCC934" fill-rule="nonzero" x="152" y="40" width="20" height="20" rx="1"></rect>
            <path d="M162.164,55.74 C161.134,55.74 160.184,55.5 159.314,55.02 C158.454,54.53 157.769,53.86 157.259,53.01 C156.749,52.15 156.494,51.19 156.494,50.13 C156.494,49.07 156.749,48.115 157.259,47.265 C157.769,46.405 158.454,45.735 159.314,45.255 C160.184,44.765 161.134,44.52 162.164,44.52 C163.004,44.52 163.769,44.67 164.459,44.97 C165.159,45.26 165.759,45.675 166.259,46.215 L164.864,47.58 C164.504,47.2 164.104,46.915 163.664,46.725 C163.234,46.535 162.729,46.44 162.149,46.44 C161.489,46.44 160.884,46.595 160.334,46.905 C159.784,47.205 159.344,47.64 159.014,48.21 C158.694,48.77 158.534,49.41 158.534,50.13 C158.534,50.85 158.699,51.495 159.029,52.065 C159.359,52.625 159.799,53.06 160.349,53.37 C160.909,53.67 161.519,53.82 162.179,53.82 C163.179,53.82 163.999,53.525 164.639,52.935 C164.839,52.755 165.014,52.525 165.164,52.245 C165.314,51.965 165.424,51.66 165.494,51.33 L162.119,51.33 L162.119,49.605 L167.384,49.605 C167.454,49.885 167.489,50.2 167.489,50.55 C167.489,51.26 167.379,51.92 167.159,52.53 C166.949,53.14 166.624,53.675 166.184,54.135 C165.704,54.655 165.124,55.055 164.444,55.335 C163.764,55.605 163.004,55.74 162.164,55.74 Z" id="Path" fill="#BD6000" fill-rule="nonzero"></path>
            <rect id="Rectangle" fill="#57E690" fill-rule="nonzero" x="122" y="80" width="20" height="20" rx="1"></rect>
            <path d="M127.693,84.76 L131.323,84.76 C132.443,84.76 133.418,84.985 134.248,85.435 C135.078,85.885 135.718,86.515 136.168,87.325 C136.618,88.135 136.843,89.07 136.843,90.13 C136.843,91.19 136.618,92.125 136.168,92.935 C135.718,93.745 135.078,94.375 134.248,94.825 C133.418,95.275 132.443,95.5 131.323,95.5 L127.693,95.5 L127.693,84.76 Z M131.233,93.58 C132.393,93.58 133.278,93.275 133.888,92.665 C134.498,92.045 134.803,91.2 134.803,90.13 C134.803,89.06 134.498,88.22 133.888,87.61 C133.278,86.99 132.393,86.68 131.233,86.68 L129.718,86.68 L129.718,93.58 L131.233,93.58 Z" id="Shape" fill="#0D652D" fill-rule="nonzero"></path>
            <rect id="Rectangle" fill="#FF9780" fill-rule="nonzero" x="182" y="80" width="20" height="20" rx="1"></rect>
            <polygon id="Path" fill="#A50E0E" fill-rule="nonzero" points="188.931 84.76 195.741 84.76 195.741 86.68 190.956 86.68 190.956 89.29 195.261 89.29 195.261 91.21 190.956 91.21 190.956 95.5 188.931 95.5"></polygon>
            <rect id="Rectangle" fill="#57E690" fill-rule="nonzero" x="92" y="0" width="20" height="20" rx="1"></rect>
            <polygon id="Path" fill="#0D652D" fill-rule="nonzero" points="97.7149 4.76 99.7399 4.76 99.7399 9.05 104.255 9.05 104.255 4.76 106.28 4.76 106.28 15.5 104.255 15.5 104.255 10.97 99.7399 10.97 99.7399 15.5 97.7149 15.5"></polygon>
            <path d="M192.354,104.646 C192.158,104.451 191.842,104.451 191.646,104.646 L188.464,107.828 C188.269,108.024 188.269,108.34 188.464,108.536 C188.66,108.731 188.976,108.731 189.172,108.536 L192,105.707 L194.828,108.536 C195.024,108.731 195.34,108.731 195.536,108.536 C195.731,108.34 195.731,108.024 195.536,107.828 L192.354,104.646 Z M191.5,115 C191.5,115.276 191.724,115.5 192,115.5 C192.276,115.5 192.5,115.276 192.5,115 L191.5,115 Z M191.5,105 L191.5,115 L192.5,115 L192.5,105 L191.5,105 Z" id="Shape" fill="#BDC1C6" fill-rule="nonzero"></path>
            <path d="M177,62.5 C176.724,62.5 176.5,62.7239 176.5,63 L176.5,67.5 C176.5,67.7761 176.724,68 177,68 C177.276,68 177.5,67.7761 177.5,67.5 L177.5,63.5 L181.5,63.5 C181.776,63.5 182,63.2761 182,63 C182,62.7239 181.776,62.5 181.5,62.5 L177,62.5 Z M188.646,75.3536 C188.842,75.5488 189.158,75.5488 189.354,75.3536 C189.549,75.1583 189.549,74.8417 189.354,74.6464 L188.646,75.3536 Z M176.646,63.3536 L188.646,75.3536 L189.354,74.6464 L177.354,62.6464 L176.646,63.3536 Z" id="Shape" fill="#BDC1C6" fill-rule="nonzero"></path>
            <path d="M116.773,20.5544 C116.527,20.6796 116.429,20.9806 116.554,21.2267 L118.595,25.2375 C118.72,25.4836 119.021,25.5816 119.267,25.4564 C119.513,25.3312 119.611,25.0301 119.486,24.784 L117.672,21.2189 L121.237,19.4051 C121.484,19.2799 121.582,18.9788 121.456,18.7327 C121.331,18.4866 121.03,18.3886 120.784,18.5138 L116.773,20.5544 Z M159.845,35.4754 C160.108,35.5609 160.39,35.4174 160.475,35.1548 C160.561,34.8922 160.417,34.6101 160.155,34.5246 L159.845,35.4754 Z M116.845,21.4754 L159.845,35.4754 L160.155,34.5246 L117.155,20.5246 L116.845,21.4754 Z" id="Shape" fill="#BDC1C6" fill-rule="nonzero"></path>
            <path d="M87.2267,20.5544 C87.4728,20.6796 87.5709,20.9806 87.4456,21.2267 L85.4051,25.2375 C85.2799,25.4836 84.9788,25.5816 84.7327,25.4564 C84.4866,25.3312 84.3886,25.0301 84.5138,24.784 L86.3276,21.2189 L82.7625,19.4051 C82.5164,19.2799 82.4184,18.9788 82.5436,18.7327 C82.6688,18.4866 82.9699,18.3886 83.216,18.5138 L87.2267,20.5544 Z M44.1548,35.4754 C43.8922,35.5609 43.6101,35.4174 43.5246,35.1548 C43.4391,34.8922 43.5826,34.6101 43.8452,34.5246 L44.1548,35.4754 Z M87.1548,21.4754 L44.1548,35.4754 L43.8452,34.5246 L86.8452,20.5246 L87.1548,21.4754 Z" id="Shape" fill="#BDC1C6" fill-rule="nonzero"></path>
            <path d="M57,62.5 C56.7239,62.5 56.5,62.7239 56.5,63 L56.5,67.5 C56.5,67.7761 56.7239,68 57,68 C57.2761,68 57.5,67.7761 57.5,67.5 L57.5,63.5 L61.5,63.5 C61.7761,63.5 62,63.2761 62,63 C62,62.7239 61.7761,62.5 61.5,62.5 L57,62.5 Z M68.6464,75.3536 C68.8417,75.5488 69.1583,75.5488 69.3536,75.3536 C69.5488,75.1583 69.5488,74.8417 69.3536,74.6464 L68.6464,75.3536 Z M56.6464,63.3536 L68.6464,75.3536 L69.3536,74.6464 L57.3536,62.6464 L56.6464,63.3536 Z" id="Shape" fill="#BDC1C6" fill-rule="nonzero"></path>
            <path d="M147,62.5 C147.276,62.5 147.5,62.7239 147.5,63 L147.5,67.5 C147.5,67.7761 147.276,68 147,68 C146.724,68 146.5,67.7761 146.5,67.5 L146.5,63.5 L142.5,63.5 C142.224,63.5 142,63.2761 142,63 C142,62.7239 142.224,62.5 142.5,62.5 L147,62.5 Z M135.354,75.3536 C135.158,75.5488 134.842,75.5488 134.646,75.3536 C134.451,75.1583 134.451,74.8417 134.646,74.6464 L135.354,75.3536 Z M147.354,63.3536 L135.354,75.3536 L134.646,74.6464 L146.646,62.6464 L147.354,63.3536 Z" id="Shape" fill="#BDC1C6" fill-rule="nonzero"></path>
            <path d="M27,62.5 C27.2761,62.5 27.5,62.7239 27.5,63 L27.5,67.5 C27.5,67.7761 27.2761,68 27,68 C26.7239,68 26.5,67.7761 26.5,67.5 L26.5,63.5 L22.5,63.5 C22.2239,63.5 22,63.2761 22,63 C22,62.7239 22.2239,62.5 22.5,62.5 L27,62.5 Z M15.3536,75.3536 C15.1583,75.5488 14.8417,75.5488 14.6464,75.3536 C14.4512,75.1583 14.4512,74.8417 14.6464,74.6464 L15.3536,75.3536 Z M27.3536,63.3536 L15.3536,75.3536 L14.6464,74.6464 L26.6464,62.6464 L27.3536,63.3536 Z" id="Shape" fill="#BDC1C6" fill-rule="nonzero"></path>
            <path d="M132.354,104.646 C132.158,104.451 131.842,104.451 131.646,104.646 L128.464,107.828 C128.269,108.024 128.269,108.34 128.464,108.536 C128.66,108.731 128.976,108.731 129.172,108.536 L132,105.707 L134.828,108.536 C135.024,108.731 135.34,108.731 135.536,108.536 C135.731,108.34 135.731,108.024 135.536,107.828 L132.354,104.646 Z M131.5,115 C131.5,115.276 131.724,115.5 132,115.5 C132.276,115.5 132.5,115.276 132.5,115 L131.5,115 Z M131.5,105 L131.5,115 L132.5,115 L132.5,105 L131.5,105 Z" id="Shape" fill="#BDC1C6" fill-rule="nonzero"></path>
            <path d="M72.3536,104.646 C72.1583,104.451 71.8417,104.451 71.6464,104.646 L68.4645,107.828 C68.2692,108.024 68.2692,108.34 68.4645,108.536 C68.6597,108.731 68.9763,108.731 69.1716,108.536 L72,105.707 L74.8284,108.536 C75.0237,108.731 75.3403,108.731 75.5355,108.536 C75.7308,108.34 75.7308,108.024 75.5355,107.828 L72.3536,104.646 Z M71.5,115 C71.5,115.276 71.7239,115.5 72,115.5 C72.2761,115.5 72.5,115.276 72.5,115 L71.5,115 Z M71.5,105 L71.5,115 L72.5,115 L72.5,105 L71.5,105 Z" id="Shape" fill="#BDC1C6" fill-rule="nonzero"></path>
            <path d="M12.3536,104.646 C12.1583,104.451 11.8417,104.451 11.6464,104.646 L8.46447,107.828 C8.2692,108.024 8.2692,108.34 8.46447,108.536 C8.65973,108.731 8.97631,108.731 9.17157,108.536 L12,105.707 L14.8284,108.536 C15.0237,108.731 15.3403,108.731 15.5355,108.536 C15.7308,108.34 15.7308,108.024 15.5355,107.828 L12.3536,104.646 Z M11.5,115 C11.5,115.276 11.7239,115.5 12,115.5 C12.2761,115.5 12.5,115.276 12.5,115 L11.5,115 Z M11.5,105 L11.5,115 L12.5,115 L12.5,105 L11.5,105 Z" id="Shape" fill="#BDC1C6" fill-rule="nonzero"></path>
            <rect id="Rectangle" fill="#FFFFFF" fill-rule="nonzero" x="0.5" y="149.5" width="23" height="29" rx="0.5"></rect>
            <line x1="5.5" y1="155.5" x2="18.5" y2="155.5" id="Path" stroke="#1A73E8" stroke-linecap="round"></line>
            <line x1="12" y1="139.5" x2="12" y2="149.5" id="Path" stroke="#1A73E8" stroke-linecap="round"></line>
            <line x1="5.5" y1="158.5" x2="18.5" y2="158.5" id="Path" stroke="#1A73E8" stroke-linecap="round"></line>
            <line x1="5.5" y1="161.5" x2="18.5" y2="161.5" id="Path" stroke="#1A73E8" stroke-linecap="round"></line>
            <line x1="5.5" y1="164.5" x2="18.5" y2="164.5" id="Path" stroke="#1A73E8" stroke-linecap="round"></line>
            <line x1="5.5" y1="167.5" x2="15.5" y2="167.5" id="Path" stroke="#1A73E8" stroke-linecap="round"></line>
            <path d="M1,149.5 L23,149.5 C23.2761424,149.5 23.5,149.723858 23.5,150 L23.5,178 C23.5,178.276142 23.2761424,178.5 23,178.5 L1,178.5 C0.723857625,178.5 0.5,178.276142 0.5,178 L0.5,150 C0.5,149.723858 0.723857625,149.5 1,149.5 Z" id="Rectangle" stroke="#1A73E8"></path>
            <path d="M61,149.5 L83,149.5 C83.2761424,149.5 83.5,149.723858 83.5,150 L83.5,178 C83.5,178.276142 83.2761424,178.5 83,178.5 L61,178.5 C60.7238576,178.5 60.5,178.276142 60.5,178 L60.5,150 C60.5,149.723858 60.7238576,149.5 61,149.5 Z" id="Rectangle" fill="#FFFFFF" fill-rule="nonzero"></path>
            <line x1="65.5" y1="155.5" x2="78.5" y2="155.5" id="Path" stroke="#1A73E8" stroke-linecap="round"></line>
            <line x1="65.5" y1="158.5" x2="78.5" y2="158.5" id="Path" stroke="#1A73E8" stroke-linecap="round"></line>
            <line x1="65.5" y1="161.5" x2="78.5" y2="161.5" id="Path" stroke="#1A73E8" stroke-linecap="round"></line>
            <line x1="65.5" y1="164.5" x2="78.5" y2="164.5" id="Path" stroke="#1A73E8" stroke-linecap="round"></line>
            <line x1="65.5" y1="167.5" x2="75.5" y2="167.5" id="Path" stroke="#1A73E8" stroke-linecap="round"></line>
            <line x1="72" y1="139.5" x2="72" y2="149.5" id="Path" stroke="#1A73E8" stroke-linecap="round"></line>
            <path d="M61,149.5 L83,149.5 C83.2761424,149.5 83.5,149.723858 83.5,150 L83.5,178 C83.5,178.276142 83.2761424,178.5 83,178.5 L61,178.5 C60.7238576,178.5 60.5,178.276142 60.5,178 L60.5,150 C60.5,149.723858 60.7238576,149.5 61,149.5 Z" id="Rectangle" stroke="#1A73E8"></path>
            <rect id="Rectangle" fill="#FFFFFF" fill-rule="nonzero" x="120.5" y="149.5" width="23" height="29" rx="0.5"></rect>
            <line x1="125.5" y1="155.5" x2="138.5" y2="155.5" id="Path" stroke="#1A73E8" stroke-linecap="round"></line>
            <line x1="125.5" y1="158.5" x2="138.5" y2="158.5" id="Path" stroke="#1A73E8" stroke-linecap="round"></line>
            <line x1="125.5" y1="161.5" x2="138.5" y2="161.5" id="Path" stroke="#1A73E8" stroke-linecap="round"></line>
            <line x1="125.5" y1="164.5" x2="138.5" y2="164.5" id="Path" stroke="#1A73E8" stroke-linecap="round"></line>
            <line x1="125.5" y1="167.5" x2="135.5" y2="167.5" id="Path" stroke="#1A73E8" stroke-linecap="round"></line>
            <line x1="132" y1="139.5" x2="132" y2="149.5" id="Path" stroke="#1A73E8" stroke-linecap="round"></line>
            <path d="M121,149.5 L143,149.5 C143.276142,149.5 143.5,149.723858 143.5,150 L143.5,178 C143.5,178.276142 143.276142,178.5 143,178.5 L121,178.5 C120.723858,178.5 120.5,178.276142 120.5,178 L120.5,150 C120.5,149.723858 120.723858,149.5 121,149.5 Z" id="Rectangle" stroke="#1A73E8"></path>
            <rect id="Rectangle" fill="#FFFFFF" fill-rule="nonzero" x="180.5" y="149.5" width="23" height="29" rx="0.5"></rect>
            <line x1="185.5" y1="155.5" x2="198.5" y2="155.5" id="Path" stroke="#1A73E8" stroke-linecap="round"></line>
            <line x1="185.5" y1="158.5" x2="198.5" y2="158.5" id="Path" stroke="#1A73E8" stroke-linecap="round"></line>
            <line x1="185.5" y1="161.5" x2="198.5" y2="161.5" id="Path" stroke="#1A73E8" stroke-linecap="round"></line>
            <line x1="185.5" y1="164.5" x2="198.5" y2="164.5" id="Path" stroke="#1A73E8" stroke-linecap="round"></line>
            <line x1="185.5" y1="167.5" x2="195.5" y2="167.5" id="Path" stroke="#1A73E8" stroke-linecap="round"></line>
            <line x1="192" y1="139.5" x2="192" y2="149.5" id="Path" stroke="#1A73E8" stroke-linecap="round"></line>
            <path d="M181,149.5 L203,149.5 C203.276142,149.5 203.5,149.723858 203.5,150 L203.5,178 C203.5,178.276142 203.276142,178.5 203,178.5 L181,178.5 C180.723858,178.5 180.5,178.276142 180.5,178 L180.5,150 C180.5,149.723858 180.723858,149.5 181,149.5 Z" id="Rectangle" stroke="#1A73E8"></path>
        </g>
    </g>
</svg>