<svg width="347" height="197" viewBox="0 0 347 197" fill="none" xmlns="http://www.w3.org/2000/svg">
<rect width="347" height="196.502" rx="4" fill="#E8F0FE"/>
<rect x="104.5" y="167.5" width="139" height="139" rx="69.5" transform="rotate(-90 104.5 167.5)" fill="white" stroke="#1A73E8"/>
<ellipse cx="173.999" cy="97.597" rx="20.6809" ry="20.6809" transform="rotate(135 173.999 97.597)" stroke="white" stroke-width="4"/>
<ellipse cx="173.999" cy="97.597" rx="20.6809" ry="20.6809" transform="rotate(135 173.999 97.597)" stroke="#8AB4F8" stroke-width="2"/>
<mask id="path-6-outside-1" maskUnits="userSpaceOnUse" x="177.021" y="65.0701" width="65.0538" height="65.0538" fill="black">
<rect fill="white" x="177.021" y="65.0701" width="65.0538" height="65.0538"/>
<path fill-rule="evenodd" clip-rule="evenodd" d="M213.091 92.019C210.925 86.9242 205.874 83.3529 199.987 83.3546C192.125 83.3569 185.749 89.7327 185.747 97.5953C185.744 105.458 192.116 111.83 199.979 111.828C205.864 111.826 210.915 108.254 213.086 103.161L232.786 103.155L237.74 97.5825L233.025 92.2777L229.764 95.5385L226.24 92.0151L225.382 92.0154L221.855 95.5415L218.331 92.0174L213.091 92.019ZM196.912 100.034C198.258 98.6882 198.258 96.5058 196.912 95.1598C195.566 93.8137 193.384 93.8137 192.037 95.1598C190.691 96.5058 190.691 98.6882 192.037 100.034C193.384 101.38 195.566 101.38 196.912 100.034Z"/>
</mask>
<path fill-rule="evenodd" clip-rule="evenodd" d="M213.091 92.019C210.925 86.9242 205.874 83.3529 199.987 83.3546C192.125 83.3569 185.749 89.7327 185.747 97.5953C185.744 105.458 192.116 111.83 199.979 111.828C205.864 111.826 210.915 108.254 213.086 103.161L232.786 103.155L237.74 97.5825L233.025 92.2777L229.764 95.5385L226.24 92.0151L225.382 92.0154L221.855 95.5415L218.331 92.0174L213.091 92.019ZM196.912 100.034C198.258 98.6882 198.258 96.5058 196.912 95.1598C195.566 93.8137 193.384 93.8137 192.037 95.1598C190.691 96.5058 190.691 98.6882 192.037 100.034C193.384 101.38 195.566 101.38 196.912 100.034Z" fill="#1A73E8"/>
<path d="M199.987 83.3546L199.988 85.3546L199.988 85.3546L199.987 83.3546ZM213.091 92.019L211.251 92.8015L211.768 94.0194L213.092 94.019L213.091 92.019ZM185.747 97.5953L183.747 97.5947L185.747 97.5953ZM199.979 111.828L199.979 113.828L199.979 113.828L199.979 111.828ZM213.086 103.161L213.085 101.161L211.764 101.161L211.246 102.377L213.086 103.161ZM232.786 103.155L232.787 105.155L233.685 105.155L234.281 104.484L232.786 103.155ZM237.74 97.5825L239.234 98.9113L240.416 97.5826L239.235 96.2538L237.74 97.5825ZM233.025 92.2777L234.519 90.949L233.11 89.3636L231.61 90.8635L233.025 92.2777ZM229.764 95.5385L228.35 96.9527L229.764 98.3669L231.178 96.9527L229.764 95.5385ZM226.24 92.0151L227.655 90.6009L227.068 90.0149L226.24 90.0151L226.24 92.0151ZM225.382 92.0154L225.381 90.0154L224.553 90.0156L223.967 90.6011L225.382 92.0154ZM221.855 95.5415L220.441 96.9557L221.855 98.3699L223.27 96.9557L221.855 95.5415ZM218.331 92.0174L219.745 90.6032L219.159 90.0172L218.331 90.0174L218.331 92.0174ZM196.912 95.1598L195.498 96.574L195.498 96.574L196.912 95.1598ZM196.912 100.034L195.498 98.6201L195.498 98.6201L196.912 100.034ZM192.037 95.1598L193.452 96.574L193.452 96.574L192.037 95.1598ZM192.037 100.034L193.452 98.6201L193.452 98.6201L192.037 100.034ZM199.988 85.3546C205.044 85.3531 209.387 88.4191 211.251 92.8015L214.932 91.2365C212.463 85.4293 206.704 81.3526 199.987 81.3546L199.988 85.3546ZM187.747 97.5959C187.749 90.8374 193.229 85.3566 199.988 85.3546L199.987 81.3546C191.02 81.3573 183.749 88.628 183.747 97.5947L187.747 97.5959ZM199.978 109.828C193.221 109.83 187.745 104.353 187.747 97.5959L183.747 97.5947C183.744 106.562 191.012 113.83 199.979 113.828L199.978 109.828ZM211.246 102.377C209.378 106.759 205.033 109.826 199.978 109.828L199.979 113.828C206.694 113.826 212.452 109.749 214.926 103.945L211.246 102.377ZM232.786 101.155L213.085 101.161L213.086 105.161L232.787 105.155L232.786 101.155ZM236.245 96.2537L231.291 101.826L234.281 104.484L239.234 98.9113L236.245 96.2537ZM231.53 93.6063L236.245 98.9112L239.235 96.2538L234.519 90.949L231.53 93.6063ZM231.178 96.9527L234.439 93.6919L231.61 90.8635L228.35 94.1243L231.178 96.9527ZM224.826 93.4293L228.35 96.9527L231.178 94.1243L227.655 90.6009L224.826 93.4293ZM225.382 94.0154L226.241 94.0151L226.24 90.0151L225.381 90.0154L225.382 94.0154ZM223.27 96.9557L226.796 93.4296L223.967 90.6011L220.441 94.1273L223.27 96.9557ZM216.917 93.4316L220.441 96.9557L223.27 94.1273L219.745 90.6032L216.917 93.4316ZM213.092 94.019L218.332 94.0174L218.331 90.0174L213.09 90.019L213.092 94.019ZM195.498 96.574C196.063 97.139 196.063 98.0551 195.498 98.6201L198.326 101.449C200.453 99.3214 200.453 95.8727 198.326 93.7456L195.498 96.574ZM193.452 96.574C194.017 96.009 194.933 96.009 195.498 96.574L198.326 93.7456C196.199 91.6184 192.75 91.6184 190.623 93.7456L193.452 96.574ZM193.452 98.6201C192.887 98.0551 192.887 97.139 193.452 96.574L190.623 93.7456C188.496 95.8727 188.496 99.3214 190.623 101.449L193.452 98.6201ZM195.498 98.6201C194.933 99.1851 194.017 99.1851 193.452 98.6201L190.623 101.449C192.75 103.576 196.199 103.576 198.326 101.449L195.498 98.6201Z" fill="white" mask="url(#path-6-outside-1)"/>
<path d="M173.793 77.1224C185.215 77.1224 194.474 86.3815 194.474 97.8032" stroke="white" stroke-width="5" stroke-linecap="round"/>
<path d="M173.793 77.1224C185.215 77.1224 194.474 86.3815 194.474 97.8032" stroke="#8AB4F8" stroke-width="2" stroke-linecap="round"/>
<mask id="path-10-outside-2" maskUnits="userSpaceOnUse" x="141.473" y="29.5189" width="65.0538" height="65.0538" fill="black">
<rect fill="white" x="141.473" y="29.5189" width="65.0538" height="65.0538"/>
<path fill-rule="evenodd" clip-rule="evenodd" d="M168.422 58.5028C163.327 60.6689 159.756 65.72 159.758 71.6066C159.76 79.4692 166.136 85.845 173.998 85.8473C181.861 85.8496 188.233 79.4776 188.231 71.615C188.229 65.7303 184.657 60.6785 179.564 58.5082L179.558 38.8077L173.985 33.8542L168.681 38.5693L171.941 41.8302L168.418 45.3536L168.418 46.2124L171.944 49.7385L168.42 53.2626L168.422 58.5028ZM176.437 74.6846C175.091 73.3385 172.909 73.3385 171.563 74.6846C170.217 76.0306 170.217 78.213 171.563 79.5591C172.909 80.9052 175.091 80.9052 176.437 79.5591C177.783 78.213 177.783 76.0306 176.437 74.6846Z"/>
</mask>
<path fill-rule="evenodd" clip-rule="evenodd" d="M168.422 58.5028C163.327 60.6689 159.756 65.72 159.758 71.6066C159.76 79.4692 166.136 85.845 173.998 85.8473C181.861 85.8496 188.233 79.4776 188.231 71.615C188.229 65.7303 184.657 60.6785 179.564 58.5082L179.558 38.8077L173.985 33.8542L168.681 38.5693L171.941 41.8302L168.418 45.3536L168.418 46.2124L171.944 49.7385L168.42 53.2626L168.422 58.5028ZM176.437 74.6846C175.091 73.3385 172.909 73.3385 171.563 74.6846C170.217 76.0306 170.217 78.213 171.563 79.5591C172.909 80.9052 175.091 80.9052 176.437 79.5591C177.783 78.213 177.783 76.0306 176.437 74.6846Z" fill="#FF6846"/>
<path d="M159.758 71.6066L161.758 71.606L159.758 71.6066ZM168.422 58.5028L169.204 60.3434L170.422 59.8256L170.422 58.5022L168.422 58.5028ZM173.998 85.8473L173.998 87.8473L173.998 85.8473ZM188.231 71.615L186.231 71.6156L186.231 71.6156L188.231 71.615ZM179.564 58.5082L177.564 58.5088L177.564 59.8302L178.78 60.3482L179.564 58.5082ZM179.558 38.8077L181.558 38.8071L181.557 37.9094L180.887 37.3129L179.558 38.8077ZM173.985 33.8542L175.314 32.3595L173.986 31.1783L172.657 32.3594L173.985 33.8542ZM168.681 38.5693L167.352 37.0745L165.767 38.4836L167.266 39.9835L168.681 38.5693ZM171.941 41.8302L173.356 43.2444L174.77 41.8302L173.356 40.416L171.941 41.8302ZM168.418 45.3536L167.004 43.9394L166.418 44.5254L166.418 45.3542L168.418 45.3536ZM168.418 46.2124L166.418 46.213L166.419 47.041L167.004 47.6266L168.418 46.2124ZM171.944 49.7385L173.359 51.1528L174.773 49.7385L173.359 48.3243L171.944 49.7385ZM168.42 53.2626L167.006 51.8484L166.42 52.4344L166.42 53.2632L168.42 53.2626ZM176.437 74.6846L177.851 73.2704L177.851 73.2704L176.437 74.6846ZM171.563 79.5591L170.149 80.9733L170.149 80.9733L171.563 79.5591ZM176.437 79.5591L177.851 80.9733L176.437 79.5591ZM161.758 71.606C161.756 66.5497 164.822 62.2065 169.204 60.3434L167.639 56.6622C161.832 59.1312 157.756 64.8903 157.758 71.6072L161.758 71.606ZM173.999 83.8473C167.24 83.8453 161.76 78.3645 161.758 71.606L157.758 71.6072C157.76 80.5739 165.031 87.8447 173.998 87.8473L173.999 83.8473ZM186.231 71.6156C186.233 78.3732 180.756 83.8493 173.999 83.8473L173.998 87.8473C182.965 87.8499 190.233 80.582 190.231 71.6144L186.231 71.6156ZM178.78 60.3482C183.162 62.2155 186.229 66.5606 186.231 71.6156L190.231 71.6144C190.229 64.9 186.152 59.1414 180.348 56.6683L178.78 60.3482ZM177.558 38.8083L177.564 58.5088L181.564 58.5076L181.558 38.8071L177.558 38.8083ZM172.657 35.349L178.229 40.3025L180.887 37.3129L175.314 32.3595L172.657 35.349ZM170.009 40.0642L175.314 35.3491L172.657 32.3594L167.352 37.0745L170.009 40.0642ZM173.356 40.416L170.095 37.1551L167.266 39.9835L170.527 43.2444L173.356 40.416ZM169.832 46.7678L173.356 43.2444L170.527 40.416L167.004 43.9394L169.832 46.7678ZM170.418 46.2118L170.418 45.353L166.418 45.3542L166.418 46.213L170.418 46.2118ZM173.359 48.3243L169.833 44.7982L167.004 47.6266L170.53 51.1528L173.359 48.3243ZM169.835 54.6768L173.359 51.1528L170.53 48.3243L167.006 51.8484L169.835 54.6768ZM170.422 58.5022L170.42 53.262L166.42 53.2632L166.422 58.5034L170.422 58.5022ZM172.977 76.0988C173.542 75.5338 174.458 75.5338 175.023 76.0988L177.851 73.2704C175.724 71.1432 172.276 71.1432 170.149 73.2704L172.977 76.0988ZM172.977 78.1449C172.412 77.5799 172.412 76.6638 172.977 76.0988L170.149 73.2704C168.021 75.3975 168.021 78.8462 170.149 80.9733L172.977 78.1449ZM175.023 78.1449C174.458 78.7099 173.542 78.7099 172.977 78.1449L170.149 80.9733C172.276 83.1004 175.724 83.1004 177.851 80.9733L175.023 78.1449ZM175.023 76.0988C175.588 76.6638 175.588 77.5799 175.023 78.1449L177.851 80.9733C179.979 78.8462 179.979 75.3975 177.851 73.2704L175.023 76.0988Z" fill="white" mask="url(#path-10-outside-2)"/>
<path d="M153.319 97.597C153.319 86.1753 162.578 76.9162 174 76.9162" stroke="white" stroke-width="5" stroke-linecap="round"/>
<path d="M153.319 97.597C153.319 86.1753 162.578 76.9162 174 76.9162" stroke="#8AB4F8" stroke-width="2" stroke-linecap="round"/>
<mask id="path-14-outside-3" maskUnits="userSpaceOnUse" x="105.927" y="65.0701" width="65.0538" height="65.0538" fill="black">
<rect fill="white" x="105.927" y="65.0701" width="65.0538" height="65.0538"/>
<path fill-rule="evenodd" clip-rule="evenodd" d="M134.911 103.175C137.077 108.27 142.128 111.841 148.015 111.839C155.877 111.837 162.253 105.461 162.255 97.5988C162.258 89.7362 155.886 83.3642 148.023 83.3665C142.138 83.3682 137.087 86.9401 134.916 92.0335L115.216 92.0393L110.262 97.6116L114.977 102.916L118.238 99.6556L121.762 103.179L122.62 103.179L126.147 99.6526L129.671 103.177L134.911 103.175ZM151.091 95.1598C149.745 96.5058 149.745 98.6882 151.091 100.034C152.437 101.38 154.619 101.38 155.965 100.034C157.311 98.6882 157.311 96.5058 155.965 95.1598C154.619 93.8137 152.437 93.8137 151.091 95.1598Z"/>
</mask>
<path fill-rule="evenodd" clip-rule="evenodd" d="M134.911 103.175C137.077 108.27 142.128 111.841 148.015 111.839C155.877 111.837 162.253 105.461 162.255 97.5988C162.258 89.7362 155.886 83.3642 148.023 83.3665C142.138 83.3682 137.087 86.9401 134.916 92.0335L115.216 92.0393L110.262 97.6116L114.977 102.916L118.238 99.6556L121.762 103.179L122.62 103.179L126.147 99.6526L129.671 103.177L134.911 103.175ZM151.091 95.1598C149.745 96.5058 149.745 98.6882 151.091 100.034C152.437 101.38 154.619 101.38 155.965 100.034C157.311 98.6882 157.311 96.5058 155.965 95.1598C154.619 93.8137 152.437 93.8137 151.091 95.1598Z" fill="#FCC934"/>
<path d="M148.015 111.839L148.014 109.839L148.015 111.839ZM134.911 103.175L136.751 102.393L136.234 101.175L134.91 101.175L134.911 103.175ZM162.255 97.5988L160.255 97.5982L162.255 97.5988ZM148.023 83.3665L148.022 81.3665L148.023 83.3665ZM134.916 92.0335L134.917 94.0335L136.238 94.0331L136.756 92.8175L134.916 92.0335ZM115.216 92.0393L115.215 90.0393L114.317 90.0396L113.721 90.7105L115.216 92.0393ZM110.262 97.6116L108.768 96.2828L107.586 97.6115L108.767 98.9402L110.262 97.6116ZM114.977 102.916L113.483 104.245L114.892 105.831L116.392 104.331L114.977 102.916ZM118.238 99.6556L119.652 98.2414L118.238 96.8272L116.824 98.2414L118.238 99.6556ZM121.762 103.179L120.347 104.593L120.933 105.179L121.762 105.179L121.762 103.179ZM122.62 103.179L122.621 105.179L123.449 105.178L124.035 104.593L122.62 103.179ZM126.147 99.6526L127.561 98.2384L126.147 96.8241L124.732 98.2384L126.147 99.6526ZM129.671 103.177L128.256 104.591L128.843 105.177L129.671 105.177L129.671 103.177ZM151.091 100.034L152.505 98.6201L152.505 98.6201L151.091 100.034ZM151.091 95.1598L149.677 93.7456L149.677 93.7456L151.091 95.1598ZM155.965 100.034L157.38 101.449L157.38 101.449L155.965 100.034ZM155.965 95.1598L157.38 93.7456L157.38 93.7456L155.965 95.1598ZM148.014 109.839C142.958 109.841 138.615 106.775 136.751 102.393L133.07 103.958C135.539 109.765 141.298 113.841 148.015 113.839L148.014 109.839ZM160.255 97.5982C160.253 104.357 154.773 109.837 148.014 109.839L148.015 113.839C156.982 113.837 164.253 106.566 164.255 97.5994L160.255 97.5982ZM148.024 85.3665C154.781 85.3645 160.257 90.8406 160.255 97.5982L164.255 97.5994C164.258 88.6317 156.99 81.3638 148.022 81.3665L148.024 85.3665ZM136.756 92.8175C138.624 88.4349 142.969 85.368 148.024 85.3665L148.022 81.3665C141.308 81.3685 135.549 85.4453 133.076 91.2495L136.756 92.8175ZM115.216 94.0393L134.917 94.0335L134.916 90.0335L115.215 90.0393L115.216 94.0393ZM111.757 98.9403L116.711 93.3681L113.721 90.7105L108.768 96.2828L111.757 98.9403ZM116.472 101.588L111.757 96.2829L108.767 98.9402L113.483 104.245L116.472 101.588ZM116.824 98.2414L113.563 101.502L116.392 104.331L119.652 101.07L116.824 98.2414ZM123.176 101.765L119.652 98.2414L116.824 101.07L120.347 104.593L123.176 101.765ZM122.62 101.179L121.761 101.179L121.762 105.179L122.621 105.179L122.62 101.179ZM124.732 98.2384L121.206 101.765L124.035 104.593L127.561 101.067L124.732 98.2384ZM131.085 101.762L127.561 98.2384L124.732 101.067L128.256 104.591L131.085 101.762ZM134.91 101.175L129.67 101.177L129.671 105.177L134.911 105.175L134.91 101.175ZM152.505 98.6201C151.94 98.0551 151.94 97.139 152.505 96.574L149.677 93.7456C147.55 95.8727 147.55 99.3214 149.677 101.449L152.505 98.6201ZM154.551 98.6201C153.986 99.1851 153.07 99.1851 152.505 98.6201L149.677 101.449C151.804 103.576 155.252 103.576 157.38 101.449L154.551 98.6201ZM154.551 96.574C155.116 97.139 155.116 98.0551 154.551 98.6201L157.38 101.449C159.507 99.3214 159.507 95.8727 157.38 93.7456L154.551 96.574ZM152.505 96.574C153.07 96.009 153.986 96.009 154.551 96.574L157.38 93.7456C155.252 91.6185 151.804 91.6185 149.677 93.7456L152.505 96.574Z" fill="white" mask="url(#path-14-outside-3)"/>
<path d="M174 118.278C162.578 118.278 153.319 109.019 153.319 97.597" stroke="white" stroke-width="5" stroke-linecap="round"/>
<path d="M174 118.278C162.578 118.278 153.319 109.019 153.319 97.597" stroke="#8AB4F8" stroke-width="2" stroke-linecap="round"/>
<mask id="path-18-outside-4" maskUnits="userSpaceOnUse" x="141.473" y="100.621" width="65.0538" height="65.0538" fill="black">
<rect fill="white" x="141.473" y="100.621" width="65.0538" height="65.0538"/>
<path fill-rule="evenodd" clip-rule="evenodd" d="M179.578 136.691C184.673 134.525 188.244 129.474 188.242 123.587C188.24 115.725 181.864 109.349 174.002 109.347C166.139 109.344 159.767 115.716 159.769 123.579C159.771 129.464 163.343 134.516 168.436 136.686L168.442 156.386L174.015 161.34L179.319 156.625L176.059 153.364L179.582 149.841L179.582 148.982L176.056 145.456L179.58 141.931L179.578 136.691ZM171.563 120.51C172.909 121.856 175.091 121.856 176.437 120.51C177.783 119.163 177.783 116.981 176.437 115.635C175.091 114.289 172.909 114.289 171.563 115.635C170.217 116.981 170.217 119.163 171.563 120.51Z"/>
</mask>
<path fill-rule="evenodd" clip-rule="evenodd" d="M179.578 136.691C184.673 134.525 188.244 129.474 188.242 123.587C188.24 115.725 181.864 109.349 174.002 109.347C166.139 109.344 159.767 115.716 159.769 123.579C159.771 129.464 163.343 134.516 168.436 136.686L168.442 156.386L174.015 161.34L179.319 156.625L176.059 153.364L179.582 149.841L179.582 148.982L176.056 145.456L179.58 141.931L179.578 136.691ZM171.563 120.51C172.909 121.856 175.091 121.856 176.437 120.51C177.783 119.163 177.783 116.981 176.437 115.635C175.091 114.289 172.909 114.289 171.563 115.635C170.217 116.981 170.217 119.163 171.563 120.51Z" fill="#57E690"/>
<path d="M188.242 123.587L190.242 123.587L190.242 123.587L188.242 123.587ZM179.578 136.691L178.796 134.851L177.578 135.368L177.578 136.692L179.578 136.691ZM174.002 109.347L174.001 111.347L174.002 109.347ZM159.769 123.579L157.769 123.58L157.769 123.58L159.769 123.579ZM168.436 136.686L170.436 136.685L170.436 135.364L169.22 134.846L168.436 136.686ZM168.442 156.386L166.442 156.387L166.443 157.285L167.113 157.881L168.442 156.386ZM174.015 161.34L172.686 162.835L174.014 164.016L175.343 162.835L174.015 161.34ZM179.319 156.625L180.648 158.12L182.233 156.71L180.734 155.211L179.319 156.625ZM176.059 153.364L174.644 151.95L173.23 153.364L174.644 154.778L176.059 153.364ZM179.582 149.841L180.996 151.255L181.582 150.669L181.582 149.84L179.582 149.841ZM179.582 148.982L181.582 148.981L181.581 148.153L180.996 147.568L179.582 148.982ZM176.056 145.456L174.641 144.041L173.227 145.456L174.641 146.87L176.056 145.456ZM179.58 141.931L180.994 143.346L181.58 142.76L181.58 141.931L179.58 141.931ZM176.437 120.51L177.851 121.924L177.851 121.924L176.437 120.51ZM171.563 120.51L172.977 119.095L172.977 119.095L171.563 120.51ZM176.437 115.635L175.023 117.049L175.023 117.049L176.437 115.635ZM171.563 115.635L172.977 117.049L172.977 117.049L171.563 115.635ZM186.242 123.588C186.244 128.644 183.178 132.988 178.796 134.851L180.361 138.532C186.168 136.063 190.244 130.304 190.242 123.587L186.242 123.588ZM174.001 111.347C180.76 111.349 186.24 116.83 186.242 123.588L190.242 123.587C190.24 114.62 182.969 107.349 174.002 107.347L174.001 111.347ZM161.769 123.579C161.767 116.821 167.244 111.345 174.001 111.347L174.002 107.347C165.035 107.344 157.767 114.612 157.769 123.58L161.769 123.579ZM169.22 134.846C164.838 132.979 161.771 128.634 161.769 123.579L157.769 123.58C157.771 130.294 161.848 136.053 167.652 138.526L169.22 134.846ZM170.442 156.386L170.436 136.685L166.436 136.686L166.442 156.387L170.442 156.386ZM175.343 159.845L169.771 154.892L167.113 157.881L172.686 162.835L175.343 159.845ZM177.991 155.13L172.686 159.845L175.343 162.835L180.648 158.12L177.991 155.13ZM174.644 154.778L177.905 158.039L180.734 155.211L177.473 151.95L174.644 154.778ZM178.168 148.426L174.644 151.95L177.473 154.778L180.996 151.255L178.168 148.426ZM177.582 148.982L177.582 149.841L181.582 149.84L181.582 148.981L177.582 148.982ZM174.641 146.87L178.167 150.396L180.996 147.568L177.47 144.041L174.641 146.87ZM178.165 140.517L174.641 144.041L177.47 146.87L180.994 143.346L178.165 140.517ZM177.578 136.692L177.58 141.932L181.58 141.931L181.578 136.691L177.578 136.692ZM175.023 119.095C174.458 119.66 173.542 119.66 172.977 119.095L170.149 121.924C172.276 124.051 175.724 124.051 177.851 121.924L175.023 119.095ZM175.023 117.049C175.588 117.614 175.588 118.53 175.023 119.095L177.851 121.924C179.979 119.797 179.979 116.348 177.851 114.221L175.023 117.049ZM172.977 117.049C173.542 116.484 174.458 116.484 175.023 117.049L177.851 114.221C175.724 112.094 172.276 112.094 170.149 114.221L172.977 117.049ZM172.977 119.095C172.412 118.53 172.412 117.614 172.977 117.049L170.149 114.221C168.021 116.348 168.021 119.797 170.149 121.924L172.977 119.095Z" fill="white" mask="url(#path-18-outside-4)"/>
<path d="M173.792 118.069C179.751 118.069 185.121 115.549 188.895 111.516" stroke="white" stroke-width="5" stroke-linecap="round"/>
<path d="M173.792 118.07C180.497 118.07 186.457 114.879 190.236 109.933" stroke="#8AB4F8" stroke-width="2" stroke-linecap="round"/>
<path d="M188.575 87.2142C182.781 93.0081 182.995 102.615 189.052 108.673C195.11 114.73 204.717 114.943 210.511 109.15" stroke="white" stroke-width="2"/>
</svg>
