<svg width="347" height="197" viewBox="0 0 347 197" fill="none" xmlns="http://www.w3.org/2000/svg">
<rect width="347" height="196.502" rx="4" fill="#E8F0FE"/>
<g clip-path="url(#clip0)">
<rect x="233.5" y="28.5" width="29" height="47" rx="3.5" fill="white"/>
<path d="M248 43C243.029 43 239 47.0294 239 52V34H257L248 43Z" fill="#57E690"/>
<path d="M248 43L239 52C239 54.944 240.413 57.5578 242.599 59.1998C245.883 54.8279 251.111 52 257 52V43H248Z" fill="#FF6846"/>
<path d="M239 70C239 65.9477 240.339 62.2082 242.599 59.1998C244.103 60.3302 245.973 61 248 61C252.971 61 257 56.9706 257 52V70H239Z" fill="#1A73E8"/>
<rect x="233.5" y="28.5" width="29" height="47" rx="3.5" stroke="#1A73E8"/>
<rect x="234" y="79" width="14" height="2" rx="1" fill="#1A73E8"/>
<rect x="197.5" y="28.5" width="29" height="47" rx="3.5" fill="white"/>
<path d="M212 43C207.03 43 203 47.0294 203 52V34H221C221 38.0523 219.661 41.7918 217.401 44.8002C215.897 43.6699 214.026 43 212 43Z" fill="#1A73E8"/>
<path d="M217.401 44.8002C214.117 49.172 208.889 51.9999 203 51.9999C203 54.4852 204.007 56.7352 205.636 58.3639L212 51.9999L221 60.9999V51.9999C221 49.056 219.586 46.4422 217.401 44.8002Z" fill="#FCC934"/>
<path d="M205.636 58.3639L203 61L212 70L221 61H212C209.515 61 207.265 59.9926 205.636 58.3639Z" fill="#57E690"/>
<rect x="197.5" y="28.5" width="29" height="47" rx="3.5" stroke="#1A73E8"/>
<rect x="198" y="79" width="14" height="2" rx="1" fill="#1A73E8"/>
<rect x="161.5" y="28.5" width="29" height="47" rx="3.5" fill="white"/>
<path fill-rule="evenodd" clip-rule="evenodd" d="M167 34H185V43H176L167 34Z" fill="#FCC934"/>
<path d="M185 52L176 43L167 43V61C167 56.0294 171.03 52 176 52C180.971 52 185 56.0294 185 61V52Z" fill="#FF6846"/>
<path d="M176 70C171.03 70 167 65.9706 167 61L185 61C185 65.9706 180.97 70 176 70Z" fill="#57E690"/>
<rect x="161.5" y="28.5" width="29" height="47" rx="3.5" stroke="#1A73E8"/>
<rect x="162" y="79" width="14" height="2" rx="1" fill="#1A73E8"/>
<rect x="125.5" y="28.5" width="29" height="47" rx="3.5" fill="white"/>
<path fill-rule="evenodd" clip-rule="evenodd" d="M149 43C149 38.0294 144.97 34 140 34C135.03 34 131 38.0294 131 43H149ZM140 52H149V43L140 52Z" fill="#FCC934"/>
<path d="M131 61V43C131 47.9706 135.03 52 140 52C135.03 52 131 56.0294 131 61Z" fill="#1A73E8"/>
<path d="M149 61C149 56.0294 144.97 52 140 52L131 61V70H140C144.97 70 149 65.9706 149 61Z" fill="#FF6846"/>
<rect x="125.5" y="28.5" width="29" height="47" rx="3.5" stroke="#1A73E8"/>
<rect x="126" y="79" width="14" height="2" rx="1" fill="#1A73E8"/>
<g clip-path="url(#clip1)">
<rect x="89.5" y="28.5" width="29" height="47" rx="3.5" fill="white"/>
<path fill-rule="evenodd" clip-rule="evenodd" d="M113 60.46L113 70L95 70L104.54 60.46L113 60.46Z" fill="#1A73E8"/>
<path fill-rule="evenodd" clip-rule="evenodd" d="M95.0159 51.9999L113 52L104.54 60.46L104 60.46C99.2107 60.46 95.2952 56.7191 95.0159 51.9999Z" fill="#57E690"/>
<path fill-rule="evenodd" clip-rule="evenodd" d="M95 51.46L95 34L113 34L113 42.46L104 42.46C99.0294 42.46 95 46.4894 95 51.46Z" fill="#FF6846"/>
<rect x="89.5" y="28.5" width="29" height="47" rx="3.5" stroke="#1A73E8"/>
<rect x="90" y="79" width="14" height="2" rx="1" fill="#1A73E8"/>
</g>
<line x1="227" y1="51.5" x2="233" y2="51.5" stroke="#1A73E8"/>
<line x1="191" y1="51.5" x2="197" y2="51.5" stroke="#1A73E8"/>
<line x1="155" y1="51.5" x2="161" y2="51.5" stroke="#1A73E8"/>
<line x1="119" y1="51.5" x2="125" y2="51.5" stroke="#1A73E8"/>
</g>
<g clip-path="url(#clip2)">
<rect x="233.5" y="115.5" width="29" height="47" rx="3.5" fill="white"/>
<path d="M248 130C243.029 130 239 134.029 239 139V121H257L248 130Z" fill="#57E690"/>
<path d="M248 130L239 139C239 141.944 240.413 144.558 242.599 146.2C245.883 141.828 251.111 139 257 139V130H248Z" fill="#FF6846"/>
<path d="M239 157C239 152.948 240.339 149.208 242.599 146.2C244.103 147.33 245.973 148 248 148C252.971 148 257 143.971 257 139V157H239Z" fill="#1A73E8"/>
<rect x="233.5" y="115.5" width="29" height="47" rx="3.5" stroke="#1A73E8"/>
<rect x="234" y="166" width="14" height="2" rx="1" fill="#1A73E8"/>
<rect x="197.5" y="115.5" width="29" height="47" rx="3.5" fill="white"/>
<path d="M212 130C207.03 130 203 134.029 203 139V121H221C221 125.052 219.661 128.792 217.401 131.8C215.897 130.67 214.026 130 212 130Z" fill="#1A73E8"/>
<path d="M217.401 131.8C214.117 136.172 208.889 139 203 139C203 141.485 204.007 143.735 205.636 145.364L212 139L221 148V139C221 136.056 219.586 133.442 217.401 131.8Z" fill="#FCC934"/>
<path d="M205.636 145.364L203 148L212 157L221 148H212C209.515 148 207.265 146.993 205.636 145.364Z" fill="#57E690"/>
<rect x="197.5" y="115.5" width="29" height="47" rx="3.5" stroke="#1A73E8"/>
<rect x="198" y="166" width="14" height="2" rx="1" fill="#1A73E8"/>
<rect x="161.5" y="115.5" width="29" height="47" rx="3.5" fill="white"/>
<path fill-rule="evenodd" clip-rule="evenodd" d="M167 121H185V130H176L167 121Z" fill="#FCC934"/>
<path d="M185 139L176 130L167 130V148C167 143.029 171.03 139 176 139C180.971 139 185 143.029 185 148V139Z" fill="#FF6846"/>
<path d="M176 157C171.03 157 167 152.971 167 148L185 148C185 152.971 180.97 157 176 157Z" fill="#57E690"/>
<rect x="161.5" y="115.5" width="29" height="47" rx="3.5" stroke="#1A73E8"/>
<rect x="162" y="166" width="14" height="2" rx="1" fill="#1A73E8"/>
<rect x="125.5" y="115.5" width="29" height="47" rx="3.5" fill="white"/>
<path fill-rule="evenodd" clip-rule="evenodd" d="M149 130C149 125.029 144.97 121 140 121H131V130H149Z" fill="#FCC934"/>
<path fill-rule="evenodd" clip-rule="evenodd" d="M131 130C131 134.971 135.03 139 140 139L133.636 141.636L131 148V130ZM149 130V148L146.364 141.636L140 139C144.97 139 149 134.971 149 130Z" fill="#FF6846"/>
<path fill-rule="evenodd" clip-rule="evenodd" d="M149 148L146.364 154.364L140 157L133.636 154.364L131 148H149Z" fill="#1A73E8"/>
<rect x="125.5" y="115.5" width="29" height="47" rx="3.5" stroke="#1A73E8"/>
<rect x="126" y="166" width="14" height="2" rx="1" fill="#1A73E8"/>
<g clip-path="url(#clip3)">
<rect x="89.5" y="115.5" width="29" height="47" rx="3.5" fill="white"/>
<path fill-rule="evenodd" clip-rule="evenodd" d="M113 147.46L113 157L95 157L104.54 147.46L113 147.46Z" fill="#1A73E8"/>
<path fill-rule="evenodd" clip-rule="evenodd" d="M95.0159 139L113 139L104.54 147.46L104 147.46C99.2107 147.46 95.2952 143.719 95.0159 139Z" fill="#57E690"/>
<path fill-rule="evenodd" clip-rule="evenodd" d="M95 138.46L95 121L113 121L113 129.46L104 129.46C99.0294 129.46 95 133.489 95 138.46Z" fill="#FF6846"/>
<rect x="89.5" y="115.5" width="29" height="47" rx="3.5" stroke="#1A73E8"/>
<rect x="90" y="166" width="14" height="2" rx="1" fill="#1A73E8"/>
</g>
<line x1="227" y1="138.5" x2="233" y2="138.5" stroke="#1A73E8"/>
<line x1="191" y1="138.5" x2="197" y2="138.5" stroke="#1A73E8"/>
<line x1="155" y1="138.5" x2="161" y2="138.5" stroke="#1A73E8"/>
<line x1="119" y1="138.5" x2="125" y2="138.5" stroke="#1A73E8"/>
</g>
<path fill-rule="evenodd" clip-rule="evenodd" d="M132.89 105.059C131.436 105.059 130.529 103.482 131.256 102.227L138.366 89.9419C139.094 88.686 140.906 88.686 141.634 89.9419L148.744 102.227C149.471 103.482 148.564 105.059 147.11 105.059H132.89ZM147.111 103.171L140.001 90.8861L132.89 103.171H147.111ZM139.056 95.6168V97.5053C139.056 98.0246 139.481 98.4495 140 98.4495C140.519 98.4495 140.944 98.0246 140.944 97.5053V95.6168C140.944 95.0974 140.519 94.6725 140 94.6725C139.481 94.6725 139.056 95.0974 139.056 95.6168ZM140.944 102.227V100.338H139.056V102.227H140.944Z" fill="#FF6846"/>
<path d="M104.354 88.6464C104.158 88.4512 103.842 88.4512 103.646 88.6464L100.464 91.8284C100.269 92.0237 100.269 92.3403 100.464 92.5355C100.66 92.7308 100.976 92.7308 101.172 92.5355L104 89.7071L106.828 92.5355C107.024 92.7308 107.34 92.7308 107.536 92.5355C107.731 92.3403 107.731 92.0237 107.536 91.8284L104.354 88.6464ZM103.646 107.354C103.842 107.549 104.158 107.549 104.354 107.354L107.536 104.172C107.731 103.976 107.731 103.66 107.536 103.464C107.34 103.269 107.024 103.269 106.828 103.464L104 106.293L101.172 103.464C100.976 103.269 100.66 103.269 100.464 103.464C100.269 103.66 100.269 103.976 100.464 104.172L103.646 107.354ZM103.5 89L103.5 107L104.5 107L104.5 89L103.5 89Z" fill="#1A73E8"/>
<path d="M176.354 88.6464C176.158 88.4512 175.842 88.4512 175.646 88.6464L172.464 91.8284C172.269 92.0237 172.269 92.3403 172.464 92.5355C172.66 92.7308 172.976 92.7308 173.172 92.5355L176 89.7071L178.828 92.5355C179.024 92.7308 179.34 92.7308 179.536 92.5355C179.731 92.3403 179.731 92.0237 179.536 91.8284L176.354 88.6464ZM175.646 107.354C175.842 107.549 176.158 107.549 176.354 107.354L179.536 104.172C179.731 103.976 179.731 103.66 179.536 103.464C179.34 103.269 179.024 103.269 178.828 103.464L176 106.293L173.172 103.464C172.976 103.269 172.66 103.269 172.464 103.464C172.269 103.66 172.269 103.976 172.464 104.172L175.646 107.354ZM175.5 89L175.5 107L176.5 107L176.5 89L175.5 89Z" fill="#1A73E8"/>
<path d="M212.354 88.6464C212.158 88.4512 211.842 88.4512 211.646 88.6464L208.464 91.8284C208.269 92.0237 208.269 92.3403 208.464 92.5355C208.66 92.7308 208.976 92.7308 209.172 92.5355L212 89.7071L214.828 92.5355C215.024 92.7308 215.34 92.7308 215.536 92.5355C215.731 92.3403 215.731 92.0237 215.536 91.8284L212.354 88.6464ZM211.646 107.354C211.842 107.549 212.158 107.549 212.354 107.354L215.536 104.172C215.731 103.976 215.731 103.66 215.536 103.464C215.34 103.269 215.024 103.269 214.828 103.464L212 106.293L209.172 103.464C208.976 103.269 208.66 103.269 208.464 103.464C208.269 103.66 208.269 103.976 208.464 104.172L211.646 107.354ZM211.5 89L211.5 107L212.5 107L212.5 89L211.5 89Z" fill="#1A73E8"/>
<path d="M248.354 88.6464C248.158 88.4512 247.842 88.4512 247.646 88.6464L244.464 91.8284C244.269 92.0237 244.269 92.3403 244.464 92.5355C244.66 92.7308 244.976 92.7308 245.172 92.5355L248 89.7071L250.828 92.5355C251.024 92.7308 251.34 92.7308 251.536 92.5355C251.731 92.3403 251.731 92.0237 251.536 91.8284L248.354 88.6464ZM247.646 107.354C247.842 107.549 248.158 107.549 248.354 107.354L251.536 104.172C251.731 103.976 251.731 103.66 251.536 103.464C251.34 103.269 251.024 103.269 250.828 103.464L248 106.293L245.172 103.464C244.976 103.269 244.66 103.269 244.464 103.464C244.269 103.66 244.269 103.976 244.464 104.172L247.646 107.354ZM247.5 89L247.5 107L248.5 107L248.5 89L247.5 89Z" fill="#1A73E8"/>
<defs>
<clipPath id="clip0">
<rect width="180" height="53" fill="white" transform="translate(83 28)"/>
</clipPath>
<clipPath id="clip1">
<rect width="30" height="53" fill="white" transform="translate(89 28)"/>
</clipPath>
<clipPath id="clip2">
<rect width="180" height="53" fill="white" transform="translate(83 115)"/>
</clipPath>
<clipPath id="clip3">
<rect width="30" height="53" fill="white" transform="translate(89 115)"/>
</clipPath>
</defs>
</svg>
