<svg width="347" height="197" viewBox="0 0 347 197" fill="none" xmlns="http://www.w3.org/2000/svg">
<rect width="347" height="196.502" rx="4" fill="#E8F0FE"/>
<path d="M145.646 84.6464C145.451 84.8417 145.451 85.1583 145.646 85.3536L148.828 88.5355C149.024 88.7308 149.34 88.7308 149.536 88.5355C149.731 88.3403 149.731 88.0237 149.536 87.8284L146.707 85L149.536 82.1716C149.731 81.9763 149.731 81.6597 149.536 81.4645C149.34 81.2692 149.024 81.2692 148.828 81.4645L145.646 84.6464ZM182.354 85.3536C182.549 85.1583 182.549 84.8417 182.354 84.6464L179.172 81.4645C178.976 81.2692 178.66 81.2692 178.464 81.4645C178.269 81.6597 178.269 81.9763 178.464 82.1716L181.293 85L178.464 87.8284C178.269 88.0237 178.269 88.3403 178.464 88.5355C178.66 88.7308 178.976 88.7308 179.172 88.5355L182.354 85.3536ZM146 85.5H182V84.5H146V85.5Z" fill="#1A73E8"/>
<path d="M201.5 52C201.5 50.067 203.067 48.5 205 48.5H240.312L256.5 65.8164V118C256.5 119.933 254.933 121.5 253 121.5H205C203.067 121.5 201.5 119.933 201.5 118V52Z" fill="white" stroke="#1A73E8"/>
<path d="M240.437 48.8409V61.6591C240.437 63.8683 242.227 65.6591 244.437 65.6591H256.211" stroke="#1A73E8"/>
<path d="M237 109V92.9998L221 109H237Z" fill="#1A73E8"/>
<path d="M229 76.9999L221 68.9999L229 61L237 68.9999L229 76.9999Z" fill="#1A73E8"/>
<path d="M237 92.9999C237 84.1634 229.837 76.9999 221 76.9999L221 92.9999L237 92.9999Z" fill="#1A73E8"/>
<rect x="247.5" y="96.5" width="29" height="47" rx="3.5" fill="white"/>
<path fill-rule="evenodd" clip-rule="evenodd" d="M253 102H271V111H262L253 102Z" fill="#FFD02A"/>
<path d="M271 120L262 111L253 111V129C253 124.029 257.03 120 262 120C266.971 120 271 124.029 271 129V120Z" fill="#FF6846"/>
<path d="M262 138C257.03 138 253 133.971 253 129L271 129C271 133.971 266.97 138 262 138Z" fill="#57E690"/>
<rect x="247.5" y="96.5" width="29" height="47" rx="3.5" stroke="#1A73E8"/>
<rect x="248" y="147" width="14" height="2" rx="1" fill="#1A73E8"/>
<path d="M71.5 52C71.5 50.067 73.067 48.5 75 48.5H110.312L126.5 65.8164V118C126.5 119.933 124.933 121.5 123 121.5H75C73.067 121.5 71.5 119.933 71.5 118V52Z" fill="white" stroke="#1A73E8"/>
<path d="M110.437 48.8409V61.6591C110.437 63.8683 112.227 65.6591 114.437 65.6591H126.211" stroke="#1A73E8"/>
<path d="M107 109V92.9998L91 109H107Z" fill="#1A73E8"/>
<path d="M99 76.9999L91 68.9999L99 61L107 68.9999L99 76.9999Z" fill="#1A73E8"/>
<path d="M107 92.9999C107 84.1634 99.8366 76.9999 91 76.9999L91 92.9999L107 92.9999Z" fill="#1A73E8"/>
<rect x="117.5" y="96.5" width="29" height="47" rx="3.5" fill="white"/>
<path fill-rule="evenodd" clip-rule="evenodd" d="M123 102H141V111H132L123 102Z" fill="#FFD02A"/>
<path d="M141 120L132 111L123 111V129C123 124.029 127.03 120 132 120C136.971 120 141 124.029 141 129V120Z" fill="#FF6846"/>
<path d="M132 138C127.03 138 123 133.971 123 129L141 129C141 133.971 136.97 138 132 138Z" fill="#57E690"/>
<rect x="117.5" y="96.5" width="29" height="47" rx="3.5" stroke="#1A73E8"/>
<rect x="118" y="147" width="14" height="2" rx="1" fill="#1A73E8"/>
</svg>
