<svg width="718" height="194" viewBox="0 0 718 194" fill="none" xmlns="http://www.w3.org/2000/svg">
<g clip-path="url(#clip0)">
<rect width="718" height="194" fill="white"/>
<path fill-rule="evenodd" clip-rule="evenodd" d="M275 57H315V77H295L275 57Z" fill="#FFD02A"/>
<path d="M315 97L295 77L275 77V117C275 105.954 283.955 97 295 97C306.046 97 315 105.954 315 117V97Z" fill="#FF6846"/>
<path d="M295 137C283.955 137 275 128.046 275 117L315 117C315 128.046 306.045 137 295 137Z" fill="#57E690"/>
<rect x="267.5" y="49.5" width="55" height="95" rx="3.5" stroke="#1A73E8"/>
<rect x="268" y="151" width="22" height="4" rx="2" fill="#1A73E8"/>
<line x1="323" y1="96.5" x2="332" y2="96.5" stroke="#1A73E8"/>
<line x1="386" y1="96.5" x2="395" y2="96.5" stroke="#1A73E8"/>
<path d="M423 77C411.954 77 403 85.9543 403 97V57H443L423 77Z" fill="#57E690"/>
<path d="M423 77L403 97C403 103.542 406.141 109.351 410.997 113C418.295 103.284 429.914 97 443 97V77H423Z" fill="#FF6846"/>
<path d="M403 137C403 127.995 405.975 119.685 410.997 113C414.34 115.511 418.496 117 423 117C434.046 117 443 108.046 443 97V137H403Z" fill="#1A73E8"/>
<rect x="395.5" y="49.5" width="55" height="95" rx="3.5" stroke="#1A73E8"/>
<rect x="396" y="151" width="22" height="4" rx="2" fill="#1A73E8"/>
<path d="M359 77C347.955 77 339 85.9543 339 97V57H379C379 66.0051 376.024 74.3152 371.002 81.0005C367.659 78.4886 363.503 77 359 77Z" fill="#1A73E8"/>
<path d="M371.002 81.0005C363.705 90.7157 352.086 97 339 97C339 102.523 341.238 107.523 344.858 111.142L359 97L379 117V97C379 90.4579 375.859 84.6494 371.002 81.0005Z" fill="#FFD02A"/>
<path d="M344.858 111.142L339 117L359 137L379 117H359C353.477 117 348.477 114.761 344.858 111.142Z" fill="#57E690"/>
<rect x="331.5" y="49.5" width="55" height="95" rx="3.5" stroke="#1A73E8"/>
<rect x="332" y="151" width="22" height="4" rx="2" fill="#1A73E8"/>
<g clip-path="url(#clip1)">
<path d="M697 40C692.029 40 688 44.0294 688 49V31L706 31L697 40Z" fill="#57E690"/>
<path d="M697 40L688 49C688 51.944 689.413 54.5578 691.599 56.1998C694.883 51.8279 700.111 49 706 49V40H697Z" fill="#FF6846"/>
<path d="M688 67C688 62.9477 689.339 59.2082 691.599 56.1998C693.103 57.3302 694.973 58 697 58C701.971 58 706 53.9706 706 49V67H688Z" fill="#1A73E8"/>
<rect x="682.5" y="25.5" width="29" height="47" rx="3.5" stroke="#1A73E8"/>
<rect x="683" y="76" width="14" height="2" rx="1" fill="#1A73E8"/>
<path d="M661 40C656.03 40 652 44.0294 652 49V31H670C670 35.0523 668.661 38.7918 666.401 41.8002C664.897 40.6699 663.026 40 661 40Z" fill="#1A73E8"/>
<path d="M666.401 41.8003C663.117 46.1722 657.889 49 652 49C652 51.4853 653.007 53.7353 654.636 55.364L661 49L670 58V49C670 46.0561 668.586 43.4423 666.401 41.8003Z" fill="#FFD02A"/>
<path d="M654.636 55.3638L652 57.9998L661 66.9998L670 57.9998H661C658.515 57.9998 656.265 56.9925 654.636 55.3638Z" fill="#57E690"/>
<rect x="646.5" y="25.5" width="29" height="47" rx="3.5" stroke="#1A73E8"/>
<rect x="647" y="76" width="14" height="2" rx="1" fill="#1A73E8"/>
<path fill-rule="evenodd" clip-rule="evenodd" d="M616 31H634V40H625L616 31Z" fill="#FFD02A"/>
<path d="M634 49L625 40L616 40V58C616 53.0294 620.03 49 625 49C629.971 49 634 53.0294 634 58V49Z" fill="#FF6846"/>
<path d="M625 67C620.03 67 616 62.9706 616 58L634 58C634 62.9706 629.97 67 625 67Z" fill="#57E690"/>
<rect x="610.5" y="25.5" width="29" height="47" rx="3.5" stroke="#1A73E8"/>
<rect x="611" y="76" width="14" height="2" rx="1" fill="#1A73E8"/>
<path fill-rule="evenodd" clip-rule="evenodd" d="M598 40C598 35.0294 593.97 31 589 31C584.03 31 580 35.0294 580 40H598ZM589 49H598V40L589 49Z" fill="#FFD02A"/>
<path d="M580 58V40C580 44.9706 584.03 49 589 49C584.03 49 580 53.0294 580 58Z" fill="#1A73E8"/>
<path d="M598 58C598 53.0294 593.97 49 589 49L580 58V67H589C593.97 67 598 62.9706 598 58Z" fill="#FF6846"/>
<rect x="574.5" y="25.5" width="29" height="47" rx="3.5" stroke="#1A73E8"/>
<rect x="575" y="76" width="14" height="2" rx="1" fill="#1A73E8"/>
<g clip-path="url(#clip2)">
<path fill-rule="evenodd" clip-rule="evenodd" d="M562 57.46L562 67L544 67L553.54 57.46L562 57.46Z" fill="#1A73E8"/>
<path fill-rule="evenodd" clip-rule="evenodd" d="M544.016 48.9999L562 49L553.54 57.46L553 57.46C548.211 57.46 544.295 53.7191 544.016 48.9999Z" fill="#57E690"/>
<path fill-rule="evenodd" clip-rule="evenodd" d="M544 48.46L544 31L562 31L562 39.46L553 39.46C548.029 39.46 544 43.4894 544 48.46Z" fill="#FF6846"/>
<rect x="538.5" y="25.5" width="29" height="47" rx="3.5" stroke="#1A73E8"/>
<rect x="539" y="76" width="14" height="2" rx="1" fill="#1A73E8"/>
</g>
<line x1="676" y1="48.5" x2="682" y2="48.5" stroke="#1A73E8"/>
<line x1="640" y1="48.5" x2="646" y2="48.5" stroke="#1A73E8"/>
<line x1="604" y1="48.5" x2="610" y2="48.5" stroke="#1A73E8"/>
<line x1="568" y1="48.5" x2="574" y2="48.5" stroke="#1A73E8"/>
<line x1="532" y1="48.5" x2="538" y2="48.5" stroke="#1A73E8"/>
</g>
<g clip-path="url(#clip3)">
<path d="M697 127C692.029 127 688 131.029 688 136V118H706L697 127Z" fill="#57E690"/>
<path d="M697 127L688 136C688 138.944 689.413 141.558 691.599 143.2C694.883 138.828 700.111 136 706 136V127H697Z" fill="#FF6846"/>
<path d="M688 154C688 149.948 689.339 146.208 691.599 143.2C693.103 144.33 694.973 145 697 145C701.971 145 706 140.971 706 136V154H688Z" fill="#1A73E8"/>
<rect x="682.5" y="112.5" width="29" height="47" rx="3.5" stroke="#1A73E8"/>
<rect x="683" y="163" width="14" height="2" rx="1" fill="#1A73E8"/>
<path d="M661 127C656.03 127 652 131.029 652 136V118H670C670 122.052 668.661 125.792 666.401 128.8C664.897 127.67 663.026 127 661 127Z" fill="#1A73E8"/>
<path d="M666.401 128.8C663.117 133.172 657.889 136 652 136C652 138.485 653.007 140.735 654.636 142.364L661 136L670 145V136C670 133.056 668.586 130.442 666.401 128.8Z" fill="#FFD02A"/>
<path d="M654.636 142.364L652 145L661 154L670 145H661C658.515 145 656.265 143.992 654.636 142.364Z" fill="#57E690"/>
<rect x="646.5" y="112.5" width="29" height="47" rx="3.5" stroke="#1A73E8"/>
<rect x="647" y="163" width="14" height="2" rx="1" fill="#1A73E8"/>
<path fill-rule="evenodd" clip-rule="evenodd" d="M616 118H634V127H625L616 118Z" fill="#FFD02A"/>
<path d="M634 136L625 127L616 127V145C616 140.029 620.03 136 625 136C629.971 136 634 140.029 634 145V136Z" fill="#FF6846"/>
<path d="M625 154C620.03 154 616 149.971 616 145L634 145C634 149.971 629.97 154 625 154Z" fill="#57E690"/>
<rect x="610.5" y="112.5" width="29" height="47" rx="3.5" stroke="#1A73E8"/>
<rect x="611" y="163" width="14" height="2" rx="1" fill="#1A73E8"/>
<path fill-rule="evenodd" clip-rule="evenodd" d="M598 127C598 122.029 593.97 118 589 118H580V127H598Z" fill="#FFD02A"/>
<path fill-rule="evenodd" clip-rule="evenodd" d="M580 127C580 131.971 584.03 136 589 136L582.636 138.636L580 145V127ZM598 127V145L595.364 138.636L589 136C593.97 136 598 131.971 598 127Z" fill="#FF6846"/>
<path fill-rule="evenodd" clip-rule="evenodd" d="M598 145L595.364 151.364L589 154L582.636 151.364L580 145H598Z" fill="#1A73E8"/>
<rect x="574.5" y="112.5" width="29" height="47" rx="3.5" stroke="#1A73E8"/>
<rect x="575" y="163" width="14" height="2" rx="1" fill="#1A73E8"/>
<g clip-path="url(#clip4)">
<path fill-rule="evenodd" clip-rule="evenodd" d="M562 144.46L562 154L544 154L553.54 144.46L562 144.46Z" fill="#1A73E8"/>
<path fill-rule="evenodd" clip-rule="evenodd" d="M544.016 136L562 136L553.54 144.46L553 144.46C548.211 144.46 544.295 140.719 544.016 136Z" fill="#57E690"/>
<path fill-rule="evenodd" clip-rule="evenodd" d="M544 135.46L544 118L562 118L562 126.46L553 126.46C548.029 126.46 544 130.489 544 135.46Z" fill="#FF6846"/>
<rect x="538.5" y="112.5" width="29" height="47" rx="3.5" stroke="#1A73E8"/>
<rect x="539" y="163" width="14" height="2" rx="1" fill="#1A73E8"/>
</g>
<line x1="676" y1="135.5" x2="682" y2="135.5" stroke="#1A73E8"/>
<line x1="640" y1="135.5" x2="646" y2="135.5" stroke="#1A73E8"/>
<line x1="604" y1="135.5" x2="610" y2="135.5" stroke="#1A73E8"/>
<line x1="568" y1="135.5" x2="574" y2="135.5" stroke="#1A73E8"/>
<line x1="532" y1="135.5" x2="538" y2="135.5" stroke="#1A73E8"/>
</g>
<path d="M553.354 85.6464C553.158 85.4512 552.842 85.4512 552.646 85.6464L549.464 88.8284C549.269 89.0237 549.269 89.3403 549.464 89.5355C549.66 89.7308 549.976 89.7308 550.172 89.5355L553 86.7071L555.828 89.5355C556.024 89.7308 556.34 89.7308 556.536 89.5355C556.731 89.3403 556.731 89.0237 556.536 88.8284L553.354 85.6464ZM552.646 104.354C552.842 104.549 553.158 104.549 553.354 104.354L556.536 101.172C556.731 100.976 556.731 100.66 556.536 100.464C556.34 100.269 556.024 100.269 555.828 100.464L553 103.293L550.172 100.464C549.976 100.269 549.66 100.269 549.464 100.464C549.269 100.66 549.269 100.976 549.464 101.172L552.646 104.354ZM552.5 86L552.5 104L553.5 104L553.5 86L552.5 86Z" fill="#1A73E8"/>
<path d="M625.354 85.6464C625.158 85.4512 624.842 85.4512 624.646 85.6464L621.464 88.8284C621.269 89.0237 621.269 89.3403 621.464 89.5355C621.66 89.7308 621.976 89.7308 622.172 89.5355L625 86.7071L627.828 89.5355C628.024 89.7308 628.34 89.7308 628.536 89.5355C628.731 89.3403 628.731 89.0237 628.536 88.8284L625.354 85.6464ZM624.646 104.354C624.842 104.549 625.158 104.549 625.354 104.354L628.536 101.172C628.731 100.976 628.731 100.66 628.536 100.464C628.34 100.269 628.024 100.269 627.828 100.464L625 103.293L622.172 100.464C621.976 100.269 621.66 100.269 621.464 100.464C621.269 100.66 621.269 100.976 621.464 101.172L624.646 104.354ZM624.5 86L624.5 104L625.5 104L625.5 86L624.5 86Z" fill="#1A73E8"/>
<path d="M697.354 85.6464C697.158 85.4512 696.842 85.4512 696.646 85.6464L693.464 88.8284C693.269 89.0237 693.269 89.3403 693.464 89.5355C693.66 89.7308 693.976 89.7308 694.172 89.5355L697 86.7071L699.828 89.5355C700.024 89.7308 700.34 89.7308 700.536 89.5355C700.731 89.3403 700.731 89.0237 700.536 88.8284L697.354 85.6464ZM696.646 104.354C696.842 104.549 697.158 104.549 697.354 104.354L700.536 101.172C700.731 100.976 700.731 100.66 700.536 100.464C700.34 100.269 700.024 100.269 699.828 100.464L697 103.293L694.172 100.464C693.976 100.269 693.66 100.269 693.464 100.464C693.269 100.66 693.269 100.976 693.464 101.172L696.646 104.354ZM696.5 86L696.5 104L697.5 104L697.5 86L696.5 86Z" fill="#1A73E8"/>
<path d="M661.354 85.6464C661.158 85.4512 660.842 85.4512 660.646 85.6464L657.464 88.8284C657.269 89.0237 657.269 89.3403 657.464 89.5355C657.66 89.7308 657.976 89.7308 658.172 89.5355L661 86.7071L663.828 89.5355C664.024 89.7308 664.34 89.7308 664.536 89.5355C664.731 89.3403 664.731 89.0237 664.536 88.8284L661.354 85.6464ZM660.646 104.354C660.842 104.549 661.158 104.549 661.354 104.354L664.536 101.172C664.731 100.976 664.731 100.66 664.536 100.464C664.34 100.269 664.024 100.269 663.828 100.464L661 103.293L658.172 100.464C657.976 100.269 657.66 100.269 657.464 100.464C657.269 100.66 657.269 100.976 657.464 101.172L660.646 104.354ZM660.5 86L660.5 104L661.5 104L661.5 86L660.5 86Z" fill="#1A73E8"/>
<path fill-rule="evenodd" clip-rule="evenodd" d="M581.47 103.504C579.93 103.504 578.97 101.834 579.74 100.504L587.27 87.4936C588.04 86.1636 589.96 86.1636 590.73 87.4936L598.26 100.504C599.03 101.834 598.07 103.504 596.53 103.504H581.47ZM596.53 101.504L589 88.4936L581.47 101.504H596.53ZM588 93.5036V95.5036C588 96.0536 588.45 96.5036 589 96.5036C589.55 96.5036 590 96.0536 590 95.5036V93.5036C590 92.9536 589.55 92.5036 589 92.5036C588.45 92.5036 588 92.9536 588 93.5036ZM590 100.504V98.5036H588V100.504H590Z" fill="#FF6846"/>
<rect x="23" y="36" width="147" height="101" rx="4" fill="#E8F0FE"/>
<path d="M36 116L44 110L36 104" stroke="#1A73E8" stroke-width="2" stroke-linejoin="round"/>
<line x1="115" y1="123" x2="135" y2="123" stroke="#1A73E8" stroke-width="2"/>
<g clip-path="url(#clip5)">
<path d="M72 110C72 115.523 76.4772 120 82 120C87.5228 120 92 115.523 92 110C92 104.477 87.5228 100 82 100L72 100L72 110Z" fill="#1A73E8"/>
<path d="M92 100C92 111.046 100.954 120 112 120L112 100L92 100Z" fill="#1A73E8"/>
<path d="M52 120L72 120L52 100L52 120Z" fill="#1A73E8"/>
</g>
<path d="M36 49L36 65L52 49L36 49Z" fill="#AECBFA"/>
<ellipse cx="76" cy="57" rx="8" ry="8" fill="#AECBFA"/>
<rect x="52" y="49" width="16" height="16" fill="#AECBFA"/>
<g clip-path="url(#clip6)">
<path d="M76 89L68 81L76 73L84 81L76 89Z" fill="#AECBFA"/>
<path d="M60 73C55.5817 73 52 76.5817 52 81C52 85.4183 55.5817 89 60 89C64.4183 89 68 85.4183 68 81L68 73L60 73Z" fill="#AECBFA"/>
<path d="M52 89C52 80.1634 44.8366 73 36 73L36 89L52 89Z" fill="#AECBFA"/>
</g>
<path d="M21.5273 143.084C22.269 142.388 23.2482 142 24.2658 142H168.734C169.752 142 170.731 142.388 171.473 143.084L190.637 161.084C193.279 163.566 191.523 168 187.899 168H5.10142C1.47708 168 -0.278841 163.566 2.36295 161.084L21.5273 143.084Z" fill="#E8F0FE"/>
<path d="M423 49V49C423 22.4903 401.51 1 375 1H278.214C256.123 1 238.214 18.9086 238.214 41V70C238.214 92.0914 220.306 110 198.214 110H182" stroke="#1A73E8"/>
<path d="M359 49V49C359 29.1177 342.882 13 323 13H266.675C250.957 13 238.214 25.7424 238.214 41.461V47C238.214 65.7777 222.992 81 204.214 81H182" stroke="#1A73E8"/>
<path d="M295 49V49C295 35.7452 284.255 25 271 25H254.214C245.378 25 238.214 32.1634 238.214 41V41C238.214 49.8366 231.051 57 222.214 57H182" stroke="#1A73E8"/>
<path d="M295 145V145C295 171.51 316.49 193 343 193H439.786C461.877 193 479.786 175.091 479.786 153V88.5C479.786 66.4086 497.694 48.5 519.786 48.5H538" stroke="#1A73E8"/>
<path d="M358.999 145V145C358.999 164.882 375.117 181 394.999 181H451.324C467.043 181 479.785 168.258 479.785 152.539V113" stroke="#1A73E8"/>
<path d="M423 144.5V144.5C423 158.031 433.969 169 447.5 169H463.036C472.286 169 479.786 161.501 479.786 152.25V152.25C479.786 142.999 487.285 135.5 496.536 135.5H538.5" stroke="#1A73E8"/>
</g>
<defs>
<clipPath id="clip0">
<rect width="718" height="194" fill="white"/>
</clipPath>
<clipPath id="clip1">
<rect width="180" height="53" fill="white" transform="translate(532 25)"/>
</clipPath>
<clipPath id="clip2">
<rect width="30" height="53" fill="white" transform="translate(538 25)"/>
</clipPath>
<clipPath id="clip3">
<rect width="180" height="53" fill="white" transform="translate(532 112)"/>
</clipPath>
<clipPath id="clip4">
<rect width="30" height="53" fill="white" transform="translate(538 112)"/>
</clipPath>
<clipPath id="clip5">
<rect width="60" height="20" fill="white" transform="translate(52 100)"/>
</clipPath>
<clipPath id="clip6">
<rect width="48" height="16" fill="white" transform="translate(36 73)"/>
</clipPath>
</defs>
</svg>
