<svg width="718" height="161" viewBox="0 0 718 161" fill="none" xmlns="http://www.w3.org/2000/svg">
<g clip-path="url(#clip0)">
<rect width="718" height="161" fill="white"/>
<path d="M307.355 64.6447C298.308 55.5964 285.807 50 272 50L297 25L322 50L307.355 64.6447Z" fill="#FFD02A"/>
<path d="M297 75L272 50V100H297L317.581 79.4189C315.077 73.8832 311.596 68.8849 307.355 64.6447L297 75Z" fill="#FF6846"/>
<path d="M272 125L297 100H322C322 92.6633 320.42 85.6956 317.581 79.4189L322 75V100V125H272Z" fill="#1A73E8"/>
<rect x="264.5" y="17.5" width="65" height="115" rx="3.5" stroke="#1A73E8"/>
<rect x="265" y="139" width="32" height="5" rx="2.5" fill="#1A73E8"/>
<path d="M431.355 64.6447C422.308 55.5964 409.807 50 396 50L421 25L446 50L431.355 64.6447Z" fill="#FFD02A"/>
<path d="M421 75L396 50V100H421L441.581 79.4189C439.077 73.8832 435.596 68.8849 431.355 64.6447L421 75Z" fill="#FF6846"/>
<path d="M396 125L421 100H446C446 92.6633 444.42 85.6956 441.581 79.4189L446 75V100V125H396Z" fill="#1A73E8"/>
<rect x="388.5" y="17.5" width="65" height="115" rx="3.5" stroke="#1A73E8"/>
<rect x="389" y="139" width="32" height="5" rx="2.5" fill="#1A73E8"/>
<path d="M341.646 74.6464C341.451 74.8417 341.451 75.1583 341.646 75.3536L344.828 78.5355C345.024 78.7308 345.34 78.7308 345.536 78.5355C345.731 78.3403 345.731 78.0237 345.536 77.8284L342.707 75L345.536 72.1716C345.731 71.9763 345.731 71.6597 345.536 71.4645C345.34 71.2692 345.024 71.2692 344.828 71.4645L341.646 74.6464ZM376.354 75.3536C376.549 75.1583 376.549 74.8417 376.354 74.6464L373.172 71.4645C372.976 71.2692 372.66 71.2692 372.464 71.4645C372.269 71.6597 372.269 71.9763 372.464 72.1716L375.293 75L372.464 77.8284C372.269 78.0237 372.269 78.3403 372.464 78.5355C372.66 78.7308 372.976 78.7308 373.172 78.5355L376.354 75.3536ZM342 75.5L376 75.5L376 74.5L342 74.5L342 75.5Z" fill="#1A73E8"/>
<path d="M466 75H536" stroke="#1A73E8"/>
<path d="M182 75H252" stroke="#1A73E8"/>
<rect x="23" y="16" width="147" height="101" rx="4" fill="#E8F0FE"/>
<path d="M99.5 33C99.5 31.067 101.067 29.5 103 29.5H138.312L154.5 46.8164V99C154.5 100.933 152.933 102.5 151 102.5H103C101.067 102.5 99.5 100.933 99.5 99V33Z" fill="white" stroke="#1A73E8"/>
<path d="M138.438 29.8408V42.659C138.438 44.8681 140.228 46.659 142.437 46.659H154.212" stroke="#1A73E8"/>
<path d="M135 90V74L119 90H135Z" fill="#1A73E8"/>
<path d="M127 58L119 50L127 42L135 50L127 58Z" fill="#1A73E8"/>
<path d="M135 74C135 65.1634 127.837 58 119 58L119 74L135 74Z" fill="#1A73E8"/>
<rect x="38" y="46" width="48" height="4" rx="2" fill="#AECBFA"/>
<rect x="38" y="53" width="27" height="4" rx="2" fill="#AECBFA"/>
<path fill-rule="evenodd" clip-rule="evenodd" d="M83.0006 68.3335H84.0606C84.6539 68.3335 84.9472 69.0535 84.5272 69.4735L81.4672 72.5335C81.2072 72.7935 80.7872 72.7935 80.5272 72.5335L77.4672 69.4735C77.0472 69.0535 77.3472 68.3335 77.9406 68.3335H79.0006V65.0002C79.0006 64.6335 79.3006 64.3335 79.6672 64.3335H82.3339C82.7006 64.3335 83.0006 64.6335 83.0006 65.0002V68.3335ZM77.0007 75.6668C76.634 75.6668 76.334 75.3668 76.334 75.0002C76.334 74.6335 76.634 74.3335 77.0007 74.3335H85.0007C85.3673 74.3335 85.6673 74.6335 85.6673 75.0002C85.6673 75.3668 85.3673 75.6668 85.0007 75.6668H77.0007Z" fill="#1A73E8"/>
<rect x="38.5" y="67.5" width="33" height="6" rx="1.5" fill="#D2E3FC"/>
<rect x="38.5" y="67.5" width="23" height="6" fill="#1A73E8" stroke="#1A73E8"/>
<rect x="38.5" y="67.5" width="33" height="6" rx="1.5" stroke="#1A73E8"/>
<path d="M21.5273 123.084C22.269 122.388 23.2482 122 24.2658 122H168.734C169.752 122 170.731 122.388 171.473 123.084L190.637 141.084C193.279 143.566 191.523 148 187.899 148H5.10142C1.47708 148 -0.278841 143.566 2.36295 141.084L21.5273 123.084Z" fill="#E8F0FE"/>
<g clip-path="url(#clip1)">
<rect x="548" width="160" height="150" rx="2" fill="#E8F0FE"/>
<path d="M600.5 129C600.5 127.067 602.067 125.5 604 125.5H639.312L655.5 142.816V195C655.5 196.933 653.933 198.5 652 198.5H604C602.067 198.5 600.5 196.933 600.5 195V129Z" stroke="#1A73E8"/>
<path d="M639.438 125.841V138.659C639.438 140.868 641.228 142.659 643.437 142.659H655.212" stroke="#1A73E8"/>
<path d="M531.5 129C531.5 127.067 533.067 125.5 535 125.5H570.312L586.5 142.816V195C586.5 196.933 584.933 198.5 583 198.5H535C533.067 198.5 531.5 196.933 531.5 195V129Z" stroke="#1A73E8"/>
<path d="M570.438 125.841V138.659C570.438 140.868 572.228 142.659 574.437 142.659H586.212" stroke="#1A73E8"/>
<path d="M669.5 129C669.5 127.067 671.067 125.5 673 125.5H708.312L724.5 142.816V195C724.5 196.933 722.933 198.5 721 198.5H673C671.067 198.5 669.5 196.933 669.5 195V129Z" stroke="#1A73E8"/>
<path d="M708.438 125.841V138.659C708.438 140.868 710.228 142.659 712.437 142.659H724.212" stroke="#1A73E8"/>
<path d="M600.5 42C600.5 40.067 602.067 38.5 604 38.5H639.312L655.5 55.8164V108C655.5 109.933 653.933 111.5 652 111.5H604C602.067 111.5 600.5 109.933 600.5 108V42Z" fill="white" stroke="#1A73E8"/>
<path d="M639.438 38.8408V51.659C639.438 53.8681 641.228 55.659 643.437 55.659H655.212" stroke="#1A73E8"/>
<path d="M636 99V83L620 99H636Z" fill="#1A73E8"/>
<path d="M628 67L620 59L628 51L636 59L628 67Z" fill="#1A73E8"/>
<path d="M636 83C636 74.1634 628.837 67 620 67L620 83L636 83Z" fill="#1A73E8"/>
<path d="M669.5 42C669.5 40.067 671.067 38.5 673 38.5H708.312L724.5 55.8164V108C724.5 109.933 722.933 111.5 721 111.5H673C671.067 111.5 669.5 109.933 669.5 108V42Z" stroke="#1A73E8"/>
<path d="M708.438 38.8408V51.659C708.438 53.8681 710.228 55.659 712.437 55.659H724.212" stroke="#1A73E8"/>
<path d="M531.5 42C531.5 40.067 533.067 38.5 535 38.5H570.312L586.5 55.8164V108C586.5 109.933 584.933 111.5 583 111.5H535C533.067 111.5 531.5 109.933 531.5 108V42Z" stroke="#1A73E8"/>
<path d="M570.438 38.8408V51.659C570.438 53.8681 572.228 55.659 574.437 55.659H586.212" stroke="#1A73E8"/>
<path d="M531.5 -45C531.5 -46.933 533.067 -48.5 535 -48.5H570.312L586.5 -31.1836V21C586.5 22.933 584.933 24.5 583 24.5H535C533.067 24.5 531.5 22.933 531.5 21V-45Z" stroke="#1A73E8"/>
<path d="M669.5 -45C669.5 -46.933 671.067 -48.5 673 -48.5H708.312L724.5 -31.1836V21C724.5 22.933 722.933 24.5 721 24.5H673C671.067 24.5 669.5 22.933 669.5 21V-45Z" stroke="#1A73E8"/>
<path d="M600.5 -45C600.5 -46.933 602.067 -48.5 604 -48.5H639.312L655.5 -31.1836V21C655.5 22.933 653.933 24.5 652 24.5H604C602.067 24.5 600.5 22.933 600.5 21V-45Z" stroke="#1A73E8"/>
</g>
</g>
<defs>
<clipPath id="clip0">
<rect width="718" height="161" fill="white"/>
</clipPath>
<clipPath id="clip1">
<rect x="548" width="160" height="150" rx="2" fill="white"/>
</clipPath>
</defs>
</svg>
