<svg width="395" height="252" viewBox="0 0 395 252" fill="none" xmlns="http://www.w3.org/2000/svg">
<rect width="395" height="252" fill="white"/>
<path d="M139.981 203.846C139.938 203.545 140.147 203.265 140.449 203.221L145.365 202.511C145.667 202.468 145.947 202.677 145.99 202.979C146.034 203.281 145.824 203.56 145.523 203.604L141.153 204.235L141.784 208.605C141.827 208.907 141.618 209.187 141.316 209.23C141.014 209.274 140.735 209.065 140.691 208.763L139.981 203.846ZM275.815 184.02L276.258 184.35L275.815 184.02ZM256.019 48.1536C256.062 48.4553 255.853 48.7352 255.551 48.7787L250.635 49.4886C250.333 49.5322 250.053 49.3229 250.01 49.0212C249.966 48.7195 250.175 48.4396 250.477 48.396L254.847 47.765L254.216 43.3948C254.173 43.0931 254.382 42.8132 254.684 42.7696C254.986 42.7261 255.265 42.9353 255.309 43.237L256.019 48.1536ZM120.185 67.9797L119.742 67.6502L120.185 67.9797ZM140.858 203.325C183.411 235.141 243.635 226.351 275.373 183.691L276.258 184.35C244.157 227.499 183.24 236.392 140.197 204.21L140.858 203.325ZM275.373 183.691C301.611 148.422 300.164 101.043 274.828 67.7057L275.707 67.0378C301.333 100.757 302.798 148.676 276.258 184.35L275.373 183.691ZM255.142 48.6745C212.589 16.8587 152.365 25.6488 120.627 68.3091L119.742 67.6502C151.843 24.5006 212.76 15.6085 255.803 47.7904L255.142 48.6745ZM120.627 68.3091C94.3891 103.578 95.8356 150.957 121.172 184.294L120.293 184.962C94.6672 151.243 93.2022 103.324 119.742 67.6502L120.627 68.3091Z" fill="#1A73E8"/>
<rect x="145.012" y="78.4097" width="74.0292" height="5.2878" rx="2.6439" fill="#1A73E8"/>
<rect x="145.012" y="88.9854" width="58.1658" height="5.2878" rx="2.6439" fill="#1A73E8"/>
<rect x="145.012" y="104.848" width="74.0292" height="5.2878" rx="2.6439" fill="#1A73E8"/>
<rect x="145.012" y="115.424" width="58.1658" height="5.2878" rx="2.6439" fill="#1A73E8"/>
<rect x="145.012" y="131.288" width="74.0292" height="5.2878" rx="2.6439" fill="#1A73E8"/>
<rect x="145.012" y="141.864" width="58.1658" height="5.2878" rx="2.6439" fill="#1A73E8"/>
<rect x="145.012" y="157.727" width="74.0292" height="5.2878" rx="2.6439" fill="#1A73E8"/>
<rect x="145.012" y="168.302" width="58.1658" height="5.2878" rx="2.6439" fill="#1A73E8"/>
<path d="M235.566 85.6805L240.193 90.3073L250.769 79.7317" stroke="#57E690" stroke-width="2.6439"/>
<rect x="231.6" y="76.4268" width="19.8292" height="19.8292" rx="9.91462" stroke="#57E690" stroke-width="1.32195"/>
<path d="M235.567 112.12L240.194 116.747L250.769 106.171" stroke="#57E690" stroke-width="2.6439"/>
<rect x="231.6" y="102.866" width="19.8292" height="19.8292" rx="9.91462" stroke="#57E690" stroke-width="1.32195"/>
<path d="M235.567 138.558L240.194 143.185L250.769 132.61" stroke="#57E690" stroke-width="2.6439"/>
<rect x="231.6" y="129.305" width="19.8292" height="19.8292" rx="9.91462" stroke="#57E690" stroke-width="1.32195"/>
<path d="M235.567 164.997L240.194 169.624L250.769 159.049" stroke="#57E690" stroke-width="2.6439"/>
<rect x="231.6" y="155.744" width="19.8292" height="19.8292" rx="9.91462" stroke="#57E690" stroke-width="1.32195"/>
<g clip-path="url(#clip0)">
<path d="M364 55.0003C368.97 55.0003 373.471 52.9856 376.728 49.7283L382 55.0003C377.03 55.0003 372.529 57.0151 369.272 60.2724L364 55.0003Z" fill="#1A73E8"/>
<path d="M364 55L373 46L376.728 49.7279C379.985 46.4706 382 41.9706 382 37L364 37V55Z" fill="#FF6846"/>
<path d="M382 55L373 64L369.272 60.2721C366.015 63.5294 364 68.0294 364 73L382 73L382 55Z" fill="#57E690"/>
<rect x="358.5" y="31.5" width="29" height="47" rx="3.5" stroke="#1A73E8"/>
<rect x="359" y="82" width="14" height="2" rx="1" fill="#1A73E8"/>
</g>
<path d="M328 73L337 64C341.971 64 346 59.9706 346 55V73H328Z" fill="#FCC934"/>
<path d="M346 37L337 46C332.029 46 328 50.0294 328 55L328 37L346 37Z" fill="#1A73E8"/>
<path d="M337 46L328 55C328 59.9706 332.029 64 337 64L346 55V46H337Z" fill="#57E690"/>
<rect x="322.5" y="31.5" width="29" height="47" rx="3.5" stroke="#1A73E8"/>
<rect x="323" y="82" width="14" height="2" rx="1" fill="#1A73E8"/>
<line x1="352" y1="54.5" x2="358" y2="54.5" stroke="#1A73E8"/>
<g clip-path="url(#clip1)">
<path fill-rule="evenodd" clip-rule="evenodd" d="M382 135.46L382 145L364 145L373.54 135.46L382 135.46Z" fill="#1A73E8"/>
<path fill-rule="evenodd" clip-rule="evenodd" d="M364.016 127L382 127L373.54 135.46L373 135.46C368.211 135.46 364.295 131.719 364.016 127Z" fill="#57E690"/>
<path fill-rule="evenodd" clip-rule="evenodd" d="M364 126.46L364 109L382 109L382 117.46L373 117.46C368.029 117.46 364 121.489 364 126.46Z" fill="#FCC934"/>
<rect x="358.5" y="103.5" width="29" height="46.9995" rx="3.5" stroke="#1A73E8"/>
<rect x="359" y="154" width="14" height="2" rx="1" fill="#1A73E8"/>
</g>
<path d="M346 118C346 113.029 341.97 109 337 109C332.03 109 328 113.029 328 118H346Z" fill="#1A73E8"/>
<path d="M328 127V118C328 122.971 332.03 127 337 127H346V136H343.592C340.479 130.62 334.662 127 328 127Z" fill="#FF6846"/>
<path d="M343.592 136H328V145H346C346 141.721 345.123 138.648 343.592 136Z" fill="#FCC934"/>
<rect x="322.5" y="103.5" width="29" height="47" rx="3.5" stroke="#1A73E8"/>
<rect x="323" y="154" width="14" height="2" rx="1" fill="#1A73E8"/>
<line x1="352" y1="126.5" x2="358" y2="126.5" stroke="#1A73E8"/>
<path fill-rule="evenodd" clip-rule="evenodd" d="M373 181L382 190L379.364 192.636C377.735 191.007 375.485 190 373 190C370.515 190 368.265 191.007 366.636 192.636L364 190L373 181Z" fill="#57E690"/>
<path fill-rule="evenodd" clip-rule="evenodd" d="M373 208C368.03 208 364 203.971 364 199C364 196.515 365.007 194.265 366.636 192.636L373 199L379.364 192.636C380.993 194.265 382 196.515 382 199L373 208Z" fill="#FCC934"/>
<path fill-rule="evenodd" clip-rule="evenodd" d="M382 208H373L364 217H382V208Z" fill="#FF6846"/>
<rect x="358.5" y="175.5" width="29" height="47" rx="3.5" stroke="#1A73E8"/>
<rect x="359" y="226" width="14" height="2" rx="1" fill="#1A73E8"/>
<path d="M337 190C332.029 190 328 194.029 328 199V181H346L337 190Z" fill="#1A73E8"/>
<path d="M337 190L328 199C328 201.944 329.413 204.558 331.599 206.2C334.883 201.828 340.111 199 346 199V190H337Z" fill="#57E690"/>
<path d="M328 217C328 212.948 329.339 209.208 331.599 206.2C333.103 207.33 334.973 208 337 208C341.971 208 346 203.971 346 199V217H328Z" fill="#FF6846"/>
<rect x="322.5" y="175.5" width="29" height="47" rx="3.5" stroke="#1A73E8"/>
<rect x="323" y="226" width="14" height="2" rx="1" fill="#1A73E8"/>
<line x1="352" y1="198.5" x2="358" y2="198.5" stroke="#1A73E8"/>
<g clip-path="url(#clip2)">
<path d="M50 55.0003C54.9704 55.0003 59.4707 52.9856 62.728 49.7283L68 55.0003C63.0296 55.0003 58.5293 57.0151 55.272 60.2724L50 55.0003Z" fill="#1A73E8"/>
<path d="M50 55L59 46L62.728 49.7279C65.9852 46.4706 68 41.9706 68 37L50 37V55Z" fill="#FF6846"/>
<path d="M68 55L59 64L55.272 60.2721C52.0148 63.5294 50 68.0294 50 73L68 73L68 55Z" fill="#57E690"/>
<rect x="44.5" y="31.5" width="29" height="47" rx="3.5" stroke="#1A73E8"/>
<rect x="45" y="82" width="14" height="2" rx="1" fill="#1A73E8"/>
</g>
<path d="M14 73L23 64C27.9706 64 32 59.9706 32 55V73H14Z" fill="#FCC934"/>
<path d="M32 37L23 46C18.0294 46 14 50.0294 14 55L14 37L32 37Z" fill="#1A73E8"/>
<path d="M23 46L14 55C14 59.9706 18.0294 64 23 64L32 55V46H23Z" fill="#57E690"/>
<rect x="8.5" y="31.5" width="29" height="47" rx="3.5" stroke="#1A73E8"/>
<rect x="9" y="82" width="14" height="2" rx="1" fill="#1A73E8"/>
<line x1="38" y1="54.5" x2="44" y2="54.5" stroke="#1A73E8"/>
<g clip-path="url(#clip3)">
<path fill-rule="evenodd" clip-rule="evenodd" d="M68 135.46L68 145L50 145L59.54 135.46L68 135.46Z" fill="#1A73E8"/>
<path fill-rule="evenodd" clip-rule="evenodd" d="M50.0159 127L68 127L59.5399 135.46L59 135.46C54.2107 135.46 50.2952 131.719 50.0159 127Z" fill="#57E690"/>
<path fill-rule="evenodd" clip-rule="evenodd" d="M50 126.46L50 109L68 109L68 117.46L59 117.46C54.0294 117.46 50 121.489 50 126.46Z" fill="#FCC934"/>
<rect x="44.5" y="103.5" width="29" height="46.9995" rx="3.5" stroke="#1A73E8"/>
<rect x="45" y="154" width="14" height="2" rx="1" fill="#1A73E8"/>
</g>
<path d="M32 118C32 113.029 27.9704 109 23 109C18.0296 109 14 113.029 14 118H32Z" fill="#1A73E8"/>
<path d="M14 127V118C14 122.971 18.0296 127 23 127H32V136H29.5918C26.4794 130.62 20.6625 127 14 127Z" fill="#FF6846"/>
<path d="M29.5918 136H14V145H32C32 141.721 31.1232 138.648 29.5918 136Z" fill="#FCC934"/>
<rect x="8.5" y="103.5" width="29" height="47" rx="3.5" stroke="#1A73E8"/>
<rect x="9" y="154" width="14" height="2" rx="1" fill="#1A73E8"/>
<line x1="38" y1="126.5" x2="44" y2="126.5" stroke="#1A73E8"/>
<path fill-rule="evenodd" clip-rule="evenodd" d="M59 181L68 190L65.364 192.636C63.7352 191.007 61.4852 190 59 190C56.5148 190 54.2648 191.007 52.636 192.636L50 190L59 181Z" fill="#57E690"/>
<path fill-rule="evenodd" clip-rule="evenodd" d="M59 208C54.0296 208 50 203.971 50 199C50 196.515 51.0072 194.265 52.636 192.636L59 199L65.364 192.636C66.9928 194.265 68 196.515 68 199L59 208Z" fill="#FCC934"/>
<path fill-rule="evenodd" clip-rule="evenodd" d="M68 208H59L50 217H68V208Z" fill="#FF6846"/>
<rect x="44.5" y="175.5" width="29" height="47" rx="3.5" stroke="#1A73E8"/>
<rect x="45" y="226" width="14" height="2" rx="1" fill="#1A73E8"/>
<path d="M23 190C18.0294 190 14 194.029 14 199V181H32L23 190Z" fill="#1A73E8"/>
<path d="M23 190L14 199C14 201.944 15.4135 204.558 17.5988 206.2C20.8827 201.828 26.1112 199 32 199V190H23Z" fill="#57E690"/>
<path d="M14 217C14 212.948 15.3389 209.208 17.5988 206.2C19.1031 207.33 20.9734 208 23 208C27.9706 208 32 203.971 32 199V217H14Z" fill="#FF6846"/>
<rect x="8.5" y="175.5" width="29" height="47" rx="3.5" stroke="#1A73E8"/>
<rect x="9" y="226" width="14" height="2" rx="1" fill="#1A73E8"/>
<line x1="38" y1="198.5" x2="44" y2="198.5" stroke="#1A73E8"/>
<path d="M74 53C142.483 -16.3333 253.517 -16.3333 322 53" stroke="#1A73E8" stroke-linecap="square"/>
<path d="M74 199C142.483 268.333 253.517 268.333 322 199" stroke="#1A73E8" stroke-linecap="square"/>
<path d="M388 198.5H389.5C392.261 198.5 394.5 196.261 394.5 193.5V130.5C394.5 127.739 392.261 125.5 389.5 125.5H388M322 126.5H320.5C317.739 126.5 315.5 124.261 315.5 121.5V98C315.5 95.2386 317.739 93 320.5 93H389.5C392.261 93 394.5 90.7614 394.5 88V59.5C394.5 56.7386 392.261 54.5 389.5 54.5H388" stroke="#1A73E8" stroke-linecap="square"/>
<path d="M7.50001 54.5L6.00001 54.5C3.23859 54.5 1.00001 56.7386 1.00001 59.5L1.00001 122.5C1.00001 125.261 3.23858 127.5 6.00001 127.5L7.50001 127.5M73.5 126.5L75 126.5C77.7614 126.5 80 128.739 80 131.5L80 160C80 162.761 77.7614 165 75 165L6 165C3.23858 165 1 167.239 1 170L1 193.5C1 196.261 3.23858 198.5 6 198.5L7.5 198.5" stroke="#1A73E8" stroke-linecap="square"/>
<defs>
<clipPath id="clip0">
<rect width="30" height="53" fill="white" transform="translate(358 31)"/>
</clipPath>
<clipPath id="clip1">
<rect width="30" height="53" fill="white" transform="translate(358 103)"/>
</clipPath>
<clipPath id="clip2">
<rect width="30" height="53" fill="white" transform="translate(44 31)"/>
</clipPath>
<clipPath id="clip3">
<rect width="30" height="53" fill="white" transform="translate(44 103)"/>
</clipPath>
</defs>
</svg>
