<svg width="406" height="250" viewBox="0 0 406 250" fill="none" xmlns="http://www.w3.org/2000/svg">
<path fill-rule="evenodd" clip-rule="evenodd" d="M230 151H270V171H250L230 151Z" fill="#FCC934"/>
<path d="M270 191L250 171L230 171V211C230 199.954 238.955 191 250 191C261.046 191 270 199.954 270 211V191Z" fill="#FF6846"/>
<path d="M250 231C238.955 231 230 222.046 230 211L270 211C270 222.046 261.045 231 250 231Z" fill="#57E690"/>
<rect x="222.5" y="143.5" width="55" height="95" rx="3.5" stroke="#1A73E8"/>
<rect x="225" y="245" width="30" height="5" rx="2" fill="#1A73E8"/>
<line x1="278" y1="190.5" x2="287" y2="190.5" stroke="#1A73E8"/>
<line x1="341" y1="190.5" x2="350" y2="190.5" stroke="#1A73E8"/>
<path d="M378 159C366.954 159 358 167.954 358 179V139H398L378 159Z" fill="#57E690"/>
<path d="M378 159L358 179C358 185.542 361.141 191.351 365.997 195C373.295 185.284 384.914 179 398 179V159H378Z" fill="#FF6846"/>
<path d="M358 219C358 209.995 360.975 201.685 365.997 195C369.34 197.511 373.496 199 378 199C389.046 199 398 190.046 398 179V219H358Z" fill="#1A73E8"/>
<rect x="350.5" y="131.5" width="55" height="95" rx="3.5" stroke="#1A73E8"/>
<rect x="353" y="233" width="30" height="5" rx="2" fill="#1A73E8"/>
<path d="M314 171C302.955 171 294 179.954 294 191V151H334C334 160.005 331.024 168.315 326.002 175.001C322.659 172.489 318.503 171 314 171Z" fill="#1A73E8"/>
<path d="M326.002 175C318.705 184.716 307.086 191 294 191C294 196.523 296.238 201.523 299.858 205.142L314 191L334 211V191C334 184.458 330.859 178.649 326.002 175Z" fill="#FCC934"/>
<path d="M299.858 205.142L294 211L314 231L334 211H314C308.477 211 303.477 208.761 299.858 205.142Z" fill="#57E690"/>
<rect x="286.5" y="143.5" width="55" height="95" rx="3.5" stroke="#1A73E8"/>
<rect x="289" y="245" width="30" height="5" rx="2" fill="#1A73E8"/>
<line x1="213" y1="190.5" x2="222" y2="190.5" stroke="#1A73E8"/>
<rect width="190" height="118" rx="2" fill="#C1D1F1"/>
<path d="M15 102.7L27.3125 92.85L15 83" stroke="#1A73E8" stroke-width="2"/>
<line x1="118" y1="104" x2="143" y2="104" stroke="#1A73E8" stroke-width="2"/>
<g clip-path="url(#clip0)">
<path d="M63 90.5C63 97.4036 68.5964 103 75.5 103C82.4036 103 88 97.4036 88 90.5C88 83.5964 82.4036 78 75.5 78L63 78L63 90.5Z" fill="#1A73E8"/>
<path d="M88 78C88 91.8071 99.1929 103 113 103L113 78L88 78Z" fill="#1A73E8"/>
<path d="M38 103L63 103L38 78L38 103Z" fill="#1A73E8"/>
</g>
<path d="M15 15L15 35L35 15L15 15Z" fill="#FCFCFC"/>
<ellipse cx="65" cy="25" rx="10" ry="10" fill="#FCFCFC"/>
<rect x="35" y="15" width="20" height="20" fill="#FCFCFC"/>
<g clip-path="url(#clip1)">
<path d="M65 65L55 55L65 45L75 55L65 65Z" fill="#FCFCFC"/>
<path d="M45 45C39.4772 45 35 49.4772 35 55C35 60.5228 39.4772 65 45 65C50.5228 65 55 60.5228 55 55L55 45L45 45Z" fill="#FCFCFC"/>
<path d="M35 65C35 53.9543 26.0457 45 15 45L15 65L35 65Z" fill="#FCFCFC"/>
</g>
<path d="M31 175.106L37.2918 133.177H153.282L159.573 175.106H31Z" fill="#C1D1F1"/>
<path d="M74.8452 169.247C74.312 166.459 74.2409 163.071 75.5917 159.294C76.9425 155.518 79.8574 152.765 81.066 151.529C82.8433 149.659 83.8742 147.894 82.8078 146.165C81.5992 144.259 78.9331 144.929 77.298 145.812C73.7788 147.718 71.0773 151.176 69.2288 154.671C67.9136 157.176 66.9894 159.859 66.4917 162.647C66.2429 163.035 66.1362 161.871 66.1007 161.447C65.8519 157.671 66.314 153.682 68.4112 150.471C69.2999 149.129 70.2597 148.071 71.5038 147.082C72.7835 146.059 73.921 145.741 75.023 144.541C75.4495 144.082 75.805 143.588 75.9827 143.023C76.3738 141.823 76.0183 140.553 74.9163 139.918C73.6722 139.212 69.9042 138.894 65.1409 143.023C65.1409 143.023 63.4347 142.318 60.8753 142.671C58.3159 143.023 55.2233 144.506 52.5928 148.953C52.5928 148.953 49.1448 149.694 46.9053 151.6C44.6658 153.506 43.7416 156.188 44.0615 158.8C44.9858 166.282 44.9502 167.129 45.6967 172.529C46.5854 178.812 48.8604 183.894 50.2467 187.141C51.6331 190.388 54.8323 195.576 62.1905 195.788C74.9519 196.141 79.8929 194.271 86.4691 183.329C89.1351 178.847 91.2324 171.153 91.2324 166.988C91.2324 164.976 90.3437 160.212 89.7039 157.565C89.4195 156.435 88.4597 154.671 86.4691 155.165C83.9097 155.8 82.7367 159.965 82.7011 162.329C82.6656 165.471 83.0566 168.4 82.3101 170.306C81.457 172.459 78.8976 173.906 77.1202 173.094C75.4851 172.388 75.023 170.094 74.8452 169.247Z" fill="#FCFCFC" stroke="#1A73E8" stroke-miterlimit="10" stroke-linecap="round" stroke-linejoin="round"/>
<path d="M52.5922 148.918C50.957 151.953 47.8644 158.271 49.393 167.588" stroke="#1A73E8" stroke-miterlimit="10" stroke-linecap="round" stroke-linejoin="round"/>
<path d="M57.4633 165.329C56.3969 156.859 59.3473 147.894 65.1059 142.988" stroke="#1A73E8" stroke-miterlimit="10" stroke-linecap="round" stroke-linejoin="round"/>
<path d="M115.856 169.247C116.389 166.459 116.46 163.071 115.109 159.294C113.759 155.518 110.844 152.765 109.635 151.529C107.858 149.659 106.827 147.894 107.893 146.165C109.102 144.259 111.768 144.929 113.403 145.812C116.922 147.718 119.624 151.176 121.472 154.671C122.788 157.176 123.712 159.859 124.209 162.647C124.458 163.035 124.565 161.871 124.6 161.447C124.849 157.671 124.387 153.682 122.29 150.471C121.401 149.129 120.441 148.071 119.197 147.082C117.918 146.059 116.78 145.741 115.678 144.541C115.252 144.082 114.896 143.588 114.718 143.023C114.327 141.823 114.683 140.553 115.785 139.918C117.029 139.212 120.797 138.894 125.56 143.023C125.56 143.023 127.267 142.318 129.826 142.671C132.385 143.023 135.478 144.506 138.108 148.953C138.108 148.953 141.556 149.694 143.796 151.6C146.035 153.506 146.96 156.188 146.64 158.8C145.715 166.282 145.751 167.129 145.004 172.529C144.116 178.812 141.841 183.894 140.454 187.141C139.068 190.388 135.869 195.576 128.511 195.788C115.749 196.141 110.808 194.271 104.232 183.329C101.566 178.847 99.4688 171.153 99.4688 166.988C99.4688 164.976 100.357 160.212 100.997 157.565C101.282 156.435 102.241 154.671 104.232 155.165C106.791 155.8 107.965 159.965 108 162.329C108.036 165.471 107.645 168.4 108.391 170.306C109.244 172.459 111.804 173.906 113.581 173.094C115.216 172.388 115.678 170.094 115.856 169.247Z" fill="#FCFCFC" stroke="#1A73E8" stroke-miterlimit="10" stroke-linecap="round" stroke-linejoin="round"/>
<path d="M138.109 148.918C139.744 151.953 142.837 158.271 141.308 167.588" stroke="#1A73E8" stroke-miterlimit="10" stroke-linecap="round" stroke-linejoin="round"/>
<path d="M133.238 165.329C134.304 156.859 131.354 147.894 125.595 142.988" stroke="#1A73E8" stroke-miterlimit="10" stroke-linecap="round" stroke-linejoin="round"/>
<path d="M119 92H338C359.539 92 377 109.461 377 131V131" stroke="#1A73E8" stroke-dasharray="8 6"/>
<defs>
<clipPath id="clip0">
<rect width="75" height="25" fill="white" transform="translate(38 78)"/>
</clipPath>
<clipPath id="clip1">
<rect width="60" height="20" fill="white" transform="translate(15 45)"/>
</clipPath>
</defs>
</svg>
