<?xml version="1.0" encoding="UTF-8"?>
<svg width="470px" height="300px" viewBox="0 0 470 300" version="1.1" xmlns="http://www.w3.org/2000/svg" xmlns:xlink="http://www.w3.org/1999/xlink">
    <!-- Generator: Sketch 63.1 (92452) - https://sketch.com -->
    <title>discourage-insider-threats</title>
    <desc>Created with Sketch.</desc>
    <g id="Page-1" stroke="none" stroke-width="1" fill="none" fill-rule="evenodd">
        <g id="discourage-insider-threats">
            <rect id="Rectangle" fill="#FFFFFF" fill-rule="nonzero" x="0" y="0.0759277" width="470" height="299.848"></rect>
            <g id="Group" transform="translate(349.000000, 122.000000)">
                <path d="M17.481,49.417 C11.567,49.417 6.772,44.623 6.772,38.709 L28.19,38.709 L28.19,49.417 L17.481,49.417 Z" id="Path" fill="#1A73E8" fill-rule="nonzero"></path>
                <path d="M17.481,6.582 C23.395,6.582 28.19,11.377 28.19,17.291 L6.772,17.291 L6.772,6.582 L17.481,6.582 Z" id="Path" fill="#FF6846" fill-rule="nonzero"></path>
                <path d="M6.772,17.291 C6.772,23.205 11.567,28 17.481,28 C23.395,28 28.19,23.205 28.19,17.291 L28.19,38.709 C28.19,32.794 23.395,28 17.481,28 C11.567,28 6.772,32.794 6.772,38.709 L6.772,17.291 Z" id="Path" fill="#FCC934" fill-rule="nonzero"></path>
                <rect id="Rectangle" stroke="#1A73E8" stroke-width="1.18987" x="0.228" y="0.038" width="34.5063" height="55.9241" rx="4.16456"></rect>
                <rect id="Rectangle" fill="#1A73E8" fill-rule="nonzero" x="0.823" y="60.126" width="11.8987" height="2.37975" rx="1.18987"></rect>
            </g>
            <g id="Group" transform="translate(306.000000, 122.000000)">
                <path d="M6.937,17.291 L17.646,6.582 L28.354,17.291 L17.646,17.291 C14.688,17.291 12.011,18.49 10.073,20.427 L6.937,17.291 Z" id="Path" fill="#57E690"></path>
                <path d="M17.646,28 L28.354,17.291 L28.354,28 C28.354,30.957 27.156,33.634 25.218,35.572 L17.646,28 Z M10.073,35.572 L17.646,28 L10.073,20.427 C8.135,22.365 6.937,25.043 6.937,28 C6.937,30.957 8.135,33.634 10.073,35.572 Z" id="Shape" fill="#1A73E8"></path>
                <path d="M10.073,35.572 C12.011,37.51 14.688,38.709 17.646,38.709 C20.603,38.709 23.28,37.51 25.218,35.572 L28.354,38.709 L17.646,49.418 L6.937,38.709 L10.073,35.572 Z" id="Path" fill="#FCC934"></path>
                <rect id="Rectangle" stroke="#1A73E8" stroke-width="1.18987" x="0.392" y="0.038" width="34.5063" height="55.9241" rx="4.16456"></rect>
                <rect id="Rectangle" fill="#1A73E8" fill-rule="nonzero" x="0.987" y="60.126" width="11.8987" height="2.37975" rx="1.18987"></rect>
            </g>
            <g id="Group" transform="translate(263.000000, 122.000000)">
                <path d="M13.374,34.273 L17.81,38.709 L28.519,28 L28.519,49.417 L7.101,49.417 C7.101,43.503 9.499,38.149 13.374,34.273 Z" id="Path" fill="#FF6846"></path>
                <path d="M13.374,34.273 L7.101,28 L17.81,28 C20.767,28 23.445,26.801 25.382,24.863 L28.519,28 C22.605,28 17.25,30.397 13.374,34.273 Z" id="Path" fill="#57E690"></path>
                <path d="M7.101,17.291 C7.101,11.377 11.896,6.582 17.81,6.582 C23.724,6.582 28.519,11.377 28.519,17.291 C28.519,20.248 27.32,22.925 25.382,24.863 L17.81,17.291 L7.101,28 L7.101,17.291 Z" id="Path" fill="#FCC934"></path>
                <rect id="Rectangle" stroke="#1A73E8" stroke-width="1.18987" x="0.557" y="0.038" width="34.5063" height="55.9241" rx="4.16456"></rect>
                <rect id="Rectangle" fill="#1A73E8" fill-rule="nonzero" x="1.152" y="60.126" width="11.8987" height="2.37975" rx="1.18987"></rect>
            </g>
            <g id="Group" transform="translate(177.000000, 122.000000)">
                <path d="M28.848,38.709 L25.983,38.709 C22.28,32.307 15.358,28 7.43,28 L28.848,28 L28.848,38.709 Z" id="Path" fill="#1A73E8" fill-rule="nonzero"></path>
                <path d="M28.848,6.582 C17.019,6.582 7.43,16.171 7.43,28 C7.43,22.085 12.225,17.291 18.139,17.291 C24.054,17.291 28.848,22.085 28.848,28 L28.848,6.582 Z" id="Path" fill="#57E690" fill-rule="nonzero"></path>
                <path d="M7.43,49.417 L7.43,28 C7.43,33.914 12.225,38.709 18.139,38.709 L25.983,38.709 C27.805,41.859 28.848,45.516 28.848,49.417 L7.43,49.417 Z" id="Path" fill="#FCC934" fill-rule="nonzero"></path>
                <rect id="Rectangle" stroke="#1A73E8" stroke-width="1.18987" x="0.886" y="0.038" width="34.5063" height="55.9241" rx="4.16456"></rect>
                <rect id="Rectangle" fill="#1A73E8" fill-rule="nonzero" x="1.481" y="60.126" width="11.8987" height="2.37975" rx="1.18987"></rect>
            </g>
            <g id="Group" transform="translate(135.000000, 122.000000)">
                <polygon id="Path" fill="#FF6846" fill-rule="nonzero" points="6.595 6.582 6.595 17.291 17.304 17.291 28.013 6.582"></polygon>
                <path d="M6.595,28 L17.304,17.291 C23.218,17.291 28.013,22.085 28.013,28 L6.595,28 Z" id="Path" fill="#FCC934" fill-rule="nonzero"></path>
                <path d="M6.595,49.417 L6.595,28 C6.595,33.914 11.389,38.709 17.304,38.709 C23.218,38.709 28.013,33.914 28.013,28 C28.013,39.828 18.424,49.417 6.595,49.417 Z" id="Path" fill="#1A73E8" fill-rule="nonzero"></path>
                <rect id="Rectangle" stroke="#1A73E8" stroke-width="1.18987" x="0.051" y="0.038" width="34.5063" height="55.9241" rx="4.16456"></rect>
                <rect id="Rectangle" fill="#1A73E8" fill-rule="nonzero" x="0.646" y="60.126" width="11.8987" height="2.37975" rx="1.18987"></rect>
            </g>
            <g id="Group" transform="translate(92.000000, 122.000000)">
                <path d="M28.177,17.291 C28.177,19.241 27.656,21.07 26.745,22.645 C24.893,19.444 21.432,17.291 17.468,17.291 C13.505,17.291 10.044,19.444 8.192,22.645 C7.2811,21.07 6.7595,19.241 6.7595,17.291 C6.7595,11.377 11.554,6.582 17.468,6.582 L28.177,6.582 L28.177,17.291 Z" id="Path" fill="#FCC934"></path>
                <path d="M9.625,38.709 L6.7595,38.709 L6.7595,28 C6.7595,26.049 7.2811,24.22 8.192,22.645 C10.044,25.846 13.505,28 17.468,28 C21.432,28 24.893,25.846 26.745,22.645 C27.656,24.22 28.177,26.049 28.177,28 C20.25,28 13.328,32.307 9.625,38.709 Z" id="Path" fill="#57E690"></path>
                <path d="M9.625,38.709 L17.468,38.709 C23.383,38.709 28.177,33.914 28.177,28 L28.177,49.417 L6.7595,49.417 C6.7595,45.516 7.8025,41.859 9.625,38.709 Z" id="Path" fill="#FF6846"></path>
                <rect id="Rectangle" stroke="#1A73E8" stroke-width="1.18987" x="0.2152" y="0.038" width="34.5063" height="55.9241" rx="4.16456"></rect>
                <rect id="Rectangle" fill="#1A73E8" fill-rule="nonzero" x="0.8102" y="60.126" width="11.8987" height="2.37975" rx="1.18987"></rect>
            </g>
            <rect id="Rectangle" fill="#1A73E8" fill-rule="nonzero" x="221.316" y="182.126" width="11.8987" height="2.37975" rx="1.18987"></rect>
            <path d="M227.266,160.709 L245.818,160.709 C247.641,163.859 248.684,167.516 248.684,171.417 L227.266,171.417 L227.266,160.709 Z M227.266,160.709 L236.082,151.893 C233.393,150.677 230.409,150 227.266,150 L227.266,160.709 Z" id="Shape" fill="#57E690"></path>
            <path d="M236.047,151.893 L237.94,150 C243.854,150 248.649,145.205 248.649,139.291 L248.649,160.709 L245.784,160.709 C243.548,156.845 240.141,153.744 236.047,151.893 Z" id="Path" fill="#FF6846"></path>
            <path d="M227.266,139.291 C227.266,133.377 232.06,128.582 237.975,128.582 C243.889,128.582 248.684,133.377 248.684,139.291 L237.975,150 C232.06,150 227.266,145.205 227.266,139.291 Z" id="Path" fill="#1A73E8"></path>
            <rect id="Rectangle" stroke="#1A73E8" stroke-width="1.18987" x="220.722" y="122.038" width="34.5063" height="55.9241" rx="4.16456"></rect>
            <line x1="341.494" y1="149.405" x2="348.633" y2="149.405" id="Path" stroke="#1A73E8" stroke-width="1.18987"></line>
            <line x1="298.658" y1="149.405" x2="305.797" y2="149.405" id="Path" stroke="#1A73E8" stroke-width="1.18987"></line>
            <line x1="212.987" y1="149.405" x2="220.127" y2="149.405" id="Path" stroke="#1A73E8" stroke-width="1.18987"></line>
            <line x1="170.152" y1="149.405" x2="177.291" y2="149.405" id="Path" stroke="#1A73E8" stroke-width="1.18987"></line>
            <line x1="127.316" y1="149.405" x2="134.456" y2="149.405" id="Path" stroke="#1A73E8" stroke-width="1.18987"></line>
            <line x1="84.481" y1="149.405" x2="91.6202" y2="149.405" id="Path" stroke="#1A73E8" stroke-width="1.18987"></line>
            <line x1="255.823" y1="149.405" x2="262.962" y2="149.405" id="Path" stroke="#1A73E8" stroke-width="1.18987"></line>
            <path d="M12.007,6.02512 C12.007,3.39652 14.1379,1.26562 16.7665,1.26562 L90.3223,1.26562 C92.9509,1.26562 95.0817,3.39652 95.0817,6.02512 L95.0817,53.4501 C95.0817,56.0787 92.9509,58.2096 90.3223,58.2096 L16.7665,58.2096 C14.1379,58.2096 12.007,56.0787 12.007,53.4501 L12.007,6.02512 Z" id="Path" stroke="#1A73E8" stroke-width="1.18987" fill="#FFFFFF" fill-rule="nonzero"></path>
            <path d="M10.5778,63.1206 C11.4805,61.9805 12.8549,61.3157 14.3092,61.3157 L92.7795,61.3157 C94.2337,61.3157 95.6082,61.9805 96.5109,63.1206 L104.55,73.2731 C107.021,76.3932 104.798,80.9872 100.819,80.9872 L6.27005,80.9872 C2.29024,80.9872 0.0680928,76.3932 2.53868,73.2731 L10.5778,63.1206 Z" id="Path" stroke="#1A73E8" stroke-width="1.18987" fill="#FFFFFF" fill-rule="nonzero"></path>
            <rect id="Rectangle" fill="#1A73E8" fill-rule="nonzero" x="67.8228" y="22.6833" width="14.2785" height="14.2785"></rect>
            <path d="M67.8228,15.5441 C67.8228,19.487 71.0192,22.6833 74.9621,22.6833 C78.905,22.6833 82.1013,19.487 82.1013,15.5441 C82.1013,11.6012 78.905,8.40489 74.9621,8.40489 L67.8228,8.40489 L67.8228,15.5441 Z" id="Path" fill="#1A73E8" fill-rule="nonzero"></path>
            <path d="M82.1012,44.1011 C82.1012,40.1583 78.9049,36.9619 74.962,36.9619 C71.0191,36.9619 67.8228,40.1583 67.8228,44.1011 C67.8228,48.044 71.0191,51.2404 74.962,51.2404 L82.1012,51.2404 L82.1012,44.1011 Z" id="Path" fill="#1A73E8" fill-rule="nonzero"></path>
            <path d="M39.2658,29.8226 C39.2658,25.8797 36.0694,22.6833 32.1265,22.6833 C28.1837,22.6833 24.9873,25.8797 24.9873,29.8226 C24.9873,33.7655 28.1837,36.9618 32.1265,36.9618 L39.2658,36.9618 L39.2658,29.8226 Z" id="Path" fill="#1A73E8" fill-rule="nonzero"></path>
            <path d="M39.2658,8.40491 C31.38,8.40491 24.9873,14.7976 24.9873,22.6834 L39.2658,22.6834 L39.2658,8.40491 Z" id="Path" fill="#1A73E8" fill-rule="nonzero"></path>
            <path d="M39.2659,51.2404 C39.2659,43.3546 32.8732,36.9619 24.9874,36.9619 L24.9874,51.2404 L39.2659,51.2404 Z" id="Path" fill="#1A73E8" fill-rule="nonzero"></path>
            <path d="M60.6835,29.8226 C60.6835,25.8797 57.4872,22.6833 53.5443,22.6833 C49.6014,22.6833 46.405,25.8797 46.405,29.8226 C46.405,33.7655 49.6014,36.9618 53.5443,36.9618 L60.6835,36.9618 L60.6835,29.8226 Z" id="Path" fill="#FF6846" fill-rule="nonzero"></path>
            <path d="M60.6835,8.40491 C52.7977,8.40491 46.405,14.7976 46.405,22.6834 L60.6835,22.6834 L60.6835,8.40491 Z" id="Path" fill="#FF6846" fill-rule="nonzero"></path>
            <path d="M60.6836,51.2404 C60.6836,43.3546 54.2909,36.9619 46.4051,36.9619 L46.4051,51.2404 L60.6836,51.2404 Z" id="Path" fill="#FF6846" fill-rule="nonzero"></path>
            <path d="M374.918,223.772 C374.918,221.144 377.049,219.013 379.678,219.013 L453.234,219.013 C455.862,219.013 457.993,221.144 457.993,223.772 L457.993,271.197 C457.993,273.826 455.862,275.957 453.234,275.957 L379.678,275.957 C377.049,275.957 374.918,273.826 374.918,271.197 L374.918,223.772 Z" id="Path" stroke="#1A73E8" stroke-width="1.18987" fill="#FFFFFF" fill-rule="nonzero"></path>
            <path d="M373.489,280.868 C374.392,279.727 375.766,279.063 377.221,279.063 L455.691,279.063 C457.145,279.063 458.52,279.727 459.422,280.868 L467.461,291.02 C469.932,294.14 467.71,298.734 463.73,298.734 L369.181,298.734 C365.202,298.734 362.979,294.14 365.45,291.02 L373.489,280.868 Z" id="Path" stroke="#1A73E8" stroke-width="1.18987" fill="#FFFFFF" fill-rule="nonzero"></path>
            <path d="M437.873,240.43 C433.931,240.43 430.734,243.627 430.734,247.57 C430.734,251.513 433.931,254.709 437.873,254.709 C441.816,254.709 445.013,251.513 445.013,247.57 L445.013,240.43 L437.873,240.43 Z" id="Path" fill="#1A73E8" fill-rule="nonzero"></path>
            <polygon id="Path" fill="#1A73E8" fill-rule="nonzero" points="437.873 226.152 445.013 233.291 437.873 240.43 430.734 233.291"></polygon>
            <polygon id="Path" fill="#1A73E8" fill-rule="nonzero" points="437.873 254.709 445.013 261.848 437.873 268.987 430.734 261.848"></polygon>
            <path d="M387.899,268.987 C395.785,268.987 402.177,262.595 402.177,254.709 L387.899,254.709 L387.899,268.987 Z" id="Path" fill="#1A73E8" fill-rule="nonzero"></path>
            <path d="M387.899,247.57 C387.899,251.513 391.095,254.709 395.038,254.709 C398.981,254.709 402.177,251.513 402.177,247.57 C402.177,243.627 398.981,240.43 395.038,240.43 L387.899,240.43 L387.899,247.57 Z" id="Path" fill="#1A73E8" fill-rule="nonzero"></path>
            <polygon id="Path" fill="#1A73E8" fill-rule="nonzero" points="387.899 226.152 387.899 240.43 402.177 226.152"></polygon>
            <ellipse id="Oval" fill="#1A73E8" fill-rule="nonzero" cx="416.456" cy="233.291" rx="7.13922" ry="7.13924"></ellipse>
            <path d="M423.595,268.987 C423.595,261.102 417.202,254.709 409.316,254.709 L409.316,268.987 L423.595,268.987 Z" id="Path" fill="#1A73E8" fill-rule="nonzero"></path>
            <polygon id="Path" fill="#1A73E8" fill-rule="nonzero" points="423.595 254.709 423.595 240.43 409.316 254.709"></polygon>
            <path d="M74.8101,80.9871 L74.8101,83.5444 C74.8101,88.8016 79.0719,93.0634 84.329,93.0634 L352.481,93.0634 C360.213,93.0634 366.481,99.3314 366.481,107.063 L366.481,121.443" id="Path" stroke="#1A73E8" stroke-width="1.18987"></path>
            <path d="M53.5443,80.9871 L53.5443,91.7244 C53.5443,97.7996 58.4692,102.724 64.5443,102.724 L269.81,102.724 C275.885,102.724 280.81,107.649 280.81,113.724 L280.81,121.443" id="Path" stroke="#FF6846" stroke-width="1.18987"></path>
            <path d="M32.1266,80.9871 L32.1266,97.7817 C32.1266,105.514 38.3946,111.782 46.1266,111.782 L185.62,111.782 C190.877,111.782 195.139,116.044 195.139,121.301 L195.139,121.443" id="Path" stroke="#1A73E8" stroke-width="1.18987"></path>
            <path d="M395.038,219.013 L395.038,216.038 C395.038,210.781 390.776,206.519 385.519,206.519 L166.304,206.519 C158.572,206.519 152.304,200.251 152.304,192.519 L152.304,178.557" id="Path" stroke="#1A73E8" stroke-width="1.18987"></path>
            <path d="M416.456,219.013 L416.456,208 C416.456,201.925 411.531,197 405.456,197 L248.975,197 C242.9,197 237.975,192.075 237.975,186 L237.975,178.557" id="Path" stroke="#1A73E8" stroke-width="1.18987"></path>
            <path d="M437.873,219.013 L437.873,201.92 C437.873,194.188 431.605,187.92 423.873,187.92 L333.009,187.92 C327.837,187.92 323.646,183.728 323.646,178.557 L323.646,178.557" id="Path" stroke="#1A73E8" stroke-width="1.18987"></path>
        </g>
    </g>
</svg>