<svg width="60" height="60" viewBox="0 0 60 60" fill="none" xmlns="http://www.w3.org/2000/svg">
<path fill-rule="evenodd" clip-rule="evenodd" d="M0 30C0 13.4315 13.432 0 30 0C46.568 0 60 13.4315 60 30C60 38.2842 56.6426 45.7842 51.2133 51.2131L40.6066 40.6065C43.3207 37.8921 45 34.1421 45 30C45 21.7157 38.284 15 30 15C21.716 15 15 21.7157 15 30C15 34.1421 16.6793 37.8921 19.3934 40.6065L8.78672 51.2131C3.35742 45.7842 0 38.2842 0 30Z" fill="#57E690"/>
<path fill-rule="evenodd" clip-rule="evenodd" d="M30.1066 45C34.2492 45 37.9992 43.321 40.7133 40.6065L30.1066 30L19.5 40.6065C22.2141 43.321 25.9641 45 30.1066 45Z" fill="#1A73E8"/>
<path fill-rule="evenodd" clip-rule="evenodd" d="M30 60.0003C21.716 60.0003 14.216 56.6424 8.78672 51.2134L0 60.0003L30 60.0003Z" fill="#FCC934"/>
<path fill-rule="evenodd" clip-rule="evenodd" d="M30 60.0003C38.284 60.0003 45.784 56.6424 51.2133 51.2134L60 60.0003L30 60.0003Z" fill="#FF6846"/>
</svg>
