<?xml version="1.0" encoding="UTF-8"?>
<svg width="81px" height="31px" viewBox="0 0 81 31" version="1.1" xmlns="http://www.w3.org/2000/svg" xmlns:xlink="http://www.w3.org/1999/xlink">
    <!-- Generator: Sketch 63.1 (92452) - https://sketch.com -->
    <title>Artboard</title>
    <desc>Created with Sketch.</desc>
    <g id="Artboard" stroke="none" stroke-width="1" fill="none" fill-rule="evenodd">
        <g id="certificate-transparency-logo" transform="translate(0.000000, 3.500000)" fill="#1A1B1F" fill-rule="nonzero">
            <path d="M8.85925161,3.93255484 C8.63930323,1.77712258 7.03372645,0.545458065 4.8563071,0.545458065 C2.45454194,0.545458065 0.585044129,2.19501677 0.585044129,5.17302194 C0.585044129,8.13785806 2.41056,9.80059355 4.8563071,9.80059355 C7.32844645,9.80059355 8.69651613,8.12020645 8.85925161,6.52346323 L6.65982194,6.51026323 C6.50586581,7.37682581 5.85483871,7.89150968 4.90029677,7.89150968 C3.61583226,7.89150968 2.80645161,6.96334452 2.80645161,5.17302194 C2.80645161,3.45308129 3.59824258,2.45454194 4.91348903,2.45454194 C5.90322581,2.45454194 6.54985548,3.03078968 6.65982194,3.93255484 L8.85925161,3.93255484 Z M12.8919484,9.80500645 C14.6646968,9.80500645 15.8304,8.9472 16.076671,7.61876129 L14.1016258,7.56154839 C13.9344774,8.01027097 13.4945806,8.25220645 12.9315097,8.25220645 C12.1045935,8.25220645 11.5943226,7.70237419 11.5943226,6.87536516 L11.5943226,6.81818323 L16.0986581,6.81818323 L16.0986581,6.28152774 C16.0986581,4.05572129 14.7438194,2.83284387 12.8259871,2.83284387 C10.7849032,2.83284387 9.47403871,4.23167226 9.47403871,6.32550968 C9.47403871,8.48972903 10.767329,9.80500645 12.8919484,9.80500645 Z M11.5943226,5.56891355 C11.6250581,4.89589161 12.1573161,4.38562839 12.8699613,4.38562839 C13.5781935,4.38562839 14.0884645,4.87830194 14.0972129,5.56891355 L11.5943226,5.56891355 Z M16.8257032,9.67741935 L18.9767226,9.67741935 L18.9767226,6.00879484 C18.9767226,5.20381161 19.5485419,4.66275871 20.3183226,4.66275871 C20.5734968,4.66275871 20.9561806,4.70674839 21.1629677,4.77712258 L21.1629677,2.90762323 C20.9825806,2.85923613 20.7582194,2.82844645 20.5602581,2.82844645 C19.8212903,2.82844645 19.2318194,3.2595329 18.9855484,4.15249548 L18.9150968,4.15249548 L18.9150968,2.92082323 L16.8257032,2.92082323 L16.8257032,9.67741935 Z M25.7839742,2.92082323 L24.5655484,2.92082323 L24.5655484,1.30205419 L22.4144516,1.30205419 L22.4144516,2.92082323 L21.5214968,2.92082323 L21.5214968,4.50439742 L22.4144516,4.50439742 L22.4144516,7.79032258 C22.4012903,9.15832258 23.2898323,9.84456774 24.8074839,9.77419355 C25.3265032,9.74779355 25.7004387,9.64219355 25.9071484,9.58064516 L25.5816774,8.02784516 C25.4892387,8.04983226 25.2737032,8.09380645 25.1109677,8.09380645 C24.7634323,8.09380645 24.5655484,7.95305806 24.5655484,7.5528 L24.5655484,4.50439742 L25.7839742,4.50439742 L25.7839742,2.92082323 Z M26.5098581,9.67741935 L28.6608774,9.67741935 L28.6608774,2.92082323 L26.5098581,2.92082323 L26.5098581,9.67741935 Z M27.5876129,2.13342968 C28.199071,2.13342968 28.6916903,1.67155355 28.6916903,1.10410839 C28.6916903,0.536655484 28.199071,0.0791783226 27.5876129,0.0791783226 C26.9805677,0.0791783226 26.4834581,0.536655484 26.4834581,1.10410839 C26.4834581,1.67155355 26.9805677,2.13342968 27.5876129,2.13342968 Z M33.4985806,2.92082323 L32.2097806,2.92082323 L32.2097806,2.54252129 C32.2097806,2.15542452 32.3681032,1.91788645 32.8695484,1.91788645 C33.0719226,1.91788645 33.318271,1.96187613 33.4765935,2.01026323 L33.8197161,0.435483871 C33.5646194,0.36510271 32.9795613,0.246333677 32.3856774,0.246333677 C31.0088516,0.246333677 30.0630968,1.01173161 30.0630968,2.57771613 L30.0630968,2.92082323 L29.1525677,2.92082323 L29.1525677,4.50439819 L30.0630968,4.50439819 L30.0630968,9.67741935 L32.2097806,9.67741935 L32.2097806,4.50439819 L33.4985806,4.50439819 L33.4985806,2.92082323 Z M34.1618323,9.67741935 L36.3128516,9.67741935 L36.3128516,2.92082323 L34.1618323,2.92082323 L34.1618323,9.67741935 Z M35.2395097,2.13342968 C35.8509677,2.13342968 36.3436645,1.67155355 36.3436645,1.10410839 C36.3436645,0.536655484 35.8509677,0.0791783226 35.2395097,0.0791783226 C34.6324645,0.0791783226 34.1354323,0.536655484 34.1354323,1.10410839 C34.1354323,1.67155355 34.6324645,2.13342968 35.2395097,2.13342968 Z M40.4643097,9.80500645 C42.3646452,9.80500645 43.5435097,8.70085161 43.6007226,7.02932903 L41.5904516,7.02932903 C41.5112516,7.74634839 41.0801806,8.13785806 40.4907097,8.13785806 C39.7340903,8.13785806 39.241471,7.5 39.241471,6.29911742 C39.241471,5.10703742 39.7385032,4.46921032 40.4907097,4.46921032 C41.1065806,4.46921032 41.5068387,4.88709677 41.5904516,5.57771613 L43.6007226,5.57771613 C43.5523355,3.91495742 42.3382452,2.83284387 40.4598968,2.83284387 C38.3352774,2.83284387 37.0508129,4.24926968 37.0508129,6.32111226 C37.0508129,8.38412903 38.326529,9.80500645 40.4643097,9.80500645 Z M46.2346065,9.79176774 C47.1759484,9.79176774 47.8269677,9.42665806 48.1964129,8.73607742 L48.2492129,8.73607742 L48.2492129,9.67741935 L50.2727226,9.67741935 L50.2727226,5.08504258 C50.2727226,3.65542452 49.0014194,2.83284387 47.281471,2.83284387 C45.4647484,2.83284387 44.4354581,3.74780129 44.2638968,4.97947355 L46.2477677,5.04985548 C46.340129,4.61876903 46.6964129,4.35483871 47.2638968,4.35483871 C47.7917419,4.35483871 48.1260387,4.60997419 48.1260387,5.06304774 L48.1260387,5.08504258 C48.1260387,5.49853161 47.6773935,5.58651097 46.524929,5.68768258 C45.1568516,5.80205419 44.0131355,6.30792 44.0131355,7.80348387 C44.0131355,9.14074839 44.9413161,9.79176774 46.2346065,9.79176774 Z M46.8987871,8.38412903 C46.4017548,8.38412903 46.0498065,8.14660645 46.0498065,7.69796129 C46.0498065,7.26246194 46.392929,6.99853161 47.0043871,6.90615484 C47.4046452,6.8489729 47.8973419,6.76099355 48.1392774,6.63342968 L48.1392774,7.27566194 C48.1392774,7.93548387 47.5850323,8.38412903 46.8987871,8.38412903 Z M55.0301419,2.92082323 L53.8116387,2.92082323 L53.8116387,1.30205419 L51.6606194,1.30205419 L51.6606194,2.92082323 L50.7676645,2.92082323 L50.7676645,4.50439742 L51.6606194,4.50439742 L51.6606194,7.79032258 C51.6474581,9.15832258 52.536,9.84456774 54.0535742,9.77419355 C54.572671,9.74779355 54.946529,9.64219355 55.1533161,9.58064516 L54.8277677,8.02784516 C54.7354065,8.04983226 54.519871,8.09380645 54.3571355,8.09380645 C54.0096,8.09380645 53.8116387,7.95305806 53.8116387,7.5528 L53.8116387,4.50439742 L55.0301419,4.50439742 L55.0301419,2.92082323 Z M58.8418065,9.80500645 C60.6144774,9.80500645 61.7801806,8.9472 62.026529,7.61876129 L60.0514839,7.56154839 C59.8843355,8.01027097 59.4444387,8.25220645 58.8813677,8.25220645 C58.0543742,8.25220645 57.5441032,7.70237419 57.5441032,6.87536516 L57.5441032,6.81818323 L62.0485161,6.81818323 L62.0485161,6.28152774 C62.0485161,4.05572129 60.6936774,2.83284387 58.7757677,2.83284387 C56.7347613,2.83284387 55.4238968,4.23167226 55.4238968,6.32550968 C55.4238968,8.48972903 56.7171871,9.80500645 58.8418065,9.80500645 Z M57.5441032,5.56891355 C57.5749161,4.89589161 58.1071742,4.38562839 58.8198194,4.38562839 C59.5279742,4.38562839 60.0382452,4.87830194 60.047071,5.56891355 L57.5441032,5.56891355 Z M0.387096774,14.0498323 L3.12316645,14.0498323 L3.12316645,21.2903226 L5.26979613,21.2903226 L5.26979613,14.0498323 L8.00144516,14.0498323 L8.00144516,12.2814968 L0.387096774,12.2814968 L0.387096774,14.0498323 Z M7.99169032,21.2903226 L10.1427097,21.2903226 L10.1427097,17.621729 C10.1427097,16.8167226 10.714529,16.2756387 11.4843097,16.2756387 C11.7394839,16.2756387 12.1221677,16.3196129 12.3288774,16.3900645 L12.3288774,14.5205419 C12.1485677,14.4721548 11.9242065,14.4413419 11.7262452,14.4413419 C10.9872774,14.4413419 10.3978065,14.8724129 10.1514581,15.7653677 L10.0810839,15.7653677 L10.0810839,14.5337032 L7.99169032,14.5337032 L7.99169032,21.2903226 Z M14.4843871,21.404671 C15.425729,21.404671 16.0768258,21.0395613 16.446271,20.3489806 L16.499071,20.3489806 L16.499071,21.2903226 L18.5225032,21.2903226 L18.5225032,16.6979613 C18.5225032,15.2683355 17.2512774,14.4457548 15.531329,14.4457548 C13.7146065,14.4457548 12.6853161,15.3606968 12.5137548,16.5923613 L14.4976258,16.6627355 C14.5899871,16.2316645 14.946271,15.9677419 15.5137548,15.9677419 C16.0416,15.9677419 16.3758968,16.2228387 16.3758968,16.6759742 L16.3758968,16.6979613 C16.3758968,17.1114581 15.9272516,17.1994065 14.7747097,17.3005935 C13.4067097,17.4149419 12.2629935,17.9208 12.2629935,19.4163871 C12.2629935,20.7536516 13.1911742,21.404671 14.4843871,21.404671 Z M15.1486452,19.9970323 C14.6515355,19.9970323 14.2996645,19.7595097 14.2996645,19.3108645 C14.2996645,18.8753806 14.6427871,18.6114581 15.2542452,18.5190968 C15.6545032,18.4618839 16.1472,18.3739355 16.3891355,18.2463484 L16.3891355,18.8885419 C16.3891355,19.5483871 15.8348903,19.9970323 15.1486452,19.9970323 Z M21.6171871,17.436929 C21.6216,16.6671484 22.0702452,16.2096774 22.7520774,16.2096774 C23.4339097,16.2096774 23.8385806,16.6583226 23.8342452,17.4061935 L23.8342452,21.2903226 L25.9852946,21.2903226 L25.9852946,16.983871 C25.9896,15.4618839 25.0614968,14.4457548 23.6406968,14.4457548 C22.6421419,14.4457548 21.8855226,14.9516129 21.5863742,15.7741935 L21.5116645,15.7741935 L21.5116645,14.5337032 L19.4661677,14.5337032 L19.4661677,21.2903226 L21.6171871,21.2903226 L21.6171871,17.436929 Z M32.8442323,16.5967742 C32.7298065,15.2595097 31.6345548,14.4457548 29.8045935,14.4457548 C27.9747097,14.4457548 26.8090065,15.2419355 26.8178323,16.5967742 C26.8090065,17.6348903 27.4732645,18.3034839 28.8236903,18.5542452 L30.0025548,18.7786065 C30.5612129,18.8885419 30.8163097,19.0645161 30.8251355,19.3636645 C30.8163097,19.7023742 30.4380387,19.9266581 29.8882065,19.9266581 C29.2767484,19.9266581 28.8632516,19.6627355 28.7708903,19.1701161 L26.646271,19.2228387 C26.8001806,20.5601032 27.9483097,21.4179097 29.8793806,21.4179097 C31.6872774,21.4179097 33.0025548,20.516129 33.0113806,19.1260645 C33.0025548,18.1407484 32.3515355,17.5556903 31.0055226,17.2961806 L29.7034065,17.0498323 C29.1315871,16.9354839 28.9468645,16.7331097 28.9512,16.4736 C28.9468645,16.1304774 29.3471226,15.9193548 29.8442323,15.9193548 C30.4116387,15.9193548 30.8075613,16.2228387 30.8691097,16.6495742 L32.8442323,16.5967742 Z M33.6987871,23.8240258 L35.8498065,23.8240258 L35.8498065,20.1949935 L35.8937806,20.1949935 C36.166529,20.8196129 36.7734968,21.3870968 37.7940387,21.3870968 C39.2896258,21.3870968 40.4949677,20.2169806 40.4949677,17.9163871 C40.4949677,15.5322581 39.2192516,14.4457548 37.8072774,14.4457548 C36.7383484,14.4457548 36.1532903,15.0703742 35.8937806,15.6905806 L35.8278194,15.6905806 L35.8278194,14.5337032 L33.6987871,14.5337032 L33.6987871,23.8240258 Z M35.8057548,17.9120516 C35.8057548,16.8078968 36.2633032,16.1260645 37.0506581,16.1260645 C37.8468387,16.1260645 38.2867355,16.8255484 38.2867355,17.9120516 C38.2867355,19.0029677 37.8468387,19.7111226 37.0506581,19.7111226 C36.2633032,19.7111226 35.8057548,19.0073032 35.8057548,17.9120516 Z M43.1552516,21.404671 C44.0965935,21.404671 44.7476129,21.0395613 45.1170581,20.3489806 L45.1698581,20.3489806 L45.1698581,21.2903226 L47.1933677,21.2903226 L47.1933677,16.6979613 C47.1933677,15.2683355 45.9220645,14.4457548 44.2021161,14.4457548 C42.3853935,14.4457548 41.3561032,15.3606968 41.1845419,16.5923613 L43.1684129,16.6627355 C43.2607742,16.2316645 43.6170581,15.9677419 44.1845419,15.9677419 C44.7123871,15.9677419 45.0466839,16.2228387 45.0466839,16.6759742 L45.0466839,16.6979613 C45.0466839,17.1114581 44.5980387,17.1994065 43.4455742,17.3005935 C42.0774968,17.4149419 40.9337806,17.9208 40.9337806,19.4163871 C40.9337806,20.7536516 41.8619613,21.404671 43.1552516,21.404671 Z M43.8194323,19.9970323 C43.3224,19.9970323 42.9704516,19.7595097 42.9704516,19.3108645 C42.9704516,18.8753806 43.3135742,18.6114581 43.9250323,18.5190968 C44.3252903,18.4618839 44.8179871,18.3739355 45.0599226,18.2463484 L45.0599226,18.8885419 C45.0599226,19.5483871 44.5056774,19.9970323 43.8194323,19.9970323 Z M48.1369548,21.2903226 L50.2879742,21.2903226 L50.2879742,17.621729 C50.2879742,16.8167226 50.859871,16.2756387 51.6296516,16.2756387 C51.8847484,16.2756387 52.2675097,16.3196129 52.4742194,16.3900645 L52.4742194,14.5205419 C52.2938323,14.4721548 52.0695484,14.4413419 51.8715871,14.4413419 C51.1325419,14.4413419 50.5431484,14.8724129 50.2968,15.7653677 L50.2264258,15.7653677 L50.2264258,14.5337032 L48.1369548,14.5337032 L48.1369548,21.2903226 Z M55.7866065,21.4179097 C57.5593548,21.4179097 58.7250581,20.5601032 58.9714065,19.2316645 L56.9962839,19.1744516 C56.8291355,19.6231742 56.3892387,19.8651097 55.8262452,19.8651097 C54.9992516,19.8651097 54.4889806,19.3152774 54.4889806,18.4882839 L54.4889806,18.431071 L58.9933935,18.431071 L58.9933935,17.8944 C58.9933935,15.6685935 57.6385548,14.4457548 55.7206452,14.4457548 C53.6795613,14.4457548 52.3687742,15.8445677 52.3687742,17.9384516 C52.3687742,20.1026323 53.6619871,21.4179097 55.7866065,21.4179097 Z M54.4889806,17.1818323 C54.5197935,16.5088258 55.0520516,15.9985548 55.7646194,15.9985548 C56.4728516,15.9985548 56.9831226,16.4911742 56.991871,17.1818323 L54.4889806,17.1818323 Z M61.8713806,17.436929 C61.8757935,16.6671484 62.3244387,16.2096774 63.006271,16.2096774 C63.6881032,16.2096774 64.0927742,16.6583226 64.0884387,17.4061935 L64.0884387,21.2903226 L66.2394882,21.2903226 L66.2394882,16.983871 C66.2437935,15.4618839 65.3156903,14.4457548 63.8948903,14.4457548 C62.8963355,14.4457548 62.1397161,14.9516129 61.8405677,15.7741935 L61.7658581,15.7741935 L61.7658581,14.5337032 L59.7203613,14.5337032 L59.7203613,21.2903226 L61.8713806,21.2903226 L61.8713806,17.436929 Z M70.3535226,21.4179097 C72.2537806,21.4179097 73.4327226,20.3137548 73.4898581,18.6421935 L71.4795871,18.6421935 C71.4004645,19.3592516 70.9693161,19.7507613 70.3799226,19.7507613 C69.6233032,19.7507613 69.1306065,19.1129032 69.1306065,17.9120516 C69.1306065,16.7199484 69.6277161,16.0820903 70.3799226,16.0820903 C70.9957161,16.0820903 71.3960516,16.5 71.4795871,17.1905806 L73.4898581,17.1905806 C73.441471,15.5278452 72.2273806,14.4457548 70.3491097,14.4457548 C68.2244903,14.4457548 66.9400258,15.8621419 66.9400258,17.9340387 C66.9400258,19.9970323 68.2156645,21.4179097 70.3535226,21.4179097 Z M75.5343484,23.8152774 C77.0827355,23.8152774 77.852129,23.0322581 78.2260645,21.936929 L80.7731613,14.5381161 L78.507871,14.5337032 L77.245471,19.3548387 L77.1750968,19.3548387 L75.9301935,14.5337032 L73.6779871,14.5337032 L76.0797677,21.536671 L75.9962323,21.7389677 C75.7630452,22.2228387 75.3231484,22.2449032 74.6897806,22.0381161 L74.2146581,23.5997419 C74.5402065,23.7272516 75.0196645,23.8152774 75.5343484,23.8152774 Z" id="Shape"></path>
        </g>
    </g>
</svg>