<?xml version="1.0" encoding="utf-8"?>
<!-- Generator: Adobe Illustrator 24.2.1, SVG Export Plug-In . SVG Version: 6.00 Build 0)  -->
<svg version="1.1"
	 id="svg111" xmlns:cc="http://creativecommons.org/ns#" xmlns:dc="http://purl.org/dc/elements/1.1/" xmlns:inkscape="http://www.inkscape.org/namespaces/inkscape" xmlns:rdf="http://www.w3.org/1999/02/22-rdf-syntax-ns#" xmlns:sodipodi="http://sodipodi.sourceforge.net/DTD/sodipodi-0.dtd" xmlns:svg="http://www.w3.org/2000/svg"
	 xmlns="http://www.w3.org/2000/svg" xmlns:xlink="http://www.w3.org/1999/xlink" x="0px" y="0px" viewBox="0 0 1063 393"
	 style="enable-background:new 0 0 1063 393;" xml:space="preserve">
<style type="text/css">
	.st0{fill:#B3ADC9;}
	.st1{fill:#E3BF5C;}
	.st2{fill:#978FB2;}
	.st3{fill:#8379A7;}
	.st4{fill:#62568F;}
	.st5{fill:#443A69;}
	.st6{fill:#301F6F;}
</style>
<sodipodi:namedview  bordercolor="#666666" borderopacity="1.0" id="base" inkscape:current-layer="layer1" inkscape:cx="400" inkscape:cy="560" inkscape:document-rotation="0" inkscape:document-units="mm" inkscape:pageopacity="0.0" inkscape:pageshadow="2" inkscape:window-height="1174" inkscape:window-maximized="0" inkscape:window-width="1252" inkscape:window-x="1288" inkscape:window-y="743" inkscape:zoom="0.35" pagecolor="#ffffff" showgrid="false">
	</sodipodi:namedview>
<g id="layer1" inkscape:groupmode="layer" inkscape:label="Layer 1">
	<g id="g141" transform="matrix(1.1447855,0,0,1.1447855,77.049714,-72.87981)">
		<path id="path155" class="st0" d="M71.1,399c-2.5-1.5-30.8-17.9-63-36.4c-32.2-18.6-59.1-34.3-59.9-34.9
			c-1.3-1.1-1.3-5.8-1.1-92.4c0.2-71.2,0.4-91.8,1.2-94c2-5.8,5.2-8.7,24.5-21.8c61-41.4,76.6-51.8,77.7-52.1
			c0.7-0.2,16,8.2,35.3,19.3c18.7,10.8,47.6,27.4,64.2,37c21.5,12.4,30.2,17.7,30.2,18.7c0,0.9-4.1,4-12,9.3c-6.6,4.4-12,8.2-12,8.5
			c0,0.3,5.2,3.5,11.6,7.2c6.4,3.7,11.6,7.1,11.6,7.5c0,0.4-4.9,4-10.9,7.9c-6,3.9-10.8,7.5-10.7,8c0.1,0.5,5.1,3.8,11.1,7.2
			c6,3.5,11,6.8,11.1,7.4c0.2,0.8-6.9,6.1-20.7,15.8c-11.5,8.1-22.3,16.2-23.9,18c-5.2,6-5,2.9-5.4,66.8c-0.4,51.7-0.5,57.8-1.6,58
			c-0.6,0.1-6.1-2.7-12.2-6.2c-6-3.5-11.5-6.4-12.1-6.4c-1,0-1.1,2-1.1,15c0,12.4-0.2,15-1.1,15c-0.6,0-6-2.9-12-6.4
			c-7.2-4.2-11.1-6-11.3-5.4c-0.2,0.5-0.4,7.8-0.5,16.3c-0.2,13-0.4,15.4-1.3,15.5C76,401.6,73.5,400.5,71.1,399L71.1,399z
			 M349.3,389.3c-8-1.5-17.8-4.5-23.1-7.2c-3.4-1.7-4.3-2.5-4.3-3.9c0-1.6,6-16.5,7.1-17.6c0.5-0.5,4.1,0.5,11.3,3.2
			c15.4,5.9,29.1,5.2,37.1-1.7c4.2-3.6,5.9-7.6,6-13.6c0-4.3-0.1-4.7-1.3-4.2c-7.7,3.3-9.6,3.7-19.3,3.7c-8.5,0-10.5-0.3-15.8-2.1
			c-13.7-4.6-24.1-15.5-28.4-29.8c-3.2-10.9-2.9-26.2,0.7-36.9c6.4-19,23.2-30.6,44.3-30.6c8.4,0,14.3,1.7,21.5,6
			c2.8,1.7,5.4,3,5.8,3s1.8-1.5,3.1-3.4l2.3-3.4h6.6c4.1,0,6.9,0.3,7.5,0.9c0.7,0.7,0.9,13.2,0.9,51.6c0,48.2-0.1,51-1.5,56.6
			c-0.8,3.2-2.5,7.6-3.8,9.8c-4.7,8.3-15.1,15.4-26.9,18.4C371.2,390.3,357.1,390.8,349.3,389.3L349.3,389.3z M375,322.5
			c2.2-1,5-2.5,6.2-3.4l2.2-1.6v-19.4v-19.4l-3.6-2.3c-3.6-2.3-10.8-4.6-14.5-4.6c-1.1,0-3.8,0.5-6,1.2
			c-10.6,3.1-16.9,17.2-14.3,32.2C347.9,321.6,360.7,328.9,375,322.5z M541.5,348.8c-9.9-2.4-18.9-9.5-22.7-17.8
			c-2.8-6.2-3.4-12.1-3.4-36l0-22.3h-4.8c-7.6,0-7.2,0.6-7.2-10.9c0-11.4-0.4-10.9,7.2-10.9h4.8l0-9.9c0-5.5,0.3-10.4,0.7-11
			c0.4-0.6,5.5-1.9,12.9-3.2c11.6-2.1,12.3-2.2,13.2-0.9c0.7,1,1,4.7,1,13.2V251h7c5.6,0,7.4,0.3,8.6,1.3c0.8,0.7,3.1,5.1,5,9.8
			c2.7,6.6,3.3,8.8,2.6,9.6c-0.7,0.8-3.4,1-12.1,1h-11.2l0.2,22.7l0.2,22.7l1.9,2.8c2.7,4,5.9,5.3,11.5,4.7c2.5-0.3,5.7-0.6,7.1-0.6
			l2.5-0.1l3.3,8.2c1.8,4.5,3.3,8.9,3.3,9.8c0,2-2.6,3.5-9.3,5.6C557.8,350.3,548.2,350.4,541.5,348.8L541.5,348.8z M209.9,347
			c-7.4-1.6-18.2-6.4-19.4-8.5c-0.6-1.1,0.1-3.2,2.8-9.2c1.9-4.3,3.9-8.2,4.4-8.6c0.6-0.5,3.5,0.1,9.1,2c6.9,2.3,9.3,2.7,15,2.8
			c5.8,0.1,7.3-0.2,10.5-1.8c3.1-1.6,3.8-2.3,4-4.2c0.4-4.5-2.8-7-15.2-11.8c-12.1-4.7-19.1-8.6-24-13.6c-5.8-5.8-7.4-10-6.9-18.4
			c0.8-13.2,9.5-22.5,24.3-26c7.5-1.8,21.1-1.1,29.2,1.4c9.8,3,16.1,6.4,16.1,8.5c0,2-6.8,16.6-7.9,17.1c-0.6,0.2-3.1-0.5-5.7-1.5
			c-15.1-6-27.5-5.2-28.2,1.7c-0.3,3,0.6,3.6,12.5,8.4c5.1,2,11.3,4.9,14,6.4c6.9,3.9,13.3,10.1,16,15.5c2,4,2.3,5.4,2.3,10.7
			c0,3.4-0.5,7.9-1.1,10c-2.4,8-9.7,14.7-19.5,17.9C233.8,348.7,219.6,349.1,209.9,347z M448.3,347.6c-7.6-1.4-17.8-5.3-20.8-8
			c-0.7-0.6-1.3-1.7-1.3-2.4c0-1.4,6.2-15.5,7.3-16.6c0.5-0.5,3.5,0.2,8.9,2c13.5,4.6,25.1,4.1,29.1-1.3c1.3-1.8,1.4-2.3,0.6-4.3
			c-1.3-3.2-5.5-5.8-14.7-9.2c-16.4-6-26.2-12.8-29.7-20.7c-2.4-5.3-2.3-14.9,0.4-20.7c6.8-15,27-21.5,48.9-16c8,2,18,6.5,18.7,8.3
			c0.5,1.2-5.6,15.8-7.3,17.4c-0.7,0.7-2.5,0.4-8.8-1.8c-11.9-4.1-20.7-4.3-24.5-0.6c-2,2-2.3,5-0.7,6.4c0.6,0.5,5.4,2.7,10.7,4.8
			c11.6,4.7,17.5,7.8,22.4,11.8c10.1,8.3,13.7,18.7,10.4,29.9c-3.2,11-11.8,18-25.7,20.6C465.9,348.6,454.1,348.7,448.3,347.6
			L448.3,347.6z M616.3,347.3c-18.2-3.7-32.3-18.2-36.1-36.6c-1.5-7.2-1.1-20.2,0.8-27c4.7-17.4,18.2-30.1,35.7-33.8
			c7.6-1.6,24.6-1,31.2,1.1c15,4.8,25.4,15.3,30.8,30.9c1.2,3.4,1.4,6.3,1.4,16.9c0,12.1-0.1,13-2.1,18.4c-3,8.1-6.5,13.4-12.1,18.6
			c-5.9,5.5-14.9,10.1-23.1,11.7C635.6,348.7,623.3,348.7,616.3,347.3L616.3,347.3z M638.9,322.9c11.6-5.4,16.9-21.9,11.6-36.1
			c-3.4-9-11.1-14.4-20.6-14.4c-6.5,0-11.5,2.4-16,7.5c-4.5,5.1-6.3,10.5-6.3,18.7c0,8.2,1.8,13.6,6.3,18.7
			C620.2,324.7,630.3,326.9,638.9,322.9L638.9,322.9z M801.2,348c-18.4-2.9-30.9-11-37.5-24.4c-3.8-7.7-5.2-14.4-5.3-24.8
			c0-16.1,4.3-28.2,13.4-37.3c8.7-8.7,19.3-12.7,34-12.8c9.2,0,13.8,0.9,20.6,4.2c10.3,5,17.7,15.1,21.3,29.1
			c1.9,7.5,2.8,21.1,1.6,23.5l-0.9,1.6H818c-23.8,0-30.3,0.2-30.3,0.9c0,1.8,2.8,7.1,5.1,9.7c6.3,7.2,22.9,9.1,36.2,4.1
			c2.7-1,6.2-2.5,7.9-3.4c1.7-0.9,3.6-1.4,4.1-1.2c0.6,0.2,2.7,4.5,4.6,9.4l3.6,9l-1.8,1.9c-2.8,2.9-14.6,8.3-21.1,9.6
			C821.2,348.4,806.2,348.8,801.2,348z M822.6,287.3c0.8-2-3.4-9.3-6.6-11.6c-7.1-5.2-17.3-4.3-23.3,2c-2.3,2.5-5.4,8.9-4.7,10
			c0.3,0.5,7,0.7,17.3,0.7C819.7,288.5,822.3,288.3,822.6,287.3z M276.5,345.3c-0.2-0.5-0.3-21.9-0.2-47.5l0.2-46.5h13.1h13.1v47.2
			v47.2l-13,0.2C279.9,346.2,276.8,346,276.5,345.3L276.5,345.3z M693.9,344.8c-1.2-2.3-1.1-90.9,0.2-92.6c0.8-1.1,2-1.3,7.7-1.1
			l6.7,0.2l3.1,5.6c5.1,9.2,4.4,8.8,10,4.8c10.2-7.3,24.6-12.6,26.7-9.9c0.4,0.6,1.8,5.1,3,10.1c2.4,9.7,2.3,11.5-0.8,11.5
			c-4.6,0-17.1,5.8-25,11.8l-4.7,3.5v27.9c0,20.7-0.2,28.1-0.9,28.8c-0.6,0.6-4.6,0.9-13.1,0.9C695.6,346.2,694.7,346.1,693.9,344.8
			z M284.8,239.4c-6.5-2.3-10.2-7.5-10.2-14.4c0-6.5,3.3-11.6,9.2-14.1c12-5,24.4,7.2,19.8,19.4c-2.1,5.6-8.7,10.2-14.3,10.1
			C288.5,240.4,286.5,239.9,284.8,239.4L284.8,239.4z"/>
		<path id="path153" class="st1" d="M65.4,394.7c-74.4-42.7-116-67-116.8-67.9c-0.8-0.9-0.9-19.3-0.7-92
			c0.2-100.4-0.1-93.7,5.2-99.8c1.9-2.1,19.3-14.4,49.1-34.6c25.4-17.3,46.9-31.7,47.8-32c1.3-0.5,13.2,6.1,65.5,36.3
			c35.2,20.3,63.9,37.3,63.9,37.8c0,0.5-5.3,4.4-11.8,8.7c-6.5,4.3-11.8,8.2-11.7,8.6s5.4,3.8,11.8,7.5c6.5,3.7,11.7,7.1,11.7,7.5
			c0,0.4-5.1,4.1-11.3,8.2c-6.2,4.1-11.4,7.7-11.6,8c-0.2,0.3,4,3,9.2,6c13,7.4,13.9,8.1,12.9,9.4c-0.5,0.6-9.7,7.2-20.5,14.7
			c-21.3,14.9-24.6,17.7-27,23c-1.6,3.5-1.6,4-1.8,60.9c-0.1,31.9-0.5,57.7-0.9,58c-0.4,0.4-5.7-2.2-12.6-6.2
			c-6.6-3.8-12.2-6.8-12.4-6.8c-0.3,0-0.5,7.1-0.5,15.7c0,12.2-0.2,15.7-1,15.7c-0.5,0-6.2-3-12.6-6.7l-11.6-6.7L77.6,384
			c-0.1,8.7-0.5,16.1-0.8,16.4C76.5,400.7,71.3,398.2,65.4,394.7L65.4,394.7z M349.3,388.6c-12.7-2.3-25.9-7.5-26.5-10.4
			c-0.3-1.8,5.9-16.3,7.2-16.8c0.6-0.2,3.7,0.7,6.9,2c17.1,6.8,29.8,6.9,39.5,0.5c5.3-3.5,7.8-8.5,7.8-15.6c0-5.9,0.7-5.6-7.1-2.6
			c-3.9,1.5-5.9,1.7-14.2,1.7c-8.7,0-10.4-0.2-15.8-2.1c-14.4-5-24.3-15.8-28.1-30.6c-5.2-20.4-0.2-41.4,12.7-53.4
			c8.2-7.6,16.6-10.9,29.3-11.5c10.4-0.5,15.9,0.8,24,5.8c2.8,1.7,5.5,3,6,3c0.5,0,1.9-1.5,3.1-3.4l2.1-3.4l6.9,0.2l6.9,0.2l0,53.2
			l0,53.2l-1.7,4.4c-6.3,16.6-21.1,25.4-44.1,26.3C358.2,389.6,353.3,389.3,349.3,388.6L349.3,388.6z M369.3,325.1
			c4.5-1,10.7-3.8,13.2-6.1c1.7-1.6,1.7-1.8,1.7-20.9v-19.3l-1.9-1.5c-3.3-2.6-8.4-4.7-13.3-5.5c-16.3-2.8-28.1,13.4-24.6,33.5
			c1.2,6.7,3.7,11.5,8,15.3c1.9,1.7,3.7,3.1,4,3.1c0.3,0,2.1,0.5,4.2,1.1C365.3,326.1,364.6,326.1,369.3,325.1L369.3,325.1z
			 M541.5,348.1c-11.6-2.8-20.1-10.4-23.7-21.2c-1-2.9-1.3-8.6-1.6-29.1l-0.4-25.5l-5.4-0.2c-6.9-0.3-7.2-0.7-6.8-11.1
			c0.2-5.9,0.5-8,1.4-8.5c0.6-0.4,3.4-0.7,6.2-0.7l5.1,0v-10.4c0-7.4,0.3-10.6,0.9-11.1c1.7-1.4,23.2-4.7,24.3-3.8
			c0.7,0.6,1,3.9,1,13.1v12.3h7.4c4.7,0,7.8,0.3,8.6,0.9c1.5,1.2,8,17.1,7.5,18.4c-0.3,0.7-3.4,0.9-11.9,0.9h-11.6l0.2,23.1
			l0.2,23.1l2,3c2.8,4.3,6.4,5.8,12.2,5.2c9.9-1.1,8.7-1.7,12.2,6.7c1.7,4.1,3.2,8.3,3.2,9.2C572.5,347.5,553.7,351,541.5,348.1
			L541.5,348.1z M210,346.3c-7-1.5-16.2-5.4-18.2-7.6c-1.1-1.3-1-1.9,2.3-9.3c2-4.4,3.8-8.1,4.1-8.3c0.3-0.2,4.2,0.9,8.7,2.3
			c10.1,3.3,16.5,3.9,22.2,2.3c8-2.3,10.2-6.2,6.2-11c-2.3-2.7-4.9-4.1-14.4-7.8c-16.9-6.5-26.4-13.5-29-21.5
			c-3-9.1-0.1-20.6,6.7-26.9c7.4-6.8,16.4-9.5,30.1-8.9c10,0.4,17.8,2.3,25.5,6.3c4,2,4.5,2.5,4.4,4.5c-0.1,3.2-6.4,15.7-7.8,15.5
			c-0.6-0.1-4.2-1.2-7.9-2.5c-6.8-2.4-15.7-3.6-19.4-2.7c-3.2,0.8-6.5,4.1-6.5,6.5c0,2.9,1.2,3.9,8,6.7c3.2,1.3,8.3,3.4,11.4,4.7
			c6.9,2.9,15.7,8.7,19.3,12.8c4.7,5.4,6.3,9.7,6.3,17.2c0,13.7-6.6,22.4-20.6,26.8C233.8,347.9,219,348.3,210,346.3L210,346.3z
			 M447.2,346.6c-10.3-2.1-20.2-6.7-20.2-9.3c0-1.6,6.2-15.4,7.2-16c0.4-0.2,4.2,0.8,8.5,2.3c6.8,2.3,8.8,2.7,15,2.8
			c6,0,7.7-0.2,10.6-1.7c4.5-2.2,5.8-5,4.1-8.3c-1.7-3.3-5.5-5.6-15.6-9.4c-12.5-4.7-17.4-7.6-23.1-13.2c-4.2-4.1-5.2-5.7-6.3-9.3
			c-2.6-8.9,0.7-20.6,7.4-26.3c3.9-3.3,10.8-6.7,16.1-7.8c7-1.5,17.9-1,25.9,1c7.3,1.9,16.1,5.6,17.7,7.5c0.7,0.8,0.1,2.7-2.7,9
			c-1.9,4.4-4,8.1-4.5,8.3c-0.5,0.2-2.6-0.3-4.5-1.1c-9.6-4.1-20.2-5.5-25.3-3.4c-4.5,1.9-6.3,6.5-3.6,9c0.8,0.7,5.5,2.9,10.6,5
			c13.2,5.4,19.2,8.7,24.5,13.7c5.9,5.5,8.6,10.7,9.1,17.7c1.1,15-8.8,26.5-25.7,29.7C465.3,348,453.8,347.9,447.2,346.6
			L447.2,346.6z M616.3,346.5c-13.6-2.8-25.1-11.6-31-23.5c-4.3-8.7-5.7-16-5.2-27c0.7-14.3,4.7-24.4,13.4-33.1
			c5.9-5.9,14.6-10.6,23.2-12.4c7.8-1.6,24.7-1.1,31.3,1.1c14.5,4.7,24.8,15,29.9,30.1c1.2,3.4,1.4,6.3,1.4,16.9
			c0,12.4-0.1,12.9-2.4,18.9c-4.5,11.8-11.6,19.8-22.3,25c-3.4,1.6-8.7,3.5-11.9,4.1C635.6,348,623.3,348,616.3,346.5L616.3,346.5z
			 M637.8,324c12.3-4,18.9-22.4,13.4-37.1c-5.9-15.8-25.1-20.4-36.8-8.7c-12.6,12.6-9.6,37.2,5.5,45
			C625.7,326.1,630.7,326.3,637.8,324L637.8,324z M801.2,347.2c-18.7-2.9-30.7-10.9-37.2-24.6c-3.3-7-4.7-14-4.7-23.8
			c0-19.6,6.7-33.7,20.3-42.5c6.9-4.4,12.9-6.1,23.4-6.6c15.2-0.6,24.2,2.3,32.4,10.6c5.4,5.4,8.6,11.2,11.2,20.3
			c2,6.9,3.3,20.2,2.4,23.9l-0.5,2H818c-25.4,0-30.5,0.2-30.8,1.1c-0.7,1.7,2.6,8.3,5.6,11.2c9.1,8.9,27.5,9.1,44.4,0.5
			c2.7-1.4,3.4-1.5,4.1-0.6c1.5,1.6,7.1,16.4,6.7,17.5c-1.1,2.9-13.1,8.8-21.4,10.4C821.2,347.6,806.3,348,801.2,347.2L801.2,347.2z
			 M822.9,288.5c0.9-0.6,0.9-1.2,0.2-3.6c-2-6.7-7.1-11.5-13.6-12.9c-6.2-1.3-11.7,0.2-16.4,4.7c-4,3.8-7,10.7-5.2,11.9
			C789.2,289.4,821.5,289.4,822.9,288.5L822.9,288.5z M277.3,344.6c-0.2-0.5-0.3-21.5-0.2-46.7l0.2-45.7l12.6-0.2l12.6-0.2
			l-0.2,46.7l-0.2,46.7l-12.2,0.2C280.5,345.5,277.5,345.3,277.3,344.6L277.3,344.6z M694.4,344.3c-0.6-1.6-0.6-89.8,0-91.4
			c0.4-1,1.7-1.2,7.1-1.2h6.6l3.8,7.1c2.1,3.9,4,7.1,4.2,7.1c0.2,0,3.2-1.9,6.6-4.1c7.9-5.3,16.7-9.3,21.4-9.9l3.7-0.4l1.1,4
			c2.6,9.1,4,15.5,3.5,16.2c-0.3,0.4-2.4,1.1-4.8,1.6c-5.5,1.2-15.9,6.4-22.4,11.3l-5.1,3.8l-0.2,28.3l-0.2,28.3l-12.5,0.2
			C696.4,345.5,694.8,345.4,694.4,344.3L694.4,344.3z M284.9,238.6c-3.6-1.3-7.1-4.5-8.4-7.7c-2.2-5.2-0.7-13.3,3.2-16.9
			c3.5-3.2,10.5-4.5,15-2.8c3.2,1.2,7.7,5.9,8.5,8.9c2.3,8.3-1.9,16.6-9.6,18.7C290,239.9,288.4,239.9,284.9,238.6L284.9,238.6z"/>
		<path id="path151" class="st2" d="M65.3,394.7C-9,352-50.6,327.8-51.4,326.8c-0.8-0.9-0.9-19.3-0.7-92
			c0.2-100.4-0.1-93.7,5.2-99.8c1.9-2.1,19.3-14.4,49.1-34.6c25.4-17.3,46.9-31.7,47.8-32c1.3-0.5,13.2,6.1,65.5,36.3
			c35.2,20.3,63.9,37.3,63.9,37.8c0,0.9-5.5,4.7-57.7,39.3c-18.8,12.5-35.5,24-37.2,25.6c-3.6,3.5-5.3,6.7-6.3,12.1
			c-0.5,2.4-0.7,37.2-0.7,92.3c0,48.6-0.3,88.5-0.6,88.7C76.4,400.8,71.3,398.1,65.3,394.7L65.3,394.7z M349.3,388.6
			c-12.7-2.3-25.9-7.5-26.5-10.4c-0.3-1.8,5.9-16.3,7.2-16.8c0.6-0.2,3.7,0.7,6.9,2c17.1,6.8,29.8,6.9,39.5,0.5
			c5.3-3.5,7.8-8.5,7.8-15.6c0-5.9,0.7-5.6-7.1-2.6c-3.9,1.5-5.9,1.7-14.2,1.7c-8.7,0-10.4-0.2-15.8-2.1
			c-14.4-5-24.3-15.8-28.1-30.6c-5.2-20.4-0.2-41.4,12.7-53.4c8.2-7.6,16.6-10.9,29.3-11.5c10.4-0.5,15.9,0.8,24,5.8
			c2.8,1.7,5.5,3,6,3c0.5,0,1.9-1.5,3.1-3.4l2.1-3.4l6.9,0.2l6.9,0.2l0,53.2l0,53.2l-1.7,4.4c-6.3,16.6-21.1,25.4-44.1,26.3
			C358.2,389.6,353.3,389.3,349.3,388.6L349.3,388.6z M369.3,325.1c4.5-1,10.7-3.8,13.2-6.1c1.7-1.6,1.7-1.8,1.7-20.9v-19.3
			l-1.9-1.5c-3.3-2.6-8.4-4.7-13.3-5.5c-16.3-2.8-28.1,13.4-24.6,33.5c1.2,6.7,3.7,11.5,8,15.3c1.9,1.7,3.7,3.1,4,3.1
			c0.3,0,2.1,0.5,4.2,1.1C365.3,326.1,364.6,326.1,369.3,325.1L369.3,325.1z M115.1,356.5l-12.2-6.9l0.2-58.5l0.2-58.5l2-4.2
			c2.7-5.7,5.6-8,29.8-23.9l20.5-13.4l11,6.4c13.2,7.6,13.2,7.6,12.1,8.9c-0.5,0.6-9.7,7.2-20.4,14.7c-21.3,14.9-24.6,17.7-27,23
			c-1.6,3.4-1.6,4.1-2,61.2c-0.2,37.5-0.6,57.8-1.1,57.9C127.6,363.3,121.8,360.3,115.1,356.5L115.1,356.5z M541.5,348.1
			c-11.6-2.8-20.1-10.4-23.7-21.2c-1-2.9-1.3-8.6-1.6-29.1l-0.4-25.5l-5.4-0.2c-6.9-0.3-7.2-0.7-6.8-11.1c0.2-5.9,0.5-8,1.4-8.5
			c0.6-0.4,3.4-0.7,6.2-0.7l5.1,0v-10.4c0-7.4,0.3-10.6,0.9-11.1c1.7-1.4,23.2-4.7,24.3-3.8c0.7,0.6,1,3.9,1,13.1v12.3h7.4
			c4.7,0,7.8,0.3,8.6,0.9c1.5,1.2,8,17.1,7.5,18.4c-0.3,0.7-3.4,0.9-11.9,0.9h-11.6l0.2,23.1l0.2,23.1l2,3c2.8,4.3,6.4,5.8,12.2,5.2
			c9.9-1.1,8.7-1.7,12.2,6.7c1.7,4.1,3.2,8.3,3.2,9.2C572.5,347.5,553.7,351,541.5,348.1L541.5,348.1z M210,346.3
			c-7-1.5-16.2-5.4-18.2-7.6c-1.1-1.3-1-1.9,2.3-9.3c2-4.4,3.8-8.1,4.1-8.3c0.3-0.2,4.2,0.9,8.7,2.3c10.1,3.3,16.5,3.9,22.2,2.3
			c8-2.3,10.2-6.2,6.2-11c-2.3-2.7-4.9-4.1-14.4-7.8c-16.9-6.5-26.4-13.5-29-21.5c-3-9.1-0.1-20.6,6.7-26.9
			c7.4-6.8,16.4-9.5,30.1-8.9c10,0.4,17.8,2.3,25.5,6.3c4,2,4.5,2.5,4.4,4.5c-0.1,3.2-6.4,15.7-7.8,15.5c-0.6-0.1-4.2-1.2-7.9-2.5
			c-6.8-2.4-15.7-3.6-19.4-2.7c-3.2,0.8-6.5,4.1-6.5,6.5c0,2.9,1.2,3.9,8,6.7c3.2,1.3,8.3,3.4,11.4,4.7c6.9,2.9,15.7,8.7,19.3,12.8
			c4.7,5.4,6.3,9.7,6.3,17.2c0,13.7-6.6,22.4-20.6,26.8C233.8,347.9,219,348.3,210,346.3L210,346.3z M447.2,346.6
			c-10.3-2.1-20.2-6.7-20.2-9.3c0-1.6,6.2-15.4,7.2-16c0.4-0.2,4.2,0.8,8.5,2.3c6.8,2.3,8.8,2.7,15,2.8c6,0,7.7-0.2,10.6-1.7
			c4.5-2.2,5.8-5,4.1-8.3c-1.7-3.3-5.5-5.6-15.6-9.4c-12.5-4.7-17.4-7.6-23.1-13.2c-4.2-4.1-5.2-5.7-6.3-9.3
			c-2.6-8.9,0.7-20.6,7.4-26.3c3.9-3.3,10.8-6.7,16.1-7.8c7-1.5,17.9-1,25.9,1c7.3,1.9,16.1,5.6,17.7,7.5c0.7,0.8,0.1,2.7-2.7,9
			c-1.9,4.4-4,8.1-4.5,8.3c-0.5,0.2-2.6-0.3-4.5-1.1c-9.6-4.1-20.2-5.5-25.3-3.4c-4.5,1.9-6.3,6.5-3.6,9c0.8,0.7,5.5,2.9,10.6,5
			c13.2,5.4,19.2,8.7,24.5,13.7c5.9,5.5,8.6,10.7,9.1,17.7c1.1,15-8.8,26.5-25.7,29.7C465.3,348,453.8,347.9,447.2,346.6
			L447.2,346.6z M616.3,346.5c-13.6-2.8-25.1-11.6-31-23.5c-4.3-8.7-5.7-16-5.2-27c0.7-14.3,4.7-24.4,13.4-33.1
			c5.9-5.9,14.6-10.6,23.2-12.4c7.8-1.6,24.7-1.1,31.3,1.1c14.5,4.7,24.8,15,29.9,30.1c1.2,3.4,1.4,6.3,1.4,16.9
			c0,12.4-0.1,12.9-2.4,18.9c-4.5,11.8-11.6,19.8-22.3,25c-3.4,1.6-8.7,3.5-11.9,4.1C635.6,348,623.3,348,616.3,346.5L616.3,346.5z
			 M637.8,324c12.3-4,18.9-22.4,13.4-37.1c-5.9-15.8-25.1-20.4-36.8-8.7c-12.6,12.6-9.6,37.2,5.5,45
			C625.7,326.1,630.7,326.3,637.8,324L637.8,324z M801.2,347.2c-18.7-2.9-30.7-10.9-37.2-24.6c-3.3-7-4.7-14-4.7-23.8
			c0-19.6,6.7-33.7,20.3-42.5c6.9-4.4,12.9-6.1,23.4-6.6c15.2-0.6,24.2,2.3,32.4,10.6c5.4,5.4,8.6,11.2,11.2,20.3
			c2,6.9,3.3,20.2,2.4,23.9l-0.5,2H818c-25.4,0-30.5,0.2-30.8,1.1c-0.7,1.7,2.6,8.3,5.6,11.2c9.1,8.9,27.5,9.1,44.4,0.5
			c2.7-1.4,3.4-1.5,4.1-0.6c1.5,1.6,7.1,16.4,6.7,17.5c-1.1,2.9-13.1,8.8-21.4,10.4C821.2,347.6,806.3,348,801.2,347.2L801.2,347.2z
			 M822.9,288.5c0.9-0.6,0.9-1.2,0.2-3.6c-2-6.7-7.1-11.5-13.6-12.9c-6.2-1.3-11.7,0.2-16.4,4.7c-4,3.8-7,10.7-5.2,11.9
			C789.2,289.4,821.5,289.4,822.9,288.5L822.9,288.5z M277.3,344.6c-0.2-0.5-0.3-21.5-0.2-46.7l0.2-45.7l12.6-0.2l12.6-0.2
			l-0.2,46.7l-0.2,46.7l-12.2,0.2C280.5,345.5,277.5,345.3,277.3,344.6L277.3,344.6z M694.4,344.3c-0.6-1.6-0.6-89.8,0-91.4
			c0.4-1,1.7-1.2,7.1-1.2h6.6l3.8,7.1c2.1,3.9,4,7.1,4.2,7.1c0.2,0,3.2-1.9,6.6-4.1c7.9-5.3,16.7-9.3,21.4-9.9l3.7-0.4l1.1,4
			c2.6,9.1,4,15.5,3.5,16.2c-0.3,0.4-2.4,1.1-4.8,1.6c-5.5,1.2-15.9,6.4-22.4,11.3l-5.1,3.8l-0.2,28.3l-0.2,28.3l-12.5,0.2
			C696.4,345.5,694.8,345.4,694.4,344.3L694.4,344.3z M284.9,238.6c-3.6-1.3-7.1-4.5-8.4-7.7c-2.2-5.2-0.7-13.3,3.2-16.9
			c3.5-3.2,10.5-4.5,15-2.8c3.2,1.2,7.7,5.9,8.5,8.9c2.3,8.3-1.9,16.6-9.6,18.7C290,239.9,288.4,239.9,284.9,238.6L284.9,238.6z"/>
		<path id="path149" class="st3" d="M12.1,363.6L-51.2,327l-0.2-90.7c-0.2-103-0.6-96.2,5.7-102.1c4.4-4.1,95.3-65.8,96.9-65.7
			c1.2,0.1,125.7,71.8,127.4,73.3c1.2,1.1-1.6,3.1-57.7,40.4c-18.8,12.5-35.4,24-36.9,25.5c-3.3,3.4-4.9,6.6-5.9,11.8
			c-0.5,2.4-0.7,29.4-0.7,69.2c0,65.7-0.6,111.5-1.5,111.5C75.7,400.2,47,383.8,12.1,363.6L12.1,363.6z M351.5,388.5
			c-12.6-2-28.9-7.7-28.9-10.3c0-1.5,6.9-17.1,7.5-17.1c0.3,0,3.2,1,6.3,2.3c23.5,9.4,42.8,5.6,47.2-9.2c1.3-4.3,1.5-10.8,0.4-11.4
			c-0.4-0.2-2.1,0.2-3.7,1.1c-7.7,3.9-19.8,4.7-30.4,1.9c-16.4-4.3-28.1-17.2-31.6-34.8c-1.7-8.6-1.1-22.3,1.2-29.7
			c6.4-20.6,24.2-32.7,46.1-31.7c7.7,0.4,12.4,1.9,20.1,6.6c2.7,1.6,5.1,3,5.3,3s1.6-1.7,3.1-3.8l2.7-3.8l6.2,0.2l6.2,0.2l0.2,51.8
			c0.1,33.5-0.1,53.1-0.6,55.5c-3.4,16.6-18.5,27.5-40.9,29.6c-4.5,0.4-8.6,0.7-9,0.7C358.6,389.6,355.2,389.1,351.5,388.5
			L351.5,388.5z M376.4,323c2.6-1.2,5.6-3,6.6-4.1l1.9-1.9v-18.7c0-20.7,0.3-19.5-5.3-23c-1.5-1-4.6-2.3-6.8-2.9
			c-13.6-4.1-25.1,3-28.5,17.5c-1.5,6.4-0.7,17.6,1.6,22.6c3.2,7,7.7,11,14.5,12.8C364.5,326.4,371.4,325.4,376.4,323L376.4,323z
			 M114.7,355.8l-11.8-6.8l0.2-58.2l0.2-58.2l2-4.2c1.2-2.6,3.3-5.3,5.6-7.3c5.2-4.4,43.6-29.5,44.8-29.2c2.1,0.5,23,13,23,13.8
			c0,0.4-9.2,7.2-20.5,15.1s-21.9,15.8-23.6,17.7c-5.5,5.9-5.3,4.1-5.9,67.6c-0.4,40.2-0.8,56.6-1.4,56.6
			C126.9,362.7,121.2,359.6,114.7,355.8z M542.7,348.1c-10.7-2.4-18.8-8.6-23-17.5l-2.4-5.1l-0.4-26.6l-0.4-26.6l-3.8-0.2
			c-2.1-0.1-4.9-0.4-6.2-0.6l-2.5-0.4l0.2-9.1l0.2-9.1l5.2-0.2c2.9-0.1,5.7-0.6,6.2-1c0.7-0.6,1-3.6,1-11.2v-10.4l3.9-0.8
			c10.1-2,16.7-3.1,18.6-3.1h2.2v12.2c0,8.5,0.3,12.5,0.9,13.1c0.6,0.6,3.5,0.9,8.2,0.9c6.8,0,7.4,0.1,8.4,1.7
			c1.9,3.1,6.8,16.3,6.2,16.9c-0.3,0.3-5.7,0.7-11.9,0.9l-11.4,0.4l-0.2,20.6c-0.2,23.6,0.2,26.4,4.7,30.8c2.6,2.6,2.8,2.6,8.8,2.6
			c3.4,0,7-0.3,8.1-0.6c1.9-0.6,2.1-0.4,4.6,5.6c4.8,11.4,4.8,11.7,3.2,13C566.3,348.1,551.4,350.1,542.7,348.1L542.7,348.1z
			 M213.2,346.7c-11.7-2.5-21.2-6.5-21.6-9.2c-0.3-2,6.3-16,7.5-16c0.6,0,4,1.1,7.7,2.4c5.9,2.1,7.7,2.4,15,2.4
			c7.2,0.1,8.6-0.1,11.5-1.7c8.8-4.7,3.9-12.3-11.6-17.8c-14.8-5.2-25.2-12.4-28.9-19.8c-1.4-2.9-1.7-4.6-1.6-10
			c0.1-5.8,0.4-7.1,2.5-11.4c7.7-15.7,30.5-20.5,55.1-11.6c3.3,1.2,7.1,3,8.3,3.9l2.2,1.7l-3.6,8c-2,4.4-3.9,8-4.3,8
			c-0.4,0-3.8-1.1-7.6-2.4c-5-1.7-8.6-2.5-13.4-2.7c-7.3-0.4-10.2,0.4-12.6,3.4c-3.4,4.3-1.1,6.9,10.2,11.4
			c17.7,7,26.8,13.3,31.5,21.9c2,3.7,2.2,4.6,2.2,11.5c0,6.1-0.3,8.1-1.6,11c-3.5,7.6-11,13.4-20.9,16
			C232.8,347.5,219.2,347.9,213.2,346.7z M448.9,346.7c-6.5-1.2-12.2-3.1-16.8-5.4c-5.9-2.9-5.9-3.1-2.2-11.4c1.8-4,3.5-7.6,3.9-8
			c0.4-0.4,3.7,0.3,8.3,1.8c13.1,4.2,24.1,4,29.1-0.7c5.2-4.9,0.7-10.6-12.1-15.3c-25.5-9.4-34.3-18.7-32.1-33.9
			c1.7-12.1,10.1-19.9,24.6-23.2c10.7-2.4,25.7-0.2,37.5,5.4c5.1,2.5,5.5,2.8,5.1,4.6c-0.7,3.6-6.4,15.1-7.5,15.1
			c-0.6,0-3.9-1.1-7.3-2.3c-5-1.9-7.9-2.4-13.9-2.7l-7.6-0.4l-2.8,2.4c-2.1,1.9-2.8,3-2.8,4.9c0,3.1,1.6,4.2,13.5,8.8
			c11.5,4.5,18.1,8.3,23.3,13.4c6.2,6,8.1,10.4,8.1,18.8c0,8.5-1.8,13.5-6.6,18.5c-3.9,4-9.4,7-16.3,8.8
			C468.2,347.5,455.5,347.9,448.9,346.7L448.9,346.7z M618.5,346.6c-19.4-3.8-31.8-15.1-36.8-33.5c-1.8-6.6-1.8-21.7-0.1-28.4
			c4.5-17,16-28.8,32.8-33.5c6.9-1.9,24.7-1.9,31.4,0c14.5,4.2,24.9,13.4,30.2,26.7c2.8,7.1,3.8,14,3.4,23.6
			c-1,22.4-13.4,38.6-33.9,44.1C638.6,347.5,625.5,348,618.5,346.6L618.5,346.6z M639.5,323.7c13.5-6.4,18.3-28,9.3-42.1
			c-10-15.7-33.5-12.6-40.5,5.3c-2.4,6.1-2.4,17.5,0,23.4C613.4,323.2,627.5,329.3,639.5,323.7L639.5,323.7z M799.5,346.6
			c-27.7-4.7-41.7-22.8-40.2-52c1.2-21.8,12.2-37.2,30.9-43.1c7.7-2.4,23.4-2.4,30.5,0c10,3.5,16.9,9.6,21.7,19.3
			c4.3,8.7,5.5,14,5.5,25.5l0.1,9.8l-30.6,0.2l-30.6,0.2v1.7c0,2.8,3.7,9.3,6.6,11.8c4.8,3.9,10,5.5,18.9,5.5
			c9,0.1,13.8-0.9,21.7-4.5c3-1.4,5.9-2.5,6.4-2.5c0.5,0,2.4,3.7,4.2,8.3c3.7,9.6,3.7,9.6-2.3,13.3
			C831,346.9,815.5,349.3,799.5,346.6L799.5,346.6z M823.6,287.2c0-5.8-6.1-13-12.6-14.9c-9.9-2.9-19.4,1.9-23.1,11.5
			c-2.1,5.6-2.6,5.5,17.7,5.5h18L823.6,287.2z M277.7,344.5c-0.6-0.7-0.8-13.6-0.7-46.7l0.2-45.7h12.4H302l0.2,46.1
			c0.2,36.4,0,46.2-0.8,46.7c-0.5,0.3-5.9,0.6-11.9,0.6C281.2,345.5,278.4,345.2,277.7,344.5z M695,344.5
			c-0.2-0.5-0.3-21.5-0.2-46.7l0.2-45.7l6.1-0.2c7-0.2,6.9-0.3,11.4,8.7c1.3,2.6,2.8,4.9,3.4,5.1c0.6,0.2,3.3-1.2,6.1-3.1
			c9.8-6.7,23.3-12.2,25.2-10.3c1.1,1.1,5.3,18.2,4.9,19.5c-0.2,0.6-1.2,1-2.3,1c-5,0-19.4,7.1-26.2,12.9l-3.5,3v27.5
			c0,20.4-0.2,27.8-0.9,28.4C718,345.9,695.5,345.8,695,344.5L695,344.5z M283.1,237.7c-6.6-3.2-9.4-11.7-6.3-18.7
			c3.6-8,13.1-10.8,20.4-6c8.6,5.6,8.3,18.9-0.5,24.1C293,239.3,286.8,239.6,283.1,237.7z"/>
		<path id="path147" class="st4" d="M12.8,363.6c-34.1-19.7-62.5-36.3-63.2-36.8c-1.2-1-1.2-7.9-1-91.9l0.2-90.8l1.7-3.8
			c1-2.1,2.8-4.9,4.1-6.1c2.7-2.6,95.3-65.4,96.4-65.4c0.9,0,125.4,71.8,126.8,73.1c1.2,1.1-0.9,2.6-57.3,40.1
			c-22.4,14.9-34.9,23.8-37.3,26.3c-6.1,6.5-5.8,2.6-5.8,77.2c0,76.4-0.6,114.1-1.8,114C75.2,399.4,46.9,383.3,12.8,363.6
			L12.8,363.6z M349.3,387.9c-2.9-0.6-7.4-1.6-10.1-2.3c-5.1-1.3-15.2-5.7-16-6.9c-0.2-0.4,1.1-4.3,3-8.7c2.5-5.9,3.7-8,4.7-8
			c0.7,0,3.2,0.8,5.4,1.9c10.4,4.8,25.9,6.5,34,3.7c5.4-1.9,9.8-5.1,12.1-9.1c1.7-2.8,2.1-4.6,2.4-9.8l0.3-6.4l-1.8,0.4
			c-1,0.2-4.1,1.3-7,2.3c-9.5,3.4-24.7,2.3-34.8-2.6c-7.3-3.6-14.5-10.8-18.1-18.2c-4.5-9.2-5.6-14.2-5.6-25.6
			c0-16.1,3.9-26.5,13.4-36c9.2-9.1,19.1-12.7,34.1-12.2c9.3,0.3,13,1.5,21.1,6.7c1.9,1.2,4,2.2,4.6,2.2c0.6,0,2.1-1.5,3.3-3.4
			l2.1-3.4l6.6,0l6.6,0v51c0,56.8,0,57.4-4.9,65.7c-5,8.4-13.2,14.1-25.1,17.5C372.4,388.8,356.8,389.4,349.3,387.9L349.3,387.9z
			 M376.7,323.2c8.8-4.2,8.2-2.6,8.2-25v-19.4l-2.4-1.8c-8.4-6.3-19.2-7.8-26.8-3.9c-13.7,7.1-17.1,33.7-5.7,46
			c4.7,5.1,9.3,7,16.2,6.7C370.6,325.6,372.8,325.1,376.7,323.2L376.7,323.2z M115.7,355.9c-7.6-4.4-11.8-7.3-12.2-8.4
			c-0.4-0.9-0.4-26.7-0.1-57.2c0.6-62.5,0.4-61,5.9-66.9c3-3.3,44.1-31.2,46-31.2c1.4,0,22.8,12.6,22.8,13.4
			c0,0.4-9.3,7.3-20.6,15.3c-11.4,8-21.7,15.7-23,17.2c-1.3,1.5-3,4.2-3.9,6.1c-1.6,3.4-1.6,4.3-1.8,61c-0.1,31.7-0.5,57.6-0.8,57.5
			C127.5,362.7,122.1,359.6,115.7,355.9L115.7,355.9z M540.9,347.3c-11.1-3-18.1-9.2-22.3-19.8c-1.1-2.9-1.4-7-1.7-29.6l-0.4-26.2
			l-6-0.4l-6-0.4l-0.2-7.5c-0.3-11.1-0.5-10.8,6.4-11l5.8-0.2l0.4-10.9l0.4-10.9l10.9-2c6-1.1,11.4-2,12-1.9
			c0.9,0.1,1.2,2.4,1.5,12.9l0.4,12.7l8.2,0.4l8.2,0.4l3.2,7.7c1.8,4.2,3.3,8.3,3.4,9c0.2,1.2-0.9,1.4-11.4,1.7l-11.6,0.4v22.9
			c0,25.7,0.2,26.5,5.5,30.6c2.7,2.1,4.8,2.3,15.8,1.5l2.5-0.2l3.3,8.2c2.5,6.2,3.1,8.4,2.5,9.2c-0.5,0.5-3.5,1.8-6.8,2.9
			C557.8,348.8,547.7,349.1,540.9,347.3L540.9,347.3z M210.9,345.8c-6.5-1.3-14.9-4.5-17.6-6.7l-2.2-1.8l3.6-8c2-4.4,3.8-8,4-8
			c0.2,0,3.3,1,6.8,2.2c11.5,3.9,19.7,4.5,26.3,1.8c8.7-3.6,7.8-10.5-2-15.5c-1.3-0.7-4.9-2.1-7.9-3.2c-16.3-5.9-26.1-12.8-29.5-21
			c-1.3-3.2-1.5-11.6-0.3-15.9c1.2-4.3,5.1-9.8,9.4-13c6-4.5,11.2-6,22.5-6.4c8.6-0.3,10.6-0.1,17.1,1.6c9,2.3,17,6.1,17,8
			c0,0.7-1.5,4.6-3.4,8.6c-2.8,6-3.6,7.2-4.7,6.7c-11.9-4.7-22.4-6.6-27.4-5c-5.2,1.7-7.8,6.1-5.8,9.8c0.4,0.8,4.5,2.9,9.2,4.8
			c23.1,9.5,31.4,16,34.7,27c1.4,4.6,1.4,7.8,0.1,13.3c-2.6,10.9-10.4,17.7-23.7,20.5C230.7,347.2,217.6,347.2,210.9,345.8
			L210.9,345.8z M449.4,346.5c-7.6-1.3-20.8-6.3-22.1-8.4c-0.4-0.7,5.6-14.7,6.8-15.9c0.4-0.4,4.2,0.5,8.9,2
			c16.1,5.2,30.4,2.8,30.4-5.2c0-4.9-3.6-7.8-15.4-12.2c-11.1-4.1-18.4-8-23.2-12.4c-6.3-5.7-7.6-8.6-7.6-16.8
			c0-6.1,0.2-7.2,2.4-11.7c2.8-5.6,4.2-7.1,10.2-10.7c6.4-3.9,13.4-5.2,24.7-4.8c7.2,0.3,10.4,0.8,15.5,2.4
			c6.7,2.2,13.1,5.1,13.9,6.4c0.5,0.8-5.1,14-6.6,15.5c-0.7,0.7-2.8,0.2-8.8-1.8c-12.9-4.4-21.1-4.2-25.1,0.7
			c-4.2,5-1.9,7.6,11.2,12.7c16.6,6.5,25.5,12.7,30.1,21.1c2,3.6,2.2,4.6,2.2,11.4c0,6.7-0.2,8-2.1,11.7c-3.8,7.8-11.4,13-22,15.3
			C468.2,346.9,454,347.2,449.4,346.5L449.4,346.5z M615.9,345.8c-6.5-1.4-16.2-6.3-20.8-10.4c-5-4.5-9.4-11.5-11.9-18.8
			c-1.6-4.8-2.1-7.8-2.4-15c-0.9-24.1,9.3-41,29.2-48.5c5.6-2.1,7.3-2.4,17.2-2.7c8.5-0.3,12.2-0.1,16.6,0.9
			c17.5,3.9,30,16.1,34,33.3c1.6,6.7,1.5,20.7-0.1,27.5c-4,17.2-17.3,30.1-34.5,33.8C636.7,347.2,622.4,347.2,615.9,345.8
			L615.9,345.8z M639.5,324.1c4.2-2.1,9.2-7.3,11.3-11.8c8.8-19.3-2.1-41.1-20.6-41.3c-15.3-0.1-26.3,14.9-23.9,32.7
			c1.3,9.2,7.4,17.7,15.1,20.7C626.4,326.4,635.1,326.3,639.5,324.1L639.5,324.1z M795.8,345.5c-18.3-3.9-30.1-15-34.8-32.6
			c-2-7.5-1.8-21.9,0.3-29.9c4.5-16.5,15.4-27.6,31.2-31.6c5.9-1.5,20.4-1.5,26.1,0c10.5,2.7,18.4,9.3,23.6,19.7
			c4,8.1,5.7,15.7,5.8,26.1l0,8.2l-30.8,0.4c-16.9,0.2-30.9,0.5-31,0.6c-0.5,0.3,0.8,5,1.9,7.1c1.7,3.3,6.2,8,9.2,9.5
			c6.2,3.1,18.2,4,27,1.9c2.7-0.6,7.4-2.3,10.4-3.8c3-1.5,5.8-2.4,6.1-2c0.3,0.3,2,4.3,3.8,8.7l3.3,8.1l-1.9,1.5
			c-3.4,2.8-13.8,7.4-19.1,8.5C819.6,347.4,804,347.2,795.8,345.5L795.8,345.5z M823.8,286.2c-0.3-3.3-3.1-8.2-6.3-10.9
			c-8.3-7-21.2-5.2-27.3,3.6c-2.5,3.7-4.3,8.5-3.6,9.6c0.2,0.4,8.7,0.6,18.9,0.4l18.5-0.2L823.8,286.2z M277.7,298.6v-46.2l12.2,0.2
			l12.2,0.2v45.7v45.8l-12.2,0.2l-12.2,0.2V298.6z M695,343.8c-0.2-0.5-0.3-21.2-0.2-45.9l0.2-45l6.5-0.2l6.5-0.2l3.5,6.7
			c1.9,3.7,3.8,7,4.3,7.2c0.4,0.3,3.2-1.2,6.3-3.3c10.4-7.2,23.1-12.2,25.3-10c1,1,5.1,17.6,4.5,18.2c-0.3,0.2-2.2,0.9-4.2,1.4
			c-8.3,2.1-24.1,11.1-27,15.3c-0.9,1.3-1.1,6.3-1.1,29.1v27.6h-12C698.5,344.7,695.3,344.5,695,343.8L695,343.8z M284.7,238.2
			c-2.7-0.8-7.5-5.8-8.2-8.6c-0.9-3.7,0-10.5,1.9-13c4.7-6.6,15.6-7.2,21.2-1.2c2.6,2.8,3.6,5.5,3.6,9.7
			C303.2,234.8,294.3,241,284.7,238.2z"/>
		<path id="path145" class="st5" d="M57.5,388.7c-9.5-5.5-34-19.6-54.4-31.4c-20.4-11.8-40.8-23.6-45.4-26.2l-8.2-4.8l-0.2-89.2
			c-0.2-97.7-0.3-95.2,4.2-100.8c1.1-1.4,10.8-8.5,21.5-15.8c58.7-39.9,75.4-51.1,76-51.1c0.4,0,12.3,6.7,26.5,14.9
			c14.2,8.2,42.5,24.6,63.1,36.5c20.5,11.9,37.2,21.8,36.9,22c-0.8,0.8-23.5,16.1-57.4,38.6c-18.8,12.5-35.4,24-36.9,25.6
			s-3.6,4.4-4.5,6.3l-1.7,3.5L76.6,302c-0.5,99.8-0.5,96.8-1.2,96.7C75,398.7,67,394.2,57.5,388.7z M346.1,386.7
			c-8-1.7-19-5.6-21.3-7.4c-1.5-1.2-1.5-1.3,1.6-8.7c1.7-4.1,3.3-7.7,3.6-8s3.4,0.6,6.9,2c9.4,3.8,16,5.1,24.6,4.7
			c5.8-0.2,8.1-0.7,11.5-2.3c8.8-4,13-11,12.5-20.6c-0.3-5.2-0.3-5.2-8.9-2.1c-10.3,3.8-25.4,2.5-35.9-3
			c-9.3-4.9-16.5-13.7-20.1-24.7c-1.8-5.4-2-7.2-2-17.3c0-8.7,0.3-12.3,1.3-16.1c4.8-17.1,17-28.6,33.7-31.9
			c8.9-1.8,14.9-1.5,22.2,1c3.4,1.2,8.1,3.4,10.3,4.9c2.2,1.5,4.5,2.7,5.1,2.7c0.6,0,2-1.5,3.2-3.4c2.4-3.9,3.4-4.3,9.7-4l4.5,0.2
			l0.2,51c0.2,36.7,0,52.2-0.6,55.1c-2.8,13.1-12.6,22.7-27.7,27C372,388.4,355.5,388.8,346.1,386.7L346.1,386.7z M377.1,323.8
			c2.5-1.2,5.5-3.1,6.6-4.1l2-1.9v-19.5v-19.5l-2.4-2.1c-6-5-16.5-7.6-23.5-5.7c-13.6,3.7-20.7,21.7-15.4,38.9
			c2.2,7.2,7.5,13.1,13.6,15.3C363.8,327.4,370.9,326.8,377.1,323.8L377.1,323.8z M116.4,355.6c-6-3.4-11.3-6.7-11.9-7.2
			c-0.8-0.7-0.9-11.2-0.7-57.6l0.3-56.7l1.7-4.3c2.3-5.8,5.3-8.3,29.4-24.1l19.9-13.1l2.2,1.1c5.2,2.6,19.9,11.5,19.8,12
			c0,0.3-8.5,6.4-18.9,13.7c-24.1,16.8-26.6,19-29.3,26.6c-0.6,1.5-1,20.8-1.2,59.1l-0.4,56.8L116.4,355.6z M546.2,347.7
			c-9.9-1.2-17.3-5.3-22.7-12.4c-5.3-7-5.4-7.4-5.6-36.7c-0.2-23.3-0.4-26.4-1.5-27.2c-0.7-0.5-3.4-0.9-6.3-0.9h-5.1v-8.6v-8.6h5.5
			c3.3,0,5.8-0.4,6.4-0.9c0.6-0.6,0.9-4.2,0.9-11.2c0-10.1,0-10.3,1.7-10.7c4-0.9,19-3.4,20.2-3.4c1.2,0,1.3,1,1.3,12.2
			c0,8.5,0.3,12.5,0.9,13.1c0.6,0.6,3.6,0.9,8.5,0.9c5.4,0,7.8,0.3,8,0.9c2.2,5.3,6.5,15.9,6.5,16.1c0,0.1-4.8,0.3-10.7,0.3
			c-7.5,0-11.1,0.3-12,1c-1.2,0.9-1.3,2.8-1.1,23.4c0.2,22.4,0.2,22.5,2.1,25.8c3.4,6,8.6,8.2,15.9,6.7c2.2-0.4,4.5-0.9,5.1-0.9
			c0.7-0.1,2.2,2.7,4.4,8.1c3.8,9.5,4,9.2-4,11.6C558.6,348,552.4,348.5,546.2,347.7L546.2,347.7z M218.4,346.5
			c-9.2-1-23.3-5.5-25.6-8.2c-0.7-0.9-0.3-2.5,2.3-8.6c1.8-4.1,3.5-7.5,3.8-7.5c0.3,0,3.7,1.1,7.6,2.4c12.9,4.4,25.7,3.7,30.2-1.7
			c2.2-2.6,2.3-3.7,0.7-7.1c-1.6-3.3-6.4-6.3-15.7-9.7c-15.5-5.7-24.5-11.8-28.2-19.1c-2.2-4.3-2.4-12.7-0.4-18.5
			c4.6-13.9,24.4-21.3,44.8-16.7c6.9,1.5,17.2,5.5,19,7.2c0.9,0.9,0.6,2-2,8c-1.7,3.8-3.3,7.2-3.6,7.5c-0.3,0.3-3.6-0.4-7.2-1.7
			c-8.3-2.9-16.5-4.1-21-2.9c-3.8,1-7.8,4.9-7.8,7.8c0,3,2.9,5,14.4,9.6c16.5,6.6,25,12.8,29.2,21.5c1.4,2.8,1.7,4.7,1.7,10.2
			c0,6.1-0.2,7.2-2.5,11.7c-5,10.1-14.5,14.9-31.3,15.8C223.7,346.6,219.9,346.6,218.4,346.5L218.4,346.5z M452.3,346.2
			c-8.3-1-19.4-4.6-23.5-7.7c-1.3-1-1.3-1.3,1.8-8.3c1.8-4,3.5-7.5,3.8-7.7c0.3-0.2,3.7,0.7,7.6,2c6.2,2.2,7.9,2.4,15.6,2.5
			c7,0,9.1-0.2,11.1-1.3c6.4-3.5,7.2-7.7,2.6-12.3c-3-3-5.4-4.2-18.1-9.2c-10-3.9-15.5-7.3-20.1-12.3c-4.2-4.6-5.5-8-5.5-15
			c0-16.9,15.6-28,37.5-26.5c9.6,0.6,27.1,6.3,28.2,9.1c0.2,0.5-1.2,4.2-3,8.3c-2.8,5.9-3.7,7.2-4.7,6.9c-0.7-0.2-3.8-1.3-6.7-2.4
			c-6.9-2.5-15.9-3.7-19.8-2.6c-6,1.6-9.4,6.6-7.1,10.2c1.4,2.1,4.2,3.6,13.9,7.4c11.7,4.6,17.2,7.8,22.9,13.5
			c6.3,6.2,7.8,9.8,7.8,18.1c0,13.5-8.1,22.9-22.6,26.1C467.8,346.4,458.5,346.9,452.3,346.2L452.3,346.2z M622.7,346.2
			c-11.9-1.2-20.9-5.1-28.4-12.6c-8.9-8.8-13.1-19.8-13.1-34.6c0-15.3,4.1-26.4,13.1-35.3c8.3-8.3,18.6-12.4,33-13.2
			c24.8-1.3,42.9,10.4,49.6,32c2.3,7.3,2.5,23.1,0.3,30.8c-4.5,16.3-17.1,28.5-32.9,31.8C637.2,346.5,629.7,346.9,622.7,346.2
			L622.7,346.2z M636.7,325.6c7.7-2.3,13.8-8.9,16.4-18c1.9-6.4,1.3-16.6-1.3-22.2c-2.5-5.5-6.7-10-11.4-12.5c-3.2-1.7-4.8-2-10.2-2
			c-5.2,0-7,0.3-9.9,1.7c-10.1,5-15.7,16.3-14.6,29.5C607.1,319,621.6,330.1,636.7,325.6z M804.2,346.2c-22.8-2.1-37.3-13.3-42.6-33
			c-1.8-6.7-1.8-23.2,0.1-29.9c5.8-21,21.8-33.1,44-33.1c12.2,0,21.4,3.4,28.9,10.8c8.4,8.2,12.5,19.6,12.6,35.2l0.1,9l-30.6,0.2
			c-23.6,0.2-30.6,0.4-30.6,1.1c-0.4,4,2.7,9.9,7.2,13.9c4.9,4.3,10.2,5.8,20.3,5.8c9.1,0,14.2-1.2,21.5-4.9c2.4-1.2,4.6-2.2,5-2.2
			c0.7,0,6.9,14.6,6.9,16.2c0,1.2-6.4,5.2-11.7,7.3C827.1,346,815.8,347.3,804.2,346.2L804.2,346.2z M824.3,289
			c1.5-1.8-1.8-9.8-5.6-13.4c-7.2-6.7-19.3-6.8-26.1-0.2c-4.4,4.3-7.8,12.2-5.9,14c0.3,0.3,8.7,0.5,18.7,0.5
			C819.5,290,823.7,289.8,824.3,289L824.3,289z M278.6,344.1c-0.7-0.5-0.9-10.2-0.8-45.9l0.2-45.3h11.6h11.6v45.7v45.8l-10.9,0.2
			C284.4,344.6,279.1,344.5,278.6,344.1z M695.8,343.8c-0.2-0.5-0.3-21.2-0.2-45.9l0.2-45l5.4-0.2c3.7-0.2,5.6,0.1,6.2,0.8
			c0.5,0.5,2.4,3.8,4.4,7.3c1.9,3.5,3.9,6.4,4.3,6.6c0.4,0.1,2.8-1.3,5.2-3.1c8.9-6.7,23.6-12.8,25.6-10.7c1.1,1.2,5,16.9,4.4,17.8
			c-0.2,0.4-1.3,0.7-2.3,0.7c-4.6,0-18.8,7.2-26.2,13.2l-3.4,2.8v27.5c0,20.4-0.2,27.7-0.9,28.4
			C717.2,345.1,696.3,345.1,695.8,343.8L695.8,343.8z M284,237.2c-8.8-3.9-10.3-17.5-2.6-23c6.4-4.6,16-2.6,19.6,4
			c2.6,4.8,1.7,12.2-1.7,16C295.8,238,289,239.4,284,237.2L284,237.2z"/>
		<path id="path143" class="st6" d="M349.8,387.1c-7.5-1.3-21.5-5.9-24.1-7.8l-1.8-1.4l2.9-7c1.6-3.9,3.1-7.3,3.4-7.7
			c0.3-0.3,3.5,0.6,7.2,2c18.6,7.4,34.3,6.3,43.3-3c3.8-3.9,5.1-7.8,4.8-14.9c-0.3-7-0.3-7-8.1-3.7c-3.9,1.7-6.3,2.1-12,2.4
			c-21.3,0.9-37.4-9.6-44-28.8c-1.7-4.9-2.1-7.5-2.3-16c-0.5-17.6,3-28.1,12.9-37.9c9-9,19.2-12.7,33.8-12.2
			c6.6,0.2,8.1,0.6,12.8,2.7c2.9,1.4,6.8,3.5,8.7,4.7c1.9,1.2,3.8,2.2,4.3,2.2c0.5,0,2-1.7,3.2-3.8l2.3-3.7h5.9h5.9l0,48.9
			c0,28-0.3,51.2-0.8,54.2c-2.7,18.9-18.9,30.5-43.9,31.5C359,388.1,353.8,387.8,349.8,387.1L349.8,387.1z M374.5,325.3
			c2-0.8,5.4-2.5,7.4-3.8l3.7-2.4v-20.5v-20.5l-2.4-1.8c-8.5-6.4-19.2-8-27.4-4.1c-4.3,2-9.5,8-11.6,13.2c-2.4,6.2-2.4,20.3,0,26.5
			C349.3,324.7,361.7,330.1,374.5,325.3z M544.7,347.2c-12.6-2.1-21.9-10-25.5-21.6c-0.6-2-1.1-11.7-1.4-28.9l-0.5-25.9l-5.8-0.2
			l-5.8-0.2v-8.2V254h4.1c2.2,0,4.9-0.3,6-0.7c1.9-0.7,1.9-0.7,2.1-11.4l0.2-10.7l10.9-1.9c6-1.1,11.1-1.8,11.4-1.6
			s0.6,5.9,0.6,12.7v12.3l1.9,0.7c1.1,0.4,4.9,0.7,8.5,0.7h6.6l3.1,7.7c1.7,4.2,3.1,7.9,3.1,8.2c0,0.3-5.2,0.6-11.4,0.8l-11.4,0.2
			l-0.2,22.9l-0.2,22.9l2.1,4.1c3,5.9,6.3,7.6,13.3,7.2c2.9-0.2,6-0.5,7-0.6c1.6-0.2,2.1,0.5,4.7,7.2c1.6,4.1,2.8,7.9,2.6,8.4
			c-0.2,0.5-3.1,1.8-6.5,2.9C558.3,347.7,550.6,348.2,544.7,347.2L544.7,347.2z M213.3,345.4c-5.6-0.9-15-4.2-18.3-6.3l-2.8-1.8
			l3.1-7.1c1.7-3.9,3.5-7.1,4-7.1c0.5,0,4,1,7.9,2.3c8.9,2.9,16.7,3.6,22.6,1.9c9-2.6,11.5-8,6.2-13.8c-2.7-3-5.3-4.3-16.9-8.8
			c-13.2-5.1-20.7-10.2-24.6-16.7c-1.9-3.2-2.1-4.2-2.1-10.6c0-6.3,0.2-7.6,2-10.9c3.8-7.1,9.9-11.5,19-13.9
			c11.3-2.9,26.4-1.3,37.8,4c6.9,3.2,6.7,2.5,3,10.6c-1.8,4-3.5,7.2-3.8,7.2s-3.7-1.1-7.6-2.4c-11.3-3.8-20.2-3.9-24.6-0.1
			c-3,2.5-4,5.1-3,7.7c1,2.5,2.9,3.6,12.8,7.5c12.5,5,19.3,8.9,24.4,13.9c6.5,6.5,7.5,8.8,7.5,18.4c0,8.8-1,11.6-6,17.2
			C247.1,344.1,229.2,348,213.3,345.4L213.3,345.4z M446.1,344.7c-6.7-1.4-17.7-6-17.7-7.4c0-1,5.2-13,6.1-13.9
			c0.4-0.4,3.8,0.3,8.7,1.9c6.7,2.1,9.2,2.6,14.8,2.6c5.9,0,7.3-0.3,11-2.1c5.2-2.5,6.5-5,5.1-9.2c-1.2-3.8-5.6-6.6-16.3-10.8
			c-16.6-6.5-24.3-11.7-28-18.9c-2.1-4.1-2.3-12.6-0.4-18.4c5.3-15.7,29.4-22,53-13.8c6,2.1,10.5,4.5,10.5,5.7
			c0,1.6-5.8,13.9-6.6,13.9c-0.4,0-3.7-1-7.3-2.3c-7-2.4-15.5-3.5-20.1-2.7c-4,0.7-8,4.8-8,8.1c0,3.7,2,5.2,13.1,9.6
			c12.7,5,18.5,8.3,23.9,13.4c5.3,5,7.8,9.8,8.5,15.7c0.9,8.2-1.9,15.7-7.6,21C479.9,345.3,463.1,348.3,446.1,344.7L446.1,344.7z
			 M617.4,345.2c-16.9-3.6-28.3-13.5-33.5-29.2c-1.8-5.4-2-7.3-2-16.6c0-11.7,0.9-16.5,4.9-24.7c4.8-9.8,13.2-17,24.6-20.9
			c5.3-1.8,8-2.3,15.5-2.6c15-0.6,25.2,2.1,34.4,9.1c6.5,4.9,12,12.8,14.6,20.8c2.4,7.4,3,21.7,1.2,30
			c-3.4,16.4-15.3,28.9-31.6,33.4C639.4,346.1,623.7,346.5,617.4,345.2L617.4,345.2z M639,325.2c4.8-2.1,8.5-5.3,11.2-9.8
			c9.2-15.3,4.3-36.1-10.1-43.1c-5.7-2.8-13.7-2.9-19.4-0.4c-16.5,7.4-21.2,33.2-8.5,47c3.9,4.2,6.8,6.1,12,7.5
			C629,327.7,634.4,327.2,639,325.2L639,325.2z M797.9,345.1c-25.5-4.8-38.3-22-37-49.8c0.5-10.5,1.6-15.1,5.7-22.9
			c4.7-8.9,12-15.1,22.5-19c6.1-2.2,20.4-3.1,27.3-1.7c14,2.9,24.7,13.8,28.7,29.1c1.4,5.5,2.8,16.9,2.5,20.8l-0.2,3l-30.8,0.4
			l-30.8,0.4l0.1,2.7c0.2,6,6,13.5,12.7,16.5c9.4,4.1,24.8,3.1,35.9-2.4c2.4-1.2,4.8-2.2,5.3-2.2c0.9,0,6.4,12.9,6.4,15.1
			c0,1.7-7.5,6.1-14.6,8.5c-5.2,1.8-7.4,2.1-16.9,2.3C807.2,346.1,801.9,345.8,797.9,345.1L797.9,345.1z M824,290.3
			c2.5-1,0.4-8.8-3.7-13.6c-3.6-4.2-8.5-6.4-14.2-6.4c-6,0-9.7,1.3-13.7,5c-5.5,5-8.5,13-5.7,14.6
			C788.1,290.7,821.8,291.1,824,290.3L824,290.3z M278.4,298.6v-45.4h11.2h11.2v45.4V344h-11.2h-11.2V298.6z M696.2,298.6v-45.4h5.6
			h5.6l3.6,6.9c4.2,8,5.2,8.5,9.6,5c6.4-5.1,17.7-10.7,23.3-11.6l2.9-0.5l2.1,8.7c1.2,4.8,2,8.8,1.9,9c-0.1,0.1-2,0.6-4,1.1
			c-5.5,1.3-16.5,7-22.5,11.6l-5.3,4l-0.2,28.3l-0.2,28.3h-11.2h-11.2L696.2,298.6z M286.3,237.5c-5.6-1.3-9.4-6.4-9.4-12.4
			c0-10,9.4-16,18.3-11.7c10.3,5,8.9,21-2.2,24C289.7,238.3,289.5,238.3,286.3,237.5L286.3,237.5z"/>
	</g>
</g>
</svg>
