<svg width="20" height="20" viewBox="0 0 20 20" fill="none" xmlns="http://www.w3.org/2000/svg">
<rect width="20" height="20" rx="1" fill="#FCC934"/>
<path d="M10.1637 15.6399C9.13371 15.6399 8.18371 15.3999 7.31371 14.9199C6.45371 14.4299 5.76871 13.7599 5.25871 12.9099C4.74871 12.0499 4.49371 11.0899 4.49371 10.0299C4.49371 8.9699 4.74871 8.0149 5.25871 7.1649C5.76871 6.3049 6.45371 5.6349 7.31371 5.1549C8.18371 4.6649 9.13371 4.4199 10.1637 4.4199C11.0037 4.4199 11.7687 4.5699 12.4587 4.8699C13.1587 5.1599 13.7587 5.5749 14.2587 6.1149L12.8637 7.4799C12.5037 7.0999 12.1037 6.8149 11.6637 6.6249C11.2337 6.4349 10.7287 6.3399 10.1487 6.3399C9.48871 6.3399 8.88371 6.4949 8.33371 6.8049C7.78371 7.1049 7.34371 7.5399 7.01371 8.1099C6.69371 8.6699 6.53371 9.3099 6.53371 10.0299C6.53371 10.7499 6.69871 11.3949 7.02871 11.9649C7.35871 12.5249 7.79871 12.9599 8.34871 13.2699C8.90871 13.5699 9.51871 13.7199 10.1787 13.7199C11.1787 13.7199 11.9987 13.4249 12.6387 12.8349C12.8387 12.6549 13.0137 12.4249 13.1637 12.1449C13.3137 11.8649 13.4237 11.5599 13.4937 11.2299H10.1187V9.5049H15.3837C15.4537 9.7849 15.4887 10.0999 15.4887 10.4499C15.4887 11.1599 15.3787 11.8199 15.1587 12.4299C14.9487 13.0399 14.6237 13.5749 14.1837 14.0349C13.7037 14.5549 13.1237 14.9549 12.4437 15.2349C11.7637 15.5049 11.0037 15.6399 10.1637 15.6399Z" fill="#BD6000"/>
</svg>
