<svg width="20" height="20" viewBox="0 0 20 20" fill="none" xmlns="http://www.w3.org/2000/svg">
<rect width="20" height="20" rx="1" fill="#57E690"/>
<path d="M5.79299 4.6599H9.42299C10.543 4.6599 11.518 4.8849 12.348 5.3349C13.178 5.7849 13.818 6.4149 14.268 7.2249C14.718 8.0349 14.943 8.9699 14.943 10.0299C14.943 11.0899 14.718 12.0249 14.268 12.8349C13.818 13.6449 13.178 14.2749 12.348 14.7249C11.518 15.1749 10.543 15.3999 9.42299 15.3999H5.79299V4.6599ZM9.33299 13.4799C10.493 13.4799 11.378 13.1749 11.988 12.5649C12.598 11.9449 12.903 11.0999 12.903 10.0299C12.903 8.9599 12.598 8.1199 11.988 7.5099C11.378 6.8899 10.493 6.5799 9.33299 6.5799H7.81799V13.4799H9.33299Z" fill="#0D652D"/>
</svg>
