<svg width="20" height="20" viewBox="0 0 20 20" fill="none" xmlns="http://www.w3.org/2000/svg">
<rect x="0.5" y="0.5" width="19" height="19" rx="9.5" fill="white"/>
<path d="M9.99766 15.24C9.12766 15.24 8.35766 15.01 7.68766 14.55C7.02766 14.09 6.57266 13.42 6.32266 12.54L8.18266 11.805C8.30266 12.295 8.51766 12.675 8.82766 12.945C9.13766 13.205 9.52766 13.335 9.99766 13.335C10.4277 13.335 10.7977 13.205 11.1077 12.945C11.4277 12.685 11.5877 12.355 11.5877 11.955C11.5877 11.525 11.4177 11.185 11.0777 10.935C10.7477 10.675 10.2977 10.545 9.72766 10.545H8.84266V8.76H9.65266C10.0927 8.76 10.4627 8.65 10.7627 8.43C11.0727 8.21 11.2277 7.89 11.2277 7.47C11.2277 7.13 11.1027 6.85 10.8527 6.63C10.6027 6.41 10.2827 6.3 9.89266 6.3C9.48266 6.3 9.15266 6.41 8.90266 6.63C8.65266 6.85 8.47766 7.125 8.37766 7.455L6.59266 6.72C6.80266 6.12 7.18766 5.6 7.74766 5.16C8.31766 4.72 9.03766 4.5 9.90766 4.5C10.5477 4.5 11.1177 4.62 11.6177 4.86C12.1277 5.1 12.5227 5.43 12.8027 5.85C13.0827 6.26 13.2227 6.725 13.2227 7.245C13.2227 7.795 13.0927 8.265 12.8327 8.655C12.5827 9.045 12.2777 9.33 11.9177 9.51V9.63C12.4177 9.83 12.8227 10.145 13.1327 10.575C13.4427 11.005 13.5977 11.525 13.5977 12.135C13.5977 12.725 13.4477 13.255 13.1477 13.725C12.8477 14.195 12.4227 14.565 11.8727 14.835C11.3327 15.105 10.7077 15.24 9.99766 15.24Z" fill="#1A73E8"/>
<rect x="0.5" y="0.5" width="19" height="19" rx="9.5" stroke="#1A73E8"/>
</svg>
