<svg width="20" height="20" viewBox="0 0 20 20" fill="none" xmlns="http://www.w3.org/2000/svg">
<rect width="20" height="20" rx="1" fill="#FCC934"/>
<path d="M6.07424 4.6599H10.2742C10.8742 4.6599 11.4242 4.7849 11.9242 5.0349C12.4342 5.2849 12.8342 5.6249 13.1242 6.0549C13.4142 6.4849 13.5592 6.9549 13.5592 7.4649C13.5592 8.0049 13.4242 8.4749 13.1542 8.8749C12.8942 9.2649 12.5492 9.5649 12.1192 9.7749V9.8949C12.6792 10.0949 13.1242 10.4149 13.4542 10.8549C13.7842 11.2849 13.9492 11.8049 13.9492 12.4149C13.9492 13.0049 13.7892 13.5299 13.4692 13.9899C13.1592 14.4399 12.7342 14.7899 12.1942 15.0399C11.6642 15.2799 11.0742 15.3999 10.4242 15.3999H6.07424V4.6599ZM10.1242 9.0399C10.5642 9.0399 10.9142 8.9199 11.1742 8.6799C11.4442 8.4299 11.5792 8.1199 11.5792 7.7499C11.5792 7.3899 11.4492 7.0899 11.1892 6.8499C10.9392 6.5999 10.6042 6.4749 10.1842 6.4749H8.09924V9.0399H10.1242ZM10.3492 13.5549C10.8392 13.5549 11.2192 13.4299 11.4892 13.1799C11.7692 12.9199 11.9092 12.5849 11.9092 12.1749C11.9092 11.7649 11.7692 11.4299 11.4892 11.1699C11.2092 10.9099 10.8092 10.7799 10.2892 10.7799H8.09924V13.5549H10.3492Z" fill="#BD6000"/>
</svg>
