<svg width="20" height="20" viewBox="0 0 20 20" fill="none" xmlns="http://www.w3.org/2000/svg">
<rect width="20" height="20" rx="1" fill="#FF9780"/>
<path d="M10.4898 15.6399C9.4498 15.6399 8.4998 15.3949 7.6398 14.9049C6.7798 14.4049 6.0998 13.7299 5.5998 12.8799C5.1098 12.0199 4.8648 11.0699 4.8648 10.0299C4.8648 8.9899 5.1098 8.0449 5.5998 7.1949C6.0998 6.3349 6.7798 5.6599 7.6398 5.1699C8.4998 4.6699 9.4498 4.4199 10.4898 4.4199C12.1098 4.4199 13.4498 5.0049 14.5098 6.1749L13.0848 7.5549C12.3948 6.7449 11.5348 6.3399 10.5048 6.3399C9.8348 6.3399 9.2248 6.4949 8.6748 6.8049C8.1248 7.1049 7.6898 7.5349 7.3698 8.0949C7.0598 8.6549 6.9048 9.2999 6.9048 10.0299C6.9048 10.7599 7.0598 11.4049 7.3698 11.9649C7.6898 12.5249 8.1248 12.9599 8.6748 13.2699C9.2248 13.5699 9.8348 13.7199 10.5048 13.7199C11.6348 13.7199 12.5798 13.2499 13.3398 12.3099L14.7798 13.6749C14.2498 14.3149 13.6198 14.8049 12.8898 15.1449C12.1698 15.4749 11.3698 15.6399 10.4898 15.6399Z" fill="#A50E0E"/>
</svg>
