<svg width="20" height="20" viewBox="0 0 20 20" fill="none" xmlns="http://www.w3.org/2000/svg">
<rect x="0.5" y="0.5" width="19" height="19" rx="9.5" fill="white"/>
<path d="M6.71262 13.215C7.04262 12.885 7.67762 12.25 8.61762 11.31C9.56762 10.36 10.1776 9.74 10.4476 9.45C10.8076 9.06 11.0526 8.735 11.1826 8.475C11.3226 8.215 11.3926 7.92 11.3926 7.59C11.3926 7.24 11.2626 6.945 11.0026 6.705C10.7426 6.465 10.3976 6.345 9.96762 6.345C9.54762 6.345 9.20762 6.465 8.94762 6.705C8.68762 6.945 8.50262 7.245 8.39262 7.605L6.62262 6.87C6.73262 6.48 6.93262 6.105 7.22262 5.745C7.52262 5.375 7.90762 5.075 8.37762 4.845C8.84762 4.615 9.38762 4.5 9.99762 4.5C10.6776 4.5 11.2726 4.635 11.7826 4.905C12.2926 5.165 12.6876 5.525 12.9676 5.985C13.2476 6.435 13.3876 6.94 13.3876 7.5C13.3876 8.61 12.8476 9.695 11.7676 10.755C11.3276 11.185 10.5126 11.995 9.32262 13.185L9.36762 13.275H13.5226V15H6.71262V13.215Z" fill="#1A73E8"/>
<rect x="0.5" y="0.5" width="19" height="19" rx="9.5" stroke="#1A73E8"/>
</svg>
