<svg height="1rem" viewBox="0 0 34 33" version="1.1" xmlns="http://www.w3.org/2000/svg" xmlns:xlink="http://www.w3.org/1999/xlink">
    <g id="book-icon" fill="currentColor" fill-rule="nonzero">
        <path d="M3.63333333,6.73333333 L0.333333333,6.73333333 L0.333333333,29.1333333 C0.333333333,30.8933333 1.81833333,32.3333333 3.63333333,32.3333333 L26.7333333,32.3333333 L26.7333333,29.1333333 L3.63333333,29.1333333 L3.63333333,6.73333333 Z M30.0333333,0.333333333 L10.2333333,0.333333333 C8.41833333,0.333333333 6.93333333,1.77333333 6.93333333,3.53333333 L6.93333333,22.7333333 C6.93333333,24.4933333 8.41833333,25.9333333 10.2333333,25.9333333 L30.0333333,25.9333333 C31.8483333,25.9333333 33.3333333,24.4933333 33.3333333,22.7333333 L33.3333333,3.53333333 C33.3333333,1.77333333 31.8483333,0.333333333 30.0333333,0.333333333 Z M28.3833333,14.7333333 L11.8833333,14.7333333 L11.8833333,11.5333333 L28.3833333,11.5333333 L28.3833333,14.7333333 Z M21.7833333,21.1333333 L11.8833333,21.1333333 L11.8833333,17.9333333 L21.7833333,17.9333333 L21.7833333,21.1333333 Z M28.3833333,8.33333333 L11.8833333,8.33333333 L11.8833333,5.13333333 L28.3833333,5.13333333 L28.3833333,8.33333333 Z" id="Shape"></path>
    </g>
</svg>
