<svg width="60" height="60" viewBox="0 0 60 60" fill="none" xmlns="http://www.w3.org/2000/svg">
<path fill-rule="evenodd" clip-rule="evenodd" d="M30.1066 44.9999C34.2491 44.9999 37.9991 43.321 40.7131 40.6065L30.1066 30L19.5 40.6065C22.214 43.3209 25.964 44.9999 30.1066 44.9999Z" fill="#57E690"/>
<path fill-rule="evenodd" clip-rule="evenodd" d="M29.9998 60.0002C21.7159 60.0002 14.2159 56.6423 8.78666 51.2134L0 60.0002L29.9998 60.0002Z" fill="#57E690"/>
<path fill-rule="evenodd" clip-rule="evenodd" d="M30.0002 60.0002C38.2841 60.0002 45.7841 56.6423 51.2133 51.2134L60 60.0002L30.0002 60.0002Z" fill="#57E690"/>
<path fill-rule="evenodd" clip-rule="evenodd" d="M30.1066 15.0001C34.2491 15.0001 37.9991 16.679 40.7131 19.3935L30.1066 30L19.5 19.3935C22.214 16.6791 25.964 15.0001 30.1066 15.0001Z" fill="#FF6846"/>
<path fill-rule="evenodd" clip-rule="evenodd" d="M29.9998 -0.000218922C21.7159 -0.000218922 14.2159 3.35766 8.78666 8.78662L0 -0.000232655L29.9998 -0.000218922Z" fill="#FF6846"/>
<path fill-rule="evenodd" clip-rule="evenodd" d="M30.0002 -0.000218922C38.2841 -0.000218922 45.7841 3.35766 51.2133 8.78662L60 -0.000232655L30.0002 -0.000218922Z" fill="#FF6846"/>
<path fill-rule="evenodd" clip-rule="evenodd" d="M15.0001 30.1071C15.0001 34.2496 16.679 37.9996 19.3935 40.7136L30 30.1071L19.3935 19.5005C16.6791 22.2145 15.0001 25.9645 15.0001 30.1071Z" fill="#FCC934"/>
<path fill-rule="evenodd" clip-rule="evenodd" d="M0.000270671 30.0003C0.000270309 21.7164 3.35815 14.2164 8.78711 8.78715L0.000255627 0.000488665L0.000270671 30.0003Z" fill="#FCC934"/>
<path fill-rule="evenodd" clip-rule="evenodd" d="M0.000268048 30.0002C0.00026841 38.2841 3.35815 45.7841 8.78711 51.2133L0.000255627 60L0.000268048 30.0002Z" fill="#FCC934"/>
<path fill-rule="evenodd" clip-rule="evenodd" d="M44.9999 30.1071C44.9999 34.2496 43.321 37.9996 40.6065 40.7136L30 30.1071L40.6065 19.5005C43.3209 22.2145 44.9999 25.9645 44.9999 30.1071Z" fill="#1A73E8"/>
<path fill-rule="evenodd" clip-rule="evenodd" d="M59.9997 30.0003C59.9997 21.7164 56.6418 14.2164 51.2129 8.78715L59.9997 0.000488665L59.9997 30.0003Z" fill="#1A73E8"/>
<path fill-rule="evenodd" clip-rule="evenodd" d="M59.9997 30.0002C59.9997 38.2841 56.6419 45.7841 51.2129 51.2133L59.9997 60L59.9997 30.0002Z" fill="#1A73E8"/>
</svg>
