<svg width="100" height="200" viewBox="0 0 100 200" fill="none" xmlns="http://www.w3.org/2000/svg">
<path d="M50 50C77.6133 50 100 72.3857 100 100V0H0C0 22.5128 7.43945 43.2879 19.9941 60.0013C28.3516 53.7214 38.7422 50 50 50Z" fill="#FCC934"/>
<path d="M19.9941 60.002C38.2383 84.2901 67.2852 100.001 100 100.001C100 113.808 94.4043 126.308 85.3555 135.356L50 100.001L0 150.001V100.001C0 83.6454 7.85352 69.1243 19.9941 60.002Z" fill="#FF6846"/>
<path d="M85.3555 135.355L100 150L50 200L0 150H50C63.8066 150 76.3066 144.404 85.3555 135.355Z" fill="#57E690"/>
</svg>
