<svg width="20" height="20" viewBox="0 0 20 20" fill="none" xmlns="http://www.w3.org/2000/svg">
<rect x="0.5" y="0.5" width="19" height="19" rx="9.5" fill="white"/>
<path d="M10.0586 15.3899C9.55861 15.3899 9.06361 15.2899 8.57361 15.0899C8.09361 14.8799 7.66861 14.5699 7.29861 14.1599C6.92861 13.7399 6.66861 13.2249 6.51861 12.6149L8.00361 12.0299C8.13361 12.5699 8.37361 13.0049 8.72361 13.3349C9.08361 13.6649 9.52361 13.8299 10.0436 13.8299C10.6036 13.8299 11.0686 13.6549 11.4386 13.3049C11.8086 12.9449 11.9936 12.4849 11.9936 11.9249C11.9936 11.3649 11.8086 10.9049 11.4386 10.5449C11.0786 10.1749 10.6136 9.9899 10.0436 9.9899C9.72361 9.9899 9.42361 10.0599 9.14361 10.1999C8.86361 10.3399 8.63361 10.5349 8.45361 10.7849L6.81861 10.0649L7.44861 4.8899H13.0286V6.3899H8.82861L8.45361 9.0899L8.54361 9.1049C9.06361 8.6949 9.66861 8.4899 10.3586 8.4899C10.9386 8.4899 11.4786 8.6349 11.9786 8.9249C12.4886 9.2149 12.8936 9.6199 13.1936 10.1399C13.4936 10.6599 13.6436 11.2499 13.6436 11.9099C13.6436 12.5699 13.4886 13.1649 13.1786 13.6949C12.8686 14.2249 12.4386 14.6399 11.8886 14.9399C11.3486 15.2399 10.7386 15.3899 10.0586 15.3899Z" fill="#1A73E8"/>
<rect x="0.5" y="0.5" width="19" height="19" rx="9.5" stroke="#1A73E8"/>
</svg>
