<svg width="20" height="20" viewBox="0 0 20 20" fill="none" xmlns="http://www.w3.org/2000/svg">
<rect x="0.5" y="0.5" width="19" height="19" rx="9.5" fill="white"/>
<path d="M6.74783 13.3399C7.06783 13.0199 7.69783 12.3899 8.63783 11.4499C9.57783 10.4999 10.2028 9.8549 10.5128 9.5149C10.9328 9.0649 11.2178 8.6999 11.3678 8.4199C11.5278 8.1399 11.6078 7.8049 11.6078 7.4149C11.6078 7.0249 11.4578 6.6849 11.1578 6.3949C10.8578 6.1049 10.4528 5.9599 9.94283 5.9599C9.47283 5.9599 9.08783 6.0999 8.78783 6.3799C8.49783 6.6499 8.30783 6.9649 8.21783 7.3249L6.71783 6.7099C6.81783 6.3499 7.00283 5.9949 7.27283 5.6449C7.55283 5.2949 7.92283 4.9999 8.38283 4.7599C8.84283 4.5199 9.37283 4.3999 9.97283 4.3999C10.6228 4.3999 11.1978 4.5349 11.6978 4.8049C12.2078 5.0649 12.5978 5.4249 12.8678 5.8849C13.1478 6.3349 13.2878 6.8349 13.2878 7.3849C13.2878 7.9749 13.1328 8.5449 12.8228 9.0949C12.5228 9.6349 12.1378 10.1399 11.6678 10.6099C11.4678 10.7999 10.9628 11.2999 10.1528 12.1099L8.92283 13.3399L8.95283 13.3999H13.4228V14.8999H6.74783V13.3399Z" fill="#1A73E8"/>
<rect x="0.5" y="0.5" width="19" height="19" rx="9.5" stroke="#1A73E8"/>
</svg>
