<svg width="20" height="20" viewBox="0 0 20 20" fill="none" xmlns="http://www.w3.org/2000/svg">
<rect x="0.5" y="0.5" width="19" height="19" rx="9.5" fill="white"/>
<path d="M8.30998 14.37L10.65 11.115L10.59 11.055C10.32 11.215 9.97998 11.295 9.56998 11.295C9.04998 11.295 8.54498 11.15 8.05498 10.86C7.57498 10.57 7.17998 10.175 6.86998 9.675C6.56998 9.165 6.41998 8.595 6.41998 7.965C6.41998 7.335 6.57998 6.755 6.89998 6.225C7.22998 5.695 7.66498 5.275 8.20498 4.965C8.75498 4.655 9.34498 4.5 9.97498 4.5C10.675 4.5 11.3 4.665 11.85 4.995C12.4 5.315 12.825 5.745 13.125 6.285C13.425 6.825 13.575 7.4 13.575 8.01C13.575 8.6 13.46 9.16 13.23 9.69C13 10.21 12.66 10.8 12.21 11.46L9.61498 15.27L8.30998 14.37ZM9.98998 9.87C10.33 9.87 10.65 9.79 10.95 9.63C11.25 9.46 11.49 9.23 11.67 8.94C11.85 8.64 11.94 8.31 11.94 7.95C11.94 7.59 11.85 7.265 11.67 6.975C11.5 6.685 11.265 6.46 10.965 6.3C10.665 6.13 10.34 6.045 9.98998 6.045C9.64998 6.045 9.32998 6.13 9.02998 6.3C8.72998 6.46 8.48998 6.685 8.30998 6.975C8.13998 7.265 8.05498 7.59 8.05498 7.95C8.05498 8.31 8.14498 8.64 8.32498 8.94C8.50498 9.23 8.73998 9.46 9.02998 9.63C9.32998 9.79 9.64998 9.87 9.98998 9.87Z" fill="#1A73E8"/>
<rect x="0.5" y="0.5" width="19" height="19" rx="9.5" stroke="#1A73E8"/>
</svg>
