<svg width="20" height="20" viewBox="0 0 20 20" fill="none" xmlns="http://www.w3.org/2000/svg">
<rect x="0.5" y="0.5" width="19" height="19" rx="9.5" fill="white"/>
<path d="M10.02 15.24C9.31998 15.24 8.69498 15.08 8.14498 14.76C7.59498 14.43 7.16998 13.995 6.86998 13.455C6.56998 12.915 6.41998 12.34 6.41998 11.73C6.41998 11.14 6.53498 10.585 6.76498 10.065C6.99498 9.535 7.33498 8.94 7.78498 8.28L10.38 4.47L11.685 5.37L9.34498 8.625L9.40498 8.685C9.67498 8.525 10.015 8.445 10.425 8.445C10.945 8.445 11.445 8.59 11.925 8.88C12.415 9.17 12.81 9.57 13.11 10.08C13.42 10.58 13.575 11.145 13.575 11.775C13.575 12.405 13.41 12.985 13.08 13.515C12.76 14.045 12.325 14.465 11.775 14.775C11.235 15.085 10.65 15.24 10.02 15.24ZM10.005 13.695C10.345 13.695 10.665 13.615 10.965 13.455C11.265 13.285 11.5 13.055 11.67 12.765C11.85 12.475 11.94 12.15 11.94 11.79C11.94 11.43 11.85 11.105 11.67 10.815C11.49 10.515 11.25 10.285 10.95 10.125C10.66 9.955 10.345 9.87 10.005 9.87C9.66498 9.87 9.34498 9.955 9.04498 10.125C8.74498 10.285 8.50498 10.515 8.32498 10.815C8.14498 11.105 8.05498 11.43 8.05498 11.79C8.05498 12.15 8.13998 12.475 8.30998 12.765C8.48998 13.055 8.72998 13.285 9.02998 13.455C9.32998 13.615 9.65498 13.695 10.005 13.695Z" fill="#1A73E8"/>
<rect x="0.5" y="0.5" width="19" height="19" rx="9.5" stroke="#1A73E8"/>
</svg>
