<svg width="20" height="20" viewBox="0 0 20 20" fill="none" xmlns="http://www.w3.org/2000/svg">
<rect x="0.5" y="0.5" width="19" height="19" rx="9.5" fill="white"/>
<path d="M9.99766 15.24C9.31766 15.24 8.70266 15.105 8.15266 14.835C7.61266 14.565 7.18766 14.195 6.87766 13.725C6.56766 13.245 6.41266 12.72 6.41266 12.15C6.41266 11.59 6.56266 11.095 6.86266 10.665C7.17266 10.225 7.56266 9.885 8.03266 9.645V9.555C7.66266 9.305 7.35766 8.995 7.11766 8.625C6.87766 8.245 6.75766 7.835 6.75766 7.395C6.75766 6.855 6.89266 6.365 7.16266 5.925C7.44266 5.475 7.82766 5.125 8.31766 4.875C8.81766 4.625 9.37766 4.5 9.99766 4.5C10.6177 4.5 11.1727 4.625 11.6627 4.875C12.1627 5.125 12.5477 5.475 12.8177 5.925C13.0977 6.365 13.2377 6.855 13.2377 7.395C13.2377 7.835 13.1177 8.245 12.8777 8.625C12.6377 8.995 12.3327 9.305 11.9627 9.555V9.645C12.4327 9.885 12.8177 10.225 13.1177 10.665C13.4277 11.095 13.5827 11.59 13.5827 12.15C13.5827 12.72 13.4277 13.245 13.1177 13.725C12.8077 14.195 12.3777 14.565 11.8277 14.835C11.2877 15.105 10.6777 15.24 9.99766 15.24ZM9.99766 8.895C10.4577 8.895 10.8377 8.765 11.1377 8.505C11.4477 8.235 11.6027 7.88 11.6027 7.44C11.6027 7.01 11.4527 6.67 11.1527 6.42C10.8527 6.16 10.4677 6.03 9.99766 6.03C9.52766 6.03 9.14266 6.16 8.84266 6.42C8.54266 6.67 8.39266 7.01 8.39266 7.44C8.39266 7.88 8.54266 8.235 8.84266 8.505C9.15266 8.765 9.53766 8.895 9.99766 8.895ZM9.99766 13.68C10.5477 13.68 11.0027 13.53 11.3627 13.23C11.7327 12.92 11.9177 12.52 11.9177 12.03C11.9177 11.55 11.7327 11.155 11.3627 10.845C11.0027 10.535 10.5477 10.38 9.99766 10.38C9.44766 10.38 8.98766 10.535 8.61766 10.845C8.25766 11.155 8.07766 11.55 8.07766 12.03C8.07766 12.52 8.25766 12.92 8.61766 13.23C8.98766 13.53 9.44766 13.68 9.99766 13.68Z" fill="#1A73E8"/>
<rect x="0.5" y="0.5" width="19" height="19" rx="9.5" stroke="#1A73E8"/>
</svg>
