<svg width="20" height="20" viewBox="0 0 20 20" fill="none" xmlns="http://www.w3.org/2000/svg">
<rect x="0.5" y="0.5" width="19" height="19" rx="9.5" fill="white"/>
<path d="M9.95717 15.24C9.18717 15.24 8.47217 15.02 7.81217 14.58C7.15217 14.13 6.69717 13.475 6.44717 12.615L7.97717 11.985C8.11717 12.515 8.35717 12.925 8.69717 13.215C9.04717 13.505 9.46717 13.65 9.95717 13.65C10.4572 13.65 10.8872 13.5 11.2472 13.2C11.6072 12.89 11.7872 12.5 11.7872 12.03C11.7872 11.55 11.5972 11.16 11.2172 10.86C10.8372 10.55 10.3622 10.395 9.79217 10.395H8.90717V8.88H9.70217C10.1922 8.88 10.6022 8.75 10.9322 8.49C11.2722 8.22 11.4422 7.855 11.4422 7.395C11.4422 6.985 11.2922 6.66 10.9922 6.42C10.6922 6.17 10.3122 6.045 9.85217 6.045C9.40217 6.045 9.04217 6.165 8.77217 6.405C8.51217 6.645 8.32217 6.94 8.20217 7.29L6.68717 6.66C6.88717 6.09 7.25717 5.59 7.79717 5.16C8.33717 4.72 9.02717 4.5 9.86717 4.5C10.4872 4.5 11.0422 4.62 11.5322 4.86C12.0322 5.1 12.4222 5.435 12.7022 5.865C12.9822 6.285 13.1222 6.76 13.1222 7.29C13.1222 7.83 12.9922 8.29 12.7322 8.67C12.4722 9.04 12.1522 9.325 11.7722 9.525V9.615C12.2722 9.825 12.6822 10.145 13.0022 10.575C13.3222 11.005 13.4822 11.52 13.4822 12.12C13.4822 12.72 13.3272 13.255 13.0172 13.725C12.7172 14.195 12.2972 14.565 11.7572 14.835C11.2272 15.105 10.6272 15.24 9.95717 15.24Z" fill="#1A73E8"/>
<rect x="0.5" y="0.5" width="19" height="19" rx="9.5" stroke="#1A73E8"/>
</svg>
