<svg width="945" height="263" viewBox="0 0 945 263" fill="none" xmlns="http://www.w3.org/2000/svg">
<rect width="944.17" height="263" fill="white"/>
<path fill-rule="evenodd" clip-rule="evenodd" d="M215.66 32.8749L235.385 13.1499L255.11 32.8749H235.385C229.938 32.8749 225.007 35.0828 221.437 38.6522L215.66 32.8749Z" fill="#57E690"/>
<path fill-rule="evenodd" clip-rule="evenodd" d="M235.385 52.6L255.11 32.875V52.6C255.11 58.0467 252.902 62.9784 249.333 66.5477L235.385 52.6ZM221.437 66.5477L235.385 52.6L221.437 38.6523C217.868 42.2216 215.66 47.1533 215.66 52.6C215.66 58.0467 217.868 62.9784 221.437 66.5477Z" fill="#1A73E8"/>
<path fill-rule="evenodd" clip-rule="evenodd" d="M221.437 66.5479C225.007 70.1172 229.938 72.3251 235.385 72.3251C240.832 72.3251 245.763 70.1172 249.333 66.5479L255.11 72.3251L235.385 92.0501L215.66 72.3251L221.437 66.5479Z" fill="#FCC934"/>
<path d="M314.285 249.85C303.391 249.85 294.56 241.019 294.56 230.125H334.01V249.85H314.285Z" fill="#1A73E8"/>
<path d="M314.285 170.95C325.178 170.95 334.01 179.781 334.01 190.675L294.56 190.675L294.56 170.95L314.285 170.95Z" fill="#FF6846"/>
<path d="M294.56 190.675C294.56 201.569 303.391 210.4 314.285 210.4C325.179 210.4 334.01 201.569 334.01 190.675V230.125C334.01 219.231 325.179 210.4 314.285 210.4C303.391 210.4 294.56 219.231 294.56 230.125V190.675Z" fill="#FCC934"/>
<path fill-rule="evenodd" clip-rule="evenodd" d="M452.36 32.8751L418.188 32.8751C414.831 27.0724 412.91 20.3359 412.91 13.1501L452.36 13.1501L452.36 32.8751ZM452.36 32.8751L436.122 49.1135C441.074 51.353 446.571 52.6001 452.36 52.6001L452.36 32.8751Z" fill="#57E690"/>
<path fill-rule="evenodd" clip-rule="evenodd" d="M436.186 49.1134L432.699 52.6C421.805 52.5999 412.974 61.4311 412.974 72.3249L412.974 32.8749L418.252 32.8749C422.369 39.9921 428.645 45.7035 436.186 49.1134Z" fill="#FF6846"/>
<path fill-rule="evenodd" clip-rule="evenodd" d="M452.36 72.325C452.36 83.2189 443.529 92.05 432.635 92.05C421.741 92.05 412.91 83.2189 412.91 72.325L432.635 52.6C443.529 52.6 452.36 61.4312 452.36 72.325Z" fill="#1A73E8"/>
<path fill-rule="evenodd" clip-rule="evenodd" d="M779.515 221.954L787.685 230.125L807.41 210.4V249.85H767.96C767.96 238.956 772.376 229.094 779.515 221.954Z" fill="#FF6846"/>
<path fill-rule="evenodd" clip-rule="evenodd" d="M779.515 221.955L767.96 210.4H787.685C793.132 210.4 798.063 208.192 801.633 204.623L807.41 210.4C796.516 210.4 786.654 214.815 779.515 221.955Z" fill="#57E690"/>
<path fill-rule="evenodd" clip-rule="evenodd" d="M767.96 190.675C767.96 179.781 776.791 170.95 787.685 170.95C798.579 170.95 807.41 179.781 807.41 190.675C807.41 196.122 805.202 201.053 801.633 204.623L787.685 190.675L767.96 210.4V190.675Z" fill="#FCC934"/>
<path fill-rule="evenodd" clip-rule="evenodd" d="M215.66 111.775C215.66 115.368 214.699 118.736 213.021 121.638C209.611 115.742 203.236 111.775 195.935 111.775C188.634 111.775 182.259 115.742 178.849 121.638C177.171 118.736 176.21 115.368 176.21 111.775C176.21 100.881 185.041 92.05 195.935 92.05H215.66V111.775Z" fill="#FCC934"/>
<path fill-rule="evenodd" clip-rule="evenodd" d="M181.488 151.225H176.21V131.5C176.21 127.907 177.171 124.539 178.849 121.637C182.259 127.533 188.634 131.5 195.935 131.5C203.236 131.5 209.61 127.533 213.021 121.637C214.699 124.539 215.66 127.907 215.66 131.5C201.058 131.5 188.309 139.433 181.488 151.225Z" fill="#57E690"/>
<path fill-rule="evenodd" clip-rule="evenodd" d="M181.488 151.225H195.935C206.829 151.225 215.66 142.394 215.66 131.5V170.95H176.21C176.21 163.764 178.131 157.028 181.488 151.225Z" fill="#FF6846"/>
<path d="M176.21 230.125H170.932C164.111 218.333 151.362 210.4 136.76 210.4H176.21V230.125Z" fill="#1A73E8"/>
<path d="M176.21 170.95C154.422 170.95 136.76 188.612 136.76 210.4C136.76 199.506 145.591 190.675 156.485 190.675C167.379 190.675 176.21 199.506 176.21 210.4V170.95Z" fill="#57E690"/>
<path d="M136.76 249.85V210.4C136.76 221.294 145.591 230.125 156.485 230.125H170.932C174.289 235.928 176.21 242.664 176.21 249.85H136.76Z" fill="#FCC934"/>
<path d="M629.885 151.225C618.991 151.225 610.16 160.056 610.16 170.95V131.5H649.61L629.885 151.225Z" fill="#1A73E8"/>
<path d="M629.885 151.225L610.16 170.95C610.16 177.402 613.257 183.131 618.047 186.73C625.244 177.148 636.703 170.95 649.61 170.95V151.225H629.885Z" fill="#57E690"/>
<path d="M610.16 210.4C610.16 201.519 613.094 193.323 618.047 186.729C621.344 189.207 625.443 190.675 629.885 190.675C640.778 190.675 649.61 181.844 649.61 170.95V210.4H610.16Z" fill="#FF6846"/>
<path d="M117.035 111.775C127.929 111.775 136.76 102.944 136.76 92.05L136.76 131.5L97.31 131.5L117.035 111.775Z" fill="#1A73E8"/>
<path d="M117.035 111.775L136.76 92.0499C136.76 85.5977 133.663 79.8691 128.873 76.2704C121.676 85.8521 110.217 92.0499 97.3105 92.0499L97.3105 111.775L117.035 111.775Z" fill="#57E690"/>
<path d="M136.76 52.6C136.76 61.4813 133.826 69.6771 128.873 76.2705C125.576 73.7931 121.477 72.325 117.035 72.325C106.142 72.325 97.3105 81.1562 97.3105 92.05L97.3105 52.6L136.76 52.6Z" fill="#FF6846"/>
<path d="M649.61 52.6001V72.3251H669.335L689.06 52.6001H649.61Z" fill="#FF6846"/>
<path d="M649.61 92.0499L669.335 72.325C680.229 72.325 689.06 81.1561 689.06 92.0499H649.61Z" fill="#FCC934"/>
<path d="M649.61 131.5V92.05C649.61 102.944 658.441 111.775 669.335 111.775C680.229 111.775 689.06 102.944 689.06 92.05C689.06 113.838 671.398 131.5 649.61 131.5Z" fill="#1A73E8"/>
<path d="M322.455 83.8797C315.317 76.7407 305.453 72.3251 294.56 72.3251L314.285 52.6001L334.01 72.3251L322.455 83.8797Z" fill="#1A73E8"/>
<path d="M314.285 92.05L294.56 72.325V111.775H314.285L330.523 95.5364C328.548 91.1688 325.801 87.2252 322.455 83.8796L314.285 92.05Z" fill="#FF6846"/>
<path d="M294.56 131.5L314.285 111.775H334.01C334.01 105.986 332.763 100.489 330.523 95.5365L334.01 92.05V111.775V131.5H294.56Z" fill="#57E690"/>
<path d="M740.065 139.67C747.203 146.809 757.067 151.225 767.96 151.225L748.235 170.95L728.51 151.225L740.065 139.67Z" fill="#1A73E8"/>
<path d="M748.235 131.5L767.96 151.225L767.96 111.775L748.235 111.775L731.997 128.014C733.972 132.381 736.719 136.325 740.065 139.67L748.235 131.5Z" fill="#FF6846"/>
<path d="M767.96 92.05L748.235 111.775L728.51 111.775C728.51 117.564 729.757 123.061 731.997 128.014L728.51 131.5L728.51 111.775L728.51 92.05L767.96 92.05Z" fill="#57E690"/>
<path d="M452.36 210.4L472.085 190.675C482.979 190.675 491.81 181.844 491.81 170.95V210.4H452.36Z" fill="#FCC934"/>
<path d="M491.81 131.5L472.085 151.225C461.191 151.225 452.36 160.056 452.36 170.95L452.36 131.5L491.81 131.5Z" fill="#1A73E8"/>
<path d="M472.085 151.225L452.36 170.95C452.36 181.844 461.191 190.675 472.085 190.675L491.81 170.95V151.225H472.085Z" fill="#57E690"/>
<path d="M886.31 170.95C897.203 170.95 907.066 166.534 914.205 159.395L925.76 170.95C914.866 170.95 905.003 175.365 897.864 182.505L886.31 170.95Z" fill="#1A73E8"/>
<path d="M886.31 170.95L906.035 151.225L914.206 159.395C921.344 152.256 925.76 142.394 925.76 131.5L886.31 131.5V170.95Z" fill="#FF6846"/>
<path d="M925.76 170.95L906.035 190.675L897.864 182.505C890.725 189.644 886.31 199.506 886.31 210.4L925.76 210.4L925.76 170.95Z" fill="#57E690"/>
<path d="M393.185 151.225C404.078 151.225 412.91 160.056 412.91 170.95V131.5H373.46C373.46 140.381 376.395 148.577 381.348 155.17C384.645 152.693 388.744 151.225 393.185 151.225Z" fill="#FCC934"/>
<path d="M381.348 155.171C388.545 164.753 400.004 170.95 412.91 170.95C412.91 176.397 410.702 181.328 407.133 184.898L393.185 170.95L373.46 190.675V170.95C373.46 164.498 376.558 158.77 381.348 155.171Z" fill="#FF6846"/>
<path d="M407.133 184.898L412.91 190.676L393.185 210.401L373.46 190.676H393.185C398.632 190.676 403.563 188.468 407.133 184.898Z" fill="#57E690"/>
<path fill-rule="evenodd" clip-rule="evenodd" d="M511.535 52.6001L531.26 72.3251L525.483 78.1025C521.913 74.5329 516.982 72.3251 511.535 72.3251C506.088 72.3251 501.157 74.5329 497.587 78.1025L491.81 72.3251L511.535 52.6001Z" fill="#57E690"/>
<path fill-rule="evenodd" clip-rule="evenodd" d="M511.535 111.775C500.642 111.775 491.81 102.944 491.81 92.0499C491.81 86.603 494.017 81.6718 497.587 78.1023L511.535 92.0499L525.483 78.1023C529.052 81.6718 531.26 86.603 531.26 92.0499L511.535 111.775Z" fill="#FCC934"/>
<path fill-rule="evenodd" clip-rule="evenodd" d="M531.26 111.775H511.535L491.81 131.5H531.26V111.775Z" fill="#FF6846"/>
<path d="M570.71 190.675C570.71 179.781 561.878 170.95 550.985 170.95C540.092 170.95 531.26 179.781 531.26 190.675H570.71Z" fill="#1A73E8"/>
<path d="M531.26 210.4V190.675C531.26 201.569 540.092 210.4 550.985 210.4H570.71V230.125H565.432C558.611 218.333 545.862 210.4 531.26 210.4Z" fill="#FF6846"/>
<path d="M565.432 230.125H531.26V249.85H570.71C570.71 242.664 568.788 235.928 565.432 230.125Z" fill="#FCC934"/>
<path fill-rule="evenodd" clip-rule="evenodd" d="M610.16 71.1416L610.16 92.05L570.71 92.05L591.619 71.1416L610.16 71.1416Z" fill="#1A73E8"/>
<path fill-rule="evenodd" clip-rule="evenodd" d="M570.745 52.5998L610.16 52.5998L591.618 71.1414L590.435 71.1414C579.939 71.1414 571.357 62.9426 570.745 52.5998Z" fill="#57E690"/>
<path fill-rule="evenodd" clip-rule="evenodd" d="M570.71 51.4163L570.71 13.1497L610.16 13.1498L610.16 31.6913L590.435 31.6913C579.541 31.6913 570.71 40.5224 570.71 51.4163Z" fill="#FCC934"/>
<path fill-rule="evenodd" clip-rule="evenodd" d="M18.41 92.05H57.8599V111.775H38.135L18.41 92.05Z" fill="#57E690"/>
<path d="M57.86 131.5L38.135 111.775L18.41 111.775V151.225C18.41 140.331 27.2416 131.5 38.135 131.5C49.0292 131.5 57.86 140.331 57.86 151.225V131.5Z" fill="#FCC934"/>
<path d="M38.135 170.95C27.2416 170.95 18.41 162.119 18.41 151.225L57.86 151.225C57.86 162.119 49.0284 170.95 38.135 170.95Z" fill="#1A73E8"/>
<path fill-rule="evenodd" clip-rule="evenodd" d="M807.41 111.775C807.41 122.669 816.242 131.5 827.135 131.5C838.028 131.5 846.86 122.669 846.86 111.775H807.41ZM827.135 92.05H807.41V111.775L827.135 92.05Z" fill="#1A73E8"/>
<path d="M846.86 72.3249V111.775C846.86 100.881 838.028 92.0499 827.135 92.0499C838.028 92.0499 846.86 83.2187 846.86 72.3249Z" fill="#FCC934"/>
<path d="M807.41 72.325C807.41 83.2189 816.242 92.05 827.135 92.05L846.86 72.325V52.6H827.135C816.242 52.6 807.41 61.4312 807.41 72.325Z" fill="#FF6846"/>
<rect x="393.843" y="33.5325" width="156.485" height="195.935" rx="4.6025" stroke="#1A73E8" stroke-width="1.315"/>
</svg>
